<?xml version="1.0" encoding="utf-8"?>
<!-- Generator: Adobe Illustrator 15.1.0, SVG Export Plug-In . SVG Version: 6.00 Build 0)  -->
<!DOCTYPE svg PUBLIC "-//W3C//DTD SVG 1.1//EN" "http://www.w3.org/Graphics/SVG/1.1/DTD/svg11.dtd">
<svg version="1.1" id="Layer_1" xmlns="http://www.w3.org/2000/svg" xmlns:xlink="http://www.w3.org/1999/xlink" x="0px" y="0px"
	 width="800px" height="600px" viewBox="0 0 800 600" enable-background="new 0 0 800 600" xml:space="preserve">
<g>
	<path d="M259.922,268.399c-0.043,0.015-0.065,0.029-0.065,0.043l-0.174,0.087c-2.016,1.044-4.155,1.566-6.417,1.566
		c-1.784,0-3.368-0.319-4.753-0.957c-1.385-0.638-2.451-1.544-3.198-2.719c-0.747-1.175-1.121-2.538-1.121-4.09
		c0-3.524,2.335-6.613,7.005-9.267l0.152-0.087v-0.087v-0.043c0-1.566,0.239-3.1,0.718-4.601s1.109-2.73,1.893-3.688
		c1.421-1.726,2.98-2.588,4.677-2.588c0.914,0,1.657,0.265,2.229,0.794s0.859,1.186,0.859,1.969c0,1.755-1.312,3.473-3.938,5.156
		c-0.435,0.29-1.248,0.769-2.437,1.436c-1.291,0.711-2.139,1.167-2.545,1.371c0.058,1.305,0.395,2.799,1.012,4.481
		c0.616,1.683,1.367,3.169,2.251,4.46c1.349,1.972,3.045,3.706,5.09,5.199c1.015-0.725,1.921-1.57,2.719-2.535
		c0.797-0.964,1.425-1.958,1.882-2.98c0.457-1.022,0.685-1.983,0.685-2.882c0-0.928-0.243-1.679-0.729-2.252
		c-0.486-0.573-1.113-0.859-1.881-0.859c-2.031,0-3.539,1.776-4.525,5.33l-1.131-1.675c0.275-0.942,0.686-1.784,1.229-2.523
		c0.544-0.739,1.175-1.312,1.893-1.718c0.718-0.406,1.461-0.609,2.23-0.609c0.696,0,1.327,0.174,1.893,0.522
		c0.565,0.348,1.012,0.834,1.338,1.458c0.326,0.624,0.489,1.313,0.489,2.067c0,0.74-0.138,1.512-0.413,2.317
		c-0.276,0.805-0.653,1.599-1.131,2.382s-1.077,1.566-1.794,2.35c-0.718,0.783-1.447,1.443-2.187,1.979l0.109,0.065
		c1.479,0.928,2.973,1.392,4.481,1.392c1.16,0,2.15-0.225,2.969-0.674c0.819-0.449,1.649-1.211,2.491-2.284l0.305,0.348
		c-1.726,2.625-3.974,3.938-6.744,3.938C263.483,269.987,261.677,269.458,259.922,268.399z M259.248,267.986
		c-2.219-1.45-4.032-3.44-5.438-5.972c-1.407-2.53-2.219-5.282-2.437-8.255l-0.021-0.109c-3.249,2.074-4.873,4.598-4.873,7.57
		c0,2.219,0.776,4.064,2.328,5.537s3.495,2.208,5.83,2.208C256.246,268.965,257.783,268.638,259.248,267.986z M252.809,252.083
		c2.074-1.102,3.64-2.066,4.699-2.893c0.797-0.595,1.436-1.294,1.915-2.099c0.479-0.805,0.718-1.57,0.718-2.295
		c0-0.623-0.192-1.109-0.577-1.458c-0.384-0.348-0.896-0.522-1.534-0.522c-0.928,0-1.794,0.381-2.6,1.142
		c-0.805,0.762-1.446,1.784-1.925,3.067c-0.479,1.284-0.718,2.658-0.718,4.123v0.565L252.809,252.083z"/>
</g>
<g>
	<path d="M89.641,240.927c0-0.396,0.259-0.617,0.778-0.667c0.321-0.024,0.648,0.019,0.981,0.13c0.333,0.11,0.636,0.277,0.908,0.5
		c0.271,0.222,0.494,0.494,0.667,0.814c0.172,0.321,0.259,0.68,0.259,1.074c0,0.74-0.173,1.438-0.519,2.093
		c-0.346,0.654-0.791,1.223-1.333,1.704c-0.543,0.481-1.161,0.864-1.852,1.147c-0.691,0.284-1.383,0.427-2.074,0.427
		c-0.939,0-1.828-0.21-2.667-0.63c-0.84-0.42-1.568-0.976-2.186-1.667s-1.105-1.457-1.463-2.297
		c-0.358-0.839-0.537-1.69-0.537-2.556c0-1.333,0.327-2.506,0.981-3.519c0.654-1.012,1.5-1.852,2.537-2.519s2.21-1.16,3.519-1.481
		c1.309-0.32,2.63-0.444,3.963-0.37c2.914,0.147,5.445,0.487,7.593,1.019s4.074,1.147,5.778,1.852
		c1.704,0.704,3.271,1.444,4.704,2.223c1.432,0.777,2.901,1.5,4.408,2.167c0.148,0.05,0.253,0.129,0.314,0.24
		s0.086,0.217,0.074,0.315c-0.013,0.099-0.056,0.166-0.129,0.203c-0.074,0.037-0.173,0.007-0.296-0.093
		c-0.445-0.147-1.087-0.413-1.926-0.796c-0.84-0.383-1.722-0.797-2.648-1.241c-0.926-0.444-1.828-0.883-2.704-1.314
		c-0.877-0.432-1.574-0.771-2.093-1.019c-0.05,0.396-0.093,0.987-0.13,1.777c-0.037,0.791-0.074,1.723-0.111,2.797
		s-0.074,2.247-0.111,3.519c-0.037,1.272-0.092,2.568-0.167,3.89s-0.161,2.624-0.259,3.907c-0.099,1.284-0.235,2.481-0.407,3.593
		c-0.272,1.729-0.661,3.334-1.167,4.815c-0.506,1.481-1.173,2.79-2,3.926c-0.828,1.137-1.833,2.068-3.019,2.797
		c-1.185,0.729-2.568,1.191-4.148,1.389c-1.407,0.173-2.828,0.074-4.259-0.296c-1.433-0.371-2.723-0.95-3.871-1.741
		c-1.148-0.79-2.087-1.765-2.815-2.926c-0.729-1.161-1.093-2.445-1.093-3.853c0-0.567,0.123-1.117,0.371-1.648
		c0.246-0.53,0.574-1.006,0.981-1.426c0.407-0.42,0.876-0.753,1.407-1c0.531-0.246,1.08-0.37,1.648-0.37
		c0.667,0,1.204,0.229,1.611,0.685c0.407,0.458,0.642,0.977,0.704,1.556c0.062,0.581-0.087,1.137-0.444,1.667
		c-0.358,0.531-0.958,0.858-1.796,0.981c-0.222,0-0.365-0.086-0.426-0.259c-0.062-0.173,0.019-0.247,0.241-0.223
		c0.642-0.049,1.117-0.283,1.426-0.703c0.309-0.42,0.463-0.864,0.463-1.334c0-0.469-0.148-0.895-0.444-1.277
		s-0.741-0.574-1.333-0.574c-0.494,0-0.963,0.117-1.408,0.352c-0.444,0.235-0.839,0.537-1.185,0.907
		c-0.346,0.371-0.624,0.791-0.833,1.26c-0.21,0.469-0.315,0.951-0.315,1.444c0,1.111,0.339,2.186,1.019,3.223
		s1.538,1.933,2.575,2.686s2.172,1.321,3.407,1.703c1.235,0.384,2.395,0.477,3.482,0.278c0.913-0.173,1.809-0.537,2.686-1.093
		c0.876-0.556,1.697-1.339,2.463-2.353c0.765-1.012,1.457-2.283,2.074-3.814c0.617-1.531,1.124-3.358,1.519-5.482
		c0.197-1.086,0.401-2.339,0.611-3.759c0.209-1.42,0.407-2.964,0.592-4.63c0.186-1.667,0.339-3.433,0.463-5.297
		c0.123-1.864,0.197-3.784,0.222-5.76c-0.791-0.296-1.593-0.58-2.408-0.852s-1.667-0.513-2.556-0.723
		c-0.889-0.209-1.84-0.383-2.852-0.519c-1.013-0.136-2.111-0.228-3.296-0.277c-1.087-0.05-2.217,0.055-3.389,0.314
		c-1.173,0.259-2.248,0.686-3.223,1.278c-0.976,0.592-1.778,1.37-2.407,2.333c-0.63,0.963-0.933,2.124-0.908,3.481
		c0,0.741,0.135,1.5,0.408,2.278c0.271,0.777,0.654,1.494,1.148,2.148c0.494,0.654,1.08,1.185,1.759,1.593
		c0.679,0.407,1.438,0.61,2.278,0.61c0.592,0,1.197-0.135,1.814-0.407c0.617-0.271,1.173-0.63,1.667-1.074
		c0.494-0.444,0.895-0.95,1.204-1.519c0.309-0.567,0.463-1.148,0.463-1.74c0-0.617-0.18-1.117-0.537-1.5
		c-0.358-0.383-0.809-0.574-1.352-0.574c0,0.197-0.056,0.357-0.167,0.481c-0.111,0.124-0.241,0.185-0.389,0.185
		C89.813,241.519,89.641,241.321,89.641,240.927z"/>
	<path d="M122.754,250.668c-0.42,0-0.791,0.147-1.111,0.444c-0.321,0.296-0.605,0.685-0.852,1.167
		c-0.247,0.481-0.444,1.019-0.593,1.61c-0.148,0.593-0.272,1.18-0.37,1.76c-0.099,0.58-0.167,1.13-0.204,1.648
		s-0.055,0.926-0.055,1.223c-0.05,0.642-0.074,1.357-0.074,2.147c0,0.791,0.019,1.624,0.056,2.501
		c0.037,0.876,0.098,1.771,0.185,2.685c0.086,0.914,0.216,1.791,0.389,2.63c0,0.198-0.08,0.358-0.241,0.481
		c-0.161,0.124-0.352,0.186-0.574,0.186c-0.223,0-0.445-0.056-0.667-0.167c-0.222-0.11-0.407-0.314-0.556-0.611
		c-0.494-2.098-0.944-4.24-1.352-6.426c-0.407-2.186-0.957-4.401-1.648-6.648c-0.543-1.753-1.013-3.513-1.408-5.278
		c-0.395-1.766-0.654-3.55-0.778-5.353c0-0.543,0.025-1.197,0.074-1.963c0.05-0.765,0.179-1.5,0.389-2.204
		c0.209-0.703,0.524-1.309,0.944-1.814c0.419-0.506,1.012-0.76,1.778-0.76c0.691,0,1.241,0.229,1.648,0.686
		c0.407,0.457,0.722,0.994,0.944,1.611s0.371,1.235,0.444,1.852c0.074,0.618,0.124,1.087,0.148,1.408
		c-0.025,1.21-0.148,2.333-0.371,3.37s-0.476,2.007-0.759,2.907c-0.284,0.902-0.55,1.741-0.796,2.52
		c-0.247,0.777-0.407,1.513-0.481,2.203v0.111l2.037,5.63c-0.025-0.32-0.037-0.783-0.037-1.389c0-0.604,0.043-1.271,0.13-2
		c0.086-0.729,0.216-1.476,0.389-2.241c0.172-0.765,0.42-1.469,0.741-2.111c0.321-0.642,0.723-1.172,1.204-1.593
		c0.481-0.419,1.068-0.666,1.759-0.74c1.062,0,1.95,0.229,2.667,0.685c0.716,0.458,1.278,1.068,1.685,1.834
		c0.408,0.766,0.679,1.661,0.815,2.686c0.135,1.024,0.154,2.093,0.056,3.203c0,0.421-0.043,0.977-0.13,1.667
		c-0.087,0.691-0.173,1.433-0.259,2.223c-0.087,0.79-0.142,1.587-0.167,2.389c-0.025,0.803,0.031,1.5,0.167,2.093
		s0.383,1.05,0.741,1.371s0.871,0.407,1.537,0.259c0.494-0.099,0.982-0.37,1.463-0.814s0.981-1.143,1.5-2.093s1.062-2.21,1.63-3.778
		c0.567-1.567,1.185-3.524,1.852-5.871c0.024-0.098,0.092-0.166,0.204-0.203c0.111-0.037,0.204,0.068,0.278,0.314
		c-0.198,0.494-0.414,1.167-0.648,2.019c-0.235,0.853-0.513,1.766-0.833,2.741s-0.679,1.963-1.074,2.963
		c-0.396,1-0.84,1.902-1.333,2.704c-0.495,0.803-1.05,1.457-1.667,1.963c-0.618,0.507-1.296,0.747-2.037,0.723
		c-0.691-0.024-1.229-0.241-1.611-0.648s-0.661-0.92-0.833-1.537s-0.266-1.314-0.277-2.093c-0.013-0.777,0.012-1.537,0.074-2.278
		c0.062-0.74,0.13-1.432,0.204-2.074c0.074-0.642,0.111-1.147,0.111-1.519c-0.05-1.753-0.204-3.179-0.463-4.277
		s-0.599-1.95-1.019-2.556c-0.42-0.605-0.889-1.019-1.408-1.241S123.273,250.668,122.754,250.668z M115.162,244.815
		c0,1.383,0.067,2.821,0.204,4.315c0.135,1.494,0.487,2.87,1.056,4.13c0.197-0.741,0.432-1.524,0.704-2.353
		c0.271-0.827,0.524-1.667,0.759-2.519c0.234-0.852,0.432-1.71,0.593-2.574c0.16-0.864,0.241-1.716,0.241-2.556
		c0-0.173-0.025-0.5-0.074-0.981c-0.05-0.481-0.142-0.981-0.278-1.5s-0.309-0.976-0.519-1.371c-0.21-0.395-0.476-0.592-0.796-0.592
		c-0.321,0-0.599,0.284-0.833,0.852c-0.235,0.568-0.432,1.204-0.592,1.907c-0.161,0.704-0.278,1.377-0.352,2.019
		C115.198,244.235,115.162,244.643,115.162,244.815z"/>
	<path d="M143.904,265.483c-0.716,0.568-1.451,1.05-2.204,1.444c-0.753,0.396-1.599,0.593-2.537,0.593
		c-0.766,0-1.444-0.148-2.037-0.444s-1.093-0.697-1.5-1.204c-0.408-0.506-0.722-1.086-0.944-1.74
		c-0.223-0.654-0.333-1.353-0.333-2.093c-0.025-1.037,0.098-2.08,0.37-3.13c0.271-1.05,0.673-1.994,1.204-2.834
		c0.531-0.839,1.179-1.519,1.944-2.037c0.765-0.519,1.642-0.777,2.63-0.777c0.741,0,1.352,0.142,1.833,0.426
		s1.006,0.673,1.574,1.167c0.098-0.223,0.247-0.401,0.444-0.537c0.197-0.136,0.389-0.197,0.574-0.186
		c0.185,0.013,0.352,0.093,0.5,0.241c0.148,0.147,0.234,0.383,0.259,0.703c-0.074,1.531-0.161,2.958-0.259,4.278
		c-0.099,1.321-0.173,2.488-0.222,3.5c-0.05,2.1,0.049,3.574,0.296,4.427c0.247,0.852,0.765,1.142,1.556,0.87
		c0.395-0.123,0.796-0.444,1.204-0.963c0.408-0.519,0.821-1.154,1.241-1.908c0.42-0.753,0.827-1.586,1.223-2.5
		c0.395-0.913,0.778-1.82,1.148-2.722c0.371-0.901,0.716-1.76,1.037-2.574c0.321-0.815,0.605-1.507,0.852-2.074
		c0.098,0.049,0.179,0.117,0.241,0.203c0.062,0.087,0.062,0.291,0,0.611c-0.062,0.321-0.204,0.784-0.426,1.389
		c-0.223,0.605-0.556,1.451-1,2.537c-0.222,0.371-0.451,0.834-0.685,1.39c-0.235,0.556-0.5,1.16-0.796,1.814
		s-0.611,1.31-0.944,1.963c-0.333,0.655-0.71,1.247-1.13,1.778c-0.42,0.531-0.877,0.976-1.371,1.333
		c-0.494,0.358-1.037,0.55-1.629,0.574c-0.469,0-0.833-0.116-1.093-0.352c-0.259-0.234-0.457-0.524-0.593-0.87
		s-0.235-0.729-0.296-1.148S143.928,265.829,143.904,265.483z M136.792,261.224c0,0.421,0.037,0.951,0.111,1.593
		c0.074,0.643,0.209,1.26,0.407,1.853c0.198,0.592,0.487,1.105,0.871,1.537c0.383,0.432,0.895,0.647,1.537,0.647
		c0.321,0,0.709-0.073,1.167-0.222c0.457-0.148,0.895-0.346,1.315-0.593c0.419-0.246,0.79-0.53,1.111-0.852
		c0.321-0.321,0.519-0.667,0.593-1.037c0.074-0.815,0.129-1.506,0.167-2.074s0.056-1.21,0.056-1.927c0-0.69-0.019-1.32-0.056-1.889
		c-0.037-0.567-0.092-1.26-0.167-2.074c-0.272-0.667-0.673-1.21-1.204-1.63c-0.531-0.419-1.155-0.63-1.871-0.63
		c-0.791,0-1.445,0.272-1.963,0.815s-0.932,1.198-1.241,1.963c-0.309,0.766-0.525,1.562-0.648,2.389
		C136.854,259.922,136.792,260.631,136.792,261.224z"/>
	<path d="M153.275,254.891c0.172-0.223,0.346-0.327,0.519-0.315c0.172,0.013,0.327,0.093,0.463,0.241
		c0.136,0.147,0.247,0.34,0.333,0.574c0.086,0.234,0.142,0.463,0.167,0.685c0.049,0.593,0.067,1.087,0.055,1.481
		c-0.013,0.396-0.031,0.729-0.055,1c-0.025,0.272-0.037,0.531-0.037,0.778s0.037,0.519,0.111,0.814
		c0.222-0.69,0.457-1.53,0.704-2.519c0.246-0.987,0.574-1.932,0.981-2.833c0.407-0.901,0.932-1.673,1.574-2.315
		c0.642-0.642,1.481-0.975,2.519-1c0.691,0,1.253,0.191,1.685,0.574s0.79,0.852,1.074,1.407c0.284,0.556,0.506,1.155,0.667,1.797
		c0.16,0.643,0.327,1.222,0.5,1.74c0.098-0.395,0.271-0.9,0.519-1.519c0.247-0.616,0.543-1.209,0.889-1.777s0.747-1.056,1.204-1.463
		c0.457-0.408,0.957-0.624,1.5-0.648c0.913,0,1.648,0.296,2.204,0.889c0.556,0.593,0.982,1.334,1.278,2.223
		c0.296,0.889,0.487,1.852,0.574,2.889c0.086,1.037,0.13,2,0.13,2.89c0,0.222,0,0.66,0,1.314s0.037,1.328,0.111,2.019
		c0.074,0.691,0.209,1.321,0.408,1.89c0.197,0.568,0.506,0.864,0.926,0.889c0.716-0.099,1.327-0.55,1.833-1.352
		c0.506-0.803,0.963-1.741,1.371-2.815c0.407-1.074,0.784-2.179,1.129-3.315c0.346-1.135,0.716-2.074,1.111-2.814
		c0.099-0.099,0.179-0.123,0.241-0.074c0.062,0.05,0.099,0.136,0.111,0.259c0.012,0.124,0,0.26-0.037,0.408
		c-0.037,0.147-0.081,0.284-0.13,0.407c-0.395,1.062-0.784,2.186-1.167,3.37c-0.383,1.186-0.803,2.284-1.259,3.297
		c-0.458,1.013-0.97,1.846-1.537,2.5c-0.568,0.654-1.248,0.981-2.037,0.981c-0.618,0.05-1.111-0.067-1.482-0.352
		c-0.37-0.283-0.654-0.66-0.852-1.13c-0.198-0.469-0.333-1-0.408-1.593s-0.111-1.197-0.111-1.814s0.005-1.204,0.018-1.76
		c0.012-0.556,0.006-1.019-0.018-1.389c-0.074-0.963-0.161-1.834-0.259-2.611c-0.099-0.778-0.229-1.457-0.389-2.037
		c-0.161-0.58-0.389-1.068-0.685-1.463c-0.296-0.396-0.68-0.704-1.148-0.927c-0.346,0-0.679,0.155-1,0.463
		c-0.321,0.31-0.624,0.698-0.907,1.167c-0.284,0.47-0.543,0.994-0.778,1.574c-0.235,0.581-0.433,1.143-0.593,1.686
		c-0.161,0.543-0.284,1.037-0.371,1.481c-0.087,0.444-0.129,0.766-0.129,0.963c0,0.988,0.08,2.05,0.241,3.186
		c0.16,1.136,0.241,2.186,0.241,3.148c0,0.198,0.006,0.42,0.019,0.667c0.012,0.247-0.006,0.481-0.056,0.703
		c-0.05,0.223-0.143,0.408-0.278,0.556c-0.136,0.148-0.34,0.223-0.611,0.223c-0.296,0-0.531-0.068-0.704-0.204
		c-0.173-0.135-0.303-0.314-0.389-0.537c-0.087-0.222-0.143-0.463-0.167-0.722c-0.025-0.26-0.05-0.524-0.074-0.797
		c0-1.111,0.019-2.37,0.055-3.778c0.037-1.407-0.013-2.777-0.148-4.111c-0.136-1.333-0.389-2.519-0.759-3.556
		c-0.371-1.037-0.939-1.74-1.704-2.111c-0.643,0.025-1.198,0.235-1.667,0.63c-0.469,0.396-0.877,0.901-1.222,1.519
		c-0.346,0.618-0.63,1.31-0.852,2.074c-0.222,0.766-0.42,1.531-0.593,2.297c-0.173,0.766-0.328,1.5-0.463,2.204
		c-0.136,0.703-0.266,1.303-0.389,1.796v0.111c-0.05,0.74-0.13,1.444-0.241,2.111c-0.111,0.666-0.191,1.383-0.241,2.148
		c0,0.073,0.006,0.185,0.019,0.333c0.012,0.148,0.006,0.309-0.019,0.481c-0.025,0.173-0.074,0.321-0.148,0.444
		c-0.074,0.124-0.198,0.186-0.371,0.186c-0.346,0-0.586-0.241-0.722-0.723s-0.222-1.037-0.259-1.667
		c-0.037-0.629-0.043-1.253-0.019-1.87c0.024-0.617,0.037-1.062,0.037-1.333c-0.025-0.815-0.05-1.55-0.074-2.204
		c-0.025-0.654-0.043-1.284-0.055-1.889c-0.013-0.605-0.013-1.235,0-1.89C153.195,256.478,153.225,255.729,153.275,254.891z"/>
	<path d="M179.202,256.409c0.049-0.42,0.124-0.834,0.223-1.241c0.098-0.407,0.228-0.76,0.389-1.056
		c0.16-0.296,0.339-0.512,0.537-0.648c0.197-0.135,0.432-0.153,0.704-0.056c0.321,0.074,0.519,0.358,0.593,0.853
		s0.08,1.111,0.019,1.852c-0.062,0.741-0.161,1.581-0.296,2.519c-0.136,0.939-0.259,1.884-0.371,2.834
		c-0.111,0.951-0.179,1.877-0.204,2.777c-0.025,0.902,0.043,1.686,0.204,2.353s0.438,1.191,0.833,1.574s0.963,0.537,1.704,0.463
		c0.519,0,1.037-0.265,1.556-0.796s1.024-1.21,1.519-2.038c0.494-0.826,0.963-1.746,1.407-2.759c0.445-1.013,0.858-2,1.241-2.963
		c0.382-0.964,0.709-1.834,0.981-2.611c0.271-0.778,0.494-1.364,0.667-1.76c0.049-0.099,0.099-0.074,0.148,0.074
		c0.049,0.148,0.123,0.222,0.222,0.222c-0.173,0.766-0.426,1.637-0.759,2.611c-0.333,0.977-0.704,1.97-1.111,2.982
		s-0.858,2-1.352,2.963c-0.494,0.963-1.006,1.809-1.537,2.537c-0.531,0.729-1.068,1.303-1.611,1.723
		c-0.543,0.42-1.074,0.579-1.592,0.481c-1.31,0.024-2.285-0.346-2.926-1.111c-0.643-0.766-1.074-1.76-1.296-2.981
		c-0.222-1.223-0.291-2.605-0.204-4.148C178.974,259.515,179.079,257.965,179.202,256.409z M179.758,249.187
		c-0.099-0.148-0.129-0.353-0.092-0.611c0.037-0.26,0.129-0.506,0.278-0.741c0.148-0.234,0.345-0.444,0.592-0.63
		c0.247-0.185,0.543-0.277,0.889-0.277c0.271,0,0.469,0.087,0.593,0.259c0.123,0.174,0.197,0.358,0.222,0.556
		c0.024,0.421-0.143,0.828-0.5,1.223c-0.358,0.396-0.759,0.593-1.204,0.593C180.189,249.557,179.93,249.434,179.758,249.187z"/>
	<path d="M190.24,254.594c0.074-0.148,0.228-0.228,0.463-0.24c0.234-0.013,0.469,0.055,0.704,0.203
		c0.234,0.148,0.426,0.383,0.574,0.704c0.148,0.321,0.16,0.729,0.037,1.222c0.271,0.174,0.617,0.315,1.037,0.427
		c0.419,0.11,0.839,0.203,1.259,0.277c0.419,0.074,0.827,0.136,1.222,0.186c0.395,0.05,0.716,0.099,0.963,0.147
		c0.172,0,0.327,0.044,0.463,0.13c0.136,0.087,0.253,0.186,0.352,0.297c0.099,0.11,0.172,0.222,0.222,0.333
		c0.049,0.111,0.074,0.18,0.074,0.204c-0.198,1.037-0.506,2.16-0.926,3.37c-0.42,1.21-0.754,2.556-1,4.037c0,0.272,0,0.537,0,0.797
		c0,0.259,0.037,0.494,0.111,0.703c0.074,0.21,0.197,0.377,0.371,0.5c0.172,0.124,0.432,0.186,0.778,0.186
		c0.567-0.099,1.16-0.395,1.778-0.889c0.617-0.494,1.228-1.117,1.833-1.871c0.604-0.753,1.197-1.574,1.778-2.463
		c0.58-0.889,1.123-1.777,1.629-2.667c0.506-0.889,0.957-1.722,1.352-2.5c0.395-0.777,0.716-1.426,0.963-1.944
		c0.024-0.049,0.037,0.006,0.037,0.167c0,0.16,0.062,0.302,0.186,0.426c-0.223,0.543-0.537,1.234-0.945,2.074
		c-0.407,0.84-0.883,1.722-1.426,2.648c-0.543,0.926-1.13,1.858-1.759,2.796c-0.63,0.938-1.272,1.778-1.926,2.519
		c-0.655,0.741-1.303,1.334-1.945,1.778s-1.235,0.643-1.778,0.593c-0.864,0-1.562-0.278-2.093-0.834
		c-0.531-0.556-0.71-1.45-0.537-2.685l1.074-7.334c-0.791-0.247-1.531-0.457-2.222-0.63c-0.691-0.173-1.272-0.37-1.741-0.593
		c-0.47-0.222-0.803-0.493-1-0.814C190.005,255.532,190.018,255.112,190.24,254.594z"/>
	<path d="M205.352,256.409c0.049-0.42,0.124-0.834,0.223-1.241c0.098-0.407,0.228-0.76,0.389-1.056
		c0.16-0.296,0.339-0.512,0.537-0.648c0.197-0.135,0.432-0.153,0.704-0.056c0.321,0.074,0.519,0.358,0.593,0.853
		s0.08,1.111,0.019,1.852c-0.062,0.741-0.161,1.581-0.296,2.519c-0.136,0.939-0.259,1.884-0.371,2.834
		c-0.111,0.951-0.179,1.877-0.204,2.777c-0.025,0.902,0.043,1.686,0.204,2.353s0.438,1.191,0.833,1.574s0.963,0.537,1.704,0.463
		c0.519,0,1.037-0.265,1.556-0.796s1.024-1.21,1.519-2.038c0.494-0.826,0.963-1.746,1.407-2.759c0.445-1.013,0.858-2,1.241-2.963
		c0.382-0.964,0.709-1.834,0.981-2.611c0.271-0.778,0.494-1.364,0.667-1.76c0.049-0.099,0.099-0.074,0.148,0.074
		c0.049,0.148,0.123,0.222,0.222,0.222c-0.173,0.766-0.426,1.637-0.759,2.611c-0.333,0.977-0.704,1.97-1.111,2.982
		s-0.858,2-1.352,2.963c-0.494,0.963-1.006,1.809-1.537,2.537c-0.531,0.729-1.068,1.303-1.611,1.723
		c-0.543,0.42-1.074,0.579-1.592,0.481c-1.31,0.024-2.285-0.346-2.926-1.111c-0.643-0.766-1.074-1.76-1.296-2.981
		c-0.222-1.223-0.291-2.605-0.204-4.148C205.124,259.515,205.229,257.965,205.352,256.409z M205.908,249.187
		c-0.099-0.148-0.129-0.353-0.092-0.611c0.037-0.26,0.129-0.506,0.278-0.741c0.148-0.234,0.345-0.444,0.592-0.63
		c0.247-0.185,0.543-0.277,0.889-0.277c0.271,0,0.469,0.087,0.593,0.259c0.123,0.174,0.197,0.358,0.222,0.556
		c0.024,0.421-0.143,0.828-0.5,1.223c-0.358,0.396-0.759,0.593-1.204,0.593C206.339,249.557,206.08,249.434,205.908,249.187z"/>
	<path d="M224.502,269.409c-0.865,0-1.63-0.19-2.296-0.573s-1.21-0.877-1.63-1.482c-0.42-0.604-0.704-1.283-0.852-2.037
		c-0.148-0.753-0.143-1.512,0.018-2.277s0.476-1.487,0.945-2.167c0.469-0.679,1.111-1.241,1.926-1.686
		c-0.074-0.024-0.314-0.142-0.722-0.352c-0.407-0.21-0.865-0.444-1.371-0.704c-0.506-0.259-0.994-0.519-1.463-0.777
		c-0.469-0.26-0.803-0.45-1-0.574c-0.198-0.099-0.407-0.216-0.63-0.352c-0.222-0.136-0.426-0.29-0.611-0.464
		c-0.186-0.172-0.328-0.37-0.426-0.592c-0.099-0.223-0.124-0.469-0.074-0.741c0.098-0.32,0.247-0.53,0.444-0.63
		c0.197-0.099,0.371-0.116,0.519-0.056c0.148,0.062,0.253,0.186,0.315,0.371c0.061,0.185,0.031,0.413-0.093,0.685
		c-0.099,0.198-0.006,0.444,0.278,0.741c0.284,0.296,0.697,0.611,1.241,0.944c0.543,0.333,1.186,0.68,1.926,1.037
		c0.741,0.358,1.519,0.723,2.333,1.093c0.667-0.296,1.475-0.611,2.426-0.944c0.951-0.334,1.889-0.648,2.815-0.944
		c0.926-0.297,1.765-0.556,2.519-0.778c0.753-0.222,1.265-0.37,1.537-0.444c0.049,0,0.154,0.006,0.315,0.019
		c0.16,0.013,0.204,0.08,0.129,0.204c-0.395,0.073-1.013,0.234-1.852,0.481c-0.84,0.247-1.735,0.524-2.685,0.833
		c-0.951,0.309-1.871,0.63-2.76,0.963c-0.889,0.333-1.556,0.611-2,0.834c0.469,0.147,0.975,0.376,1.519,0.685
		c0.543,0.31,1.049,0.691,1.519,1.148c0.469,0.457,0.871,0.976,1.204,1.556c0.333,0.58,0.524,1.217,0.574,1.907
		c0.124,1.605-0.161,2.853-0.852,3.741C226.996,268.965,225.934,269.409,224.502,269.409z M223.058,259.335
		c-0.667,0.37-1.198,0.858-1.593,1.463c-0.396,0.605-0.673,1.26-0.833,1.963c-0.161,0.704-0.198,1.414-0.111,2.13
		c0.086,0.717,0.284,1.371,0.593,1.963c0.309,0.593,0.728,1.081,1.259,1.464c0.531,0.383,1.167,0.587,1.908,0.61
		c0.444,0.025,0.796-0.116,1.056-0.426c0.259-0.309,0.45-0.69,0.574-1.148c0.123-0.456,0.197-0.938,0.222-1.444
		c0.024-0.506,0.037-0.944,0.037-1.314c0-0.469-0.074-0.969-0.223-1.5c-0.148-0.531-0.358-1.043-0.629-1.537
		c-0.272-0.494-0.599-0.938-0.981-1.334C223.952,259.829,223.526,259.533,223.058,259.335z"/>
	<path d="M307.581,247.445c-1.013,1.58-1.876,2.92-2.593,4.019c-0.716,1.1-1.315,2.025-1.796,2.778s-0.864,1.352-1.148,1.796
		c-0.284,0.444-0.5,0.797-0.648,1.056c-0.148,0.26-0.247,0.444-0.296,0.556c-0.05,0.111-0.074,0.217-0.074,0.315
		c0.395,0.938,0.796,1.858,1.204,2.759c0.407,0.902,0.734,1.921,0.981,3.056c0.148,0.667,0.234,1.303,0.259,1.908
		c0.024,0.605-0.037,1.154-0.185,1.647c-0.148,0.495-0.389,0.902-0.722,1.223c-0.333,0.321-0.796,0.519-1.389,0.593
		c-1.087,0.123-1.877-0.154-2.371-0.833c-0.494-0.68-0.784-1.543-0.87-2.593c-0.087-1.05-0.006-2.154,0.241-3.315
		c0.247-1.16,0.567-2.16,0.963-3l-4.074-7.445c-0.173,0.717-0.315,1.673-0.426,2.871c-0.111,1.197-0.247,2.481-0.407,3.852
		c-0.161,1.371-0.365,2.766-0.611,4.186c-0.247,1.42-0.592,2.71-1.037,3.871c-0.444,1.16-1.013,2.117-1.704,2.87
		c-0.691,0.753-1.543,1.167-2.556,1.241c-0.84,0.049-1.537-0.155-2.093-0.611c-0.556-0.457-1-1.037-1.333-1.741
		c-0.333-0.703-0.574-1.463-0.722-2.277c-0.148-0.815-0.222-1.543-0.222-2.186c0-0.494,0.061-1.043,0.185-1.648
		c0.123-0.604,0.321-1.173,0.593-1.704c0.271-0.53,0.623-0.975,1.056-1.333c0.432-0.357,0.969-0.537,1.611-0.537
		c0.741,0,1.284,0.284,1.63,0.852c0.346,0.568,0.519,1.186,0.519,1.853c0,0.494-0.154,0.969-0.463,1.426
		c-0.309,0.457-0.673,0.71-1.093,0.759c-0.025,0-0.068-0.023-0.129-0.073c-0.062-0.05-0.093-0.099-0.093-0.148
		c0.271-0.123,0.58-0.364,0.926-0.723c0.346-0.357,0.519-0.833,0.519-1.426c0-0.223-0.037-0.463-0.111-0.723
		c-0.074-0.259-0.185-0.5-0.333-0.722c-0.148-0.223-0.328-0.401-0.537-0.537c-0.21-0.136-0.463-0.179-0.759-0.13
		c-0.395,0.074-0.704,0.303-0.926,0.686s-0.389,0.827-0.5,1.333c-0.111,0.507-0.18,1.025-0.204,1.556
		c-0.025,0.531-0.037,0.957-0.037,1.278c0,0.469,0.042,1.031,0.129,1.686c0.086,0.654,0.241,1.277,0.463,1.87s0.524,1.093,0.908,1.5
		c0.382,0.407,0.87,0.574,1.463,0.5c0.716-0.074,1.327-0.45,1.833-1.13c0.506-0.679,0.938-1.549,1.296-2.611
		c0.357-1.062,0.66-2.259,0.907-3.593c0.247-1.333,0.457-2.691,0.63-4.074c0.172-1.383,0.333-2.729,0.481-4.037
		c0.148-1.309,0.309-2.469,0.481-3.481c-0.691-1.087-1.321-2.303-1.889-3.648c-0.568-1.346-1.013-2.686-1.333-4.02
		c-0.296-1.185-0.469-2.32-0.519-3.407c-0.05-1.086,0.067-2.031,0.352-2.834c0.284-0.802,0.747-1.419,1.389-1.852
		c0.642-0.432,1.519-0.586,2.63-0.463c0.568,0.05,1,0.296,1.296,0.741c0.296,0.444,0.494,1.013,0.593,1.703
		c0.098,0.691,0.117,1.488,0.055,2.39s-0.161,1.858-0.296,2.87c-0.136,1.013-0.284,2.05-0.445,3.111
		c-0.161,1.062-0.291,2.1-0.389,3.111l4.741,8.741l6.705-10.52c-0.445-1.481-0.76-2.938-0.945-4.37
		c-0.185-1.432-0.173-2.691,0.037-3.778c0.209-1.086,0.642-1.913,1.296-2.481c0.654-0.567,1.574-0.729,2.759-0.481
		c0.765,0.173,1.235,0.624,1.408,1.352c0.172,0.729,0.167,1.574-0.019,2.537c-0.185,0.964-0.5,1.958-0.944,2.982
		c-0.445,1.024-0.889,1.907-1.333,2.648l4.815,17.557c0.197,0.716,0.457,1.543,0.778,2.481c0.321,0.938,0.691,1.821,1.111,2.648
		c0.419,0.827,0.907,1.543,1.463,2.148c0.556,0.604,1.179,0.932,1.871,0.981c0.494,0.049,0.994-0.21,1.5-0.778
		c0.506-0.568,0.994-1.309,1.463-2.223c0.469-0.913,0.913-1.95,1.333-3.111c0.42-1.16,0.809-2.302,1.167-3.426
		c0.357-1.123,0.672-2.173,0.944-3.148c0.271-0.975,0.494-1.746,0.667-2.314c0.197-0.124,0.327-0.068,0.389,0.166
		c0.062,0.235,0.031,0.488-0.092,0.76c-0.667,2.321-1.31,4.389-1.926,6.204c-0.618,1.814-1.229,3.358-1.833,4.63
		c-0.605,1.272-1.216,2.26-1.833,2.963c-0.618,0.704-1.272,1.093-1.963,1.167c-0.939,0.123-1.766-0.037-2.482-0.481
		c-0.716-0.444-1.34-1.031-1.87-1.76c-0.532-0.728-0.976-1.53-1.333-2.407c-0.358-0.876-0.661-1.71-0.908-2.5L307.581,247.445z
		 M295.025,234.963c-0.494-0.049-0.896,0.13-1.204,0.537c-0.309,0.407-0.532,0.951-0.667,1.63c-0.136,0.68-0.179,1.47-0.129,2.37
		c0.049,0.902,0.185,1.834,0.407,2.797c0.074,0.321,0.179,0.691,0.315,1.111c0.135,0.42,0.29,0.852,0.463,1.296
		c0.172,0.444,0.352,0.877,0.537,1.297s0.364,0.79,0.537,1.111c0.049-0.543,0.129-1.217,0.241-2.02
		c0.111-0.802,0.222-1.647,0.333-2.537c0.111-0.889,0.204-1.777,0.278-2.666c0.074-0.89,0.092-1.691,0.055-2.408
		c-0.037-0.716-0.142-1.302-0.314-1.759C295.704,235.266,295.419,235.013,295.025,234.963z M299.507,260.187
		c-0.371,0.667-0.636,1.488-0.796,2.464c-0.161,0.976-0.21,1.901-0.148,2.777c0.062,0.877,0.259,1.618,0.593,2.223
		c0.333,0.605,0.821,0.883,1.463,0.833c0.271-0.024,0.475-0.142,0.611-0.352c0.135-0.21,0.222-0.481,0.259-0.814
		c0.037-0.334,0.031-0.717-0.019-1.148c-0.05-0.432-0.124-0.883-0.222-1.353c-0.198-0.938-0.469-1.846-0.815-2.722
		C300.086,261.218,299.778,260.582,299.507,260.187z M310.396,236.186c-0.42-0.099-0.741,0.123-0.963,0.666
		c-0.222,0.544-0.37,1.235-0.444,2.074c-0.074,0.84-0.087,1.729-0.037,2.667c0.049,0.938,0.148,1.729,0.296,2.371
		c0.321-0.445,0.654-1.08,1-1.908c0.346-0.827,0.611-1.653,0.796-2.481c0.185-0.827,0.241-1.567,0.167-2.223
		C311.137,236.698,310.865,236.309,310.396,236.186z"/>
	<path d="M333.546,265.483c-0.716,0.568-1.451,1.05-2.204,1.444c-0.753,0.396-1.599,0.593-2.537,0.593
		c-0.766,0-1.444-0.148-2.037-0.444s-1.093-0.697-1.5-1.204c-0.408-0.506-0.722-1.086-0.944-1.74
		c-0.223-0.654-0.333-1.353-0.333-2.093c-0.025-1.037,0.098-2.08,0.37-3.13c0.271-1.05,0.673-1.994,1.204-2.834
		c0.531-0.839,1.179-1.519,1.944-2.037c0.765-0.519,1.642-0.777,2.63-0.777c0.741,0,1.352,0.142,1.833,0.426
		s1.006,0.673,1.574,1.167c0.098-0.223,0.247-0.401,0.444-0.537c0.197-0.136,0.389-0.197,0.574-0.186
		c0.185,0.013,0.352,0.093,0.5,0.241c0.148,0.147,0.234,0.383,0.259,0.703c-0.074,1.531-0.161,2.958-0.259,4.278
		c-0.099,1.321-0.173,2.488-0.222,3.5c-0.05,2.1,0.049,3.574,0.296,4.427c0.247,0.852,0.765,1.142,1.556,0.87
		c0.395-0.123,0.796-0.444,1.204-0.963c0.408-0.519,0.821-1.154,1.241-1.908c0.42-0.753,0.827-1.586,1.223-2.5
		c0.395-0.913,0.778-1.82,1.148-2.722c0.371-0.901,0.716-1.76,1.037-2.574c0.321-0.815,0.605-1.507,0.852-2.074
		c0.098,0.049,0.179,0.117,0.241,0.203c0.062,0.087,0.062,0.291,0,0.611c-0.062,0.321-0.204,0.784-0.426,1.389
		c-0.223,0.605-0.556,1.451-1,2.537c-0.222,0.371-0.451,0.834-0.685,1.39c-0.235,0.556-0.5,1.16-0.796,1.814
		s-0.611,1.31-0.944,1.963c-0.333,0.655-0.71,1.247-1.13,1.778c-0.42,0.531-0.877,0.976-1.371,1.333
		c-0.494,0.358-1.037,0.55-1.629,0.574c-0.469,0-0.833-0.116-1.093-0.352c-0.259-0.234-0.457-0.524-0.593-0.87
		s-0.235-0.729-0.296-1.148S333.57,265.829,333.546,265.483z M326.434,261.224c0,0.421,0.037,0.951,0.111,1.593
		c0.074,0.643,0.209,1.26,0.407,1.853c0.198,0.592,0.487,1.105,0.871,1.537c0.383,0.432,0.895,0.647,1.537,0.647
		c0.321,0,0.709-0.073,1.167-0.222c0.457-0.148,0.895-0.346,1.315-0.593c0.419-0.246,0.79-0.53,1.111-0.852
		c0.321-0.321,0.519-0.667,0.593-1.037c0.074-0.815,0.129-1.506,0.167-2.074s0.056-1.21,0.056-1.927c0-0.69-0.019-1.32-0.056-1.889
		c-0.037-0.567-0.092-1.26-0.167-2.074c-0.272-0.667-0.673-1.21-1.204-1.63c-0.531-0.419-1.155-0.63-1.871-0.63
		c-0.791,0-1.445,0.272-1.963,0.815s-0.932,1.198-1.241,1.963c-0.309,0.766-0.525,1.562-0.648,2.389
		C326.496,259.922,326.434,260.631,326.434,261.224z"/>
	<path d="M342.139,252.187c-0.716,0.147-1.512,0.247-2.389,0.296c-0.876,0.05-1.71,0.007-2.5-0.13
		c-0.79-0.135-1.463-0.389-2.019-0.759s-0.883-0.926-0.981-1.667c0.05-0.123,0.154-0.222,0.315-0.296s0.291-0.013,0.389,0.185
		c-0.049,0.444,0.155,0.84,0.611,1.186c0.457,0.346,1.05,0.599,1.778,0.76c0.729,0.16,1.519,0.216,2.371,0.166
		c0.852-0.049,1.66-0.246,2.426-0.593c0-0.395,0.012-0.87,0.037-1.426c0.024-0.556,0.062-1.136,0.111-1.74
		c0.049-0.605,0.104-1.198,0.167-1.778c0.062-0.58,0.13-1.08,0.204-1.5c0.099-0.617,0.186-1.13,0.259-1.537
		c0.074-0.407,0.167-0.734,0.278-0.981c0.111-0.247,0.247-0.438,0.408-0.574c0.16-0.136,0.352-0.253,0.574-0.352
		c0.198-0.05,0.42,0.013,0.667,0.185c0.247,0.173,0.37,0.42,0.37,0.741c-0.05,0.42-0.124,0.877-0.222,1.37
		c-0.099,0.494-0.204,1.05-0.315,1.667c-0.111,0.617-0.204,1.303-0.277,2.056c-0.074,0.753-0.111,1.574-0.111,2.463
		c0.543-0.296,1.228-0.697,2.056-1.204c0.827-0.506,1.691-0.944,2.593-1.314c0.901-0.37,1.784-0.574,2.648-0.611
		c0.864-0.037,1.617,0.266,2.259,0.907c0.124,0.074,0.135,0.192,0.037,0.353c-0.099,0.16-0.185,0.191-0.259,0.093
		c-0.321-0.445-0.741-0.71-1.259-0.797c-0.519-0.086-1.087-0.062-1.704,0.074s-1.253,0.352-1.907,0.648
		c-0.655,0.296-1.272,0.617-1.852,0.963c-0.581,0.346-1.105,0.686-1.574,1.019c-0.469,0.333-0.815,0.587-1.037,0.759
		c0,0.074-0.006,0.34-0.019,0.797c-0.013,0.457-0.019,0.951-0.019,1.481c0,0.531-0.006,1.025-0.019,1.481
		c-0.013,0.457-0.019,0.735-0.019,0.834c0,0.494,0,1.173,0,2.037s0.031,1.796,0.093,2.796c0.062,1,0.167,2.019,0.315,3.056
		c0.148,1.037,0.37,1.97,0.667,2.797s0.685,1.506,1.167,2.037c0.481,0.531,1.08,0.796,1.796,0.796
		c0.765-0.197,1.463-0.573,2.093-1.129c0.629-0.556,1.191-1.21,1.685-1.964c0.494-0.753,0.932-1.58,1.315-2.481
		c0.382-0.901,0.716-1.802,1-2.704c0.284-0.9,0.519-1.759,0.704-2.574c0.186-0.814,0.339-1.53,0.463-2.147
		c0.074-0.124,0.154-0.154,0.241-0.093c0.086,0.062,0.104,0.327,0.055,0.796c-0.099,0.766-0.266,1.624-0.5,2.574
		c-0.235,0.951-0.537,1.914-0.907,2.89c-0.371,0.976-0.803,1.913-1.296,2.814c-0.494,0.901-1.05,1.698-1.667,2.39
		s-1.291,1.222-2.019,1.592c-0.729,0.371-1.5,0.506-2.315,0.408c-1.062-0.124-1.92-0.494-2.574-1.111
		c-0.654-0.617-1.167-1.389-1.537-2.315c-0.371-0.926-0.618-1.969-0.741-3.13c-0.124-1.16-0.191-2.352-0.204-3.574
		c-0.013-1.222,0-2.438,0.037-3.648C342.121,254.311,342.139,253.199,342.139,252.187z"/>
	<path d="M354.807,252.187c-0.716,0.147-1.512,0.247-2.389,0.296c-0.876,0.05-1.71,0.007-2.5-0.13
		c-0.79-0.135-1.463-0.389-2.019-0.759s-0.883-0.926-0.981-1.667c0.05-0.123,0.154-0.222,0.315-0.296s0.291-0.013,0.389,0.185
		c-0.049,0.444,0.155,0.84,0.611,1.186c0.457,0.346,1.05,0.599,1.778,0.76c0.729,0.16,1.519,0.216,2.371,0.166
		c0.852-0.049,1.66-0.246,2.426-0.593c0-0.395,0.012-0.87,0.037-1.426c0.024-0.556,0.062-1.136,0.111-1.74
		c0.049-0.605,0.104-1.198,0.167-1.778c0.062-0.58,0.13-1.08,0.204-1.5c0.099-0.617,0.186-1.13,0.259-1.537
		c0.074-0.407,0.167-0.734,0.278-0.981c0.111-0.247,0.247-0.438,0.408-0.574c0.16-0.136,0.352-0.253,0.574-0.352
		c0.198-0.05,0.42,0.013,0.667,0.185c0.247,0.173,0.37,0.42,0.37,0.741c-0.05,0.42-0.124,0.877-0.222,1.37
		c-0.099,0.494-0.204,1.05-0.315,1.667c-0.111,0.617-0.204,1.303-0.277,2.056c-0.074,0.753-0.111,1.574-0.111,2.463
		c0.543-0.296,1.228-0.697,2.056-1.204c0.827-0.506,1.691-0.944,2.593-1.314c0.901-0.37,1.784-0.574,2.648-0.611
		c0.864-0.037,1.617,0.266,2.259,0.907c0.124,0.074,0.135,0.192,0.037,0.353c-0.099,0.16-0.185,0.191-0.259,0.093
		c-0.321-0.445-0.741-0.71-1.259-0.797c-0.519-0.086-1.087-0.062-1.704,0.074s-1.253,0.352-1.907,0.648
		c-0.655,0.296-1.272,0.617-1.852,0.963c-0.581,0.346-1.105,0.686-1.574,1.019c-0.469,0.333-0.815,0.587-1.037,0.759
		c0,0.074-0.006,0.34-0.019,0.797c-0.013,0.457-0.019,0.951-0.019,1.481c0,0.531-0.006,1.025-0.019,1.481
		c-0.013,0.457-0.019,0.735-0.019,0.834c0,0.494,0,1.173,0,2.037s0.031,1.796,0.093,2.796c0.062,1,0.167,2.019,0.315,3.056
		c0.148,1.037,0.37,1.97,0.667,2.797s0.685,1.506,1.167,2.037c0.481,0.531,1.08,0.796,1.796,0.796
		c0.765-0.197,1.463-0.573,2.093-1.129c0.629-0.556,1.191-1.21,1.685-1.964c0.494-0.753,0.932-1.58,1.315-2.481
		c0.382-0.901,0.716-1.802,1-2.704c0.284-0.9,0.519-1.759,0.704-2.574c0.186-0.814,0.339-1.53,0.463-2.147
		c0.074-0.124,0.154-0.154,0.241-0.093c0.086,0.062,0.104,0.327,0.055,0.796c-0.099,0.766-0.266,1.624-0.5,2.574
		c-0.235,0.951-0.537,1.914-0.907,2.89c-0.371,0.976-0.803,1.913-1.296,2.814c-0.494,0.901-1.05,1.698-1.667,2.39
		s-1.291,1.222-2.019,1.592c-0.729,0.371-1.5,0.506-2.315,0.408c-1.062-0.124-1.92-0.494-2.574-1.111
		c-0.654-0.617-1.167-1.389-1.537-2.315c-0.371-0.926-0.618-1.969-0.741-3.13c-0.124-1.16-0.191-2.352-0.204-3.574
		c-0.013-1.222,0-2.438,0.037-3.648C354.788,254.311,354.807,253.199,354.807,252.187z"/>
	<path d="M367.215,258.002c0-1.704,0.457-3.05,1.371-4.038c0.913-0.987,2.161-1.481,3.741-1.481c0.567,0,1.098,0.143,1.592,0.426
		c0.494,0.284,0.741,0.784,0.741,1.5c0,0.667-0.186,1.174-0.556,1.52c-0.371,0.346-0.815,0.604-1.333,0.777
		s-1.074,0.284-1.667,0.333c-0.592,0.05-1.111,0.1-1.556,0.148c0,0.05-0.006,0.18-0.019,0.389c-0.013,0.21-0.019,0.34-0.019,0.39
		c0,0.839,0.08,1.766,0.241,2.777c0.161,1.013,0.445,1.963,0.852,2.853c0.408,0.889,0.957,1.636,1.648,2.24
		c0.691,0.605,1.568,0.908,2.63,0.908c1.432-0.05,2.617-0.476,3.556-1.278c0.938-0.802,1.716-1.777,2.333-2.926
		c0.617-1.148,1.117-2.371,1.5-3.667c0.383-1.297,0.722-2.463,1.019-3.5c0.024-0.05,0.074-0.068,0.148-0.056
		c0.074,0.013,0.135,0.129,0.185,0.352c-0.124,0.691-0.303,1.5-0.537,2.426c-0.235,0.927-0.543,1.877-0.926,2.853
		c-0.383,0.976-0.833,1.933-1.352,2.87c-0.519,0.939-1.124,1.766-1.815,2.481c-0.692,0.717-1.47,1.285-2.333,1.704
		c-0.865,0.42-1.828,0.593-2.889,0.519c-1.136-0.024-2.118-0.407-2.945-1.148c-0.828-0.74-1.506-1.642-2.037-2.703
		c-0.531-1.062-0.926-2.198-1.185-3.408C367.345,260.052,367.215,258.965,367.215,258.002z M372.66,252.927
		c-0.444,0-0.846,0.105-1.204,0.315c-0.358,0.21-0.667,0.481-0.926,0.814s-0.457,0.704-0.592,1.111
		c-0.136,0.407-0.204,0.809-0.204,1.204c0.345,0,0.759,0.006,1.241,0.019s0.944-0.031,1.389-0.13
		c0.445-0.099,0.827-0.278,1.148-0.537c0.321-0.26,0.481-0.66,0.481-1.204c0-0.395-0.118-0.759-0.352-1.093
		C373.406,253.094,373.08,252.927,372.66,252.927z"/>
	<path d="M381.142,261.076c-0.025-0.987,0.062-1.933,0.259-2.834c0.197-0.901,0.519-1.691,0.963-2.37
		c0.445-0.68,1.031-1.216,1.759-1.611c0.729-0.395,1.624-0.593,2.686-0.593c0.593,0,1.204,0.117,1.833,0.352
		c0.63,0.235,1.228,0.544,1.796,0.926c0.568,0.384,1.074,0.828,1.519,1.334s0.765,1.031,0.963,1.574
		c0.445,0,0.914-0.068,1.408-0.204c0.494-0.135,0.987-0.302,1.481-0.5c0.494-0.197,0.982-0.407,1.463-0.63
		c0.481-0.222,0.932-0.407,1.352-0.556c0.074,0.1,0.086,0.204,0.037,0.315c-0.05,0.111-0.142,0.216-0.278,0.314
		c-0.136,0.1-0.278,0.191-0.426,0.278s-0.272,0.142-0.371,0.166c-0.099,0.05-0.358,0.155-0.778,0.315
		c-0.42,0.161-0.876,0.333-1.37,0.519c-0.494,0.185-0.951,0.358-1.371,0.519c-0.42,0.161-0.679,0.266-0.778,0.314
		c0.124,0.47,0.228,1.056,0.315,1.76c0.086,0.703,0.104,1.438,0.056,2.203c-0.05,0.767-0.18,1.538-0.389,2.315
		c-0.21,0.778-0.543,1.481-1,2.111c-0.457,0.63-1.05,1.154-1.778,1.574c-0.729,0.42-1.624,0.654-2.686,0.704
		c-1.185,0-2.198-0.266-3.037-0.797c-0.84-0.53-1.525-1.204-2.056-2.019c-0.531-0.814-0.926-1.71-1.186-2.686
		C381.271,262.897,381.142,261.965,381.142,261.076z M385.031,255.224c-0.494,0.74-0.858,1.654-1.093,2.741
		c-0.235,1.087-0.333,2.203-0.296,3.352s0.209,2.254,0.519,3.315c0.309,1.062,0.771,1.938,1.389,2.63
		c0.321,0.346,0.704,0.623,1.148,0.833c0.444,0.21,0.919,0.327,1.426,0.352c0.506,0.025,1.024-0.067,1.556-0.277
		c0.531-0.21,1.019-0.55,1.463-1.019c0.494-0.543,0.858-1.167,1.093-1.871c0.234-0.703,0.371-1.432,0.408-2.185
		c0.037-0.753,0.012-1.506-0.074-2.26c-0.087-0.753-0.191-1.463-0.315-2.13c-0.593,0-1.216-0.086-1.871-0.259
		s-1.303-0.413-1.944-0.723c-0.643-0.309-1.253-0.673-1.833-1.093C386.024,256.211,385.5,255.742,385.031,255.224z M385.809,254.779
		c0.271,0.37,0.648,0.747,1.13,1.13c0.481,0.383,1.012,0.729,1.592,1.037s1.179,0.555,1.796,0.74s1.21,0.278,1.778,0.278
		c-0.198-0.593-0.568-1.154-1.111-1.686c-0.543-0.531-1.13-0.963-1.759-1.297c-0.63-0.333-1.259-0.53-1.889-0.593
		C386.716,254.329,386.203,254.458,385.809,254.779z"/>
</g>
</svg>
