<?xml version="1.0" standalone="no"?>
<!DOCTYPE svg PUBLIC "-//W3C//DTD SVG 1.1//EN" "http://www.w3.org/Graphics/SVG/1.1/DTD/svg11.dtd" >
<svg xmlns="http://www.w3.org/2000/svg">
<metadata></metadata>
<defs>
<font id="bergamot_ornamentsregular" horiz-adv-x="1705" >
<font-face units-per-em="2048" ascent="1638" descent="-410" />
<missing-glyph horiz-adv-x="204" />
<glyph horiz-adv-x="0" />
<glyph unicode="&#xd;" horiz-adv-x="204" />
<glyph horiz-adv-x="0" />
<glyph horiz-adv-x="0" />
<glyph unicode=" "  horiz-adv-x="204" />
<glyph unicode="&#x09;" horiz-adv-x="204" />
<glyph unicode="&#xa0;" horiz-adv-x="204" />
<glyph unicode="!" horiz-adv-x="3201" d="M3140 336q0 -35 -3.5 -81t-19.5 -81l-29 14q16 31 18.5 72t2.5 72q-10 47 -32.5 59t-57.5 12h-68q-16 -4 -33.5 -7t-33.5 -7q-35 -6 -72 -6q-31 0 -64 6q-35 6 -68.5 22.5t-58.5 45.5l-14 22q-12 12 -22 33q-29 -82 -93.5 -144.5t-144.5 -78.5q-23 -6 -45 -6 q-35 0 -66 12q-4 0 -9 1t-11 1q-18 4 -35.5 15.5t-32.5 23.5q-29 27 -48 58.5t-34 66.5l-6 14q-102 -63 -217 -63h-26q-10 -2 -31 -2q-31 0 -62.5 7t-60.5 17q-16 6 -31.5 14.5t-29.5 18.5q-16 -10 -31 -18.5t-31 -14.5q-31 -10 -62.5 -17t-62.5 -7q-20 0 -31 2h-26 q-111 0 -217 63l-6 -14q-14 -35 -34 -67t-48 -58q-14 -12 -31.5 -23.5t-36.5 -15.5q-4 0 -10 -1t-10 -1q-31 -12 -66 -12q-25 0 -45 6q-80 16 -144.5 78.5t-93.5 144.5q-4 -10 -9 -17.5t-11 -15.5l-16 -22q-23 -29 -58 -45.5t-69 -22.5q-31 -6 -64 -6q-39 0 -72 6 q-16 4 -32.5 7t-32.5 7h-70q-37 0 -58.5 -12t-31.5 -61q0 -29 2 -70t19 -72l-27 -14q-18 35 -21.5 80t-3.5 78q14 70 47 86t74 16h82l55 4q33 2 64 4t59 7q29 6 55.5 16t49.5 27q18 12 39 40q4 6 6 12.5t6 14.5q4 16 4 27q-2 8 -2 26h31q0 -6 1 -12t1 -14q4 -49 25.5 -94.5 t54 -81t70.5 -60t77 -33.5q10 -2 19.5 -3t19.5 -1q41 0 76 21q18 14 31 41q14 27 22 55.5t12 56.5q4 14 5.5 27.5t3.5 26.5q-57 39 -114.5 90t-104 110.5t-75 123t-28.5 128.5q0 18 2 29q6 49 47 72q10 4 21.5 6t21.5 4q33 14 66 14q27 0 57 -10q37 -14 67.5 -40t53.5 -54 q45 -59 69.5 -127t36.5 -139q6 -43 7 -89v-30.5t-5 -30.5q-4 -23 -9 -46.5t-11 -45.5q102 -63 211 -64q55 0 100 15q43 20 78 53l-33 35q-31 35 -57 80q-10 23 -20.5 45t-16.5 47q-20 70 -20 147q0 10 1 22.5t1 22.5q8 98 41.5 186.5t87.5 166.5q6 8 11 15t11 13l-16 27 q-10 16 -25 29q-23 27 -61 47q-10 4 -19.5 7t-19.5 7h-16q-80 0 -127 -51q-35 -41 -35 -99q0 -49 26 -100l-28 -14q-29 61 -29 112q0 68 43 121q27 31 64.5 46.5t82.5 15.5q41 0 84 -13q41 -10 76 -28l56 -45l14 14l41 31q37 20 74 28q43 12 84 13q94 0 147 -62 q43 -49 43 -119q0 -53 -29 -114l-26 14q25 49 24 98q0 55 -35 101q-47 51 -127 51h-16q-10 -4 -19.5 -7t-19.5 -7q-39 -20 -61 -47l-25 -29l-16 -27q12 -14 22 -28q53 -78 87 -166t42 -187q2 -14 2 -26.5v-26.5q0 -76 -20 -139q-12 -49 -37 -92t-55 -80l-35 -35 q35 -33 78 -53q45 -14 100 -15q109 0 211 64q-6 23 -11 46t-9 46q-4 16 -4.5 30.5t-0.5 30.5q0 45 7 89q12 72 36.5 139t71.5 127q23 29 52.5 54.5t68.5 39.5q31 10 57 10q31 0 64 -14q12 -2 22.5 -4t20.5 -6q20 -10 32.5 -28.5t14.5 -43.5q2 -10 2 -29q0 -66 -28.5 -129 t-75 -122.5t-103.5 -110.5t-115 -90q2 -12 3.5 -25.5t5.5 -28.5q6 -29 13 -57.5t21 -54.5q12 -27 31 -41q35 -20 76 -21q10 0 19.5 1t19.5 3q39 8 77 33t70.5 60.5t54 81t27.5 94.5v26h31v-26q0 -18 2 -27l12 -27q10 -12 19.5 -22t21.5 -18q23 -16 48.5 -26.5t54.5 -16.5 q29 -4 59.5 -6.5t63.5 -4.5l55 -4h82q41 0 74 -16t47 -82zM760 1018q0 -6 -1 -13.5t-1 -13.5q0 -57 25.5 -115.5t67.5 -111.5t95 -101.5t107 -87.5q0 10 1 18.5t1 16.5v29q0 43 -6 90q-10 59 -25.5 119.5t-42.5 114.5q-25 47 -51 77l-17 13q-35 20 -79 20q-27 0 -43 -8 q-27 -12 -31 -47zM1518 899q-2 -12 -2 -24.5v-24.5q0 -27 3 -53.5t7 -51.5q6 -33 22 -73q8 -16 16.5 -35t18.5 -35l19 -24q12 16 16 24q10 16 19.5 34.5t17.5 35.5q6 18 12 36.5t10 36.5q10 51 11 97q0 14 -1 28.5t-4 28.5q-6 76 -27.5 149.5t-53.5 145.5 q-35 -72 -56.5 -145.5t-27.5 -149.5zM2441 1018q-4 35 -31 47q-16 8 -43 8q-45 0 -79 -20l-17 -13q-27 -31 -51 -77q-27 -53 -41 -114t-25 -120q-4 -25 -6 -49.5t-2 -48.5v-21q0 -8 1 -16t1 -19q55 39 107.5 87.5t94.5 101.5t67.5 111.5t25.5 115.5q0 6 -1 13.5t-1 13.5z " />
<glyph unicode="&#x22;" horiz-adv-x="2461" d="M2329 821q-72 -10 -142.5 -16t-142.5 -12q-141 -12 -283 -19q-72 -4 -141.5 -5t-140.5 -5l-283 -6h-285q-72 2 -141.5 2t-140.5 4l-285 12q-72 6 -141.5 10.5t-141.5 14.5l1133 18z" />
<glyph unicode="#" horiz-adv-x="3031" d="M137 694l1379 -569l-1412 483zM729 811l787 -686l-844 612zM1051 1165l465 -1040l-547 999zM1561 1415l-45 -1290l-48 1290h93zM70 313l1446 -188l-1455 96zM2925 608l-1409 -483l1376 569zM2357 737l-841 -612l784 686zM2062 1124l-546 -999l462 1040zM2970 221 l-1454 -96l1443 188z" />
<glyph unicode="$" horiz-adv-x="3031" d="M104 932l1412 483l-1379 -569zM672 803l844 612l-787 -686zM969 416l547 999l-465 -1040zM1468 125l48 1290l45 -1290h-93zM61 1319l1455 96l-1446 -188zM2892 846l-1376 569l1409 -483zM2300 729l-784 686l841 -612zM1978 375l-462 1040l546 -999zM2959 1227l-1443 188 l1454 -96z" />
<glyph unicode="%" horiz-adv-x="3260" d="M1946 1362q-6 0 -7 2q0 2 1.5 3t1.5 3q-10 129 -80 129q-29 0 -68 -20l-72 -49q-25 -35 -42 -74t-21 -82v-25q0 -72 33.5 -127t109.5 -71q37 -10 76 -13.5t78 -3.5q43 0 86 2t86 6q23 2 49.5 3.5t54.5 1.5q37 0 74 -4.5t67.5 -18.5t50 -38.5t21.5 -63.5v-15 q0 -29 -6 -55.5t-22 -48.5l-50 -70q-16 -23 -25 -50.5t-9 -55.5q0 -35 18.5 -61.5t65.5 -26.5h12q92 8 178 29.5t178 23.5h15q82 0 153.5 -17.5t124.5 -57.5t85 -103.5t36 -153.5q0 -10 -10 -10t-13 8q-16 80 -52 134t-86 86t-111.5 46.5t-128.5 14.5q-51 0 -103.5 -7.5 t-103.5 -17.5q-33 -8 -83 -19.5t-100 -11.5q-41 0 -76.5 14.5t-52.5 49.5q-20 45 -20 80q0 39 22 73q12 18 32 43t39.5 53.5t33.5 57.5t14 55q0 35 -28 56q-29 23 -68 32t-84 9q-66 0 -132.5 -10.5t-119.5 -10.5h-12q-55 2 -108.5 14.5t-97.5 37t-77 58t-47 79.5 q-12 -49 -45 -85t-79 -59.5t-103.5 -34t-118.5 -10.5h-33q-29 2 -85 8t-115 6q-35 0 -68 -4t-57.5 -13t-40 -27.5t-15.5 -45.5v-8q2 -41 23.5 -77t46.5 -70.5t45 -68.5t20 -71q0 -45 -40 -92q-20 -23 -49 -32t-64 -9q-61 0 -127 18.5t-111 24.5q-78 12 -151 13 q-68 0 -128.5 -13.5t-109.5 -45.5t-85 -85t-52 -135q-4 -10 -12 -10q-10 0 -11 10q4 86 34 148.5t80 103.5t117.5 61.5t147.5 20.5h35q45 -2 90 -11.5t89 -18.5t89 -16t88 -7q57 0 80 19.5t23 49.5q0 33 -18.5 74t-41 82t-41 77t-18.5 60q2 45 21.5 74t50.5 45t69.5 21.5 t77.5 5.5q27 0 51.5 -1.5t47.5 -3.5q45 -4 91 -7t93 -3q37 0 72.5 4t70.5 15q66 20 106 67t40 115q0 10 -1 20.5t-3 20.5q-8 43 -27 95t-57 81q-47 39 -88 39q-72 0 -111 -119q2 0 0 -4t-4 -4q-45 20 -45 61q0 27 18.5 51.5t46.5 36.5q27 12 60 13q37 0 71.5 -15.5t64.5 -40 t51.5 -55.5t31.5 -61q10 -29 12 -52q12 45 39 89q33 57 87 93t120 36q27 0 51 -7q33 -6 50.5 -29.5t17.5 -49.5q0 -20 -11 -40t-34 -30zM2107 311q20 27 47 27q4 0 17 -4q29 -12 29 -51v-11q-4 -16 -17.5 -25t-30.5 -9q-8 0 -20 4q-31 14 -31 45q0 12 6 24zM2019 549 q10 -6 15.5 -13.5t11.5 -13.5q6 -12 6 -22q0 -16 -14 -31q-6 -4 -14.5 -9t-18.5 -7q-4 -2 -10 -2q-14 0 -27 12q-14 14 -14 33q0 4 1 6t1 6q4 23 17.5 34t29.5 11q10 0 16 -4zM623 295q0 -20 -8.5 -36.5t-24.5 -22.5q-4 -2 -12 -3q-14 0 -27.5 8.5t-22.5 24.5q-4 12 -4 19 q0 33 35 45q6 2 16 2q16 0 31 -10.5t17 -26.5zM1157 317q8 -8 8 -24q0 -29 -28 -45q-12 -6 -23 -6q-37 0 -45 32q-2 4 -2 15q0 16 8 29.5t19 17.5q6 4 20 4q27 0 43 -23zM1950 754q0 18 12 30q14 10 31 11q12 0 24 -7q29 -12 33 -38q0 -2 1 -4.5t1 -4.5q0 -20 -16 -26 q-12 -10 -33 -15q-12 -4 -16 -4t-5.5 1t-3.5 1l-14 17q-12 16 -14 39zM1233 555q8 6 22 6q4 0 17 -4q20 -12 26 -39q0 -4 1 -5t1 -5q0 -18 -12 -35q-12 -12 -31 -12q-25 2 -38 16q-12 10 -17 23q0 20 6 26q4 8 9.5 16.5t15.5 12.5zM2376 268q0 20 12 33.5t31 17.5h8 q16 0 29.5 -10t17.5 -28v-9q0 -18 -10 -31.5t-31 -17.5h-8q-18 0 -31.5 11t-17.5 34zM1311 748q-2 -10 -7.5 -18.5t-9.5 -14.5q-6 -6 -9 -10.5t-7 -6.5q-16 0 -30.5 6.5t-24.5 14.5q-14 10 -15 26q0 4 1 5.5t1 5.5q4 12 13 20q4 4 9 8t15 9q6 2 17 2q20 0 34 -11 q12 -10 13 -28v-8zM2652 291q4 16 15.5 24.5t27.5 8.5q8 0 21 -5q31 -12 30 -43q0 -14 -4 -20q-14 -31 -45 -31q-6 0 -18 4q-29 12 -29 47q0 11 2 15zM1640 864q20 -10 21 -37q0 -18 -14 -34q-16 -18 -41 -19q-29 2 -35 27q-4 16 -4 20t1 7t1 8q0 16 8 24q8 12 33 12 q20 0 30 -8zM2902 172q12 23 41 23q14 0 27 -7q23 -16 22 -43q0 -12 -6 -24q-16 -23 -41 -23q-14 0 -27 6q-23 12 -22 41q0 15 6 27zM301 172q12 23 41 23q14 0 27 -7q23 -16 22 -43q0 -12 -6 -24q-16 -23 -41 -23q-14 0 -27 6q-23 12 -22 41q0 15 6 27zM893 264 q-2 -18 -15.5 -30.5t-31.5 -12.5q-29 2 -41 19q-8 16 -8 30q6 27 20 39q16 8 29 8q47 -4 47 -45v-8z" />
<glyph unicode="&#x26;" horiz-adv-x="3573" d="M1733 1167q-12 27 -23.5 55.5t-21.5 59.5q-6 18 -9.5 36.5t-7.5 39.5q-10 47 -10 88v18q4 39 36 86t72 66q18 6 35 6q29 0 54 -18q37 -29 51 -66t14 -78q0 -37 -9 -74.5t-22.5 -71.5t-30 -63.5t-28.5 -48.5q20 -29 39.5 -53.5t42.5 -52.5q12 -16 24.5 -31.5t22.5 -32.5 q12 -16 23.5 -30.5t21.5 -30.5q39 -51 78 -103.5t74 -109.5l67 80q16 20 34.5 39.5t35.5 42.5l-21 41q-4 12 -7 24t-7 25q-4 16 -6 34.5t-2 36.5q-2 10 -2 18.5v18.5q0 23 3 47.5t13 48.5q10 25 35 49.5t53 34.5q18 6 35 7q23 0 37 -9q23 -12 31 -35.5t8 -52.5 q0 -41 -12.5 -84t-20.5 -59q-10 -23 -23.5 -42t-27.5 -42l6 -8q12 -16 23.5 -31.5t25.5 -32.5q25 -29 52.5 -56.5t58.5 -55.5q31 -29 62.5 -60.5t60.5 -66.5q61 -74 94 -158q0 -2 1 -3t1 -3q35 20 69.5 36.5t69.5 32.5l88 43q-2 10 -3 19.5t-1 19.5v15q0 63 25 125 q8 16 16 32.5t25 28.5q4 4 11 7t13 7q27 16 49 17h11q39 -6 51 -51q4 -8 4 -16.5v-18.5q0 -29 -10.5 -59.5t-38.5 -59.5q-37 -33 -76 -57q12 -39 31 -72q31 -53 67 -104q27 -35 52.5 -74t46.5 -82q4 -4 4 -6l39 12q41 10 67 10q96 0 135 -73l-30 -27q-20 39 -54 52t-65 13 t-45 -6q-10 -2 -17.5 -4t-15.5 -6q2 -2 2 -6q10 -20 13 -39.5t5 -38.5v-12q0 -4 -1 -8t-1 -9q-4 -35 -19 -63.5t-34 -48.5q-43 -45 -90 -45q-18 0 -27 4q-12 4 -28.5 22.5t-18.5 63.5v8q0 47 32 88t79 74q-23 37 -49.5 72.5t-55.5 74.5q-29 41 -54 89.5t-38 101.5 q-20 -10 -39.5 -19.5t-40.5 -19.5q-37 -16 -72.5 -34.5t-70.5 -39.5q8 -29 13.5 -56.5t5.5 -56.5v-17t-3 -17q-4 -23 -10 -45.5t-20 -42.5q-12 -16 -21 -23q-25 -20 -43 -29q-18 -6 -37 -6q-41 0 -61 27q-6 6 -12 19.5t-6 35.5q0 18 7 44t27 59q29 49 78 88l-10 18 q-39 66 -96 123q-29 29 -59.5 55.5t-63.5 55.5t-64.5 61.5t-58.5 71.5q-8 12 -16.5 24.5t-14.5 26.5l-137 -160l12 -22q23 -35 39.5 -72t32.5 -78q14 -39 22.5 -81t8.5 -85q0 -23 -2 -43t-9 -43q0 -8 -4 -20q-4 -6 -5 -12.5t-5 -10.5q-10 -20 -33 -39l-10 -6 q-31 -27 -68 -26h-8q-27 2 -54.5 15t-49 35.5t-36.5 52.5t-17 66q0 8 -1 14.5t-1 14.5q0 74 27.5 140.5t68.5 127.5q-41 59 -85 119t-89 121l-45 66q-10 16 -21.5 30.5t-21.5 30.5l-56 84q-66 -84 -123 -155.5t-120 -149.5l-15 -17q-6 -10 -12 -18t-14 -18q49 -66 86 -142 q10 -20 17 -41.5t15 -44.5q6 -23 11.5 -47t5.5 -47q2 -12 2 -23.5v-23.5v-21q-4 -39 -20.5 -69.5t-38.5 -52.5q-20 -20 -41 -29q-27 -14 -58 -18h-8q-41 0 -69.5 28.5t-39.5 77.5q-6 25 -8 50.5t-2 49.5q0 70 16.5 136.5t45.5 126.5q-4 10 -10.5 17t-12.5 15 q-23 35 -48.5 69t-49.5 68l-41 64q-35 -45 -78 -88l-86 -86q-53 -49 -103.5 -101.5t-86.5 -105.5q31 -23 59.5 -49.5t50.5 -61.5l17 -24q4 -8 4 -12q4 -10 6 -20.5t2 -20.5q0 -39 -12 -76q-4 -8 -12.5 -22.5t-18.5 -18.5q-20 -27 -62 -27q-18 0 -36 6q-35 14 -63 50t-28 102 v10q4 53 25 103q-20 12 -39.5 23t-40.5 22q-29 16 -58.5 30.5t-58.5 30.5q-16 8 -30.5 16.5t-30.5 18.5q-23 -51 -58.5 -99.5t-72.5 -95.5q-23 -29 -42.5 -54.5t-35.5 -49.5q18 -10 33.5 -22.5t30.5 -26.5q27 -29 38 -56q0 -2 1.5 -3t1.5 -3q18 -23 29 -48t11 -56 q-2 -45 -18 -63.5t-31 -22.5q-12 -6 -24 -6q-43 0 -90 47q-23 23 -39.5 58.5t-16.5 78.5q0 16 2 32.5t9 33.5q-4 4 -10.5 8t-12.5 8q-23 10 -53 20q-12 4 -23 5q-27 -2 -51.5 -14.5t-40.5 -41.5l-29 15q23 39 77.5 62.5t105.5 23.5q16 0 37 -5q10 -2 18 -4t18 -6 q16 27 37 53.5t43 55.5q39 47 76 98t53 98q-59 33 -96 70q-29 29 -40 58.5t-11 58.5q0 20 6 37q12 45 51 51h10q16 0 38 -11.5t48 -46.5q27 -33 37.5 -65.5t10.5 -65.5v-13t-2 -13q18 -10 37.5 -19.5t37.5 -17.5q31 -14 60.5 -27.5t60.5 -29.5q20 -10 40 -22.5t40 -25.5 q37 55 88 107.5t105 103.5q47 45 91 89.5t79 89.5q-10 16 -18.5 29.5t-16.5 29.5q-23 39 -40.5 80t-27.5 88q-6 25 -6 55v19.5t4 19.5l6 17q8 25 31 36q16 8 31 9h10q14 0 31 -7q29 -10 53 -34.5t35 -49.5q10 -25 13 -48t3 -46q0 -68 -31 -129l72 -90q25 -29 49.5 -59.5 t46.5 -63.5q6 8 11.5 15.5t11.5 13.5l12 16q68 82 127 155t125 159zM2019 365q4 -51 36 -88t69 -48h20q39 6 58 31q8 12 12 25q2 6 2 14q2 6 2 18v17q0 29 -6 53q-12 66 -42 126t-69 120q-37 -57 -60.5 -116.5t-23.5 -125.5q0 -6 1 -13t1 -13zM1415 633q-23 -57 -37 -116.5 t-14 -121.5q0 -51 8 -90q8 -43 37 -67q10 -2 31 -2q14 0 20 2q31 8 47 38q16 39 17 84q0 29 -6 58q-4 18 -9.5 34.5t-13.5 34.5t-16.5 36t-18.5 34q-22 43 -45 76zM1839 1581q-16 12 -33 12q-12 0 -24 -6q-27 -12 -47 -37l-6 -26q-6 -23 -7 -47q0 -16 2 -30.5t7 -29.5 q16 -59 38 -104l46 -84q23 41 50 104.5t27 126.5q0 35 -12 66.5t-41 54.5zM1186 1274q-14 0 -23 -4q-12 -10 -18 -31q2 -18 8 -36.5t16 -35.5q18 -35 42 -68.5t51 -66.5l12 -14q20 51 20 98q0 39 -16 88q-4 16 -24.5 36t-43.5 30q-16 4 -24 4zM817 348q0 -59 21.5 -90 t48.5 -41q6 -4 13 -4h13q16 0 25 4q12 12 13 26.5t12 26.5q-4 33 -31 80l-23 33q-37 29 -71 53q-17 -41 -21 -88zM2404 1079q10 20 20.5 56t10.5 71q0 23 -5 39.5t-20 24.5q-6 4 -20 4q-12 0 -25 -4q-14 -12 -18 -17q-10 -16 -14 -32.5t-6 -36.5v-13q0 -35 7 -69.5t17 -67.5 l12 -24q12 16 22.5 33.5t18.5 35.5zM2623 227q12 -16 37 -16q12 0 29 6q12 6 24.5 15.5t22.5 25.5q6 20 6 45q0 6 -1 12.5t-1 12.5q-10 51 -30 98q-39 -31 -66 -76q-31 -49 -31 -88q0 -25 10 -35zM3213 223q-41 -29 -68.5 -64.5t-27.5 -76.5q0 -16 5 -32.5t18 -24.5 q49 10 75.5 49t26.5 76q0 18 -10 38zM3133 858q-35 0 -67 -45l-6 -8q-4 -12 -4 -21q-2 -12 -3 -25.5t-1 -25.5q0 -37 6 -69q2 -2 2 -7q16 10 32.5 22.5t30.5 27.5q23 23 33 48t10 48q0 10 -4 26q-11 25 -29 29zM440 858q-20 -4 -26 -29q-4 -16 -4 -24q4 -12 11 -23.5 t17 -21.5q23 -20 48.5 -35.5t52.5 -32.5l8 -4v17q0 27 -8.5 54t-30.5 54q-31 47 -62 47q-4 0 -6 -2zM348 55q12 -14 29.5 -24.5t36.5 -10.5q8 0 20 5q-2 8 -5 15t-7 15l-14 25l-11 26q-6 10 -12 19.5t-14 19.5t-15.5 19.5t-17.5 19.5l-31 33q-6 -25 -6 -47q0 -35 13.5 -65 t33.5 -50z" />
<glyph unicode="'" horiz-adv-x="282" d="M141 1001q-16 0 -27.5 12.5t-11.5 28.5t11.5 28.5t27.5 12.5t27.5 -12t11.5 -29q0 -16 -11.5 -28.5t-27.5 -12.5zM141 766q-16 0 -27.5 12.5t-11.5 30.5q0 16 11.5 28.5t27.5 12.5t27.5 -12.5t11.5 -28.5q0 -18 -11.5 -30.5t-27.5 -12.5zM141 532q-16 0 -27.5 12.5 t-11.5 28.5t11.5 28.5t27.5 12.5t27.5 -12t11.5 -29q0 -16 -11.5 -28.5t-27.5 -12.5zM141 297q-16 0 -27.5 12.5t-11.5 30.5q0 16 11.5 28.5t27.5 12.5t27.5 -12.5t11.5 -28.5q0 -18 -11.5 -30.5t-27.5 -12.5zM141 63q-16 0 -27.5 12.5t-11.5 28.5t11.5 28.5t27.5 12.5 t27.5 -12t11.5 -29q0 -16 -11.5 -28.5t-27.5 -12.5zM141 1247q-16 0 -27.5 12.5t-11.5 28.5t11.5 28.5t27.5 12.5t27.5 -12t11.5 -29q0 -16 -11.5 -28.5t-27.5 -12.5zM141 1473q-16 0 -27.5 12t-11.5 28t11.5 28.5t27.5 12.5t27.5 -12t11.5 -29q0 -16 -11.5 -28t-27.5 -12z " />
<glyph unicode="(" horiz-adv-x="4055" d="M3994 160v-62h-3933v62h412l-6 26v17q0 37 18.5 81t50 83t73.5 69.5t89 40.5q10 2 20.5 3t22.5 1q27 0 56.5 -8t62.5 -33q12 16 25.5 30.5t27.5 31.5q63 66 103 125l-47 49q-23 23 -35 50.5t-12 55.5q0 16 6 35q16 43 55 53q4 0 6 1t6 1q16 0 39 -11t45 -44 q35 -43 35 -96q0 -41 -22 -86q39 -41 78.5 -89t76.5 -97q25 43 55.5 86t61.5 83q35 47 68.5 94.5t58.5 94.5q-25 33 -45.5 60.5t-32.5 54.5q-10 18 -19.5 53t-9.5 69q0 29 9.5 51.5t31.5 34.5q20 10 39 11q16 0 33 -6q29 -10 50.5 -33t31.5 -45q10 -25 13 -48.5t3 -45.5 q0 -72 -32 -148q10 -14 22 -28.5t27 -30.5q29 -35 57.5 -71t56.5 -73l89 113q37 47 76.5 104.5t74.5 118.5q-47 86 -77.5 167t-30.5 153q0 106 81 170q25 18 54 18q16 0 35 -6q41 -16 67.5 -59t30.5 -78q2 -10 2 -22.5v-22.5q0 -82 -25.5 -162t-66.5 -158q39 -66 81 -128 t83 -122q20 -29 37.5 -54.5t33.5 -49.5q39 57 84 115.5t92 115.5q-29 68 -28 136q0 25 3 48t13 48q8 23 30.5 45t49.5 33q18 6 33 6q20 0 41 -11q23 -12 32 -34.5t9 -51.5q0 -35 -9.5 -69.5t-19.5 -52.5q-6 -10 -23.5 -32t-52.5 -65l-6 -8q25 -49 58.5 -98t72.5 -101 q31 -41 61.5 -83.5t55.5 -85.5q37 49 77 97t78 89q-23 49 -22 88q0 51 35 94q23 33 44 44t38 11q4 0 6 -1t6 -1q41 -10 57 -53q6 -18 6 -35q0 -59 -47 -106l-49 -51q25 -41 60.5 -82t70.5 -80q14 -16 27.5 -30.5t26.5 -31.5q41 33 76.5 44.5t64.5 11.5q23 0 42 -5.5 t34 -13.5q63 -29 98 -93t35 -124q0 -14 -4 -35q-2 -10 -11 -26h478zM1044 686q6 18 7 35q0 33 -21 59q-6 8 -15 18.5t-22 10.5q-2 0 -6 -10q-2 -6 -2 -19q0 -33 29 -61zM811 160q-29 39 -29 98q0 27 6 55q6 35 35 78q-37 31 -82 31q-10 0 -30 -4q-37 -10 -71 -35 t-58.5 -57.5t-39 -66.5t-14.5 -58v-8q2 -12 10.5 -22.5t36.5 -10.5h236zM924 180q8 6 8 23q0 10 -4 22q-12 31 -26.5 61.5t-35.5 59.5q-6 -12 -11 -22.5t-7 -20.5q-4 -10 -4 -21.5v-21.5q0 -57 35 -80q12 -6 22 -6q13 0 23 6zM1219 160q-12 16 -21.5 40.5t-9.5 57.5v8 q2 59 29 121q-76 104 -158 193q-23 -31 -48.5 -61t-49.5 -58q-16 -16 -29.5 -31.5t-26.5 -32.5q45 -53 80 -151q4 -10 6 -21.5t2 -21.5q0 -23 -10 -43h236zM2492 1036q-12 -41 -12 -75q0 -41 12 -80q20 25 35 44t19 25q10 20 16 46t6 48q0 27 -10 33q-2 2 -8 2q-8 0 -13 -2 q-16 -6 -28.5 -18.5t-16.5 -22.5zM1976 1389q-57 -45 -57 -125q0 -53 23.5 -118t58.5 -132q29 63 47 126.5t18 127.5v19t-2 20q-2 18 -19 46.5t-40 39.5q-4 2 -12 2q-9 0 -17 -6zM1468 950q8 -16 20.5 -35.5t29.5 -42.5q16 45 16 91q0 37 -12 73q-4 10 -16.5 22.5 t-28.5 18.5q-4 2 -13 2q-6 0 -8 -2q-10 -6 -10 -33q0 -23 6 -48.5t16 -45.5zM1323 180q4 8 4 17q0 23 -20 61l-47 70q-10 -35 -11 -70q0 -35 13.5 -54.5t29.5 -25.5q12 -4 17 -4q10 0 14 6zM1618 160q-39 51 -39 116q0 68 33 142t78 141q-29 41 -62 81t-63 77l-33 39 q-25 -45 -55.5 -88t-63.5 -86q-35 -47 -68.5 -93.5t-56.5 -93.5q37 -51 70 -106q18 -29 24.5 -52.5t6.5 -39.5q0 -23 -7 -37h236zM1800 231q6 14 8 28.5t2 31.5q0 49 -22.5 102t-58.5 111q-35 -55 -61 -113.5t-26 -111.5q0 -59 39 -97q23 -23 45 -22q4 0 5.5 1t5.5 1 q40 10 63 69zM2171 160q-27 14 -43 47q-10 20 -10 55q0 55 30.5 126t83.5 151q-16 29 -37.5 59.5t-44.5 65.5q-37 53 -75.5 108t-73.5 115q-33 -55 -68 -105.5t-69 -93.5l-19 -22q-16 -23 -36.5 -49.5t-43.5 -57.5q47 -68 77 -136.5t30 -133.5q0 -43 -14 -80 q-4 -14 -11.5 -26.5t-15.5 -22.5h340zM2324 215q10 12 11 45q0 39 -14.5 87t-24.5 77q-10 27 -27 57q-41 -63 -65.5 -119.5t-24.5 -97.5q0 -18 6 -33q16 -35 86 -34h8q25 0 33 7t12 11zM2632 160q-8 20 -9 37q0 16 7.5 39.5t23.5 52.5q16 27 33.5 52.5t38.5 53.5 q-23 47 -56.5 93.5t-68.5 93.5q-35 45 -66.5 90t-58.5 92q-37 -47 -83 -105.5t-87 -119.5q16 -29 28.5 -52.5t20.5 -46.5q14 -37 28.5 -84t14.5 -94q0 -51 -24 -84q-4 -4 -8.5 -9t-10.5 -9h277zM2722 178q16 6 29.5 25.5t13.5 60.5q0 33 -12 64l-46 -70q-23 -37 -22 -61 q0 -8 4 -17q6 -6 16 -6q5 0 17 4zM2982 780q-18 -29 -19 -55q0 -20 7 -39l30 33q16 16 22.5 32.5t6.5 30.5q0 12 -2 17q-2 2 -2 3t-2 3l-4 4q-4 0 -13.5 -5.5t-23.5 -23.5zM3115 160l-10 8q-33 39 -33 82q0 37 23 65q10 12 20 23.5t20 21.5q-12 16 -25 29.5t-28 30.5 q-35 37 -67.5 77t-61.5 81q-80 -90 -155 -191q27 -61 28 -121v-8q0 -33 -9 -57.5t-24 -40.5h322zM3207 180q4 0 4 19q0 10 -2 26.5t-12 42.5q-6 18 -25 43q-14 -14 -28 -35q-10 -10 -11 -26q0 -12 6.5 -22.5t12.5 -18.5q10 -10 24.5 -19.5t30.5 -9.5zM3465 199q2 8 2 24 q0 43 -25.5 90t-70.5 70q-25 12 -49 12q-49 0 -103 -41q12 -18 21.5 -34.5t15.5 -32.5q10 -29 13.5 -50.5t3.5 -37.5q0 -25 -6 -39h147q43 0 51 39z" />
<glyph unicode=")" horiz-adv-x="4055" d="M3516 1397q8 -16 11 -27q4 -20 4 -35q0 -59 -35 -123.5t-98 -93.5q-14 -8 -34 -13t-42 -5q-29 0 -64.5 11t-76.5 44q-12 -16 -25.5 -30.5t-28.5 -30.5q-35 -39 -70.5 -80t-60.5 -82l49 -51q47 -47 47 -107q0 -16 -6 -35q-16 -43 -57 -53q-4 0 -6 -1t-6 -1q-16 0 -38 11.5 t-44 43.5q-35 43 -35 95q0 39 22 88q-39 41 -78.5 89t-76.5 97q-25 -43 -55.5 -86t-61.5 -84q-39 -51 -72.5 -100.5t-58.5 -98.5l6 -8l52.5 -64.5t23.5 -31.5q10 -18 19.5 -53t9.5 -70q0 -29 -9.5 -51.5t-31.5 -34.5q-20 -10 -41 -10q-14 0 -33 6q-27 10 -49.5 32.5 t-30.5 45.5q-10 25 -13 48t-3 48q0 68 28 135q-47 57 -92 115.5t-84 116.5q-16 -25 -33.5 -50.5t-37.5 -54.5q-41 -59 -83 -121.5t-81 -128.5q41 -78 66.5 -157.5t25.5 -161.5v-22.5t-2 -22.5q-4 -35 -31 -78t-67 -60q-18 -6 -35 -6q-29 0 -54 19q-82 63 -81 170 q0 72 30.5 152.5t77.5 166.5q-35 61 -75 118.5t-76 104.5l-89 113q-29 -37 -57.5 -72.5t-56.5 -70.5q-14 -16 -26.5 -30.5t-22.5 -29.5q33 -76 32 -147q0 -23 -3 -46.5t-13 -47.5q-10 -23 -31.5 -45.5t-50.5 -32.5q-16 -6 -33 -6q-18 0 -39 10q-23 12 -32 34.5t-9 51.5 q0 35 9.5 69.5t19.5 53.5q12 27 32.5 54.5t45.5 60.5q-25 47 -58.5 94t-68.5 94q-31 41 -61.5 84t-55.5 86q-37 -49 -77 -97t-78 -89q23 -45 22 -86q0 -53 -35 -97q-23 -33 -45 -44t-39 -11q-4 0 -6 1t-6 1q-39 10 -55 53q-6 18 -6 35q0 29 12 56.5t35 50.5l47 49 q-39 59 -103 125q-14 16 -27.5 30.5t-25.5 30.5q-33 -25 -62.5 -33t-56.5 -8q-12 0 -22 1t-21 3q-47 10 -89 41t-73.5 70t-50 83t-18.5 81v16l6 27h-412v61h3933v-61h-478zM1014 838q-29 -29 -29 -62q0 -12 2 -18q4 -10 6 -10q12 0 21.5 10t15.5 18q20 27 21 60q0 16 -7 34z M811 1397h-236q-29 0 -37 -10.5t-10 -22.5v-8q0 -25 14.5 -58.5t39 -66.5t58.5 -58.5t71 -33.5q20 -4 30 -4q45 0 82 30q-29 43 -35 78q-6 27 -6 55q0 60 29 99zM924 1376q-10 6 -23 6q-10 0 -22 -6q-35 -23 -35 -80v-21t4 -22q2 -10 7 -20t11 -23q20 29 34.5 59.5 t27.5 61.5q4 12 4 23q0 14 -8 22zM983 1397q10 -20 10 -43q0 -10 -2 -21.5t-6 -21.5q-35 -98 -80 -152q12 -16 25.5 -31.5t30.5 -31.5q25 -29 50 -58.5t48 -60.5q82 88 158 192q-27 61 -29 121v8q0 33 9 57.5t22 41.5h-236zM2492 520q4 -10 16.5 -22.5t28.5 -18.5 q4 -2 13 -2q6 0 8 2q10 6 10 33q0 23 -6 48.5t-16 45.5q-4 6 -18.5 25.5t-35.5 44.5q-12 -41 -12 -80q0 -37 12 -76zM1976 168q8 -6 17 -6q8 0 12 2q23 10 40 38.5t19 47.5q2 10 2 19.5v19.5q0 63 -18 126.5t-47 127.5q-35 -68 -58.5 -132.5t-23.5 -117.5q0 -80 57 -125z M1468 606q-10 -20 -16 -45.5t-6 -48.5q0 -27 10 -33q2 -2 8 -2q8 0 13 2q16 6 28.5 18.5t16.5 22.5q12 37 12 74q0 45 -16 90q-16 -23 -29 -42.5t-21 -35.5zM1323 1376q-4 6 -14 6q-4 0 -17 -4q-16 -6 -29.5 -25.5t-13.5 -54.5t11 -69l47 69q20 39 20 62q0 8 -4 16z M1382 1397q6 -16 7 -37q0 -16 -6.5 -40t-24.5 -52q-33 -55 -70 -107q23 -47 56.5 -93t68.5 -93q33 -43 63.5 -86t55.5 -88l33 39q31 37 63.5 76.5t61.5 80.5q-45 68 -78 141.5t-33 141.5q0 66 39 117h-236zM1800 1325q-23 59 -63 70q-4 0 -5 1t-6 1q-23 0 -45 -23 q-39 -37 -39 -96q0 -53 26 -111.5t61 -113.5q37 57 59 110.5t22 102.5q0 16 -2 30.5t-8 28.5zM1831 1397q8 -10 15 -22.5t12 -26.5q14 -37 14 -80q0 -66 -30 -134.5t-77 -136.5q23 -31 43.5 -57.5t36.5 -48.5l19 -23q35 -43 69.5 -93t67.5 -105q35 59 74 114.5t75 108.5 q23 35 44.5 65.5t37.5 59.5q-53 80 -83.5 150.5t-30.5 125.5q0 35 10 56q16 33 43 47h-340zM2324 1341q-4 4 -12 11.5t-33 7.5h-8q-70 0 -86 -35q-6 -16 -6 -33q0 -41 24.5 -97t65.5 -120q16 31 27 58q10 29 24.5 76.5t14.5 86.5q-1 33 -11 45zM2632 1397h-277 q6 -4 10.5 -9.5t8.5 -9.5q25 -35 24 -84q0 -47 -14 -94t-29 -84q-8 -23 -20.5 -46t-28.5 -52q41 -61 87 -119.5t83 -105.5q27 47 58.5 92t66.5 90q35 47 68.5 93t56.5 93q-20 29 -37.5 54.5t-34.5 52.5q-16 29 -23.5 52t-7.5 40q1 17 9 37zM2722 1378q-12 4 -17 4 q-10 0 -16 -6q-4 -8 -4 -16q0 -25 22 -62l46 -69q12 31 12 63q0 41 -13.5 60.5t-29.5 25.5zM2982 776q14 -18 23.5 -23t13.5 -5l4 4q2 2 2 3t2 3q2 4 2 16q0 14 -6 30.5t-23 33.5l-30 32q-6 -18 -7 -39q1 -28 19 -55zM2793 1397q14 -16 23.5 -41t9.5 -58v-8q-2 -59 -28 -121 q76 -100 155 -190q29 41 61.5 81t67.5 77q14 16 27.5 29.5t25.5 29.5q-10 10 -20 21.5t-20 23.5q-23 29 -23 66q0 43 33 82l10 8h-322zM3207 1376q-16 0 -30.5 -9t-24.5 -19q-6 -8 -12.5 -18.5t-6.5 -22.5q0 -16 11 -27q14 -23 28 -35q18 25 25 43q10 27 12 43.5t2 26.5 q0 18 -4 18zM3465 1358q-8 39 -51 39h-147q6 -16 6 -39q0 -16 -3 -38t-14 -50q-6 -16 -15 -32.5t-22 -35.5q53 -41 103 -41q25 0 49 13q45 23 70.5 69.5t25.5 89.5q0 17 -2 25z" />
<glyph unicode="*" horiz-adv-x="3573" d="M1733 465l16 31q-66 86 -125 158.5t-127 154.5l-12 16q-6 6 -11.5 13.5t-11.5 15.5q-23 -33 -47 -63.5t-49 -59.5l-72 -90q31 -61 31 -129q0 -23 -3 -46.5t-13 -47.5q-10 -25 -35 -49.5t-53 -34.5q-16 -6 -31 -6h-10q-14 0 -31 8q-23 12 -31 37l-6 16q-4 10 -4 19.5v19.5 q0 31 6 55q10 47 27.5 88t40.5 80q8 16 16 29.5t19 30.5q-35 45 -79 89t-91 89q-53 51 -104.5 103t-88.5 108q-20 -12 -39.5 -24.5t-40.5 -22.5q-31 -16 -60.5 -29.5t-60.5 -28.5q-18 -8 -37.5 -17t-37.5 -20q2 -6 2 -13v-13q0 -33 -10.5 -65.5t-37.5 -65.5 q-27 -35 -48 -46.5t-38 -11.5h-10q-39 6 -51 52q-6 14 -6 36q0 29 11 59t40 58q37 37 96 70q-16 47 -53 98t-76 98q-23 29 -43 55.5t-37 53.5q-10 -4 -18 -6t-18 -4q-20 -4 -37 -4q-51 0 -105.5 23.5t-77.5 62.5l29 14q16 -29 41 -41t51 -14q10 0 23 4q31 8 53 20 q6 4 12 8.5t11 8.5q-6 16 -8.5 32.5t-2.5 32.5q0 43 16.5 79t39.5 58q47 47 90 48q12 0 24 -7q14 -4 30.5 -22.5t18.5 -63.5q0 -31 -11 -56.5t-29 -47.5q0 -2 -1.5 -3t-1.5 -3q-12 -27 -38 -56q-14 -14 -30 -26t-34 -23q16 -25 35.5 -50t42.5 -54q37 -47 72.5 -95t58.5 -100 q16 10 30.5 18.5t30.5 16.5q29 16 58.5 30.5t58.5 31.5q20 10 40 21t40 24q-20 49 -25 102v10q0 66 28 102t63 50q18 6 36 6q41 0 62 -27q10 -4 18 -18t13 -23q12 -37 12 -75q0 -10 -2 -20.5t-6 -20.5q0 -4 -4 -13l-17 -24q-23 -35 -51.5 -61.5t-58.5 -49.5q37 -53 87 -105 t103 -102l86 -86t78 -88l41 64q25 35 50.5 68.5t47.5 68.5q6 8 12.5 15.5t10.5 17.5q-29 59 -45.5 125.5t-16.5 136.5q0 25 2 50.5t8 49.5q10 49 39 78t70 29h8q31 -4 58 -19q20 -10 41 -28q23 -23 39 -53.5t20 -69.5v-21v-23.5t-2 -23.5q0 -23 -5 -47.5t-12 -46.5 q-8 -23 -15 -44.5t-17 -41.5q-37 -78 -86 -141q8 -10 14 -18.5t12 -18.5l15 -17q63 -78 120.5 -149.5t122.5 -155.5l56 84q10 16 21 30.5t22 31.5l45 65q45 61 89 120.5t85 119.5q-41 61 -68.5 127.5t-27.5 140.5q0 8 1 14.5t1 14.5q2 37 17 66.5t36.5 52t49.5 36t54 15.5h8 q37 0 68 -27l10 -6q23 -18 33 -39q4 -4 5 -10t5 -12q4 -12 4 -21q6 -23 8.5 -43t2.5 -43q0 -43 -8.5 -85t-22.5 -81q-16 -41 -32.5 -78t-39.5 -71l-12 -23l137 -160q6 14 14.5 26.5t16.5 25.5q27 39 58.5 71.5t64.5 61.5t63.5 55.5t59.5 54.5q57 57 96 123l10 19 q-49 39 -78 88q-20 33 -27 58.5t-7 43.5q0 23 6 36t12 19q20 27 61 27q18 0 37 -6q18 -8 43 -29q8 -6 21 -22q14 -20 20 -43t10 -45q2 -10 2.5 -17.5t0.5 -17.5q0 -29 -5.5 -56.5t-13.5 -56.5q35 -20 71 -38.5t72 -35.5q20 -10 40 -19t40 -20q12 53 38 101.5t54 89.5 q29 39 55.5 75t49.5 72q-47 33 -79 74t-32 88v8q2 45 18.5 63.5t28.5 22.5q8 4 27 4q47 0 90 -45q18 -20 33.5 -48.5t19.5 -63.5q0 -4 1 -8t1 -9v-12q-2 -18 -5 -37.5t-13 -40.5q0 -4 -2 -6q8 -4 15.5 -6t17.5 -4q14 -6 45 -6t64.5 13t54.5 52l30 -26q-39 -74 -135 -74 q-27 0 -67 10l-39 12q0 -2 -4 -6q-20 -43 -46 -81.5t-53 -73.5q-37 -53 -67 -105q-18 -33 -31 -71q39 -25 76 -58q29 -29 39 -59.5t10 -59.5v-18t-4 -16q-12 -45 -51 -52h-11q-23 0 -49 17q-6 4 -13 7t-11 7q-16 12 -24.5 28.5t-16.5 33.5q-25 61 -25 125v14q0 10 1 19.5 t3 19.5l-88 43q-35 16 -69.5 32.5t-69.5 36.5q0 -2 -1 -3t-1 -3q-33 -84 -94 -157q-29 -35 -61 -67t-62 -60q-31 -29 -58.5 -56.5t-52.5 -56.5q-14 -16 -25.5 -31.5t-23.5 -32.5l-6 -8q14 -23 27.5 -42t23.5 -42q8 -16 20.5 -59t12.5 -84q0 -29 -8.5 -52.5t-30.5 -35.5 q-14 -8 -37 -8q-16 0 -35 6q-29 10 -53.5 34.5t-34.5 49.5t-13 49.5t-3 46.5v18.5t2 18.5q0 18 2 36.5t6 35.5q4 12 7 24t7 25l21 41q-16 23 -34.5 42t-35.5 40l-67 79q-35 -57 -74 -109t-78 -103q-10 -16 -21.5 -31t-23.5 -31q-10 -16 -22.5 -31.5t-24.5 -31.5 q-23 -29 -42.5 -53.5t-39.5 -53.5q12 -18 28.5 -48t30 -63.5t22.5 -71.5t9 -75q0 -41 -14.5 -78t-50.5 -65q-25 -18 -54 -19q-16 0 -35 6q-41 18 -72.5 65.5t-35.5 86.5v18q0 41 10 88q4 20 7 39t10 37q10 31 21.5 59.5t23.5 55.5zM2019 1268q0 -6 -1 -13.5t-1 -13.5 q0 -66 23.5 -125t60.5 -117q39 59 69 120t42 126q6 25 6 53v17q0 12 -2 18q0 8 -2 15q-4 12 -12 24q-18 25 -58 31h-20q-37 -10 -69 -47t-36 -88zM1415 999q23 33 45 76q10 16 18.5 33.5t16.5 36.5q8 18 13 34.5t10 34.5q6 27 6 58q0 45 -17 84q-16 31 -47 39q-6 2 -20 2 q-20 0 -31 -2q-29 -25 -37 -68q-8 -39 -8 -90q0 -61 14 -121t37 -117zM1839 51q29 23 41 54.5t12 66.5q0 63 -27.5 126.5t-49.5 104.5l-46 -84q-23 -45 -38 -104q-4 -14 -6.5 -28.5t-2.5 -30.5q0 -27 7 -47l6 -27q20 -25 47 -37q12 -6 24 -6q17 0 33 12zM1186 358q8 0 24 4 q23 10 43.5 30t24.5 36q16 49 16 88q0 47 -20 98l-12 -14q-27 -33 -50.5 -66.5t-42.5 -68.5q-10 -16 -16 -34.5t-8 -37.5q6 -20 18 -31q9 -4 23 -4zM817 1284q4 -47 21 -88q35 25 71 53l23 33q27 45 31 80q-10 8 -11.5 25.5t-13.5 27.5q-16 4 -25 4q-10 0 -26 -4 q-27 -10 -48.5 -41t-21.5 -90zM2404 553q-8 18 -18 35.5t-23 34.5l-12 -25q-10 -33 -17 -67.5t-7 -69.5v-12q2 -20 6 -37t14 -33q4 -6 18 -17q12 -4 25 -4q14 0 20 4q14 8 19.5 24.5t5.5 39.5q0 35 -10.5 71t-20.5 56zM2623 1405q-10 -10 -10 -35q0 -39 31 -88 q27 -45 66 -76q20 45 30 99q0 6 1 12t1 12q0 23 -6 45q-10 16 -22.5 25.5t-24.5 15.5q-16 6 -29 6q-25 0 -37 -16zM3213 1409l19 35q10 20 10 39q0 37 -26.5 75.5t-75.5 49.5q-12 -8 -17.5 -24.5t-5.5 -33.5q0 -41 27.5 -76.5t68.5 -64.5zM3133 774q18 4 29 29q4 16 4 26 q0 23 -10 48.5t-33 48.5q-14 14 -30.5 26.5t-32.5 22.5q0 -4 -2 -6q-6 -35 -6 -70q0 -12 1 -25.5t3 -25.5q0 -8 4 -21l6 -8q32 -45 67 -45zM440 774q2 -2 6 -2q31 0 62 47q23 27 31 54.5t8 54.5v16l-8 -4q-27 -16 -52.5 -31.5t-48.5 -36.5q-10 -10 -17 -21t-11 -24 q0 -8 4 -24q6 -25 26 -29zM348 1577q-20 -20 -33.5 -50t-13.5 -65q0 -23 6 -47l31 33q10 10 17 19.5t16 19.5q8 10 14 19.5t12 19.5l11 26l14 25q4 8 7 15t5 16q-12 4 -20 4q-18 0 -36 -10.5t-30 -24.5z" />
<glyph unicode="+" horiz-adv-x="3186" d="M1386 1063q31 0 48 -23l10 -14q27 -25 43 -59q20 -45 22 -88q2 -10 2 -19.5v-19.5q0 -72 -24 -140q-14 -43 -37 -81.5t-57 -71.5l-7 -6q78 -145 205 -146q27 0 51 6q35 23 61 51.5t44 61.5q23 41 37 82q-12 20 -19.5 37.5t-11.5 30.5q-2 6 -8 30.5t-12.5 59t-10.5 75.5 t-4 80q0 41 7.5 76t23.5 55q20 25 47 25q4 0 6 -1t6 -1q12 0 29 -8q8 0 29 -8q8 -4 15 -9.5t13 -11.5q23 -25 33 -59q8 -31 12 -60q2 -10 2.5 -21.5t0.5 -21.5q0 -39 -7 -76q-4 -29 -9 -55t-13 -55q-10 -35 -23.5 -70t-34.5 -69q20 -16 46 -26.5t61 -10.5q10 0 18.5 1 t18.5 3q45 23 78 65q25 35 41 76q-29 45 -43 98q0 2 -10.5 48.5t-10.5 99.5q0 35 9.5 63.5t31.5 36.5q6 2 11 3t12 1q23 0 39 -16l8 -10q12 -6 22 -17q6 -10 11.5 -19t9.5 -20q14 -41 18 -79q2 -12 3 -24.5t1 -25.5q0 -8 -1 -16t-1 -16q-6 -41 -18 -82q-6 -16 -12.5 -31.5 t-16.5 -30.5q41 -29 103 -28q10 0 17 1t13 1q31 27 56 55q20 23 32 51q-10 10 -20 22.5t-19 26.5q-10 16 -19 41t-9 49q0 18 7 36t23 32q29 23 54 23q8 0 20 -5l17 -8q10 -2 17 -8t13 -14q12 -16 17.5 -32.5t7.5 -33.5q0 -6 1 -12t1 -12q0 -51 -25 -101l-10 -20q10 0 16 -2 h15q31 0 59.5 12t50.5 37q25 29 44.5 59.5t35.5 63.5q35 63 80 119.5t129 74.5q8 2 16.5 2h16.5q47 0 97 -21.5t73 -62.5q14 -25 14 -55q0 -18 -10 -43q-16 -31 -49 -37l-2 19q25 6 33 26q8 14 8 35q0 25 -10 45q-20 37 -64.5 55.5t-87.5 18.5q-20 0 -31 -2 q-78 -16 -120 -68.5t-76 -115.5q-16 -33 -36 -65t-46 -60q-47 -57 -123 -58q-4 0 -9 1t-10 1q-8 0 -24 4q-23 -35 -64 -61q-49 -31 -114 -35q-72 0 -117 33q-23 -35 -55 -64q-25 -23 -56.5 -34t-62.5 -11h-12q-6 0 -12.5 -1t-12.5 -1q-35 0 -63.5 11.5t-51.5 27.5l-39 -53 q-20 -23 -43.5 -41t-52.5 -31q-41 -18 -88 -18h-12q-6 -2 -21 -2q-139 0 -221 149q-25 -18 -55 -30q-35 -10 -64 -11q-10 -2 -28 -2q-27 0 -58 6q-59 14 -91 43t-48 64q-18 -12 -41 -18q-43 -16 -90 -17q-88 4 -139 70q-8 8 -13.5 16t-9.5 17q-8 0 -12 -2q-16 -4 -32.5 -7.5 t-18.5 -3.5q-76 0 -131 74q-18 29 -32.5 55.5t-29.5 53.5q-29 53 -60.5 99t-101.5 81q-23 10 -47 16t-51 6q-31 0 -59.5 -9t-51.5 -32q-25 -23 -24 -61q0 -12 4 -29q10 -39 53 -45l-2 -18q-55 6 -71 57q-4 20 -5 31q0 47 33 80q27 25 57.5 35t65.5 10q57 0 107 -23 q74 -37 108.5 -85t63.5 -105q12 -25 26.5 -50.5t32.5 -54.5q47 -66 115 -65q8 0 15 1t17 3l15 24q-10 29 -15.5 60t-5.5 57v23.5t4 21.5q10 43 45 53q12 4 21 5q25 0 51 -23q12 -10 23 -27q18 -18 22 -45v-12q0 -23 -8 -42t-18 -36q-25 -35 -62 -55q-6 -4 -11 -6t-11 -4 q4 -10 18 -27q49 -61 125 -61h23.5t21.5 4q43 35 64 67l-5 19q-2 6 -7 50t-5 97q0 49 8.5 94t30.5 68q16 16 39 16q6 0 11 -1t11 -3q8 -2 21 -14q8 -4 18 -12q10 -14 19 -33q6 -18 8 -35.5t2 -36.5q0 -35 -7 -66.5t-20 -64.5q-10 -31 -28.5 -61.5t-46.5 -55.5l-11 -8 q16 -35 45 -60.5t82 -37.5q25 -6 48 -6q14 0 27 2t24 6q25 14 42 32.5t33 41.5q-8 16 -14 34.5t-12 38.5q-6 18 -16.5 82t-10.5 135q0 45 7.5 85t23.5 67q20 33 53 37h12zM1419 1028q-12 16 -30 16q-4 0 -5.5 -1t-5.5 -1q-27 -4 -41 -26q-16 -25 -21 -63t-5 -81 q0 -66 9 -126t15 -82l21 -60q18 29 32.5 59.5t24.5 61.5q14 43 25 94q6 45 6 92q0 37 -5.5 69t-19.5 48zM1772 670q4 -10 8 -23.5t12 -28.5q8 23 14 43.5t13 43.5l24 100q4 27 8 51.5t9 48.5q0 10 1 19.5t1 19.5q0 33 -9 51q-6 18 -26 31q-18 8 -51 8q4 4 8 5t8 5 q-18 -2 -29 -16q-14 -16 -19 -48t-5 -69t4 -75.5t9 -72.5t10.5 -59.5t9.5 -33.5zM2144 967q-12 12 -24 12q-6 0 -19 -4q-16 -4 -21 -26.5t-5 -53.5q0 -39 6 -80t12 -63q10 -41 35 -82q4 16 8 24q4 16 7 33.5t7 34.5l11 74l6 71v17q-4 14 -9.5 25.5t-13.5 17.5zM1018 676 q23 39 37 82q10 29 20 57.5t19 56.5q4 14 6 26.5t6 25.5q-4 45 -25 51q-12 4 -18 4q-12 0 -23 -10q-20 -20 -26 -64.5t-6 -91.5q0 -49 3 -88t7 -49zM2378 883q-23 -20 -23 -56q0 -23 7.5 -43t17.5 -34q14 -27 33 -41l14 39l6 24q4 12 6 24.5t4 24.5q2 10 3 17.5t1 15.5v12 q0 12 -4 19q-6 8 -18 14q-2 0 -4 1t-4 1q-10 0 -19.5 -5t-19.5 -13zM721 858q-6 -18 -6 -47q0 -45 14 -88l43 57q8 14 16.5 25.5t12.5 21.5q4 8 4 17v22q0 10 -2 19q-25 14 -39 14q-8 0 -12 -2q-25 -6 -31 -39z" />
<glyph unicode="," horiz-adv-x="387" d="M293 795q-29 -2 -57.5 -11.5t-56 -18.5t-53.5 -17.5t-48 -8.5q-16 23 -17 56q0 33 12.5 62.5t26.5 45.5q35 -16 69 -31.5t64 -19.5zM322 903q-33 33 -77 54.5t-67 48.5q6 33 44 52t67 19q8 -31 16 -58.5t21 -49.5zM295 643q-12 -23 -20.5 -50.5t-16.5 -57.5 q-14 0 -32.5 5t-35 14t-28.5 22.5t-15 29.5q23 27 67 48.5t77 54.5z" />
<glyph unicode="-" horiz-adv-x="4505" d="M4442 31q0 -45 -5 -93.5t-26 -87.5l-28 13q23 45 26.5 104.5t3.5 104.5q-16 72 -46.5 91t-84.5 19q-10 0 -22 -1t-25 -1h-25.5t-27.5 -2l-96 -14q-49 -6 -101 -6q-51 0 -92 8q-47 8 -94 29.5t-82 62.5l-18 23q-29 27 -41 67q-18 -59 -52 -114.5t-78 -100.5t-98.5 -75.5 t-111.5 -43.5q-35 -6 -64 -6q-49 0 -90 15l-29 6q-27 8 -49 22.5t-43 32.5q-37 39 -62.5 84t-43.5 92l-10 33q-78 -53 -166 -76.5t-160 -28.5q-14 -2 -27.5 -3t-27.5 -1q-51 0 -101.5 11.5t-97.5 31.5q-51 23 -94 54q-23 -16 -46.5 -29.5t-47.5 -24.5q-45 -20 -96.5 -31.5 t-98.5 -11.5q-31 0 -57 6q-168 0 -330 103q-2 -14 -10 -33q-18 -47 -44 -92t-63 -84q-20 -18 -42.5 -32.5t-47.5 -22.5l-31 -6q-41 -14 -90 -15q-31 0 -63 6q-57 12 -110.5 43t-98.5 76t-78 100.5t-51 114.5q-8 -18 -17.5 -35.5t-23.5 -31.5q-2 -2 -4 -3.5t-4 -5.5l-13 -14 q-35 -41 -82 -62.5t-94 -29.5q-41 -8 -92 -8q-49 0 -98 6l-98 14q-14 2 -27.5 2h-26.5q-12 0 -23.5 1t-21.5 1q-53 0 -85 -20.5t-46 -93.5q0 -41 3 -100.5t26 -104.5l-27 -13q-25 47 -29 111t-4 111q18 92 62.5 116.5t103.5 24.5q10 0 21.5 -1t21.5 -1q18 0 39 -1t43 -1 l70 4q47 0 91 2t87 10t82 22.5t72 43.5q29 27 55 65q6 10 10 22.5t8 24.5q2 8 3 14.5t1 14.5q-2 10 -2 19.5v19.5l31 2q0 -10 1 -19.5t1 -17.5q6 -68 35 -132t74 -117.5t102 -91.5t119 -50q31 -6 61 -6q63 0 113 31q14 12 25.5 24t21.5 29q23 37 36 79t24 87q8 37 12 73 l-6 5q-82 55 -165 128.5t-150.5 158.5t-109.5 178.5t-42 185.5v19.5t2 19.5q6 70 63 94q10 4 21.5 7t21.5 7q47 20 94 21q47 0 91 -19q49 -20 89 -56t70 -77q61 -86 95 -180t51 -195q4 -29 7 -59.5t3 -60.5q0 -41 -6 -84q-4 -33 -10.5 -66t-16.5 -65q158 -102 324 -103 q43 0 84 6t82 23q33 16 60.5 36.5t53.5 43.5q-16 14 -29.5 28.5t-27.5 30.5q-45 51 -76 111q-16 29 -28.5 61.5t-22.5 65.5q-27 92 -27 194q0 18 1 37t4 37q10 135 56 258t120 233l37 52q-8 14 -16.5 25.5t-18.5 23.5q-18 25 -37 43q-37 41 -96 63q-16 6 -34 11.5t-36 9.5 h-8q-57 0 -105.5 -18.5t-83.5 -57.5q-51 -59 -51 -147q0 -72 37 -146l-27 -12q-23 41 -32 81t-9 79q0 94 60 163q76 88 207 89q59 0 131 -23l18 -8q18 -6 34.5 -14.5t33.5 -18.5l53 -43q16 -18 35 -35l33 35l53 43q35 20 67 33l19 8q72 23 131 23q131 0 207 -89 q61 -68 61 -163q0 -78 -41 -160l-28 12q37 74 36 146q0 88 -51 147q-35 39 -83 57.5t-105 18.5h-8q-18 -4 -36 -9.5t-34 -11.5q-55 -20 -94 -63q-18 -16 -39 -43l-35 -49l37 -52q74 -111 120 -233.5t56 -257.5q2 -18 3 -36.5t1 -37.5q0 -102 -26 -194q-10 -33 -22.5 -66 t-29.5 -61q-31 -59 -75 -111q-12 -16 -26.5 -30.5t-31.5 -28.5q27 -23 55.5 -43.5t59.5 -36.5q41 -16 82 -22.5t84 -6.5q166 0 323 103q-10 33 -16 65.5t-10 65.5q-6 39 -6 77q0 33 3 65t7 62q16 100 51 194.5t94 180.5q31 41 71 77t89 56q43 18 92 19q45 0 92 -21 q10 -4 21.5 -7t21.5 -7q55 -25 66 -94q2 -10 2 -19.5v-19.5q0 -94 -43 -187.5t-111.5 -178.5t-153.5 -159.5t-167 -130.5l12 -73q10 -45 24.5 -87t36.5 -79q14 -31 46 -53q51 -31 114 -31q29 0 60 6q61 12 118.5 50t102.5 91.5t74.5 118t35.5 131.5v17.5t2 19.5l31 -2 q0 -10 -1 -19.5t-1 -19.5q0 -18 2 -29q4 -12 9 -24t12 -23q23 -39 55 -65q31 -29 71 -43.5t80 -22.5q43 -8 88.5 -10t92.5 -2l69 -4q23 0 42.5 1t39.5 1q10 0 21.5 1t21.5 1q57 0 101.5 -24.5t62.5 -114.5v-43zM1044 1053q-2 -10 -2 -19.5v-19.5q0 -86 40 -173t104.5 -168 t144.5 -151.5t160 -124.5l6 70q2 12 2 24.5v24.5q0 31 -3 62.5t-7 64.5q-14 88 -39 175t-66 165q-14 27 -34 55q-16 20 -36 37t-40 31q-23 14 -54.5 22.5t-64.5 8.5q-37 0 -63 -13q-46 -22 -48 -71zM2253 1350q-6 -6 -8 -15q-55 -106 -91 -220t-47 -230q-2 -20 -3 -39 t-1 -39q0 -74 17 -152q12 -51 34 -108q12 -27 25.5 -52.5t30.5 -48.5q18 -31 43 -55q25 29 41 55q16 23 29.5 48.5t25.5 52.5q23 57 35 108q10 41 13 81t3 81v33.5t-2 34.5q-10 117 -46 230.5t-93 219.5zM3461 1053q-6 49 -49 71q-29 12 -64 13q-31 0 -62.5 -8.5 t-53.5 -22.5q-39 -25 -78 -68q-10 -12 -18.5 -25.5t-16.5 -29.5q-41 -78 -65.5 -165t-36.5 -175q-12 -68 -13 -131v-22.5t2 -22.5q2 -16 3.5 -34.5t5.5 -35.5q80 53 160.5 124t144 152t103.5 168t40 175v18.5t-2 18.5z" />
<glyph unicode="." horiz-adv-x="1585" d="M63 442v17q0 45 11.5 76.5t29 52t37 33t35.5 18.5q33 12 72 12h16t17 -2h18t18 -4q39 -6 82 -29q2 4 4.5 8.5t6.5 8.5q25 33 53.5 65.5t64 59t75.5 43t85 16.5q8 0 14.5 -1t12.5 -1v19q0 47 16.5 100t47 99t72.5 81t93 47q14 4 27.5 5t27.5 3q4 63 26 125t67 90 q10 8 24 13.5t35 5.5q20 0 45 -7t55 -28l-18 -27q-47 31 -82 31q-25 0 -43 -12q-35 -23 -54.5 -78t-23.5 -115q35 -2 67.5 -11t61.5 -23q47 -23 89 -54.5t73 -81.5q12 -20 21.5 -43.5t9.5 -50.5q0 -4 -1 -10t-1 -10q-8 -37 -37 -62l-10 -10q-31 -31 -78 -31t-99 35 q-57 39 -81.5 102.5t-40.5 137.5q-25 6 -48 6h-18q-53 0 -115 -25q-2 0 -6 -4q-72 -72 -72 -201v-20q53 -10 101.5 -31.5t89.5 -50.5q53 -37 98 -84t74 -110q10 -23 17.5 -47.5t7.5 -51.5q0 -20 -7 -41q-14 -41 -41 -61q-12 -6 -14 -8l-2 -2q-47 -27 -82 -27q-27 0 -51 12 q-43 18 -77 65.5t-59.5 104t-43 115.5t-27.5 106q-12 4 -24.5 8.5t-24.5 8.5q-29 6 -51 6q-23 0 -43 -6l-13 -4l-6 -2q-4 -4 -4 -3t-4 -1q-23 -6 -28 -7.5t-5 -3.5q-53 -31 -92 -82l-10 -14l8 -6q49 -31 84 -78q20 -29 37.5 -75t17.5 -93q0 -16 -2 -32.5t-10 -30.5 q-35 -55 -104 -56q-70 0 -101 60q-18 39 -18 94q0 78 26 154q-29 27 -65 41q-55 27 -121 28q-82 -37 -82 -149v-15h-31zM1145 840q41 -29 80 -29q31 0 57 23q10 10 14 18q0 23 -4 33q-8 27 -43 55q-29 25 -65.5 45.5t-75.5 36.5q-18 8 -35.5 14t-36.5 11q12 -59 35 -115.5 t74 -91.5zM948 338q20 -10 39 -10q31 0 66 22l8 6q4 10 6 19.5t2 19.5v8q-4 23 -15.5 43.5t-27.5 40.5q-31 41 -72 76t-86 66q-27 16 -52 30.5t-52 26.5q10 -47 27.5 -101.5t41 -104.5t52 -89t63.5 -53zM457 260q20 0 37 6q14 18 14 39q0 14 -5 27.5t-11 29.5 q-31 68 -80 127l-23 25q-10 -31 -16 -64.5t-6 -66.5q0 -47 16 -80q21 -43 74 -43z" />
<glyph unicode="/" horiz-adv-x="1593" d="M1319 442v15q0 113 -82 149q-66 -2 -121 -28q-37 -14 -65 -41q27 -76 26 -154q0 -55 -18 -94q-31 -59 -103 -60q-47 0 -69.5 18.5t-32.5 37.5q-8 14 -10 30.5t-2 32.5q0 47 17.5 93t37.5 75q35 47 84 78l8 6l-10 14q-20 27 -44 47.5t-50 36.5l-31 9q-4 2 -4 1t-4 3l-6 2 l-13 4q-23 6 -43 6q-25 0 -51 -6q-12 -4 -24.5 -8t-24.5 -9q-10 -47 -27.5 -106t-43 -115.5t-59.5 -103.5t-77 -66q-25 -12 -45 -12q-23 0 -43 9t-47 20l-14 8q-29 20 -41 61q-6 20 -6 41q0 27 7 51.5t17 47.5q29 63 74 110t98 84q41 29 89 50.5t102 31.5v20q0 129 -72 201 q-4 4 -6 4q-61 25 -115 25h-18q-23 0 -47 -6q-16 -74 -41 -137.5t-82 -102.5q-51 -35 -99 -35q-47 0 -77 31l-11 10q-29 25 -37 62q0 4 -1 10t-1 10q0 27 9.5 50.5t21.5 43.5q31 49 73 81t89 55q29 14 61.5 23t67.5 11q-4 59 -23.5 114.5t-54.5 78.5q-18 12 -43 12 q-37 0 -82 -31l-18 27q31 20 55.5 27.5t44.5 7.5t34.5 -5t25.5 -14q45 -29 66.5 -90t25.5 -125q14 -2 27.5 -3t27.5 -5q49 -12 90 -45t70.5 -78t47 -98t21.5 -106v-19q6 0 12.5 1t14.5 1q88 0 156.5 -56t122.5 -128q4 -4 6 -8t4 -9q43 23 82 29q10 4 18 4h19q8 2 16 2h16 q37 0 72 -12q16 -6 35.5 -18.5t37 -33t29 -52t11.5 -76.5v-17h-31zM268 840q51 35 74 91t35 116q-33 -8 -72 -25q-39 -16 -75.5 -36.5t-65.5 -45.5q-16 -12 -27.5 -25.5t-15.5 -29.5q-4 -10 -4 -33q4 -8 14 -18q27 -23 57 -23q39 0 80 29zM465 338q33 14 62.5 53t53 89 t41 104.5t27.5 101.5q-27 -12 -52.5 -26.5t-51.5 -30.5q-45 -31 -86 -66t-72 -76q-16 -20 -27.5 -40.5t-15.5 -43.5v-8q0 -10 2 -19t6 -20l8 -6q35 -23 66 -22q19 0 39 10zM956 260q51 0 74 43q16 33 17 80q0 33 -6.5 66.5t-16.5 64.5l-23 -25q-49 -59 -79 -127 q-6 -16 -11.5 -30.5t-5.5 -32.5q0 -14 15 -33q13 -6 36 -6z" />
<glyph unicode="0" horiz-adv-x="4519" d="M4458 1440q-12 -59 -34.5 -90t-53 -44.5t-65.5 -14.5t-70 -1q-23 2 -47 2h-53h-104.5t-112.5 -8t-104.5 -26.5t-79.5 -51.5q-43 -47 -44 -121v-38l-59 -3q-2 10 -2 19.5v19.5q-6 70 -38 133.5t-76 112.5t-98 83t-107 46q-92 20 -163 -22.5t-118 -143.5q-18 -47 -31 -100 q10 -6 18.5 -13.5t18.5 -15.5q88 -59 177 -139t158 -172t108.5 -192.5t27.5 -200.5q-6 -74 -72 -107q-51 -25 -116.5 -16.5t-110.5 37.5q-80 49 -138 140t-94 201.5t-47.5 228.5t5.5 222q-137 98 -282.5 113.5t-274.5 -49.5q-37 -18 -68 -43q104 -102 151.5 -251t28.5 -323 q-8 -59 -22.5 -131.5t-37 -148.5t-54 -149.5t-74.5 -135.5q29 -37 64.5 -64.5t76.5 -43.5q90 -29 166 -15.5t123 66.5q45 53 48 124.5t-36 149.5l56 29q47 -96 41.5 -186.5t-62.5 -155.5q-59 -70 -153.5 -87.5t-202.5 17.5q-47 16 -86 47t-74 70q-35 -39 -75 -69.5 t-87 -47.5q-109 -35 -202 -17.5t-152 87.5q-57 66 -62.5 156t41.5 186l56 -29q-41 -78 -37 -149.5t49 -124.5q47 -53 123 -66.5t164 15.5q41 16 76.5 43.5t66.5 64.5q-43 63 -74.5 137t-54 150t-37 147.5t-22.5 130.5q-18 174 28.5 322.5t151.5 251.5q-31 25 -68 43 q-129 66 -274.5 50.5t-282.5 -114.5q14 -104 3 -222t-47 -228.5t-94 -201.5t-138 -140q-43 -29 -108.5 -37t-117.5 16q-63 31 -73 107q-10 100 28.5 200.5t107.5 192.5t158 172t179 139l35 29q-8 53 -31 100q-45 100 -116.5 143.5t-162.5 22.5q-53 -12 -107 -46t-99 -83 t-76 -112.5t-37 -133.5v-19t-2 -20l-62 3v19t2 19q0 74 -43 121q-31 33 -80 51.5t-105 26.5t-113.5 8h-104.5h-52.5t-45.5 -2q-35 0 -70 1t-65.5 14.5t-54 44t-36.5 90.5v6q0 47 4.5 112.5t30.5 116.5l56 -28q-23 -41 -26 -97.5t-3 -99.5q8 -39 21.5 -59.5t32 -29.5t45 -9 h63.5q23 2 47 2h53q55 0 117.5 -1t124 -10.5t116 -32t91.5 -63.5q8 -8 15 -17t13 -20q20 55 55 106.5t79 92.5t96.5 68.5t107.5 40.5q111 25 202 -27.5t146 -173.5q8 -20 15.5 -42t13.5 -44q147 98 302 111.5t296 -60.5q23 -10 44.5 -24.5t41.5 -30.5q20 16 41.5 30.5 t44.5 24.5q139 74 295 60.5t303 -111.5q6 23 12 44t17 42q53 121 144 173t204 28q55 -12 106.5 -40t95.5 -69t78.5 -92t57.5 -107q6 10 12 19.5t16 17.5q37 41 91.5 63.5t116 32t124 10.5t117.5 1h53.5t46.5 -2h63.5t45 9t31 29.5t20.5 59.5q0 43 -3 99.5t-24 97.5l56 28 q25 -51 28.5 -116.5t3.5 -112.5v-6zM1524 1114q-84 -55 -168 -130t-149.5 -160t-103.5 -176t-28 -181q6 -45 39 -59q25 -12 57 -13q29 0 59 8.5t52 20.5q68 43 119 122t83 175t45 201.5t5 199.5zM2093 621q6 -45 18.5 -108.5t33 -134.5t49 -143.5t67.5 -134.5 q39 61 67.5 134t48 144t32 134t18.5 109q16 160 -27 296t-139 228q-96 -92 -140 -228t-28 -296zM2988 1122q-8 -94 5 -199.5t45 -201.5t83 -175t119 -122q23 -12 52.5 -20.5t58.5 -8.5q33 0 55 13q35 14 41 59q10 90 -28 181t-103.5 176t-149.5 160t-168 130z" />
<glyph unicode="1" d="M1151 1059q12 6 29 6q41 0 69 -29q27 -27 27 -61q0 -12 -2 -19q-10 -35 -38 -54t-62.5 -29.5t-72.5 -13.5t-71 -3h-37l-75 -119q-10 -18 -23.5 -35.5t-24.5 -35.5l-79 -109q31 -2 59.5 -4t54.5 -6q16 -2 38 -9.5t42.5 -19.5t36.5 -29.5t22 -39.5q2 -6 3 -21 q0 -47 -30 -98t-56 -76l-21 20q12 12 25.5 32t26 41.5t19.5 43t7 39.5q0 4 -1 6t-1 6q-4 14 -17.5 27.5t-30 23t-35 15.5t-32.5 8q-31 6 -64.5 8t-68.5 2q-25 -35 -49.5 -67.5t-52.5 -67.5q-29 -35 -60 -67.5t-65 -61.5q-35 -29 -75 -52.5t-85 -37.5q-43 -12 -86 -12h-19 q-10 -2 -19 -3t-19 -1q-25 0 -47.5 7t-43.5 25q-23 18 -22 52q0 29 18.5 55.5t28.5 36.5q84 86 207 138t252 75q10 14 20.5 27.5t20.5 27.5q51 70 104 135l107 129l-52 4q-90 10 -176 13q-39 -45 -84 -84q-12 -10 -25.5 -19.5t-27.5 -19.5q-43 -37 -92 -60q-16 -8 -42 -16 t-52 -8q-29 0 -47 12q-27 16 -27 59v9q6 37 30.5 62.5t56.5 40.5t65.5 24.5t58.5 13.5q47 10 104 14l60 95l24 47q-4 0 -7 -1t-7 -1q-33 0 -68.5 7t-67.5 21.5t-56.5 37t-36.5 52.5q-6 14 -8.5 28.5t-2.5 31.5q0 35 10.5 66.5t30.5 54.5q29 29 64 28q14 0 31 -6l-9 -29 l-20 5q-23 0 -43 -21q-16 -16 -25.5 -45t-9.5 -57q0 -12 2 -23.5t6 -21.5q20 -47 81 -73t122 -26q8 0 16.5 1t16.5 1q14 25 29.5 49.5t33.5 47.5q4 8 17 20l20 21q10 10 19.5 17t21.5 17q10 6 20.5 13.5t22.5 11.5q16 10 33 12q6 2 18 2q27 0 37 -16q10 -14 10 -35 q0 -18 -8 -35q-14 -29 -40.5 -53.5t-49.5 -40.5q-20 -16 -43.5 -26.5t-48.5 -18.5q-12 -29 -26.5 -55.5t-30.5 -55.5l-31 -45q39 -2 77 -5t77 -7l75 -6l41 39q16 16 33.5 28.5t36.5 26.5q18 12 37.5 23.5t42.5 21.5q20 15 51 27zM156 238q0 -14 12 -27q14 -14 32.5 -19.5 t39.5 -5.5q25 0 47 7q57 20 102 58t84 81q35 41 67.5 85t65.5 91q-117 -23 -227.5 -71t-183.5 -126q-39 -42 -39 -73zM303 711q8 -6 25 -6q31 0 86 22l12 6q29 27 52.5 54.5t45.5 56.5l25 33q-18 -2 -36.5 -4.5t-37.5 -6.5q-23 -4 -52.5 -12t-58 -21.5t-50 -33t-25.5 -47.5 q0 -33 14 -41zM1243 965q2 4 2 14q0 12 -6 21.5t-10 13.5q-25 20 -49 20q-6 0 -19 -4l-37 -18q-2 -2 -4 -3t-4 -5q-31 -29 -55 -62l-45 -55h22q29 0 62 3t62.5 11t52 23.5t28.5 40.5zM922 1221q6 12 6 22q0 6 -4 14q-6 6 -15 7q-4 0 -5 -1t-5 -1q-20 -6 -41 -23l-12 -14 q-4 -10 -12.5 -21.5t-12.5 -21.5l-12 -21l-8 -22l-17 -33q35 14 58 31q23 16 46.5 37.5t33.5 46.5z" />
<glyph unicode="2" d="M309 1032q20 -10 39 -21.5t37 -23.5q18 -14 35.5 -26.5t34.5 -28.5l41 -39l75 6q39 4 77 7t77 5l-31 45q-16 29 -30.5 55.5t-26.5 55.5q-25 8 -48.5 18.5t-43.5 26.5q-23 16 -49.5 41t-40.5 53q-8 16 -9 35q0 20 11 35q10 16 37 16q12 0 18 -2q16 -2 33 -12 q12 -4 22.5 -11t20.5 -14q12 -10 21 -17t20 -17l20 -21q12 -12 17 -20q18 -23 33.5 -47.5t29.5 -49.5q8 0 16.5 -1t16.5 -1q61 0 121.5 25.5t81.5 73.5q4 10 6 21t2 24q0 29 -9.5 57.5t-25.5 44.5q-20 20 -43 21q-4 0 -21 -5l-8 29q14 6 31 6q35 0 64 -28q20 -23 30 -54.5 t10 -66.5q0 -16 -2 -30.5t-8 -29.5q-12 -31 -36.5 -53t-56.5 -36.5t-67.5 -21.5t-68.5 -7q-4 0 -7 1t-7 1l24 -47l59 -95q57 -4 105 -14q25 -4 58.5 -13.5t65.5 -24.5t56.5 -40.5t30.5 -62.5v-9q0 -43 -27 -59q-18 -12 -47 -12q-27 0 -52.5 8t-41.5 16q-49 23 -92 60 q-14 10 -27.5 19t-25.5 20q-45 39 -84 84q-86 -2 -177 -13l-51 -4l107 -129q51 -66 104 -135q10 -14 20.5 -27.5t20.5 -27.5q129 -23 252 -75t207 -138q10 -10 28.5 -37t18.5 -59q0 -29 -23 -48q-20 -18 -42.5 -25t-47.5 -7q-10 0 -19 1t-20 3h-18q-43 0 -86 12 q-45 14 -85 37.5t-75 52.5t-65.5 61.5t-59.5 67.5t-53 68t-49 67q-35 0 -68.5 -2t-64.5 -8q-14 -2 -32.5 -8t-36 -15.5t-30 -22.5t-16.5 -28q0 -4 -1 -6t-1 -6q0 -18 7 -39.5t19.5 -43t26 -41t25.5 -32.5l-21 -20q-27 25 -56.5 76t-29.5 98q0 14 2 21q6 23 22.5 40t37 29 t42 19.5t38.5 9.5q27 4 55.5 6t58.5 4l-79 109q-10 18 -23.5 35.5t-24.5 35.5l-75 119h-37q-33 0 -71 3t-72.5 13.5t-62.5 30t-38 53.5q-2 6 -2 19q0 35 27 61q29 29 69 29q16 0 29 -6zM1249 238q0 31 -39 73q-74 78 -184.5 126t-226.5 71q33 -47 65.5 -91t67.5 -85 q39 -43 84 -81t102 -58q20 -6 47 -7q20 0 39 5.5t33 19.5q12 13 12 27zM1102 711q14 8 14 41q-4 29 -25.5 48t-50 32.5t-59.5 21.5t-51 12q-18 4 -37 6t-37 5l25 -33q23 -29 46 -56.5t52 -54.5l12 -6q55 -23 86 -22q15 0 25 6zM162 965q6 -25 28.5 -40.5t52 -23.5t62.5 -11 t62 -3h22l-45 55q-25 33 -55 62q-2 4 -4 5t-4 3l-37 18q-12 4 -19 4q-25 0 -49 -20q-4 -4 -10 -13.5t-6 -21.5q0 -10 2 -14zM483 1221q10 -25 34 -46.5t46 -37.5q23 -16 58 -31l-17 33l-8 22l-12 21q-4 10 -12.5 21t-12.5 22l-12 14q-20 16 -41 23q-4 0 -5 1t-5 1 q-8 0 -15 -7q-4 -8 -4 -14q0 -10 6 -22z" />
<glyph unicode="3" d="M1096 506q-20 10 -39 21.5t-37 23.5q-18 14 -35.5 26.5t-34.5 28.5l-41 39l-75 -6q-39 -4 -77 -7t-77 -5l31 -45q16 -29 30.5 -55.5t26.5 -55.5q25 -8 48.5 -18.5t43.5 -26.5q23 -16 49.5 -41t40.5 -53q8 -16 8 -35q0 -20 -10 -35q-10 -16 -37 -16q-12 0 -18 2 q-16 2 -33 12q-12 4 -22.5 11.5t-20.5 13.5q-12 10 -21.5 17t-19.5 17l-20 21q-12 12 -17 20q-18 23 -33.5 47.5t-29.5 49.5q-8 0 -16.5 1t-16.5 1q-61 0 -121.5 -25.5t-81.5 -73.5q-4 -10 -6 -21t-2 -24q0 -29 9.5 -57.5t25.5 -44.5q20 -20 43 -20q4 0 20 4l9 -29 q-16 -6 -31 -6q-35 0 -64 28q-20 23 -30.5 54.5t-10.5 66.5q0 16 2.5 30.5t8.5 29.5q12 31 36.5 53t56.5 36.5t67.5 21.5t68.5 7q4 0 7 -1t7 -1l-24 48l-60 94q-57 4 -104 14q-25 4 -58.5 13.5t-65.5 24.5t-56.5 41t-30.5 62v9q0 43 27 59q18 12 47 12q27 0 52.5 -8 t41.5 -16q49 -23 92 -60q14 -10 27.5 -19t25.5 -20q45 -39 84 -84q86 2 176 13l52 4l-107 129q-53 63 -104 135q-10 14 -20.5 27.5t-20.5 27.5q-129 23 -252 75t-207 138q-10 10 -28.5 37t-18.5 60q0 29 22 47q20 18 43 25t48 7q10 0 19 -1t19 -3h17q45 0 88 -12 q45 -14 85 -37.5t75 -52.5t65.5 -61.5t59.5 -67.5t53 -67.5t49 -67.5q35 0 68.5 2t64.5 8q14 2 32.5 8t35 15.5t30 21.5t17.5 29q0 4 1 6t1 6q0 18 -7 39.5t-19.5 43t-26 41t-25.5 32.5l21 20q27 -25 56.5 -76t29.5 -98q0 -14 -3 -20q-6 -23 -22 -40.5t-36.5 -29.5 t-42 -19.5t-38.5 -9.5q-27 -4 -55.5 -6t-58.5 -4l79 -109q10 -18 23.5 -35.5t24.5 -35.5l75 -119h37q33 0 71 -3t72.5 -13.5t62.5 -31t38 -52.5q2 -6 2 -19q0 -35 -27 -61q-29 -29 -69 -29q-16 0 -29 6zM156 1300q0 -31 39 -73q74 -78 184 -126t227 -71q-33 47 -65.5 91 t-67.5 85q-39 43 -84 81t-102 59q-23 6 -47 6q-20 0 -39 -5.5t-33 -19.5q-12 -13 -12 -27zM303 827q-14 -8 -14 -41q4 -29 25.5 -48t50 -32.5t58.5 -21.5t52 -12q18 -4 36.5 -6t37.5 -4l-25 32q-23 29 -46 56.5t-52 54.5l-12 6q-55 23 -86 23q-17 -1 -25 -7zM1243 573 q-6 25 -28.5 40.5t-52 23.5t-62.5 11t-62 3h-22l45 -55q25 -35 55 -61q2 -4 4 -5.5t4 -3.5l37 -18q12 -4 19 -4q25 0 49 20q4 4 10 13.5t6 21.5q0 10 -2 14zM922 317q-10 25 -34 46.5t-46 37.5q-23 16 -58 31l17 -33l8 -22l12 -21q4 -10 12.5 -21t12.5 -22l12 -14 q20 -16 41 -23q4 0 5 -1t5 -1q8 0 15 7q4 4 4 14t-6 22z" />
<glyph unicode="4" d="M254 479q-12 -6 -29 -6q-41 0 -69 29q-27 27 -27 61q0 12 2 19q10 33 38 53t62.5 30.5t72.5 13.5t71 3h37l75 119q10 18 23.5 35.5t24.5 35.5l79 109q-31 2 -59.5 4t-54.5 6q-16 2 -38 9.5t-42.5 19.5t-36.5 29.5t-23 40.5q-2 6 -2 20q0 47 30 98.5t56 75.5l21 -20 q-12 -12 -25.5 -32t-26 -41.5t-19.5 -43t-7 -39.5q0 -4 1 -6t1 -6q4 -16 16.5 -28.5t30 -22t35.5 -15.5t33 -8q31 -6 64.5 -8t68.5 -2q25 35 49.5 67.5t52.5 67.5q29 35 59.5 67.5t65.5 61.5t75 52.5t85 37.5q43 12 88 12h16q10 2 19.5 3t19.5 1q25 0 47.5 -7t42.5 -25 q23 -18 23 -52q0 -29 -18.5 -55t-28.5 -37q-84 -86 -207 -138t-252 -75q-10 -14 -20.5 -27.5t-20.5 -27.5q-53 -72 -104 -135l-107 -129l51 -4q90 -10 177 -13q39 45 84 84q12 10 25 19.5t28 19.5q43 37 92 60q16 8 42 16t52 8q29 0 47 -12q27 -16 27 -59v-9 q-6 -37 -30.5 -62.5t-56.5 -40.5t-65.5 -24.5t-58.5 -13.5q-47 -10 -105 -14l-59 -94l-24 -48q4 0 7 1t7 1q33 0 68.5 -7t67.5 -21.5t56.5 -37t36.5 -52.5q6 -14 8 -28.5t2 -31.5q0 -35 -10 -66.5t-30 -54.5q-29 -29 -64 -28q-16 0 -31 6l8 29q16 -4 21 -4q23 0 43 20 q16 16 25.5 45t9.5 57q0 12 -2 23.5t-6 21.5q-20 47 -81 73t-122 26q-8 0 -16.5 -1t-16.5 -1q-14 -25 -29.5 -49.5t-33.5 -47.5q-4 -8 -17 -20l-20 -21q-10 -10 -19.5 -17t-21.5 -17q-10 -6 -20.5 -13.5t-22.5 -11.5q-16 -10 -33 -12q-6 -2 -18 -2q-27 0 -37 16 q-10 14 -11 35q0 18 9 35q14 29 40.5 53.5t49.5 40.5q20 16 43.5 26.5t48.5 18.5q12 29 26.5 55.5t30.5 55.5l31 45q-39 2 -77 5t-77 7l-75 6l-41 -39q-16 -16 -34 -28.5t-36 -26.5q-18 -12 -37.5 -23.5t-42.5 -21.5q-20 -15 -51 -27zM1249 1300q0 14 -12 27 q-14 14 -32.5 19.5t-39.5 5.5q-27 0 -47 -6q-57 -20 -102 -58.5t-84 -81.5q-35 -41 -68 -85t-65 -91q117 23 227.5 71t183.5 126q39 42 39 73zM1102 827q-10 6 -25 7q-31 0 -86 -23l-12 -6q-29 -27 -52.5 -54.5t-45.5 -56.5l-25 -32q18 2 36.5 4t37.5 6q20 4 51 12 t59.5 21.5t50 33t25.5 47.5q0 33 -14 41zM162 573q-2 -4 -2 -14q0 -12 6 -21.5t10 -13.5q25 -20 49 -20q6 0 19 4l37 18q2 2 4 3t4 6q31 27 55 61l45 55h-22q-29 0 -62 -3t-62.5 -11t-52 -23.5t-28.5 -40.5zM483 317q-6 -12 -6 -22t4 -14q6 -6 15 -7q4 0 5 1t5 1q20 6 41 23 l12 14q4 10 12.5 21.5t12.5 21.5l12 21l8 22l17 33q-35 -14 -58 -31q-23 -16 -46.5 -37.5t-33.5 -46.5z" />
<glyph unicode="5" horiz-adv-x="3655" d="M63 752q61 8 122 11t120 7l238 6q31 0 60.5 2t60.5 6h18q53 0 98 -14q59 -18 113 -51q29 -16 54.5 -38t51.5 -52l-2 -25q-35 -23 -65.5 -35t-61.5 -22q-57 -16 -122 -21h-15q-47 0 -102 17q-29 10 -56.5 20t-56.5 19l-115 30l-114 37q-57 18 -113.5 37t-114.5 41z M989 1155q41 -16 79 -34.5t77 -37.5l76 -39l71 -43q18 -10 38 -18t38 -18q37 -16 64 -54q25 -37 36 -82q4 -23 8.5 -44t4.5 -50v-16l-17 -19q-35 -6 -59 -6q-14 0 -26.5 1t-24.5 3q-45 8 -86 29q-39 18 -60 55q-12 18 -22 37t-25 35l-98 137q-23 35 -45.5 71t-44.5 75z M3594 727q-57 -23 -113.5 -41t-113.5 -37l-115 -37l-114 -30q-29 -8 -57.5 -18.5t-57.5 -20.5q-53 -16 -101 -17h-16q-63 4 -121 21q-31 10 -62.5 22.5t-64.5 34.5l-2 25q25 31 51.5 52t55.5 38q53 33 112 51q43 14 97 14h20q29 -4 59.5 -6t59.5 -2l121 -2l119 -4 q59 -4 119.5 -7t119.5 -11zM2683 1137q-23 -39 -45.5 -75t-44.5 -71l-99 -137q-14 -16 -24 -34.5t-23 -37.5q-20 -37 -59 -55q-43 -20 -86 -29q-12 -2 -24.5 -3t-26.5 -1q-29 0 -60 6l-16 19q0 8 -1 15t-1 14q0 23 4 43t8 38q16 47 39 82q20 33 62 54q20 10 39.5 18t37.5 18 l72 43l76 39q39 18 77 37t78 35zM1835 1341q16 -45 28.5 -89t22.5 -91l23 -90q4 -23 8 -45t8 -45t11.5 -45.5t13.5 -44.5q4 -12 6 -25.5t2 -25.5q0 -20 -6 -39q-8 -43 -35 -92q-12 -23 -29.5 -46.5t-44.5 -46.5h-24q-27 23 -44.5 45.5t-31.5 45.5q-27 47 -37 90q-4 10 -4 22 v23v22.5t4 22.5l12 46t11 46l34 180q10 47 21.5 92t25.5 90h25z" />
<glyph unicode="6" horiz-adv-x="3655" d="M61 954q57 23 113.5 41.5t114.5 36.5l114 37l115 31q29 8 56.5 18t56.5 21q55 16 102 16h15q66 -4 122 -20q31 -10 62 -22.5t65 -35.5l2 -24q-27 -31 -52 -52.5t-54 -37.5q-53 -33 -113 -52q-45 -14 -98 -14h-18q-31 4 -61 6t-60 2l-238 6q-59 4 -119.5 7.5t-122.5 11.5z M973 545q23 39 45 74.5t45 70.5l98 137q14 16 24.5 35t22.5 37q20 37 60 55q41 20 86 29q12 2 24.5 3t26.5 1q25 0 59 -6l17 -18v-17q0 -29 -4 -50.5t-9 -43.5q-12 -45 -36 -82q-27 -37 -64 -53q-18 -10 -37.5 -18.5t-38.5 -18.5l-71 -43l-76 -39q-39 -18 -77 -36.5 t-79 -35.5zM3590 930q-59 -8 -119.5 -11.5t-119.5 -7.5l-119 -4l-121 -2q-29 0 -59.5 -2t-59.5 -6h-20q-53 0 -97 14q-59 18 -112 52q-29 16 -55.5 37.5t-51.5 52.5l2 24q33 23 65 35t62 23q57 16 121 20h16q47 0 101 -16q29 -10 57.5 -20.5t57.5 -18.5l114 -31l115 -37 q57 -18 113.5 -36.5t113.5 -41.5zM2666 526q-41 16 -78.5 35t-76.5 37l-76 39l-72 43q-18 10 -37.5 18.5t-39.5 18.5q-41 20 -62 53q-23 35 -39 82q-4 18 -8 38.5t-4 43.5q0 6 1 13t1 16l16 18q31 6 60 6q14 0 26.5 -1t24.5 -3q43 -8 86 -29q39 -18 59 -55 q12 -18 22.5 -36.5t24.5 -35.5l99 -137q23 -35 45 -70.5t45 -74.5zM1810 340q-14 45 -25 90t-22 92l-34 180q-4 23 -10.5 46.5t-12.5 46.5q-4 10 -4 22v23v21t4 24q10 41 37 90q14 23 31.5 45t44.5 45h24q27 -23 44.5 -46.5t29.5 -45.5q27 -49 35 -92q6 -18 6 -39 q0 -12 -2 -25.5t-6 -25.5q-6 -23 -13.5 -45.5t-11.5 -45.5t-8 -45t-8 -45l-23 -90q-10 -47 -22.5 -91t-28.5 -89h-25z" />
<glyph unicode="7" horiz-adv-x="3170" d="M176 662q2 -6 3 -11.5t1 -11.5q0 -39 -33 -55q-6 -4 -22 -4q-35 0 -55 32q-8 10 -9 29q0 35 35 55q12 6 25 6q39 1 55 -40zM494 756q2 -6 2 -15q0 -23 -12.5 -39t-32.5 -20q-4 -2 -15 -2q-43 0 -57 47q-2 6 -2 16q0 20 12 37t33 21q4 2 14 2q20 0 37 -12t21 -35zM819 807 q0 -23 -13 -40t-36 -22h-10q-20 0 -36.5 14.5t-21.5 37.5v10q0 23 13.5 39t36.5 20h10q23 0 38 -14t19 -37v-8zM1147 844q0 -23 -15.5 -39.5t-37.5 -18.5q-27 0 -43.5 15.5t-20.5 40.5q0 29 15.5 46t37.5 19q29 0 45.5 -15t18.5 -40v-8zM1479 868q0 -25 -17.5 -43t-40.5 -20 q-25 0 -42 17.5t-19 41.5q0 29 17.5 46.5t39.5 17.5q27 0 43.5 -17.5t18.5 -42.5zM1808 864q-2 -25 -19 -42t-42 -17q-23 2 -39 19.5t-16 39.5q0 29 16 46.5t39 17.5q27 0 44 -17.5t17 -46.5zM2138 842q-4 -25 -19.5 -40.5t-37.5 -15.5q-29 2 -44.5 19.5t-15.5 42.5 q2 29 18.5 44t39.5 15q29 -2 44 -19t15 -46zM2466 797q-4 -23 -19.5 -37.5t-38.5 -14.5h-10q-23 4 -36 21.5t-13 40.5v8q4 23 20.5 37t38.5 14h11q20 -4 33.5 -20.5t13.5 -38.5v-10zM2789 727q-4 -23 -20 -35t-37 -12q-10 0 -14 2q-20 4 -32.5 21.5t-12.5 39.5q0 4 1 6.5 t1 6.5q4 23 20.5 35t36.5 12q10 0 14 -2q20 -4 32.5 -20.5t12.5 -37.5q0 -10 -2 -16zM3099 612q-20 -33 -56 -32q-14 0 -22 4q-33 16 -33 55q0 6 1 11t3 12q16 41 55 40q12 0 25 -6q35 -16 35 -55q0 -19 -8 -29z" />
<glyph unicode="8" horiz-adv-x="3170" d="M2992 909q-4 16 -4 25q0 39 33 55q8 4 22 4q37 0 56 -35q8 -10 8 -28q0 -37 -35 -53q-12 -6 -25 -7q-41 0 -55 39zM2675 817q0 4 -1 6t-1 6q0 23 12 40.5t33 21.5q4 2 14 2q20 0 36.5 -12.5t20.5 -34.5q2 -6 2 -17q0 -20 -12 -36.5t-33 -20.5q-4 -2 -14 -2 q-20 0 -36.5 12t-20.5 35zM2349 766q0 23 13.5 40t35.5 21h8q23 0 39.5 -14t20.5 -37v-10q0 -23 -13.5 -39t-33.5 -20h-11q-23 0 -39 14t-20 37v8zM2021 725q0 23 15.5 41t38.5 20q29 0 44 -16t19 -39q0 -29 -15.5 -46t-37.5 -21q-27 0 -44.5 16t-19.5 45zM1692 709 q0 23 16 40t39 17q29 0 44 -18.5t17 -40.5q0 -27 -17 -44.5t-40 -19.5q-25 0 -42 18.5t-17 47.5zM1360 707q2 25 18.5 42t38.5 17q27 0 44.5 -18.5t17.5 -42.5q-2 -27 -19.5 -44.5t-42.5 -17.5q-23 2 -40 19.5t-17 44.5zM1030 731q4 23 19.5 39t37.5 16q29 -2 44.5 -19 t15.5 -40q-2 -29 -19.5 -46t-40.5 -17q-27 4 -42 21t-15 46zM702 776q4 23 20.5 37t39.5 14h8q23 -4 36 -21.5t13 -39.5v-8q-10 -51 -57 -51h-10q-23 4 -36.5 20t-13.5 39v10zM379 846q14 47 57 47q10 0 15 -2q20 -4 32.5 -21.5t12.5 -38.5q0 -10 -2 -14q-4 -23 -20.5 -35 t-37.5 -12q-10 0 -14 2q-20 4 -32.5 20.5t-12.5 36.5q0 11 2 17zM70 958q18 35 55 35q16 0 22 -4q33 -16 33 -55q0 -8 -4 -25q-8 -16 -22.5 -27.5t-32.5 -11.5q-12 0 -25 7q-35 16 -35 53q1 18 9 28z" />
<glyph unicode="9" horiz-adv-x="4519" d="M4458 70q0 -53 -4 -119t-28 -117l-56 29q20 41 23.5 97t3.5 99q-14 66 -42 82.5t-81 16.5h-37q-23 -2 -47 -2h-53h-61q-51 0 -106.5 3t-107 14t-96.5 31.5t-78 57.5q-10 8 -16 17.5t-12 19.5q-23 -55 -57.5 -106.5t-78.5 -92.5t-95.5 -68.5t-106.5 -39.5q-16 -4 -33.5 -6 t-34.5 -2q-90 0 -161.5 53t-118.5 156q-10 20 -16.5 41.5t-12.5 44.5q-176 -113 -352 -113q-129 0 -246 61q-23 10 -44.5 24.5t-41.5 31.5q-20 -16 -41.5 -30.5t-44.5 -25.5q-117 -61 -248 -61q-178 0 -350 113q-6 -23 -13.5 -44.5t-15.5 -41.5q-47 -102 -118.5 -155.5 t-161.5 -53.5q-16 0 -33.5 2t-34.5 6q-55 12 -107.5 39.5t-96.5 68.5t-78.5 92.5t-55.5 106.5q-6 -10 -13 -19.5t-15 -17.5q-33 -37 -78 -57.5t-96.5 -31.5t-106.5 -14t-107 -3h-61h-53.5t-46.5 2h-37q-53 0 -82 -16.5t-43 -82.5q0 -43 3 -99t26 -97l-56 -29 q-27 51 -31 116.5t-4 119.5q10 51 30 80.5t45.5 45t55 19.5t60.5 4h35q23 -2 46 -2h52h61q45 0 94.5 3t95.5 12.5t86 25.5t66 45q43 45 43 121q-2 10 -2 19.5v19.5l62 2q2 -10 2 -19.5v-19.5q6 -70 37 -133.5t76 -112.5t99 -83t107 -46q27 -6 56 -6q72 0 129 43t94 129 q23 47 31 100l-35 29q-84 55 -169 130t-152.5 162t-110.5 181t-43 191v20t2 21q10 76 73 106q37 18 87 19q39 0 74.5 -11.5t64.5 -27.5q68 -43 121 -117t90 -165t55 -192.5t18 -197.5q0 -31 -2 -61.5t-6 -59.5q82 -59 167 -88t171 -29q113 0 219 54q37 18 68 43 q-90 88 -137 210.5t-47 270.5v46t4 46q8 59 22.5 131t37 147.5t54 149.5t74.5 137q-31 37 -66.5 64.5t-76.5 44.5q-59 20 -117 20q-109 0 -170 -71q-49 -55 -49 -138q0 -68 37 -137l-56 -28q-43 86 -43 167q0 98 64 175q80 92 217 92q33 0 67.5 -5.5t69.5 -17.5 q47 -16 87 -47t75 -70q35 39 74 70t86 47q35 12 69.5 17.5t67.5 5.5q66 0 122 -22.5t97 -69.5q63 -76 64 -175q0 -82 -43 -167l-56 28q35 68 35 139q0 82 -47 136q-31 35 -75 53t-97 18q-57 0 -117 -20q-41 -16 -76.5 -44t-64.5 -65q43 -61 74.5 -135t54 -149.5t37 -148.5 t22.5 -132q4 -23 4 -46.5v-45.5q0 -147 -47 -270t-137 -211q31 -25 68 -43q102 -53 217 -54q86 0 172 29t168 88q-4 31 -6 62.5t-2 64.5q0 96 18 195.5t54 189.5t89.5 164t120.5 117q29 16 66 27.5t75 11.5q49 0 86 -19q66 -33 72 -106q2 -10 2 -21.5v-21.5 q0 -96 -43 -190.5t-110.5 -180.5t-151.5 -161t-168 -130q-10 -8 -18 -15t-19 -14q12 -53 31 -100q78 -172 225 -172q27 0 56 6q53 12 107 46t98 83t76 112.5t38 133.5v19.5t2 19.5l59 -2v-39q0 -76 44 -121q27 -29 65.5 -45t84.5 -25.5t95 -12.5t94 -3h62h53.5t46.5 2h35 q31 0 60.5 -4t54 -19.5t44 -45t29.5 -80.5zM1534 387q2 18 3 36.5t1 39.5q0 90 -17.5 184t-50 178t-80 153t-108.5 107q-23 12 -52.5 20.5t-58.5 8.5q-33 0 -57 -12q-33 -14 -39 -60q-2 -10 -2 -17v-17q0 -86 41 -173t105.5 -167t145.5 -151t161 -124zM2093 889 q-2 -23 -3 -43.5t-1 -40.5q0 -135 44 -249t128 -191q84 78 127 190.5t43 247.5q0 23 -1 43t-3 43q-6 45 -18.5 108.5t-32 134t-48 143.5t-67.5 134q-39 -61 -67.5 -134t-49 -143.5t-33 -134t-18.5 -108.5zM2996 393q80 53 161 124t145.5 151t105.5 167t41 173v17t-2 17 q-6 45 -41 60q-23 12 -55 12q-29 0 -59 -8t-52 -21q-61 -39 -108.5 -107.5t-80 -152.5t-50 -178t-17.5 -184q0 -20 1 -38.5t3 -37.5z" />
<glyph unicode=":" horiz-adv-x="802" d="M375 721q-6 57 -31 113.5t-25 101.5q23 16 56 16t62.5 -12t45.5 -27q-16 -35 -31.5 -69.5t-19.5 -65.5zM205 725q-16 16 -37 29.5t-40 26t-36.5 23.5t-30.5 25q8 33 45 51.5t66 18.5q8 -31 16.5 -58.5t22.5 -49.5zM592 791q14 23 22.5 50t16.5 58q29 0 65.5 -18.5 t44.5 -51.5q-12 -14 -29.5 -25t-38 -23.5t-40 -26t-35.5 -29.5z" />
<glyph unicode=";" horiz-adv-x="802" d="M432 782q4 -31 19.5 -65.5t31.5 -69.5q-16 -14 -45.5 -26.5t-60.5 -12.5q-33 0 -58 19q0 20 7.5 46.5t17.5 54.5t18.5 56.5t12.5 57.5zM211 770q-14 -20 -22.5 -49t-16.5 -59q-29 0 -65.5 19t-45.5 52q23 27 67 48.5t77 54.5zM592 770q14 -20 22.5 -49t16.5 -59 q29 0 65.5 19t44.5 52q-23 27 -66.5 48.5t-76.5 54.5z" />
<glyph unicode="&#x3c;" horiz-adv-x="403" d="M135 852q31 4 64.5 19.5t68.5 31.5q14 -16 26.5 -46t12.5 -62q0 -33 -16 -56q-23 0 -48.5 8.5t-53 17.5t-56.5 18.5t-57 11.5zM43 969q12 23 21.5 50.5t19.5 57.5q27 0 63.5 -18.5t42.5 -52.5q-23 -27 -66.5 -48.5t-76.5 -54.5zM78 709q33 -33 77 -54.5t66 -48.5 q-6 -35 -43 -53t-63 -18q-10 31 -19.5 58.5t-21.5 49.5z" />
<glyph unicode="=" horiz-adv-x="3186" d="M1374 440q-33 4 -53 37q-16 27 -23.5 67t-7.5 85q0 72 10.5 135t16.5 82q6 20 12 38.5t14 35.5q-16 23 -33.5 41t-41.5 32q-10 4 -23.5 6t-27.5 2q-23 0 -48 -6q-53 -12 -81.5 -37.5t-45.5 -60.5l11 -8q29 -25 47 -55.5t28 -61.5q12 -33 19.5 -64.5t7.5 -66.5 q0 -18 -2 -35.5t-8 -36.5q-8 -20 -19 -32q-10 -10 -18 -13q-12 -12 -21 -14q-6 -2 -11 -3t-11 -1q-23 0 -39 16q-23 23 -31 68t-8 94q0 53 5 97t7 50l5 19q-12 18 -27.5 34.5t-36.5 33.5q-10 4 -21.5 4h-23.5q-76 0 -125 -62q-14 -16 -18 -26q6 -2 11 -4.5t11 -6.5 q37 -23 62 -55q10 -16 18 -35.5t8 -42.5v-12q-4 -27 -22 -45q-10 -16 -23 -27q-27 -23 -51 -22q-8 0 -21 4q-35 10 -45 53q-4 10 -4 21.5v23.5q0 27 5.5 57.5t15.5 59.5l-15 24q-10 2 -17 3t-15 1q-68 0 -115 -65q-18 -29 -32.5 -54.5t-26.5 -49.5q-29 -57 -64 -105.5 t-108 -85.5q-49 -23 -107 -22q-35 0 -65.5 10t-57.5 35q-33 33 -33 79q0 10 5 31q16 51 71 58l2 -19q-43 -6 -53 -45q-4 -16 -4 -29q0 -41 24 -61q23 -23 51.5 -32t59.5 -9q27 0 51.5 6t46.5 16q70 35 102 81t60 100q14 27 28.5 53.5t33.5 54.5q55 74 131 74q2 0 18.5 -3 t32.5 -7q4 -2 12 -2q4 8 9.5 16t13.5 16q51 66 139 70q47 0 90 -16q23 -6 41 -19q16 35 48 63.5t91 43.5q31 6 58 6q18 0 28 -2q29 0 64 -10q31 -12 55 -31q82 150 221 149q14 0 21 -2h12q47 0 88 -18q29 -12 52.5 -30.5t43.5 -41.5l39 -53q23 16 51.5 27.5t63.5 11.5 q6 0 12 -1t13 -1h12q31 0 62.5 -11.5t56.5 -33.5q33 -29 55 -64q45 33 117 33q66 -4 114 -35q41 -27 64 -61q16 4 24 4q4 0 9.5 1t9.5 1q76 0 123 -57q27 -29 46 -61t36 -64q35 -63 76.5 -115.5t119.5 -69.5q10 -2 31 -2q43 0 87 18.5t65 55.5q10 20 10 45q0 20 -8 35 q-8 20 -33 27l2 18q33 -6 49 -37q10 -25 10 -43q0 -31 -14 -55q-23 -41 -73 -62.5t-97 -21.5h-16.5t-16.5 2q-84 18 -129 74.5t-80 119.5q-16 33 -35.5 64t-44.5 59q-23 25 -51 37t-59 12h-15q-6 -2 -16 -2l10 -20q25 -49 25 -100q0 -6 -1 -12.5t-1 -12.5q-2 -16 -7 -32.5 t-18 -33.5q-6 -8 -13 -14t-17 -8l-17 -8q-12 -4 -20 -4q-25 0 -54 22q-16 14 -23 31.5t-7 36.5q0 25 9 49.5t19 40.5q8 14 18.5 26.5t20.5 22.5q-12 29 -32 51q-25 27 -56 56q-6 0 -13 1t-17 1q-61 0 -103 -29q10 -14 16.5 -29.5t12.5 -32.5q12 -41 18 -81q0 -8 1 -16.5 t1 -16.5q0 -12 -1 -24.5t-3 -24.5q-4 -41 -18 -80q-4 -10 -9.5 -19.5t-11.5 -19.5q-10 -10 -22 -17l-8 -10q-16 -16 -39 -16q-6 0 -11.5 1t-11.5 3q-23 8 -32 36.5t-9 63.5q0 53 10.5 99.5t10.5 48.5q14 53 43 98q-16 41 -41 76q-33 43 -78 65q-10 2 -18.5 3t-18.5 1 q-35 0 -60.5 -10t-46.5 -26q20 -35 34 -70t24 -70q8 -29 13 -55.5t9 -54.5q6 -37 7 -76v-21.5t-3 -21.5q-4 -29 -12 -59q-10 -35 -33 -60q-6 -6 -13 -11t-15 -9q-20 -8 -29 -8q-16 -8 -29 -9q-4 0 -6 -1t-6 -1q-27 0 -47 25q-16 20 -23.5 55t-7.5 76q0 39 4 80t10.5 75.5 t12.5 59.5t8 31q4 12 11.5 29.5t19.5 37.5q-14 41 -37 82q-18 33 -44 61.5t-61 51.5q-25 6 -51 6q-127 0 -205 -145l7 -7q35 -33 57.5 -71.5t36.5 -81.5q25 -68 24 -139v-19.5t-2 -19.5q-2 -43 -22 -88q-16 -35 -43 -60l-10 -14q-16 -23 -48 -23h-12zM1419 475 q14 16 19.5 48t5.5 69q0 45 -6 92q-10 51 -25 94q-10 31 -24.5 61.5t-32.5 59.5l-21 -59q-6 -23 -15 -83.5t-9 -125.5q0 -43 5 -81t21 -63q14 -23 41 -26q4 0 5 -1t6 -1q18 0 30 16zM1772 834q-4 -10 -9.5 -35t-10.5 -58.5t-9 -72.5t-4 -76t5 -68.5t19 -48.5q10 -14 29 -16 q-4 4 -8 5t-8 5q33 0 51 8q20 12 26 31q8 18 9 51q0 10 -1 19.5t-1 19.5q-4 25 -8.5 49.5t-8.5 50.5l-24 101q-6 23 -12.5 43t-14.5 43q-8 -14 -12 -27.5t-8 -23.5zM2144 537q8 6 13.5 17t9.5 26v16l-6 72l-11 73q-4 16 -7 34t-7 34q-4 8 -8 25q-25 -41 -35 -82 q-6 -23 -12 -64t-6 -80q0 -31 5 -53.5t21 -26.5q12 -4 19 -4q12 1 24 13zM1018 827q-4 -10 -7 -49t-3 -88q0 -47 6 -91t26 -64q10 -10 23 -11q6 0 18 4q20 6 25 52q-4 12 -6 24t-6 27q-8 29 -18.5 57.5t-20.5 56.5q-14 43 -37 82zM2378 621q10 -8 19 -13.5t20 -5.5q2 0 4 1 t4 1q12 6 18 14q4 6 4 19v12q0 8 -1 15.5t-3 17.5q-2 12 -4 24.5t-6 24.5l-6 25l-14 39q-18 -14 -33 -41q-10 -14 -17.5 -35t-7.5 -43q0 -35 23 -55zM721 645q6 -33 31 -39q4 -2 12 -2q14 0 39 14q2 8 2 17v24q0 8 -4 17q-4 10 -12.5 21.5t-16.5 25.5l-43 57 q-14 -43 -14 -88q0 -29 6 -47z" />
<glyph unicode="&#x3e;" d="M94 1190v-14q0 -113 82 -150q66 2 121 29q37 14 65 41q-27 76 -26 153q0 53 18 94q31 59 103 60q47 0 69.5 -18.5t32.5 -36.5q8 -14 10 -31t2 -33q0 -47 -17 -93t-38 -75q-35 -47 -84 -78l-8 -6l10 -14q20 -27 44 -47.5t50 -36.5l31 -8q4 -2 4 -1t4 -3l6 -2l13 -5 q20 -6 43 -6t51 6q12 4 24.5 8.5t24.5 8.5q10 45 27.5 105.5t43 116.5t59.5 103.5t77 65.5q25 12 45 12q23 0 43 -9t47 -19l14 -9q27 -23 41 -61q6 -23 7 -41q0 -27 -7.5 -51.5t-17.5 -46.5q-29 -63 -74 -110.5t-98 -84.5q-41 -29 -89 -50.5t-102 -31.5v-20q0 -129 72 -201 q4 -4 6 -4q61 -25 115 -25h18q23 0 48 7q16 74 40.5 137t81.5 102q51 35 99 35q47 0 78 -31l10 -10q29 -25 37 -61q0 -4 1 -10.5t1 -10.5q0 -27 -9.5 -50.5t-21.5 -43.5q-31 -49 -73 -81t-89 -54q-29 -14 -61.5 -23.5t-67.5 -11.5q4 -59 23.5 -114.5t54.5 -78.5 q18 -12 43 -12q35 0 82 31l18 -27q-31 -20 -55.5 -27.5t-44.5 -7.5t-34.5 5.5t-24.5 13.5q-45 29 -66.5 90t-26.5 125q-14 2 -27.5 3t-27.5 5q-49 12 -90 45t-70.5 78t-48 98t-20.5 107v18q-6 0 -12.5 -1t-14.5 -1q-43 0 -82 15.5t-73.5 42t-65.5 59.5t-57 67q-4 4 -6.5 8.5 t-4.5 8.5q-43 -23 -82 -29q-10 -4 -18 -4h-18q-8 -2 -16.5 -2h-16.5q-39 0 -72 12q-16 6 -35.5 18.5t-37 33t-29 52t-11.5 77.5v16h31zM1145 793q-51 -35 -73.5 -91.5t-35.5 -115.5q18 4 36 10t36 14q39 16 76 37t65 45q35 29 43 56q4 10 4 32q-4 8 -14 19q-27 23 -57 22 q-39 1 -80 -28zM948 1294q-35 -16 -63.5 -54t-52 -88t-41 -104.5t-27.5 -101.5q27 12 52.5 26.5t51.5 31.5q45 31 86 65.5t72 75.5q16 20 27.5 40.5t15.5 43.5v8q0 10 -2 19.5t-6 19.5l-8 6q-35 23 -66 23q-19 -1 -39 -11zM457 1372q-53 0 -74 -43q-16 -33 -16 -80 q0 -33 6 -66.5t16 -64.5l23 25q49 59 80 127q6 16 11 30.5t5 32.5q0 14 -14 33q-17 6 -37 6z" />
<glyph unicode="?" horiz-adv-x="1515" d="M1350 1174q0 -45 -11.5 -77t-29 -52.5t-37 -33t-35.5 -18.5q-35 -12 -72 -12h-16t-16 2h-18.5t-18.5 4q-39 6 -82 29l-4 -8t-6 -9q-23 -31 -52.5 -62.5t-65.5 -59t-77 -45t-84 -17.5q-8 0 -14 1t-13 1v-18q0 -47 -16 -99.5t-47 -98.5t-73 -82t-93 -48q-14 -4 -27.5 -5 t-27.5 -3q-4 -63 -25.5 -125t-66.5 -90q-10 -8 -24.5 -13.5t-35.5 -5.5q-20 0 -44.5 7.5t-55.5 27.5l18 27q45 -31 82 -31q25 0 43 12q35 23 54.5 78.5t23.5 114.5q-35 2 -67.5 11t-61.5 24q-47 23 -89 54.5t-73 80.5q-12 20 -21.5 43.5t-9.5 50.5q0 4 1 10t1 11q8 37 37 61 l11 10q31 31 77 31q47 0 99 -35q57 -39 81.5 -102.5t41.5 -136.5q25 -6 47 -7h18q53 0 115 25q2 0 6 4q72 72 72 201v20q-53 10 -101.5 31.5t-89.5 50.5q-53 37 -98 84t-74 111q-10 23 -17 47t-7 51q0 18 6 41q12 39 41 61q12 6 14 9l2 2q47 27 82 26q27 0 51 -12 q43 -18 77 -65.5t59.5 -103.5t43 -116.5t27.5 -105.5q12 -4 24.5 -8t24.5 -9q27 -6 51 -6q20 0 43 6l13 5l6 2q4 4 4 3t4 1q23 6 28 7t5 3q53 31 92 82l10 14l-8 6q-49 31 -84 78q-20 29 -37.5 75t-17.5 93q0 16 2 32.5t10 31.5q10 20 33.5 37.5t70.5 17.5q70 0 101 -60 q18 -41 18 -94q0 -78 -26 -153q29 -27 65 -41q55 -27 121 -29q82 37 82 150v14h31v-16zM268 793q-41 29 -80 28q-31 0 -57 -22q-4 -4 -7 -8.5l-7 -10.5q0 -23 4 -32q8 -27 43 -56q29 -25 65.5 -45t75.5 -37q39 -16 72 -24q-12 59 -35 115.5t-74 91.5zM465 1294 q-20 10 -39 11q-31 0 -66 -23l-8 -6q-4 -10 -6 -19.5t-2 -19.5v-8q4 -23 15.5 -43.5t27.5 -40.5q31 -41 72 -76t86 -65q27 -16 52.5 -31t51.5 -27q-10 47 -27.5 101.5t-41 104.5t-53 88t-62.5 54zM956 1372q-23 0 -36 -6q-14 -18 -15 -39q0 -14 5 -27.5t12 -29.5 q31 -68 79 -127l23 -25q10 31 16.5 65t6.5 66q0 47 -17 80q-23 43 -74 43z" />
<glyph unicode="@" horiz-adv-x="3201" d="M3140 1229q-14 -66 -47 -82.5t-74 -16.5h-82l-55 -4q-33 -2 -64 -4t-59 -6q-29 -6 -54.5 -16t-48.5 -27q-12 -8 -21 -18.5t-20 -22.5l-12 -26q-2 -8 -2 -27v-27h-31v27q-6 49 -27.5 94t-54 81t-70.5 60.5t-77 32.5q-10 2 -19.5 3t-19.5 1q-41 0 -76 -20q-18 -14 -31 -41 q-14 -27 -21 -55.5t-13 -57.5q-4 -14 -5.5 -27.5t-3.5 -25.5q57 -39 114.5 -90t104 -110.5t75 -124t28.5 -128.5q0 -18 -2 -28q-2 -25 -14.5 -43.5t-32.5 -28.5q-10 -4 -20.5 -6t-22.5 -4q-33 -14 -64 -15q-27 0 -57 11q-39 14 -68.5 39.5t-52.5 54.5q-47 59 -71.5 126.5 t-36.5 139.5q-6 43 -7 88v30.5t5 31.5q4 23 9 46t11 46q-102 63 -211 63q-55 0 -100 -14q-43 -20 -78 -53l35 -35q31 -37 55 -80q25 -43 37 -92q20 -63 20 -139v-26.5t-2 -27.5q-8 -98 -41.5 -186t-87.5 -166q-10 -16 -22 -29l16 -26l25 -29q23 -27 61 -47q10 -4 19.5 -7 t19.5 -7h16q80 0 127 51q35 45 35 100q0 49 -24 99l26 14q29 -61 29 -115q0 -70 -43 -119q-53 -61 -147 -61q-41 0 -84 12q-37 8 -74 29l-41 31l-14 14l-56 -45q-35 -18 -76 -29q-43 -12 -84 -12q-45 0 -82.5 15.5t-64.5 45.5q-43 51 -43 121q0 51 29 113l28 -14 q-27 -51 -26 -101q0 -57 35 -98q47 -51 127 -51h16q10 4 19.5 7t19.5 7q39 20 61 47q14 12 25 29l16 26q-6 6 -11 13.5t-11 15.5q-53 78 -87 166t-42 186q0 10 -1 22.5t-1 22.5q0 78 20 148q6 25 16.5 47.5t20.5 44.5q27 45 57 80l33 35q-35 33 -78 53q-45 14 -100 14 q-109 0 -211 -63q6 -23 11 -46.5t9 -45.5q4 -16 4.5 -30.5t0.5 -31.5q0 -45 -7 -88q-12 -72 -36.5 -139.5t-69.5 -126.5q-23 -29 -53.5 -54.5t-67.5 -39.5q-31 -10 -57 -11q-33 0 -66 15q-10 2 -21.5 4t-21.5 6q-41 23 -47 72q-2 10 -2 28q0 63 28.5 128t75 124.5 t103.5 110.5t115 90q-2 12 -3.5 25.5t-5.5 27.5q-4 29 -12 57.5t-22 55.5q-12 27 -31 41q-35 20 -76 20q-10 0 -19.5 -1t-19.5 -3q-39 -8 -77 -32.5t-70.5 -60.5t-54 -81t-25.5 -94q0 -8 -1 -14.5t-1 -12.5h-31q0 18 2 27q0 10 -4 27q-4 8 -6 14t-6 12q-20 29 -39 41 q-23 16 -49.5 26.5t-55.5 16.5q-29 4 -59.5 6t-63.5 4l-55 4h-82q-41 0 -73.5 16.5t-47.5 86.5q0 33 3.5 78t21.5 80l27 -15q-16 -31 -18.5 -71.5t-2.5 -69.5q10 -49 31.5 -61.5t58.5 -12.5h70q16 4 32.5 7t32.5 8q33 6 72 6q33 0 64 -6q35 -6 69.5 -22.5t57.5 -45.5l16 -23 q6 -8 11 -15t9 -17q29 82 93.5 144.5t144.5 78.5q20 6 45 6q35 0 66 -12q4 0 10 -1t10 -1q18 -4 35.5 -15.5t32.5 -23.5q29 -27 48 -58.5t34 -66.5l6 -14q106 63 217 63h26q10 2 31 2q31 0 62.5 -7t62.5 -18q16 -6 30.5 -14t31.5 -18q14 10 29.5 18t31.5 14q29 10 60.5 17.5 t62.5 7.5q20 0 31 -2h26q115 0 217 -63l6 14q14 35 34 66.5t48 58.5q14 12 32 23.5t36 15.5q6 0 11 1t9 1q31 12 66 12q23 0 45 -6q80 -16 144.5 -78.5t93.5 -144.5q10 20 22 32l14 23q25 29 59 45t68 23q33 6 64 6q37 0 72 -6q16 -4 33.5 -7.5t33.5 -7.5h68q35 0 57.5 12.5 t32.5 59.5q0 31 -2 72t-19 71l29 15q16 -35 19.5 -81t3.5 -81zM760 547q4 -35 31 -47q16 -8 43 -8q45 0 79 20l17 12q27 31 51 78q27 53 42 113.5t26 120.5q6 45 6 90v28q0 8 -1 16.5t-1 18.5q-53 -39 -106.5 -87t-95.5 -101t-67.5 -111.5t-25.5 -116.5q0 -6 1 -13t1 -13z M1518 666q6 -76 27.5 -150t56.5 -145q33 72 54 145.5t27 149.5q2 14 3.5 28.5t1.5 28.5q0 45 -11 96q-4 18 -10 36.5t-12 37.5q-8 16 -17.5 34.5t-19.5 35.5q-4 8 -16 24l-19 -24q-10 -16 -18.5 -35t-16.5 -35q-16 -41 -22 -74q-4 -25 -7 -51.5t-3 -52.5v-24.5t2 -24.5z M2441 547q0 6 1 13t1 13q0 57 -25.5 116t-67.5 112t-94 101t-108 87q0 -10 -1 -18t-1 -17v-20q0 -25 2 -49.5t6 -48.5q10 -59 24.5 -120t41.5 -114q25 -47 51 -78l17 -12q35 -20 79 -20q27 0 43 8q27 12 31 47z" />
<glyph unicode="A" horiz-adv-x="1499" d="M1141 1079q68 -35 124 -90t97 -128t63.5 -160t22.5 -181q0 -86 -22.5 -176t-63.5 -166t-97.5 -125t-123.5 -55h-324q-63 8 -118.5 58t-97.5 125t-66.5 164t-24.5 175q0 94 22.5 181t63.5 160t97.5 128t123.5 90v35h-18q-29 0 -42.5 22.5t-13.5 51.5q0 53 56 53l108 19 l-18 124l-90 -16q-14 -41 -55.5 -81t-100.5 -73.5t-131 -59.5t-145 -40q-47 -8 -93 -8q-102 0 -153 47t-62 125q-8 25 -8 53q0 66 59.5 121t182.5 78q70 12 145 12q109 0 205 -25.5t137 -76.5l90 18q14 53 47 89t62 36q12 0 31.5 -12t36 -35t28.5 -52.5t12 -62.5l-18 -161 l90 -19q27 0 49.5 -13.5t22.5 -39.5q0 -29 -22.5 -51.5t-49.5 -22.5q0 -12 -2 -16.5t-16 -18.5z" />
<glyph unicode="B" horiz-adv-x="1589" d="M1036 1020q86 -25 161 -75t130 -119.5t87 -153.5t32 -176q0 -82 -28.5 -161t-78 -144.5t-115 -115.5t-139.5 -75h-393q-80 25 -148.5 74t-118.5 115.5t-80 145.5t-30 161q0 92 32 176t87 153.5t130 119.5t161 75v16q-25 0 -45.5 20.5t-20.5 45.5t20.5 37t45.5 12l82 16 l-16 115l-66 -16q-12 -37 -50 -73t-91.5 -66.5t-119 -54t-132.5 -36.5q-41 -8 -86 -8q-92 0 -137.5 42t-55.5 114q-2 10 -2 17v18q0 66 47 119t168 75q63 12 133 12q98 0 185.5 -23.5t124.5 -70.5l82 17q12 49 42.5 81.5t55.5 32.5q12 0 28.5 -11t32 -31.5t26.5 -47 t11 -57.5l-33 -148l99 -16q49 0 49 -49q0 -25 -12.5 -45.5t-36.5 -20.5h-17v-16v0z" />
<glyph unicode="C" horiz-adv-x="1400" d="M848 999q92 -25 168 -72.5t129 -113t82.5 -147.5t29.5 -174q0 -80 -26.5 -156t-72.5 -140.5t-108.5 -114.5t-136.5 -81h-16h-393h-17q-80 31 -143 81t-108.5 114.5t-69 140.5t-23.5 156q0 92 29 174t81 147.5t125 113.5t159 72v33q-25 0 -45.5 12.5t-20.5 36.5 q0 25 20.5 45.5t45.5 20.5l81 16v33q-61 25 -96 80t-35 117q0 43 17.5 78.5t46.5 62.5t67.5 41t81.5 14q86 0 141.5 -55t55.5 -141q0 -61 -33 -116.5t-82 -80.5l-16 -33l98 -16q25 0 37 -20.5t12 -45.5q0 -49 -49 -49h-16v-33z" />
<glyph unicode="D" horiz-adv-x="1388" d="M844 1104q104 0 170.5 -34t104.5 -82t51.5 -101t13.5 -92v-709q0 -33 -18.5 -51.5t-47 -26.5t-65.5 -9t-76 -1h-561q-43 0 -81 1t-65.5 9t-44 26.5t-16.5 51.5v709q0 39 18.5 92t58.5 101t104.5 82t158.5 34h14l-14 88v14h-74q-23 0 -41 11.5t-18 33.5q0 23 18.5 41.5 t40.5 18.5h119l-16 73q-43 10 -66 40t-23 63q0 55 58.5 94t148.5 39t148.5 -39t58.5 -94q0 -33 -27.5 -62.5t-60.5 -40.5l-16 -73h119q23 0 34 -18.5t11 -41.5q0 -45 -45 -45h-74v-14l-29 -88h29v0z" />
<glyph unicode="E" horiz-adv-x="1310" d="M967 1165q41 -23 65.5 -55.5t38.5 -66t18.5 -66.5t4.5 -55v-840q0 -55 -37 -68.5t-90 -13.5h-627q-57 0 -91 13.5t-34 68.5v840q0 14 1 34.5t5 38.5q31 96 119 167t205 95l-21 97q-8 4 -8 12q-18 0 -32.5 13.5t-14.5 33.5q0 18 17.5 32.5t37.5 14.5h27l-6 41v12 q-35 4 -58.5 17.5t-23.5 42.5q0 25 15.5 39t41 20t60 7t71.5 1q41 0 76 -1t60.5 -7t40 -20.5t14.5 -38.5q0 -29 -20.5 -42t-55.5 -18v-12l-14 -41h34q18 0 31.5 -14t13.5 -33q0 -20 -12 -33.5t-26 -13.5q0 -6 -3.5 -7t-3.5 -5l-20 -97q57 -10 108.5 -33.5t92.5 -58.5z" />
<glyph unicode="F" horiz-adv-x="1310" d="M967 1165q41 -23 65.5 -55.5t38.5 -66t18.5 -66.5t4.5 -55v-840q0 -55 -37 -68.5t-90 -13.5h-627q-57 0 -91 13.5t-34 68.5v840q0 14 1 34.5t5 38.5q31 96 119 167t205 95l-21 97q-8 4 -8 12q-18 0 -32.5 13.5t-14.5 33.5q0 18 17.5 32.5t37.5 14.5h27l-6 41v12 q-35 4 -58.5 17.5t-23.5 42.5q0 25 15.5 39t41 20t60 7t71.5 1q41 0 76 -1t60.5 -7t40 -20.5t14.5 -38.5q0 -29 -20.5 -42t-55.5 -18v-12l-14 -41h34q18 0 31.5 -14t13.5 -33q0 -20 -12 -33.5t-26 -13.5q0 -6 -3.5 -7t-3.5 -5l-20 -97q57 -10 108.5 -33.5t92.5 -58.5z M920 98h29.5t31.5 4l2 2q0 2 1 4.5t1 8.5v798q0 61 -29.5 106.5t-78 76t-109.5 45t-123 14.5h-35.5t-38.5 -4q-35 -6 -70.5 -19.5t-67.5 -36t-59.5 -55t-41.5 -81.5q-2 -16 -5 -28.5t-3 -17.5v-798q0 -10 2 -13q2 -2 4 -2q14 -4 32.5 -4h28.5h529z" />
<glyph unicode="G" horiz-adv-x="1425" d="M1090 688q-25 0 -51.5 -26.5t-63.5 -38.5q-25 -25 -70 -58t-94 -57l66 -16q25 -12 51 -22.5t63 -10.5l33 -33q25 0 39 -8t27 -8q12 0 26 16t39 16t39 -18t27 -31v-49q-25 -25 -33 -55.5t-33 -42.5h-49q-18 0 -23.5 5t-7.5 14t-4 21.5t-14 24.5q-6 12 -28.5 19.5 t-50.5 13.5t-55.5 13.5t-45.5 19.5q-49 12 -88 36.5t-76 61.5q-25 -12 -43.5 -26.5t-55.5 -38.5q-12 0 -26.5 -10.5t-38.5 -22.5q-4 0 -10 -2q-12 -4 -23 -15q-14 0 -24.5 -7t-24.5 -9q-25 -12 -55.5 -16t-42.5 -17q-12 -12 -14.5 -24.5l-4.5 -22.5t-7 -19t-24 -16h-65 q-12 6 -19.5 20.5t-11.5 31t-8 34t-10 29.5v49q0 12 18.5 22.5t30.5 10.5q25 0 39 -8t26 -8q25 0 49.5 16t49.5 16q25 12 49.5 22.5t48.5 10.5q25 12 57.5 24.5t57.5 24.5l-82 33q-12 12 -43 32.5t-55 33.5q-12 0 -30 7t-36 16t-35.5 17.5t-30.5 8.5l-32 -33 q-37 0 -53.5 12.5t-28.5 36.5v49q10 39 29.5 76t56.5 37q18 0 45 -14q12 -12 14 -33t2 -33q12 -12 35 -10t47 -23q12 0 35 -18.5t47 -30.5v66q16 0 20.5 7t14.5 7q8 0 31 -14q-12 18 -37 24t-51.5 10.5t-48 13.5t-27.5 34q-4 23 -8 45q-4 18 -6.5 37.5t-2.5 31.5 q-6 12 -12 35t-10 49.5t-7 52t-3 43.5q12 49 36.5 96.5t61.5 84.5q27 14 44 28.5t33.5 26.5t36 19.5t50.5 7.5h16q18 0 54 -3.5t75 -9.5t72 -15t45 -22q25 0 47.5 -26.5t34.5 -38.5q25 -37 45 -92.5t20 -104.5t-18 -79.5t-31 -67.5q0 -18 2 -36.5t2 -35.5q0 -16 -4 -31.5 t-16 -27.5t-34.5 -12t-44.5 -2.5t-37 -11.5t-15 -40q14 8 20 8t9.5 -4t19.5 -4q-12 -25 -16.5 -47t-16.5 -35q12 12 26.5 16.5t39.5 16.5t33 26.5t32 39.5q6 6 14.5 7t18.5 1t18.5 1t14.5 7t7 14.5t1 18.5t1 18t7 15q12 12 32.5 14t33.5 2q37 0 47 -33t35 -82v-49 q-10 0 -15 -8q-2 -4 -2 -8q-20 -20 -43 -21q-20 0 -37.5 14.5t-33.5 22.5z" />
<glyph unicode="H" horiz-adv-x="3989" d="M1135 1094q188 0 367 -68t349 -166q86 -51 171 -104.5t174.5 -96.5t184.5 -70.5t204 -27.5q111 0 233 37q4 43 20.5 56.5t45.5 13.5q16 0 31.5 -2t33.5 -7q18 -4 33.5 -6t32.5 -2h18t19 4q43 16 74.5 35t56.5 19q12 0 23 -7.5t18 -25.5q106 41 207.5 62.5t179.5 33.5 q92 12 174 19l-148 -74q16 -8 36 -21.5t40 -25.5q23 -14 47 -31q-31 4 -67 10q-33 4 -75 7t-91 3q-68 0 -141.5 -8t-145.5 -33q0 -43 -40 -58t-91 -36q-23 -8 -45.5 -28.5t-45 -42t-46 -39t-43.5 -17.5q-35 0 -58 45q-104 -47 -187 -66.5t-169 -19.5h-43.5t-42.5 4 q-109 10 -210 47t-194.5 86.5t-177.5 102.5t-155 100q-59 41 -120 74t-126 57q-123 53 -227.5 84t-214.5 31q-59 0 -121 -10t-133 -35q-33 -10 -77 -27.5t-90 -38t-91.5 -42t-77.5 -39.5q4 -12 4 -17q0 -14 -17 -24q-4 0 -6 -2t-6 -2q-16 0 -24 16q0 -18 -13 -25h-8 q-14 0 -20 13q0 -10 -13 -17q0 -2 -2 -4h-2q-8 0 -16 8q2 -2 2 -6q0 -10 -10 -14q-4 0 -4 -2t-5 -2q-4 0 -8 3t-4 9l-8 8l4 -8q0 -6 -6 -12q-4 -4 -6 -4q-12 0 -13 8q0 -2 -6 -8q-4 -2 -6 -4q-12 0 -12 12q-2 10 -3 16t-1 10v5q0 4 4 9t8 5q6 0 12 -12q0 4 4.5 10t8.5 6 q0 16 8 20h8q4 0 8 -2t4 -6q0 16 9 21q4 4 8 4t8 -4q0 4 4 4q-2 4 -2 8q0 10 10 21h25q-4 8 -4 14q0 16 16 26h12q18 0 25 -12q55 31 109.5 57.5t95.5 49.5q61 37 129.5 67.5t140.5 55.5t139.5 35t139.5 10z" />
<glyph unicode="I" d="M901 1067q49 86 114.5 133t164.5 47q49 0 98 8.5t98 8.5q-6 -12 -17 -22.5t-21.5 -21t-18.5 -23.5t-8 -32q0 -25 16 -57.5t16 -56.5q2 -10 3.5 -20.5t1.5 -20.5q0 -53 -26 -102.5t-77 -69.5q-25 -12 -61.5 -13.5t-75.5 -5.5t-73 -20.5t-52 -59.5q41 -90 107.5 -139 t136.5 -49q76 0 133 57q18 -39 38.5 -70.5t20.5 -66.5q0 -25 -10 -43q-8 -23 -24.5 -33t-38.5 -10q-23 0 -49.5 8t-52 20.5t-47 26t-34.5 21.5q-74 37 -127 86t-102 110q35 -47 35 -86q0 -47 -42 -78.5t-97.5 -57t-110.5 -50.5t-80 -55q-12 -12 -29.5 -35t-33 -49.5 t-25.5 -52t-10 -43.5q-37 43 -64.5 90t-48 92t-33 83t-18.5 62q0 4 -1 10.5t-1 10.5q0 57 28.5 108t70.5 95t91 78t90 59q-20 0 -40.5 -1t-43.5 -1q-35 0 -67.5 6t-61.5 28q-37 37 -63.5 84t-50.5 97q-8 35 -22.5 81t-14.5 95q0 23 4 44t16 42q33 -23 58.5 -41.5t51 -31.5 t51.5 -21.5t58 -8.5q10 0 21.5 1t21.5 3q33 10 64 17.5t61 7.5q39 0 74 -16.5t64 -57.5q6 0 17 -15t21 -34q13 -22 27 -49z" />
<glyph unicode="J" d="M809 1067q14 27 27 49q10 18 21 33.5t17 15.5q29 41 64 57.5t74 16.5q31 0 61.5 -7t63.5 -18q10 -2 21 -3t22 -1q33 0 58.5 8.5t51 21.5t51 31.5t58.5 41.5q12 -20 16 -42t4 -44q0 -49 -14 -95.5t-23 -80.5q-25 -49 -51 -96.5t-63 -84.5q-29 -23 -61.5 -28.5t-67.5 -5.5 q-23 0 -43.5 1t-40.5 1q41 -25 90 -59t91 -78t70.5 -95t28.5 -108q0 -4 -1 -10.5t-1 -10.5q-6 -25 -18 -62.5t-32.5 -82.5t-48.5 -92t-65 -90q0 18 -11 43.5t-26.5 52t-32 49t-28.5 35.5q-25 31 -80 55.5t-110.5 50t-97.5 57t-42 78.5q0 39 35 86q-49 -61 -102 -110 t-127 -86q-12 -8 -33.5 -21.5t-47.5 -26t-52.5 -20.5t-48.5 -8q-23 0 -39.5 10.5t-24.5 32.5q-10 18 -10 43q0 35 20.5 66.5t38.5 70.5q57 -57 133 -57q70 0 136.5 49t107.5 139q-18 43 -52 59.5t-73 20.5t-76 5t-61 14q-51 20 -77 69t-26 103q0 10 1.5 20t3.5 21 q0 25 16 57.5t16 56.5q0 18 -8 31.5t-18.5 24t-21.5 20.5t-17 23q49 0 98 -8.5t98 -8.5q98 0 164 -47t115 -133z" />
<glyph unicode="K" horiz-adv-x="1527" d="M1196 825q86 -66 86 -166q0 -70 -39 -141q-27 -53 -78 -82.5t-112 -29.5q-47 0 -92 18q-8 -43 -29 -78t-49.5 -59.5t-63.5 -37.5t-69 -13q-90 0 -155 50t-81 138q-47 -18 -92 -18q-61 0 -112.5 29.5t-78.5 82.5q-43 70 -43 137q0 102 91 170q-86 61 -86 162q0 63 38 121 q29 70 83.5 98.5t119.5 28.5q45 0 80 -8q8 35 29.5 68.5t52.5 60t70 43t84 16.5q35 0 69.5 -16.5t63 -43t49 -60t29.5 -68.5q18 4 37.5 6t37.5 2q66 0 121 -28.5t86 -98.5q43 -55 43 -119q0 -96 -90 -164z" />
<glyph unicode="L" horiz-adv-x="1421" d="M1167 690q51 -25 52 -82q0 -25 -10.5 -49t-27 -44.5t-40 -33t-49.5 -12.5q-20 0 -41 10q-8 0 -51.5 38t-95.5 89t-104 102.5t-79 77.5q8 -37 27.5 -106.5t39.5 -140.5q23 -82 52 -177q0 -27 -12.5 -49t-30 -37.5t-38 -23.5t-38.5 -8q-53 0 -86 32.5t-33 85.5 q20 94 39 177q16 72 30.5 141.5t24.5 105.5l-307 -307q-31 -10 -55 -10q-23 0 -45.5 8t-43 23.5t-32.5 37t-12 46.5q0 29 18.5 56.5t50.5 49.5q86 29 168 51q70 20 141.5 39t116.5 29q-45 18 -113.5 40.5t-135 44t-117.5 38t-60 20.5q-35 20 -51 45t-16 50q0 43 38 77.5 t85 34.5q16 0 31.5 -4t31.5 -14q68 -61 127 -119q51 -49 101.5 -101.5t78.5 -86.5q-8 45 -24.5 116.5t-31.5 142t-26.5 125t-11.5 62.5q0 18 8 38.5t23.5 38t38 30t49.5 12.5q18 0 38.5 -12.5t38 -30t30 -38t12.5 -38.5q0 -8 -15.5 -62.5t-36 -125t-40 -142t-27.5 -116.5 q27 35 78 85t104 97t95 83t53 42q27 20 55 20q43 0 73.5 -39t30.5 -86q0 -25 -10 -46t-33 -38q-29 -20 -87 -39.5t-124.5 -38t-130 -35t-104.5 -30.5q45 -8 117.5 -26.5t143.5 -38t125 -36t60 -18.5z" />
<glyph unicode="M" horiz-adv-x="1519" d="M1298 682q31 -12 45.5 -40t14.5 -62q0 -29 -10.5 -60t-27.5 -55.5t-42 -39.5t-53 -15q-35 0 -68 16q-10 0 -48 33t-89 81t-105.5 102t-95.5 95q10 -53 24.5 -103t28.5 -91q16 -47 33 -88q0 -33 -14 -58.5t-35.5 -44t-47.5 -29t-46 -10.5q-66 0 -103.5 38t-37.5 104 q8 41 16 88q8 41 18.5 91t20.5 103l-311 -311q-49 -16 -89 -16q-25 0 -49 12t-43.5 32.5t-32 46t-12.5 52.5q0 35 21.5 68.5t60.5 60.5q74 16 150 35q66 16 139.5 35.5t136.5 42.5q-63 20 -133 43.5t-131 43t-105.5 35t-56.5 19.5q-43 16 -61.5 43t-18.5 57q0 27 12.5 53.5 t33 48t47 35t57.5 13.5q39 0 74 -23q59 -57 114 -112q47 -47 101.5 -102.5t95.5 -98.5q-10 53 -20.5 104.5t-18.5 94.5t-12 72.5t-4 41.5q0 20 10 45t28.5 46.5t44 36t58.5 14.5q20 0 46 -14.5t47.5 -36t35.5 -46t14 -45.5q0 -12 -9 -41.5t-22.5 -72.5t-29 -94.5 t-25.5 -104.5q41 43 95.5 98.5t105.5 102.5t89 79.5t48 32.5q29 29 68 29q23 0 46 -16.5t42.5 -40t32 -51t12.5 -48.5q0 -31 -16.5 -58.5t-43.5 -41.5q-10 -10 -57 -25.5t-113.5 -34t-141.5 -40t-138 -41.5q63 -23 138 -41.5t141.5 -32.5t114.5 -24.5t56 -14.5z" />
<glyph unicode="N" horiz-adv-x="3180" d="M2959 1051q74 -47 113 -121q35 -61 35 -131q0 -119 -107 -209q-53 -45 -123.5 -70.5t-144.5 -25.5q-53 0 -103.5 14t-93.5 49q-61 47 -82.5 89t-21.5 73q0 16 5 29.5t9 23.5q23 47 77 70.5t108 23.5q35 0 59 -8q41 -12 63.5 -43t22.5 -74q0 -4 -1 -9t-1 -11l-33 4 q0 4 1 9t1 9q0 41 -20.5 58.5t-42.5 25.5q-23 6 -49 7q-47 0 -92.5 -20.5t-63.5 -55.5q-10 -20 -10 -39q0 -66 92 -135q39 -31 84 -44.5t92 -13.5q68 0 134.5 23.5t113.5 64.5q27 23 60.5 68t33.5 115q0 27 -7 55.5t-24 60.5q0 4 -4 9q-16 23 -33.5 39t-37.5 32 q-43 31 -91.5 49.5t-99.5 30.5q-92 18 -182 19h-27q-104 0 -209 -19q-102 -18 -199.5 -55t-191.5 -86q-94 -47 -185 -103.5t-186 -113.5q-47 -29 -95 -56.5t-97 -54.5t-100.5 -51.5t-104.5 -46.5q-111 -41 -222.5 -64.5t-227.5 -27.5q-12 0 -23.5 -1t-24.5 -1q-92 0 -184 18 q-57 12 -112.5 32.5t-106.5 53.5q-47 29 -90 76q-39 41 -68 96q-25 51 -37 109l-4 20q-6 31 -6 57v33q0 -6 2 -8q2 51 27 92q23 45 63.5 83t93 65.5t114 42t126.5 14.5h19q131 -4 226 -64.5t142 -168.5l-30 -15q-41 100 -129.5 155.5t-208.5 59.5h-19q-59 0 -116.5 -13 t-106.5 -38t-87 -59.5t-58 -75.5q-25 -49 -25 -100q0 -70 45 -148l10 -16q68 -84 158 -123q47 -23 95 -34t100 -15q18 -2 35.5 -2h35.5q68 0 135 6q51 6 101.5 16t101.5 25q51 12 99.5 29.5t95.5 37.5t94 44t94 51l186 108q94 55 190.5 109.5t201.5 101.5q104 47 213.5 79 t226.5 42q55 6 113 6q55 0 114 -6q57 -6 113.5 -17.5t110.5 -29.5q93 -33 163 -90z" />
<glyph unicode="O" horiz-adv-x="3282" d="M3119 928q35 -66 35 -129q0 -121 -109 -211q-53 -45 -123.5 -70.5t-144.5 -25.5q-53 0 -103.5 14t-93.5 49l21 27q76 -57 176 -58q68 0 134.5 23.5t113.5 64.5q27 23 60.5 69t33.5 116q0 27 -7 55.5t-24 60.5q0 2 -4 7q-31 43 -71 71q-43 31 -91.5 50.5t-99.5 29.5 q-100 20 -209 21q-53 -2 -104 -6.5t-105 -14.5q-102 -16 -199.5 -54t-191.5 -85q-94 -49 -185 -104.5t-186 -112.5q-47 -29 -95 -56.5t-97 -56.5q-49 -27 -100.5 -50.5t-104.5 -45.5q-215 -84 -450 -94h-35q-49 0 -98.5 4t-98.5 14q-57 10 -112.5 30.5t-106.5 53.5 q-25 16 -47.5 34.5t-42.5 41.5t-36.5 46t-29.5 50q-25 49 -38 109l-5 22q-6 27 -6 55v33q0 -4 2 -8q2 51 27 92q47 92 156.5 149.5t242.5 57.5h19q129 -4 224 -65.5t142 -169.5l-30 -13q-41 98 -129 154.5t-209 60.5h-13q-61 0 -119.5 -13t-107.5 -38t-88 -59.5t-59 -77.5 q-25 -49 -25 -101q0 -68 45 -147l10 -14q66 -84 158 -125q94 -41 195 -47q20 -4 39.5 -4h39.5q33 0 64 2t63 6q51 6 101.5 15t101.5 24q104 29 195 67q47 20 94 45t94 49l187 109q94 55 190 109.5t201 101.5q104 47 213.5 79t226.5 42q55 6 113 6q55 0 114 -6 q57 -4 113.5 -15.5t110.5 -31.5q45 -16 87 -38t76 -50q74 -49 115 -123z" />
<glyph unicode="P" horiz-adv-x="4397" d="M4336 932q35 -63 34 -133q0 -119 -106 -207q-53 -45 -124 -71.5t-144 -26.5q-53 0 -103.5 15t-93.5 50l21 25q37 -29 81.5 -42.5t92.5 -13.5q70 0 136 23.5t113 64.5q27 23 61 68t34 115q0 27 -7.5 55.5t-23.5 60.5q0 4 -4 9q-31 41 -72 71q-43 29 -91 48.5t-99 29.5 q-53 12 -104.5 16.5t-104.5 4.5t-104.5 -5.5t-104.5 -13.5q-102 -18 -199.5 -56t-191.5 -85q-41 -20 -80 -43t-80 -45q2 -10 3 -22.5t1 -22.5q0 -119 -106 -209q-53 -45 -125 -71.5t-146 -26.5q-92 0 -168 43l-67 -29q-111 -41 -222.5 -65.5t-228.5 -28.5h-28 q-102 0 -203 18q-57 12 -112.5 32.5t-106.5 53.5q-47 29 -90 76q-20 20 -37 47q-16 -10 -30.5 -18.5t-31.5 -16.5q-100 -57 -205 -98q-111 -41 -222 -65.5t-228 -28.5h-29q-102 0 -203 18q-57 12 -112.5 32.5t-106.5 53.5q-47 29 -90 76q-39 41 -67 96q-25 53 -37 107l-4 22 q-6 31 -7 58v30q0 -4 3 -6q2 27 9 49.5t17 42.5q23 45 64 83t93 65.5t113.5 42t126.5 14.5h19q131 -4 226 -64.5t143 -170.5l-31 -13q-41 98 -129 154.5t-209 60.5h-19q-59 0 -116.5 -14t-106.5 -39t-87 -59.5t-58 -75.5q-25 -47 -25 -98q0 -70 45 -150l11 -14 q63 -80 157 -125q47 -20 95.5 -31.5t99.5 -15.5q20 -2 39.5 -3t40.5 -1q31 0 62.5 2t64.5 6q51 6 101 15t101 24q104 29 195 67q47 23 94 46.5t94 50.5q18 10 37 20t37 21q0 2 -1 3t-1 3l-4 24q-16 55 -16 107q0 82 41 141q47 72 119.5 103.5t152.5 31.5q68 0 136.5 -21.5 t125.5 -58.5l31 -22q86 35 176 57.5t184 30.5q29 2 56.5 3t56.5 1t57.5 -1t57.5 -3q57 -6 113.5 -17.5t109.5 -31.5q45 -16 87 -38t77 -50q47 -33 75 -66q80 43 164 82q104 47 214 79t227 42q29 2 56.5 3t55.5 1q29 0 57.5 -1t57.5 -3q57 -6 113.5 -17.5t109.5 -31.5 q94 -33 164 -88q74 -47 113 -121zM1487 670q51 -49 117 -80q47 -20 95 -31.5t99 -15.5q20 -2 40 -3t40 -1q31 0 62.5 2t64.5 6q51 6 101.5 15t101.5 24q47 14 93 29.5t89 33.5l-76 78q-66 72 -129 136.5t-135 123.5l-113 -53q-94 -47 -185 -103.5t-185 -113.5zM2339 750 q20 -23 40.5 -44.5t43.5 -41.5q41 18 84 40.5t84 45.5q47 25 93 51t93 55t95 56.5t96 56.5l-31 26q-43 29 -91 48.5t-100 29.5q-53 12 -104 16.5t-105 4.5q-53 0 -104 -5.5t-104 -13.5q-63 -10 -124 -29.5t-120 -44.5q68 -57 128 -119t126 -132zM1415 1051q-35 -53 -35 -123 q0 -29 5.5 -59.5t15.5 -59.5l82 47q94 57 190 111.5t201 101.5l43 18l-12 9q-47 33 -114 54t-136 21q-68 0 -131.5 -27t-108.5 -93zM2949 616q12 10 29.5 28t32 41.5t24.5 53t10 64.5q0 6 -1 12t-1 12l-182 -110q-47 -29 -95 -56.5t-97 -54.5q-25 -14 -48.5 -26.5 t-50.5 -24.5q29 -14 61.5 -20.5t67.5 -6.5q70 0 135.5 23.5t114.5 64.5z" />
<glyph unicode="Q" horiz-adv-x="2588" d="M2417 758h-426l-84 -86q-35 -29 -68 -56.5t-74 -56.5q-37 -25 -71.5 -47.5t-75.5 -44.5q-41 -20 -82 -36.5t-90 -31.5q31 39 62.5 71t60.5 67q33 29 67.5 56.5t73.5 51.5q37 27 73 47.5t77 42.5l41 23h-252l-82 -86q-35 -29 -68 -56.5t-72 -56.5q-37 -25 -74.5 -47.5 t-78.5 -44.5q-39 -20 -79 -36.5t-87 -31.5q29 39 58.5 71t64.5 67q31 29 65.5 56.5t73.5 51.5q35 27 72 47.5t78 42.5l41 23h-252l-80 -86q-35 -29 -69 -56.5t-73 -56.5q-37 -25 -73.5 -47.5t-77.5 -44.5q-78 -41 -168 -68q29 39 59.5 71t63.5 67q33 29 66.5 56.5t70.5 51.5 q37 27 75 47.5t79 42.5l39 23h-250l-84 -86q-35 -29 -69 -56.5t-75 -56.5q-66 -49 -147 -92q-39 -20 -80 -36.5t-90 -31.5q33 39 62.5 71t60.5 67q35 29 68.5 56.5t72.5 51.5q37 27 74 47.5t78 42.5l39 23h-336v-13q0 -16 -3 -34.5t-12 -34.5q-8 -23 -23 -42.5t-36 -35.5 q-20 -16 -39.5 -28.5t-46.5 -16.5q-31 -10 -63 -10q-10 0 -31 4q16 23 29.5 40t29.5 31l56 58q14 14 29.5 24.5t33.5 20.5l10 14q-29 -10 -58.5 -12t-60.5 -2q-29 0 -57.5 2t-60.5 12q-29 10 -57.5 21.5t-61.5 34.5q33 16 61.5 29.5t57.5 21.5q33 10 61.5 12t56.5 2 q31 0 61 -2t58 -12l-10 12q-18 12 -33.5 22.5t-29.5 20.5l-56 57l-59 72q18 6 39 6q14 0 28.5 -2t26.5 -6q27 -6 46.5 -17.5t39.5 -27.5q20 -18 35.5 -37.5t23.5 -44.5q8 -12 11.5 -33.5t3.5 -38.5q2 -2 6 -2h14h393q-33 10 -60.5 23.5t-55.5 30.5q-41 23 -78 44t-74 48 q-39 25 -72.5 52.5t-68.5 55.5q-31 31 -60.5 65t-62.5 72q94 -27 170 -71q41 -18 78 -41t69 -47q41 -29 75 -56.5t69 -56.5q31 -27 58.5 -56.5t53.5 -62.5h299q-33 10 -60.5 23.5t-55.5 30.5q-41 23 -79 44t-75 48q-37 25 -70.5 52.5t-66.5 55.5q-68 63 -123 137 q47 -14 88 -31.5t80 -39.5q41 -18 78 -41t73 -47q39 -29 73 -56.5t69 -56.5q29 -27 56.5 -56.5t53.5 -62.5h299q-35 10 -61.5 23.5t-56.5 30.5q-41 23 -78 44t-72 48q-39 25 -73.5 52.5t-65.5 55.5q-35 31 -64.5 65t-58.5 72q92 -29 166 -71q41 -18 79 -41t74 -47 q39 -29 72 -56.5t68 -56.5q29 -27 56.5 -56.5t53.5 -62.5h301q-33 10 -60.5 23.5t-57.5 30.5q-41 23 -77 44t-73 48q-39 25 -73.5 52.5t-67.5 55.5q-29 31 -60.5 65t-62.5 72q94 -27 172 -71q41 -18 76 -41t71 -47q41 -29 74 -56.5t68 -56.5q29 -27 56.5 -56.5t53.5 -62.5 h400v-65z" />
<glyph unicode="R" horiz-adv-x="2588" d="M123 823h399q27 33 54.5 62.5t56.5 56.5q35 29 67.5 56.5t73.5 56.5q37 25 72 47t76 41q78 45 172 71q-31 -39 -63 -72.5t-60 -64.5q-33 -29 -68 -56.5t-74 -51.5q-37 -27 -72.5 -48.5t-76.5 -43.5q-31 -16 -58.5 -29.5t-60.5 -24.5h301q27 33 54.5 62.5t56.5 56.5 q35 29 67.5 56.5t71.5 56.5q37 25 75 47t79 41q74 43 166 71q-29 -39 -59 -72.5t-64 -64.5q-31 -29 -66 -56.5t-74 -51.5q-35 -27 -71.5 -48.5t-77.5 -43.5q-31 -16 -57.5 -29.5t-61.5 -24.5h299q27 33 54.5 62.5t56.5 56.5q35 29 68.5 56.5t72.5 56.5q37 25 74 47t78 41 q39 23 79.5 40t88.5 31q-55 -74 -123 -137q-33 -29 -67 -56.5t-71 -51.5q-37 -27 -74.5 -48.5t-78.5 -43.5q-29 -16 -56.5 -29.5t-60.5 -24.5h299q27 33 54.5 62.5t58.5 56.5q35 29 68.5 56.5t74.5 56.5q33 25 70 47t78 41q76 45 170 71q-33 -39 -63 -72.5t-60 -64.5 q-35 -29 -69 -56.5t-73 -51.5q-37 -27 -73.5 -48.5t-77.5 -43.5q-29 -16 -56.5 -29.5t-60.5 -24.5h393h15q4 0 6 2q0 16 3 38t11 34q8 25 23.5 44.5t35.5 37.5q20 16 40 27.5t46 17.5q12 4 26.5 6t29.5 2q20 0 39 -6l-60 -72l-55 -57q-14 -10 -29.5 -20.5t-33.5 -22.5 l-11 -12q29 10 58.5 12t60.5 2q29 0 57.5 -2t61.5 -12q29 -8 57.5 -21.5t61.5 -29.5q-33 -23 -61.5 -34.5t-57.5 -21.5q-33 -10 -61.5 -12t-57.5 -2q-31 0 -60.5 2t-58.5 12l11 -14q18 -10 33.5 -20.5t29.5 -24.5l55 -58q16 -14 29.5 -31.5t30.5 -39.5q-20 -4 -31 -4 q-33 0 -64 10q-27 4 -46 16.5t-40 28.5q-20 16 -35.5 35.5t-23.5 42.5q-8 16 -11 34.5t-3 34.5v13h-336l39 -23q41 -23 77.5 -43t73.5 -47q39 -25 73 -52.5t69 -55.5q31 -35 60.5 -67t62.5 -71q-49 14 -90.5 30.5t-79.5 37.5q-84 43 -148 92q-41 29 -74.5 56.5t-68.5 56.5 l-84 86h-250l39 -23q41 -23 79 -43t74 -47q37 -25 71 -52.5t67 -55.5q33 -35 63.5 -67t59.5 -71q-90 27 -168 68q-41 23 -78 45.5t-74 46.5q-39 29 -72.5 56.5t-68.5 56.5l-80 86h-252l41 -23q41 -23 78 -43t71 -47q39 -25 74 -52.5t66 -55.5q35 -35 64.5 -67t58.5 -71 q-47 14 -87 30.5t-79 37.5q-41 23 -79 45.5t-75 46.5q-39 29 -71.5 56.5t-67.5 56.5l-82 86h-252l41 -23q41 -23 77 -43t72 -47q39 -25 74 -52.5t68 -55.5q29 -35 60.5 -67t62.5 -71q-49 14 -90 30.5t-82 37.5q-41 23 -76 45.5t-72 46.5q-41 29 -73.5 56.5t-67.5 56.5 l-84 86h-426v65z" />
<glyph unicode="S" horiz-adv-x="2256" d="M2079 913q-162 -143 -324 -176q-37 -49 -71.5 -94t-67.5 -86q-74 -82 -139 -151q-70 -63 -127 -109q-35 -16 -61.5 -29.5t-57.5 -13.5q23 41 47.5 77t54.5 70q29 33 58.5 65t64.5 62q33 31 70 59.5t78 59.5l116 86q-29 -6 -56.5 -8t-55.5 -2q-68 0 -138 12 q-29 -43 -58.5 -78.5t-53.5 -66.5q-33 -35 -61.5 -62.5t-55.5 -52.5q-31 -23 -55.5 -40t-48.5 -29q-23 -8 -44.5 -14.5t-41.5 -6.5h-13q10 37 27.5 65.5t40.5 57.5q23 27 46.5 51.5t51.5 46.5q29 23 61.5 43.5t67.5 38.5q23 16 50.5 27.5t54.5 21.5q-66 12 -126.5 31.5 t-123.5 40.5q-25 -37 -46.5 -66.5t-41.5 -56.5q-25 -29 -48.5 -51.5t-45.5 -36.5q-20 -18 -42 -32.5t-42 -24.5q-16 -8 -32 -10.5t-34 -2.5h-22q6 31 17 55.5t23 47.5q16 23 36 43t42 43q23 16 49.5 33.5t55.5 33.5q45 20 98 37q-66 20 -129 40t-127 36q-14 -35 -29.5 -60.5 t-27.5 -48.5q-18 -29 -38 -49t-34 -37q-35 -35 -74 -55q-41 -18 -88 -24q2 23 10.5 44t20.5 44q10 23 25.5 44t33.5 40q37 39 88 69q35 27 86 43q-59 12 -117.5 20.5t-117.5 8.5q-47 0 -96 -6q-2 2 -6 2q-8 0 -11 -6q10 -14 14.5 -30.5t8.5 -33.5q2 -6 2 -20q0 -29 -12 -47 q-16 -25 -48 -43q-23 -16 -73 -17q0 31 12 56l21 49l26 53q-6 -2 -35.5 -13.5t-48.5 -21.5l-223 -92q12 31 30.5 56.5t41.5 49.5q16 20 39.5 41t48.5 33q27 16 53.5 25.5t54.5 11.5q-4 0 -10 1t-8 1q-18 8 -37 10t-37 2q-18 2 -36.5 4.5t-37.5 2.5h-42t-44 2q18 27 41 42 t45 25q18 6 38 10t38 4q6 0 11 -1t12 -1q23 -2 45 -14t39 -29q33 -31 45 -59l18 2q41 10 82 13t82 3h52.5t51.5 -4l-36 21q-39 29 -81 50.5t-87 39.5q-41 20 -83 36.5t-83 26.5q-43 14 -87 20.5t-85 16.5q41 23 78.5 30t78.5 7h31q45 0 91 -13t89 -36q41 -16 81 -44t81 -62 q47 -47 90 -107q53 -10 109.5 -23.5t111.5 -29.5l-184 174q-37 37 -76 69.5t-84 67.5l-161 127q109 -4 196 -53q88 -41 172 -119q39 -37 75 -77t66 -85q23 -29 40.5 -61.5t33.5 -65.5q55 -18 111.5 -32.5t109.5 -26.5l-30 33q-29 37 -62 76.5t-63 82.5q-35 39 -68 83t-67 85 q-35 45 -72 91.5t-72 93.5q53 -18 100.5 -44t90.5 -63q41 -31 77.5 -68.5t71.5 -78.5q68 -80 119 -178q14 -33 29.5 -64t25.5 -61q39 -8 78 -13.5t78 -5.5q16 0 29.5 1t29.5 3l-22 19q-29 31 -54.5 65.5t-52.5 75.5q-29 37 -55.5 80t-54.5 86q-27 47 -54.5 98t-50.5 107 q94 -51 166 -119q37 -33 67.5 -70t63.5 -73q29 -37 48.5 -76t39.5 -78q12 -29 20.5 -55.5t18.5 -55.5q92 16 180 58.5t174 120.5z" />
<glyph unicode="T" horiz-adv-x="2256" d="M201 733q162 143 323 176q37 49 72 94.5t68 86.5q74 82 139 151q70 63 127 109q35 16 61.5 29.5t57.5 13.5q-23 -41 -47.5 -77t-55.5 -71q-29 -33 -58.5 -64.5t-64.5 -62.5q-33 -31 -69.5 -59.5t-77.5 -59.5l-117 -86q29 6 56.5 8.5t56.5 2.5q66 0 137 -13q29 43 58.5 79 t54.5 67q33 35 61.5 62.5t54.5 51.5q31 23 55.5 40.5t49.5 29.5q23 8 44 14.5t42 6.5h12q-10 -37 -27.5 -66t-39.5 -57q-23 -27 -46.5 -51.5t-52.5 -47.5t-61.5 -43t-67.5 -39q-23 -16 -50.5 -27t-53.5 -22q66 -12 126 -31.5t124 -39.5q25 37 46 66.5t42 56.5q25 29 48 51 t46 37q20 18 41.5 32.5t42.5 24.5q16 8 31.5 10t33.5 2h23q-6 -31 -17.5 -55.5t-23.5 -46.5q-16 -23 -35.5 -43.5t-42.5 -42.5q-23 -16 -49.5 -33.5t-54.5 -34.5q-47 -23 -99 -37q66 -20 129.5 -39.5t126.5 -35.5q14 35 29.5 60.5t28.5 47.5q18 29 37.5 49.5t33.5 36.5 q18 18 36 31.5t38 23.5q41 18 88 25q-2 -23 -10 -44.5t-21 -43.5q-18 -43 -59 -84q-37 -39 -88 -70q-35 -27 -86 -43q59 -12 117.5 -20t117.5 -8q47 0 97 6q0 -4 4 -4t7 3l5 5q-10 14 -14 30.5t-8 32.5q-2 6 -2 21q0 29 12 47q16 25 47 43q23 16 74 16q0 -31 -13 -55 l-20 -49l-27 -53q6 2 36 13t48 21l223 93q-12 -31 -30.5 -56.5t-40.5 -50.5q-16 -20 -40 -40.5t-48 -33.5q-27 -16 -53.5 -25t-55.5 -11q4 0 10.5 -1t8.5 -1q18 -8 36.5 -10.5t36.5 -2.5q18 -2 37 -4t37 -2h42.5t43.5 -2q-18 -27 -40.5 -42t-45.5 -26q-35 -14 -76 -14 q-16 0 -22 2q-23 2 -45.5 14.5t-38.5 28.5q-33 31 -45 60l-19 -2q-41 -10 -82 -13.5t-82 -3.5h-52t-52 4l37 -20q39 -29 81 -50.5t87 -39.5q41 -20 83 -37t83 -27q43 -14 87 -20t85 -17q-41 -23 -79 -30t-79 -7h-31q-45 0 -91 13.5t-89 36.5q-41 16 -81 43.5t-81 62.5 q-47 47 -90 107q-53 10 -109.5 23t-111.5 30l184 -174q37 -37 76 -70t84 -67l162 -127q-109 4 -197 53q-88 41 -172 119q-39 37 -74.5 76.5t-66.5 84.5q-23 29 -40 62t-34 65q-55 18 -111.5 32.5t-109.5 27.5l31 -33q29 -37 61.5 -77t63.5 -83q35 -39 67.5 -83t67.5 -85 q35 -45 71.5 -91t71.5 -93q-53 18 -100 44t-90 62q-41 31 -78 69t-72 79q-68 80 -119 178q-14 33 -29.5 63.5t-25.5 61.5q-39 8 -78 13t-77 5q-16 0 -30 -1t-30 -3l23 -18q29 -31 54.5 -65.5t51.5 -75.5q29 -37 55.5 -80t55.5 -86q27 -47 54.5 -98.5t49.5 -106.5 q-94 51 -166 119q-37 33 -67.5 69.5t-63.5 73.5q-29 37 -48 76t-40 78q-12 29 -20.5 55.5t-18.5 54.5q-92 -16 -180 -58t-174 -120z" />
<glyph unicode="U" horiz-adv-x="4892" d="M4598 715q-33 -10 -68 -13.5t-72 -3.5q-35 0 -71.5 3.5t-73.5 13.5l21 -17q20 -14 36.5 -26.5t32.5 -28.5l78 -68q16 -16 32.5 -38.5t37.5 -47.5q-25 -6 -47 -6q-20 0 -40 4.5t-36 8.5q-31 6 -54.5 19t-48.5 36q-43 41 -69 92q-14 39 -15 72v13t2 13h-399l43 -26 q47 -27 90 -51.5t88 -57.5q47 -29 86 -62.5t84 -66.5q35 -41 72 -80t70 -86q-111 33 -201 82l-182 111q-41 33 -83 66.5t-81 68.5q-27 23 -49.5 47.5t-42.5 54.5h-308l52 -26q41 -27 87 -51.5t91 -57.5q47 -29 85 -62.5t81 -66.5q35 -41 73.5 -80t71.5 -86q-115 35 -203 82 q-45 27 -91 54.5t-89 56.5q-43 33 -85 66.5t-79 68.5q-29 23 -52.5 47.5t-45.5 54.5h-301l47 -26q45 -27 90 -51.5t90 -57.5q47 -29 84 -62.5t82 -66.5q37 -41 73 -80t70 -86q-104 33 -202 82q-43 27 -90 54.5t-91 56.5q-41 33 -83.5 66.5t-79.5 68.5q-25 23 -48.5 47.5 t-50.5 54.5h-299l47 -26q45 -27 90.5 -51.5t88.5 -57.5q43 -29 83 -62.5t80 -66.5q41 -41 77 -80t71 -86q-53 16 -103.5 37t-97.5 45q-43 27 -91 54.5t-93 56.5q-39 33 -81 66.5t-83 68.5q-25 23 -48.5 47.5t-45.5 54.5h-76l-96 -102q-43 -35 -82 -68.5t-86 -66.5 q-43 -29 -89 -56.5t-93 -54.5q-47 -25 -95.5 -45t-107.5 -37q35 47 72.5 86t78.5 80q37 33 78 67t82 62q47 33 92 57.5t92 51.5l43 26h-296l-95 -102q-43 -35 -83 -68.5t-89 -66.5q-41 -29 -86 -56.5t-92 -54.5q-51 -25 -99 -45t-106 -37q35 47 73 86t77 80q41 33 80 67 t80 62q47 33 93 57.5t95 51.5l43 26h-299l-98 -102q-41 -35 -82 -68.5t-88 -66.5q-39 -29 -84 -56.5t-92 -54.5q-49 -25 -98.5 -45t-108.5 -37q39 47 75.5 86t73.5 80q41 33 81 67t81 62q47 33 93 57.5t93 51.5l45 26h-297l-100 -102q-41 -35 -81 -68.5t-87 -66.5 q-41 -29 -85 -56.5t-91 -54.5q-51 -25 -99 -45t-108 -37q35 47 73 86t77 80q39 33 80 67t81 62q47 33 92.5 57.5t92.5 51.5l45 26h-402v-10q0 -23 -5 -45t-11 -43q-27 -53 -72 -92q-25 -23 -47 -36t-55 -19q-16 -4 -34.5 -8.5t-39.5 -4.5q-23 0 -43 6q20 25 34.5 47.5 t37.5 38.5l72 68q14 16 31.5 28.5t39.5 26.5l17 17q-35 -10 -70 -13.5t-76 -3.5q-35 0 -69.5 3.5t-69.5 13.5t-72 23.5t-71 41.5q35 18 71.5 34.5t71.5 27.5q35 12 69.5 15t69.5 3q41 0 76 -3t70 -15l-17 16q-23 14 -40 25.5t-31 25.5l-72 68q-23 23 -37 43t-35 43 q27 10 49 10q18 0 35 -4t33 -8q33 -8 55.5 -21.5t46.5 -31.5q23 -23 40.5 -46.5t31.5 -52.5q6 -16 11 -37.5t5 -44.5l27 -6h471q-41 10 -73.5 27.5t-67.5 36.5q-47 29 -92 53.5t-93 56.5q-41 29 -81.5 63t-79.5 66q-39 37 -77 78t-73 88q59 -16 107.5 -36.5t99.5 -49.5 q96 -49 176 -106q47 -33 87 -67t81 -68q35 -31 66.5 -67t64.5 -75h361q-37 10 -71 27.5t-69 36.5q-47 29 -93 53.5t-93 56.5q-41 29 -81 63t-81 66q-37 37 -73.5 78t-75.5 88q59 -16 108 -36.5t99 -49.5q47 -23 92 -50.5t84 -55.5q47 -33 88 -67l82 -68q37 -31 69.5 -67 t65.5 -75h358q-39 10 -72.5 27.5t-66.5 36.5q-49 29 -95 53.5t-93 56.5q-41 29 -80 63t-80 66q-39 37 -77 78t-73 88q57 -16 105.5 -36.5t99.5 -49.5q92 -47 178 -106q49 -33 89 -67t83 -68q70 -63 129 -142h361q-41 10 -75 27.5t-67 36.5q-47 29 -92 53.5t-92 56.5 q-41 29 -82 63t-78 66q-41 37 -78.5 78t-72.5 88q59 -16 107.5 -36.5t95.5 -49.5q47 -23 93 -50.5t89 -55.5q47 -33 86 -67t82 -68q35 -31 67.5 -67t65.5 -75q35 39 66.5 75t66.5 67q41 35 83 68.5t81 66.5q45 29 93 56.5t91 49.5q47 29 97.5 49.5t103.5 36.5 q-68 -92 -148 -166q-41 -33 -80.5 -66.5t-82.5 -62.5q-43 -33 -88 -57.5t-91 -52.5q-35 -18 -69.5 -36t-75.5 -28h360q68 78 136 142q37 35 80 68.5t83 66.5q43 29 90.5 56.5t90.5 49.5q49 29 99 49.5t103 36.5q-35 -47 -70.5 -88t-72.5 -78q-45 -33 -82 -66.5t-84 -62.5 q-45 -33 -90 -57.5t-90 -52.5q-35 -18 -68.5 -36t-74.5 -28h362q33 39 65.5 75t67.5 67q37 35 79 68.5t85 66.5q43 29 89 56.5t91 49.5q47 29 97.5 49.5t105.5 36.5q-33 -47 -72 -88t-73 -78q-43 -33 -81 -66.5t-85 -62.5q-45 -33 -91 -57.5t-87 -52.5q-39 -18 -73 -36 t-71 -28h359q33 39 65.5 75t67.5 67q39 35 81 68.5t83 66.5q47 29 93 56.5t89 49.5q47 29 96 49.5t105 36.5q-33 -47 -70 -88t-72 -78q-45 -33 -84 -66.5t-86 -62.5q-45 -33 -88 -57.5t-90 -52.5q-33 -18 -68.5 -36t-74.5 -28h467l32 -4q-2 6 -2 13.5v13.5q0 33 15 65 q14 29 31.5 52.5t37.5 46.5q25 18 48.5 31.5t54.5 21.5q16 4 33.5 8t35.5 4q23 0 54 -10q-20 -23 -37 -43.5t-33 -42.5l-158 -135q29 12 65 15t70 3q37 0 72 -3t68 -15q41 -10 74.5 -26.5t68.5 -35.5q-35 -29 -68.5 -42t-74.5 -23z" />
<glyph unicode="V" horiz-adv-x="3149" d="M2736 1087q82 -2 165 -60t165 -208q-49 39 -98.5 55.5t-100.5 16.5q-68 0 -131 -25q-86 -29 -167 -82t-163 -104t-161.5 -91t-157.5 -40h-14q-41 2 -80 15.5t-79 42t-81 76.5t-82 120l-195 -123q-82 -51 -160.5 -91t-158.5 -40h-14q-41 2 -80 15.5t-79 42t-80 76.5 t-81 120l-196 -123q-80 -51 -160 -91t-158 -40h-14q-84 4 -165 62.5t-163 207.5q49 -39 99.5 -56.5t99.5 -17.5q33 0 64.5 7.5t64.5 17.5q82 29 165 84t167 109q80 53 158.5 88.5t160.5 35.5h12q82 -2 161 -57t161 -196q49 31 96 63.5t100 65.5q78 53 159 88.5t161 35.5h10 q84 -2 163 -57t159 -196q53 31 100 63.5t98 65.5q78 53 157 88.5t161 35.5h12zM907 805q88 -59 185 -60q66 0 131 25q68 23 127 61q-90 59 -183 60q-66 0 -129 -25q-35 -10 -65.5 -25.5t-65.5 -35.5zM1757 805q47 -31 93 -45.5t94 -14.5q63 0 129 25q63 20 127 61 q-90 59 -183 60q-63 0 -131 -25q-35 -10 -64.5 -25.5t-64.5 -35.5z" />
<glyph unicode="W" horiz-adv-x="6731" d="M5335 682q322 -18 638 -27.5t638 -44.5q-322 -16 -638 -31.5t-638 -15.5q-160 -18 -318.5 -21t-318.5 -3h-518q-16 0 -33 -13q-8 -6 -14 -10q-72 -53 -142.5 -85t-142.5 -32q-70 0 -137.5 44t-120.5 167q-53 -16 -91 -47t-73 -47q-72 -53 -142.5 -85t-141.5 -32 q-72 0 -138.5 44t-119.5 167q-53 -16 -92 -47t-74 -47q-72 -53 -142.5 -85t-142.5 -32q-102 0 -211 140h-235q-160 0 -319 3t-318 21q-322 0 -638.5 15.5t-637.5 31.5q322 35 638 44.5t638 27.5h637l634 25q18 0 39 14t58 33q72 35 130 63.5t128 28.5q72 0 142.5 -44 t139.5 -167q37 35 76 59.5t92 59.5q70 35 128.5 63.5t129.5 28.5q72 0 141.5 -44t141.5 -167q37 35 75 59.5t91 59.5q72 35 130 63.5t128 28.5q72 0 128 -38t109 -126h70h637zM2884 610q78 -39 147 -39q49 0 111 17q18 0 46.5 14t47.5 33q-57 57 -133 57q-61 0 -127 -35 q-16 0 -46 -14.5t-46 -32.5zM3590 610q80 -39 150 -39q47 0 108 17q18 0 48 14t48 33q-57 57 -133 57q-61 0 -127 -35q-16 0 -47 -14.5t-47 -32.5z" />
<glyph unicode="X" horiz-adv-x="7182" d="M3154 698q66 0 89.5 -21.5t23.5 -64.5t-24 -77.5t-89 -34.5q-23 0 -43.5 16t-42.5 39h-1446q-381 23 -762 29t-764 28q287 12 573.5 18.5t573.5 11.5t573.5 10t571.5 18h680q23 23 43 25.5t43 2.5zM3658 641q20 -25 20 -43t-20 -43l-78 -139q-23 -23 -43 -23t-43 23 l-64 139q-23 20 -22 43q0 23 22 43l64 168q20 20 43 20t43 -20zM4768 670q283 -12 566.5 -17.5t566 -10.5t565 -11t565.5 -19q-190 -10 -376.5 -16l-373 -12t-373 -12.5t-378.5 -16.5h-1526q-23 -23 -43.5 -39t-42.5 -16q-66 0 -89.5 34.5t-23.5 77.5t23.5 64.5t89.5 21.5 q23 0 43 -3t43 -25h764z" />
<glyph unicode="Y" horiz-adv-x="1527" d="M721 -113l-612 844l686 -786zM1108 184l-999 547l1040 -465zM1399 684l-1290 47l1290 45v-92zM795 1516l-686 -785l612 842zM1149 1194l-1040 -463l999 547z" />
<glyph unicode="Z" horiz-adv-x="1495" d="M713 -55l686 786l-613 -844zM358 266l1041 465l-1000 -547zM109 776l1290 -45l-1290 -47v92zM786 1573l613 -842l-686 785zM399 1278l1000 -547l-1041 463z" />
<glyph unicode="[" horiz-adv-x="3911" d="M2175 180q-37 -16 -73 -24.5t-72 -14.5q-76 -10 -146 -12h-37q-55 0 -110 6q-37 6 -74 15.5t-72 29.5q39 8 74 15.5t72 13.5q37 4 72.5 8t72.5 4h37q55 0 109 -6q37 -4 73.5 -12.5t73.5 -22.5zM2482 457q-72 -23 -145.5 -35t-147.5 -21q-147 -16 -295 -18h-73 q-111 0 -222 6q-74 4 -147.5 12.5t-146.5 24.5q74 14 147.5 22.5t146.5 12.5q74 6 148 9t145 5q31 0 62 1t61 1q43 0 86 -1t86 -3q74 -2 147.5 -5t147.5 -11zM2974 672q-127 -16 -253 -22.5t-253 -10.5l-252 -4l-254 2l-504 10q-127 4 -252 9.5t-254 15.5q127 20 252 31.5 t254 17.5q63 4 126 4t126 2q66 2 128.5 2h125.5l252 -6q63 -4 126.5 -6t127.5 -6q127 -6 252 -15.5t252 -23.5zM3219 979q-170 -16 -337.5 -25.5t-337.5 -17.5l-338 -10l-338 -4q-86 0 -169 1t-169 1q-86 4 -169 6t-169 6t-170 9t-170 13q-88 6 -168 19q-41 6 -83 13t-83 20 q41 -4 83 -5t85 -4h84t84 3l676 8l676 2q86 -2 169 -2t169 -4q170 -4 337.5 -9.5t337.5 -19.5zM3850 1290q-236 -41 -472 -52t-476 -11l-946 8l-713 -4l-235 2q-121 2 -239 6t-239 14q-119 10 -235.5 26.5t-233.5 51.5q117 -23 235 -29t236 -10h86q193 0 388 6l710 23l309 4 q221 0 439.5 -6t439.5 -16q164 -8 325.5 -13.5t325.5 -5.5q148 0 295 6z" />
<glyph unicode="\" horiz-adv-x="1105" d="M305 600h-31.5t-31.5 2q-141 12 -170 66q-8 16 -9 30q0 18 11 37q37 78 125 78q53 0 109.5 -21.5t109.5 -46.5q20 -10 39.5 -18t36.5 -14q-14 37 -23.5 74.5t-9.5 78.5q0 27 5 53.5t19 53.5q16 29 53 62.5t78 33.5q14 0 33 -7t33 -34q18 -35 18 -72q0 -47 -16 -89 t-29 -64q-10 -25 -24 -41q59 29 119.5 49t121.5 25q6 2 21 2q23 0 64.5 -7.5t68.5 -37.5q18 -23 18 -52q0 -4 -1 -8t-1 -8q-6 -31 -26.5 -52.5t-46 -34.5t-54 -19.5t-49.5 -6.5h-30q-51 0 -100.5 6.5t-98.5 16.5l-98 14q-6 0 -9 2l-8 -6q-12 0 -18 -6q-72 -39 -199 -39z M199 764q-55 0 -82 -49q-4 -8 -4 -17q0 -6 2 -8q6 -10 36.5 -22.5t94.5 -16.5q16 -2 30.5 -2h28.5q94 0 154 25q-16 6 -30.5 12t-31.5 14q-49 23 -102 43.5t-96 20.5zM645 682q47 -8 95 -14t96 -6h28q37 2 80 19t49 52q0 4 1 5t1 3q0 10 -8 19q-25 29 -94 28q-12 0 -16 -2 q-70 -4 -141.5 -32.5t-135.5 -63.5zM616 1020q-23 0 -49 -23.5t-37 -46.5q-20 -41 -20 -86q0 -35 9 -67.5t22 -67.5q43 43 71 98q8 16 23.5 52t15.5 75q0 27 -12 50q-11 16 -23 16z" />
<glyph unicode="]" horiz-adv-x="3911" d="M1739 1333q35 16 71.5 24.5t73.5 12.5q35 6 72 9t74 5q35 0 71.5 -1t73.5 -7q37 -4 75 -13t72 -30q-39 -8 -74.5 -15t-70.5 -13q-37 -4 -73 -8.5t-72 -4.5h-37q-55 0 -111 6q-37 4 -73.5 12.5t-71.5 22.5zM1432 1057q72 23 144.5 34t145.5 21q147 14 295 18h74 q111 0 221 -6q74 -4 147.5 -12t147.5 -25q-74 -14 -147.5 -22t-145.5 -14q-147 -10 -295 -13q-31 0 -60.5 -1t-60.5 -1q-43 0 -86 1t-86 3q-74 2 -147 5.5t-147 11.5zM940 842q127 16 252 22t254 10q63 2 125.5 2.5t126.5 0.5h252l252 -5q66 -2 128 -3t126 -5 q127 -4 251.5 -8t251.5 -14q-125 -20 -250.5 -31.5t-252.5 -17.5q-63 -4 -126 -5.5t-128 -3.5h-252l-254 7q-63 4 -126 6t-126 6q-127 6 -252 15.5t-252 23.5zM694 535q170 16 337 25t337 15q86 4 170 6.5t170 6.5l338 4l338 -4q86 -2 169 -4t169 -6t169 -9.5t169 -13.5 q82 -6 170 -18q41 -6 83 -13.5t83 -19.5q-41 4 -84 5t-84 3h-85t-85 -2l-674 -8l-676 -2l-338 4q-170 4 -338 10.5t-338 20.5zM61 223q236 41 473.5 52.5t475.5 11.5l948 -8l711 4l237 -2q121 -4 238.5 -7.5t236.5 -13.5t237 -26.5t232 -51.5q-117 23 -234.5 29t-236.5 10 h-86q-195 0 -387 -6l-473 -14q-59 -4 -118.5 -5t-119.5 -3l-307 -5q-221 0 -439 6.5t-439 16.5q-166 8 -327 13t-325 5q-150 0 -297 -6z" />
<glyph unicode="^" horiz-adv-x="3260" d="M1946 227q-8 0 -9 -2q0 -2 2 -4q0 -2 3 -2q-10 -129 -80 -129q-29 0 -68 21l-72 49q-25 35 -42 73.5t-21 81.5v25q0 72 33.5 127t109.5 72q37 10 76 13t78 3q43 0 86 -2t86 -6q23 -2 49.5 -3t54.5 -1q37 0 74 4t67.5 18.5t50 38t21.5 64.5v14q0 29 -6 55.5t-22 48.5 l-50 70q-16 23 -25 50.5t-9 56.5q0 35 19.5 61.5t64.5 26.5h12q92 -8 178 -30t178 -24h15q82 0 153.5 17.5t124.5 57.5t85 103.5t36 153.5q0 10 -10 10t-13 -8q-16 -80 -52 -134t-86 -86t-111.5 -46t-128.5 -14q-51 0 -103.5 7t-103.5 17q-33 8 -83 19.5t-100 11.5 q-41 0 -76.5 -14.5t-52.5 -49.5q-20 -45 -20 -79q0 -41 22 -74q12 -18 32 -43t39.5 -53.5t33.5 -57t14 -55.5q0 -35 -28 -55q-29 -23 -69 -31t-85 -8q-66 0 -132.5 9t-119.5 9h-10q-55 -2 -108.5 -15.5t-97.5 -37t-77 -58t-47 -77.5q-27 98 -125 143t-223 45h-31 q-29 -2 -85 -8t-115 -6q-35 0 -68 4t-57.5 13t-40 26.5t-15.5 46.5v8q2 41 23.5 77t46.5 70.5t45 68.5t20 71q0 45 -40 92q-20 23 -49 32t-64 9q-61 0 -127 -18.5t-111 -24.5q-78 -12 -151 -12q-68 0 -128.5 13t-109.5 45t-85 85t-52 135q-2 8 -12 8t-11 -8q4 -86 34 -148.5 t80 -103.5t117.5 -61.5t147.5 -20.5h35q45 2 90 11.5t89 18.5t89 16.5t88 7.5q57 0 80 -18.5t23 -49.5q0 -33 -18.5 -74t-41 -82t-41 -77.5t-18.5 -59.5q0 -47 19.5 -75.5t50 -45t69.5 -21.5t80 -5q27 0 51.5 1t47.5 3q45 4 91 7t93 3q37 0 72.5 -4t70.5 -14 q66 -20 106 -67.5t40 -115.5q0 -10 -1 -20t-3 -21q-8 -43 -27 -95t-57 -81q-47 -39 -88 -39q-72 0 -111 119q0 4 -4 4q-10 0 -28.5 -12t-18.5 -25q0 -31 22.5 -64.5t44.5 -43.5q27 -12 60 -12q37 0 71.5 15t64.5 39.5t51.5 55.5t31.5 62q8 25 12 49q14 -43 39 -86 q33 -57 87 -93t120 -36q27 0 51 6q33 6 50.5 29.5t17.5 50.5q0 20 -11 39.5t-34 29.5zM2107 1278q-6 8 -6 25q0 29 31 45q12 4 20 4q16 0 29.5 -9.5t18.5 -25.5v-10q0 -39 -29 -52q-12 -4 -17 -4q-27 0 -47 27zM2019 1040q-6 -4 -16 -4q-16 0 -29.5 11.5t-17.5 33.5 q0 4 -1 6.5t-1 6.5q0 18 14 32q12 12 27 13q6 0 10 -2q10 -2 18.5 -7.5t14.5 -9.5q14 -14 14 -24q0 -16 -6 -29q-6 -6 -11.5 -13.5t-15.5 -13.5zM623 1294q-2 -16 -16.5 -26.5t-31.5 -10.5q-10 0 -16 3q-35 12 -35 45q0 6 4 18q8 16 21.5 24.5t28.5 8.5q8 0 12 -2 q16 -6 24.5 -23t8.5 -37zM1950 842q2 18 14 32l14 17q2 0 3 1t6 1q4 0 16 -4q20 -4 33 -15q16 -6 16 -26q0 -2 -1 -4t-1 -4q-4 -27 -33 -39q-12 -6 -24 -6q-16 0 -31 10q-12 12 -12 37zM1157 1272q-16 -23 -43 -23q-14 0 -20 4q-10 4 -18.5 17.5t-8.5 29.5q0 10 2 15 q8 33 45 33q10 0 23 -7q29 -16 28 -45q0 -16 -8 -24zM2376 1325q4 18 17 29.5t32 11.5h8q20 -4 30.5 -17.5t10.5 -31.5v-8q-4 -18 -17.5 -28.5t-29.5 -10.5h-8q-18 4 -30.5 18t-12.5 37zM1233 1034q-10 4 -15.5 12.5t-9.5 16.5q-6 6 -6 20q2 18 17 29q12 12 32 16 q25 0 37 -12q12 -16 12 -35q0 -4 -1 -5t-1 -5q-6 -27 -26 -39q-12 -4 -17 -4q-14 0 -22 6zM1311 834q0 -18 -13 -29q-14 -10 -34 -10q-10 0 -17 2q-10 4 -15 8t-9 8q-8 8 -13 21q0 4 -1 5t-1 5q0 16 15 26q16 10 29.5 15.5t21.5 5.5q6 0 12 -7t8 -10q4 -6 9.5 -14t7.5 -18 v-8zM2652 1298q-2 4 -2 15q0 35 29 47q12 4 18 4q31 0 45 -31q4 -6 4 -20q0 -31 -30 -43q-12 -4 -21 -4q-16 0 -27.5 8t-15.5 24zM1640 725q-10 -8 -30 -8q-25 0 -33 12q-8 8 -8 25q0 4 -1 7t-1 7t4 20q6 23 28 27q31 0 48 -18q14 -16 14 -35q-1 -27 -21 -37zM301 1417 q-6 12 -6 27q0 29 22 41q12 6 27 6q25 0 41 -23q6 -12 6 -24q0 -27 -22 -43q-12 -6 -27 -6q-29 -1 -41 22zM2902 1417q-6 12 -6 27q0 29 22 41q12 6 27 6q25 0 41 -23q6 -12 6 -24q0 -27 -22 -43q-12 -6 -27 -6q-29 -1 -41 22zM893 1317q0 -41 -41 -45q-12 0 -20.5 2 t-14.5 6q-14 12 -20 33q0 20 8 37q12 14 35 18q23 0 37 -12.5t16 -30.5v-8z" />
<glyph unicode="_" horiz-adv-x="4505" d="M4442 1462q-18 -90 -62 -114.5t-102 -24.5q-10 0 -21 1t-22 1q-20 0 -39.5 1t-42.5 1l-69 -4q-47 0 -92.5 -2t-88.5 -10q-41 -8 -80.5 -22.5t-70.5 -43.5q-33 -27 -55 -65q-6 -10 -11.5 -22.5t-9.5 -24.5q-2 -10 -2 -29q0 -10 1 -19.5t1 -19.5l-31 -2q-2 10 -2 19.5v17.5 q-6 68 -35.5 132t-74.5 117.5t-102.5 91.5t-118.5 50q-31 6 -60 6q-63 0 -114 -31q-31 -23 -46 -53q-23 -37 -37 -79t-24 -87l-12 -73q82 -55 167 -130t153.5 -160t111.5 -178.5t43 -187.5v-19.5t-2 -19.5q-10 -70 -66 -94q-10 -4 -21 -7t-22 -7q-47 -20 -92 -21 q-49 0 -92 19q-49 20 -89 56t-71 77q-59 86 -94 180t-51 195q-4 31 -7 62.5t-3 64.5q0 37 6 77q4 33 10 66t16 65q-158 102 -323 103q-43 0 -84 -6t-82 -23q-31 -16 -59.5 -36.5t-55.5 -43.5q16 -14 30.5 -28.5t27.5 -30.5q45 -51 75 -111q16 -29 28.5 -61.5t23.5 -65.5 q27 -92 26 -194q0 -18 -1 -37t-3 -37q-10 -135 -56 -258t-120 -233l-37 -52l35 -49q20 -27 39 -43q39 -43 94 -63q16 -6 33.5 -11.5t36.5 -9.5h8q57 0 105 18.5t83 57.5q51 59 51 147q0 72 -36 146l28 12q41 -82 41 -160q0 -96 -61 -163q-76 -88 -207 -89q-59 0 -131 23 l-19 8q-33 12 -67 33l-53 43l-33 35q-18 -16 -35 -35l-53 -43q-16 -10 -32.5 -18.5t-35.5 -14.5l-18 -8q-72 -23 -131 -23q-131 0 -207 89q-59 70 -60 163q0 39 9.5 79t31.5 81l27 -12q-37 -74 -37 -146q0 -88 51 -147q35 -39 83 -57.5t106 -18.5h8q18 4 35.5 9.5t34.5 11.5 q59 23 96 63q18 18 37 43q10 12 18 23.5t17 25.5l-37 52q-74 111 -120 233.5t-56 257.5q-2 18 -3.5 36.5t-1.5 37.5q0 102 27 194q10 33 22.5 66t28.5 61q31 59 76 111q14 16 27.5 30.5t29.5 28.5q-27 23 -54.5 43.5t-59.5 36.5q-41 16 -82 22.5t-84 6.5q-166 0 -324 -103 q10 -33 16.5 -65.5t10.5 -65.5q6 -43 6 -84q0 -31 -3 -61.5t-7 -58.5q-16 -100 -50 -194.5t-96 -180.5q-31 -41 -70.5 -77t-88.5 -56q-43 -18 -91 -19q-47 0 -94 21q-10 4 -21.5 7t-21.5 7q-57 25 -63 94q-2 10 -2 19.5v19.5q0 92 42 185.5t109.5 178.5t150.5 158.5 t165 128.5l6 5q-4 37 -12 73q-10 45 -23.5 87t-36.5 79q-10 16 -21.5 28.5t-25.5 24.5q-49 31 -113 31q-31 0 -61 -6q-61 -12 -118.5 -50t-102.5 -91.5t-74 -118t-35 -131.5q0 -8 -1 -17.5t-1 -19.5l-31 2v19.5t2 19.5q0 8 -1 14t-3 15l-8 24t-10 23q-27 39 -55 65 q-33 29 -72 43.5t-82 22.5t-87 10t-91 2l-70 4q-23 0 -43 -1t-39 -1q-10 0 -21 -1t-22 -1q-59 0 -103 24.5t-63 116.5q0 47 4.5 110.5t28.5 111.5l27 -13q-23 -45 -26 -104.5t-3 -100.5q14 -74 46 -94t85 -20q10 0 21.5 1t23.5 1h25.5t28.5 2l98 14q49 6 98 6q51 0 92 -8 q47 -8 94.5 -29.5t81.5 -62.5l13 -14q2 -4 4 -5.5t4 -3.5q14 -14 23.5 -31.5t17.5 -35.5q18 59 51 114.5t78 99.5t98 75.5t111 44.5q33 6 63 6q49 0 90 -15l31 -6q25 -8 47.5 -22.5t42.5 -32.5q37 -39 62.5 -84t44.5 -92q8 -18 10 -33q162 102 330 103q27 6 57 6 q47 0 98.5 -11.5t96.5 -31.5q25 -10 48 -23.5t46 -30.5q43 31 94 54q47 20 97 31.5t102 11.5q14 0 27.5 -1t27.5 -3q72 -4 160 -28t166 -77l10 33q18 47 43.5 92t62.5 84q20 18 43 32.5t49 22.5l29 6q41 14 90 15q29 0 64 -6q57 -12 111.5 -44t98.5 -76t77.5 -99.5 t52.5 -114.5q12 39 41 67l18 23q35 41 82 62.5t94 29.5q41 8 92 8t101 -6l96 -14q14 -2 27.5 -2h25.5t24.5 -1t22.5 -1q53 0 84 19.5t47 90.5q0 45 -4 104.5t-26 104.5l28 13q20 -39 25.5 -87.5t5.5 -93.5v-43zM1044 483q2 -49 48 -71q27 -12 63 -13q33 0 64.5 8.5 t54.5 22.5q20 14 39.5 30.5t36.5 37.5q20 29 34 55q41 78 66 165t39 175q4 33 7 64.5t3 62.5v24.5t-2 24.5l-6 70q-80 -53 -160 -124t-144.5 -152t-104.5 -168t-40 -173v-19.5t2 -19.5zM2259 201q57 106 93 220t46 230q2 16 2 33.5v34.5q0 41 -3 81t-13 81q-12 51 -35 108 q-12 27 -25.5 52.5t-29.5 48.5q-16 27 -41 55q-25 -25 -43 -55q-16 -23 -29.5 -48.5t-26.5 -52.5q-23 -57 -34 -108q-16 -78 -17 -152q0 -20 1 -38.5t3 -39.5q10 -117 46 -230.5t92 -219.5q2 -10 8 -15zM3461 483q2 10 2 18.5v18.5q0 88 -40 175t-103.5 168t-144 151.5 t-160.5 124.5q-4 -16 -5 -35t-4 -35q-2 -10 -2 -22.5v-22.5q0 -63 13 -131q12 -88 36.5 -175t65.5 -165q8 -16 16.5 -29.5t18.5 -25.5q39 -43 78 -68q23 -14 54.5 -22.5t61.5 -8.5q35 0 64 13q43 22 49 71z" />
<glyph unicode="`" horiz-adv-x="4198" d="M141 807q0 -16 -12 -28.5t-29 -12.5q-16 0 -27.5 12.5t-11.5 28.5t11.5 27.5t27.5 11.5t28.5 -11.5t12.5 -27.5zM362 807q0 -16 -11 -28.5t-27 -12.5t-28.5 12.5t-12.5 28.5t12 27.5t29 11.5q16 0 27 -11.5t11 -27.5zM584 807q0 -16 -11.5 -28.5t-27.5 -12.5t-27.5 12.5 t-11.5 28.5t11 27.5t28 11.5q16 0 27.5 -11.5t11.5 -27.5zM807 807q0 -16 -11.5 -28.5t-27.5 -12.5t-28.5 12.5t-12.5 28.5t12.5 27.5t28.5 11.5t27.5 -11.5t11.5 -27.5zM1028 807q0 -16 -11 -28.5t-28 -12.5q-16 0 -27.5 12.5t-11.5 28.5t11.5 27.5t27.5 11.5t27.5 -11.5 t11.5 -27.5zM1251 807q0 -16 -12 -28.5t-29 -12.5q-16 0 -27.5 12.5t-11.5 28.5t11.5 27.5t27.5 11.5t28.5 -11.5t12.5 -27.5zM1473 807q0 -16 -11.5 -28.5t-27.5 -12.5t-27.5 12.5t-11.5 28.5t11 27.5t28 11.5q16 0 27.5 -11.5t11.5 -27.5zM1696 807q0 -16 -12.5 -28.5 t-28.5 -12.5t-27.5 12.5t-11.5 28.5t11 27.5t28 11.5q16 0 28.5 -11.5t12.5 -27.5zM1917 807q0 -16 -11.5 -28.5t-27.5 -12.5t-28.5 12.5t-12.5 28.5t12.5 27.5t28.5 11.5t27.5 -11.5t11.5 -27.5zM2138 807q0 -16 -11 -28.5t-28 -12.5q-16 0 -27.5 12.5t-11.5 28.5 t11.5 27.5t27.5 11.5t27.5 -11.5t11.5 -27.5zM2361 807q0 -16 -11 -28.5t-28 -12.5q-16 0 -28.5 12.5t-12.5 28.5t12.5 27.5t28.5 11.5t27.5 -11.5t11.5 -27.5zM2583 807q0 -16 -11.5 -28.5t-27.5 -12.5t-27.5 12.5t-11.5 28.5t11 27.5t28 11.5q16 0 27.5 -11.5t11.5 -27.5z M2806 807q0 -16 -12.5 -28.5t-28.5 -12.5t-27.5 12.5t-11.5 28.5t11 27.5t28 11.5q16 0 28.5 -11.5t12.5 -27.5zM3027 807q0 -16 -11.5 -28.5t-27.5 -12.5t-27.5 12.5t-11.5 28.5t11.5 27.5t27.5 11.5t27.5 -11.5t11.5 -27.5zM3250 807q0 -16 -12 -28.5t-29 -12.5 q-16 0 -27.5 12.5t-11.5 28.5t11.5 27.5t27.5 11.5t28.5 -11.5t12.5 -27.5zM3471 807q0 -16 -11 -28.5t-28 -12.5q-16 0 -28.5 12.5t-12.5 28.5t12.5 27.5t28.5 11.5t27.5 -11.5t11.5 -27.5zM3693 807q0 -16 -11.5 -28.5t-27.5 -12.5t-27.5 12.5t-11.5 28.5t11 27.5t28 11.5 q16 0 27.5 -11.5t11.5 -27.5zM3916 807q0 -16 -12.5 -28.5t-28.5 -12.5t-27.5 12.5t-11.5 28.5t11 27.5t28 11.5q16 0 28.5 -11.5t12.5 -27.5zM4137 807q0 -16 -11.5 -28.5t-27.5 -12.5t-27.5 12.5t-11.5 28.5t11.5 27.5t27.5 11.5t27.5 -11.5t11.5 -27.5z" />
<glyph unicode="a" horiz-adv-x="2273" d="M2204 848l-176 -39l-138 -55l-14 8l37 61h-737v-737l61 37l8 -14l-55 -138l-39 -176l-39 176l-55 138l8 14l61 -37v737h-737l37 -61l-14 -8l-138 55l-176 39l176 39l140 55l12 -10l-37 -60h737v738l-61 -37l-8 14l55 137l39 177l39 -179l55 -137l-8 -12l-61 37v-738h737 l-37 60l14 10l138 -55z" />
<glyph unicode="b" horiz-adv-x="6350" d="M5632 770q10 -39 50 -84t85 -84q53 -45 115 -90q0 6 -12 6q-25 0 -97.5 -13t-207 -29.5t-337 -30t-487.5 -13.5q-301 0 -701.5 21.5t-914.5 76.5q-240 25 -450.5 36.5t-399.5 11.5q-240 0 -440.5 -15.5t-367.5 -40t-302 -56.5t-241 -65q-135 -45 -227.5 -87t-151 -74.5 t-85 -52t-32.5 -19.5q-2 0 10.5 22.5t31.5 58.5t43 80t44.5 88t35.5 84t17 66q-86 12 -167 17.5t-164 5.5q-47 0 -92.5 -1t-92.5 -3q8 -2 61.5 33.5t149.5 91t237.5 121t325.5 122.5q256 86 593 137.5t757 51.5q193 0 400.5 -12.5t433.5 -38.5q487 -59 887.5 -84t723.5 -25 q211 0 388.5 9t322.5 26q168 18 295 42.5t216 47t141 38t69 15.5q8 0 8 -4q-119 -104 -235.5 -203.5t-235.5 -183.5z" />
<glyph unicode="c" horiz-adv-x="5711" d="M4977 715q6 -47 36.5 -109.5t65.5 -122.5q39 -68 90 -139q-156 70 -446 123q-123 23 -289 45.5t-380 39.5t-478 28.5t-584 11.5q-53 0 -108.5 -1t-112.5 -1q-375 -12 -677 -28.5t-539.5 -36t-417 -40t-310.5 -41.5q-307 -47 -446 -100q49 72 88 139q35 59 65.5 122 t36.5 110l-432 235q287 72 672 127q330 47 805 88t1091 41h39q68 2 132.5 2h130.5q317 0 588.5 -11t499.5 -29.5t414.5 -41t332.5 -47.5q342 -57 567 -129z" />
<glyph unicode="d" horiz-adv-x="4128" d="M70 227q0 8 20.5 15.5t54 14.5t75.5 12t85 10q-23 47 -37 118.5t-14 188.5q0 57 50 134t154.5 147.5t267.5 119.5t388 49h31q201 0 402.5 2t404.5 2h201.5t199.5 -4q229 0 454.5 6.5t454.5 6.5h113.5t114.5 -2q35 0 83 -1.5t97 -7.5t92 -18t66 -35q59 -68 87.5 -161 t28.5 -191q0 -80 -18 -153.5t-57 -129.5q-25 -37 -120 -63.5t-242.5 -46t-337 -32.5t-403.5 -21.5t-441.5 -11.5t-452.5 -3q-287 0 -547 4t-461 8q-233 6 -436 13h-20q-49 0 -108.5 2t-111 6t-85 9t-33.5 13z" />
<glyph unicode="e" horiz-adv-x="3000" d="M217 870q39 33 91 54.5t111.5 34t125 16.5t133.5 4q100 0 196.5 -6t172.5 -10q117 -4 233.5 -8.5t232.5 -4.5q172 0 342 13q29 2 60 2h65q74 0 157 -5.5t163 -17.5t152.5 -34.5t130.5 -57.5q72 -47 99.5 -81t27.5 -83q0 -41 -14.5 -97.5t-31.5 -148.5q-8 -23 -23 -39 t-38 -32q23 -4 63.5 -8.5t82.5 -11.5t78 -17t52 -25q0 -8 -18 -12t-40.5 -6t-44 -2h-30.5q-39 -8 -76.5 -9.5t-76.5 -1.5q-90 -4 -179.5 -6t-181.5 -2t-183 2t-183 6q-645 0 -1291 -30q-37 0 -75.5 -1t-75.5 -1q-47 0 -91 4t-83 17.5t-71 38t-54 65.5q-4 8 -7 29.5t-6 48 t-5.5 50t-2.5 35.5q-16 72 -16 119q0 70 30.5 119t98.5 100z" />
<glyph unicode="f" horiz-adv-x="4356" d="M326 528q-31 23 -42.5 42.5t-19.5 50.5q-4 4 -6 33.5t-3 63.5t-1 63.5v33.5q-4 23 -6 44.5t-2 39.5q0 49 15 84t53 61.5t100.5 48t156.5 40.5q150 31 302.5 41t306.5 10q205 0 407.5 -10.5t401.5 -10.5q72 0 142.5 3t139.5 8q57 4 112.5 6t110.5 2q127 0 250 -5.5 t250 -5.5h62.5t64.5 3q70 0 144.5 5t152.5 5h246q100 0 199.5 -4t178.5 -31t128 -84t49 -162q0 -80 -33 -190q-16 -61 -24.5 -98t-24.5 -58.5t-47 -31t-88 -17.5q-70 -8 -163 -15.5t-190.5 -13.5t-190.5 -9t-163 -3h-1812q-193 0 -384.5 -6t-383.5 -15q-23 0 -46.5 -5 t-45.5 -5q-156 0 -277 4q-53 2 -102 4t-88 5.5t-62.5 7.5t-23.5 10q0 8 29.5 15t71.5 15.5t85 15.5t70 15z" />
<glyph unicode="g" horiz-adv-x="2170" d="M147 758q88 70 195 92t221 22q117 0 230.5 -11t220.5 -11h45q33 0 68.5 1t74.5 1q61 0 127 -3t127.5 -15.5t117.5 -35t99 -61.5q45 -31 62.5 -68.5t17.5 -80.5q0 -63 -29 -137q-4 0 -8 -8.5t-7 -17.5t-7 -17.5t-8 -8.5q43 -12 92 -16t99 -9t96.5 -17.5t80.5 -39.5 q-70 -23 -149.5 -22.5t-157.5 -7.5q-160 0 -318.5 1t-318.5 1t-320.5 -2t-322.5 -11q-23 -2 -47.5 -2h-48.5q-57 0 -110.5 8.5t-94.5 32t-65.5 66.5t-24.5 113v23t2 26q8 39 10 69.5t5 57t13 48.5t33 40z" />
<glyph unicode="h" horiz-adv-x="1265" d="M971 1032q0 18 13 38t34.5 35t48.5 25.5t55 10.5q27 0 52.5 -11.5t46 -38t33 -68.5t12.5 -105v-918h-934q-63 0 -105.5 12.5t-68 33t-35.5 46t-10 51.5q0 51 28.5 93.5t59.5 42.5q37 0 63.5 -12.5t50.5 -37.5q-25 25 -37 51.5t-12 63.5q0 31 14.5 60.5t37 52t52 37 t60.5 14.5q37 0 63.5 -12.5t51.5 -36.5q-12 25 -22.5 51.5t-10.5 62.5q0 61 45 112.5t119 51.5q25 0 55.5 -12t42.5 -37q-12 25 -22.5 51.5t-10.5 63.5q0 61 45 112.5t119 51.5q37 0 63.5 -12.5t51.5 -36.5q-12 25 -30.5 57t-18.5 57z" />
<glyph unicode="i" horiz-adv-x="1265" d="M233 967q-18 0 -37.5 13t-35 34.5t-25.5 48.5t-10 55q0 27 11 52.5t37 46t69 33t106 12.5h918v-934q0 -63 -12.5 -105.5t-33 -68t-46 -35.5t-52.5 -10q-51 0 -93 28.5t-42 59.5q0 37 12.5 63.5t36.5 50.5q-25 -25 -51.5 -37t-62.5 -12q-31 0 -61 14.5t-52.5 37t-36.5 52 t-14 60.5q0 37 12 63.5t37 51.5q-25 -12 -51.5 -22.5t-63.5 -10.5q-61 0 -112.5 45t-51.5 119q0 25 12.5 55.5t37.5 42.5q-25 -12 -51.5 -22.5t-63.5 -10.5q-61 0 -112.5 45t-51.5 119q0 37 12.5 63.5t36.5 51.5q-25 -12 -57.5 -30.5t-57.5 -18.5z" />
<glyph unicode="j" horiz-adv-x="1265" d="M295 229q0 -18 -13.5 -37.5t-35 -35t-48 -25.5t-55.5 -10q-27 0 -52 11t-45.5 37t-33 69t-12.5 106v918h934q63 0 105 -12.5t68 -33t36 -46t10 -52.5q0 -51 -28.5 -93t-59.5 -42q-37 0 -63.5 12.5t-51.5 36.5q25 -25 37 -51.5t12 -62.5q0 -31 -14 -61t-36.5 -52.5 t-52.5 -36.5t-60 -14q-37 0 -64 12t-51 37q12 -25 22.5 -51.5t10.5 -63.5q0 -61 -45 -112.5t-119 -51.5q-25 0 -55.5 12.5t-42.5 36.5q12 -25 22 -51t10 -63q0 -61 -45 -112.5t-119 -51.5q-37 0 -63.5 12t-50.5 37q12 -25 30.5 -57.5t18.5 -57.5z" />
<glyph unicode="k" horiz-adv-x="1265" d="M1032 295q18 0 38 -13.5t35 -35t25.5 -48t10.5 -55.5q0 -27 -11.5 -52t-38 -45.5t-68.5 -33t-105 -12.5h-918v934q0 63 12.5 105t33 68t46 36t51.5 10q51 0 93.5 -28.5t42.5 -59.5q0 -37 -12.5 -63.5t-37.5 -51.5q25 25 51.5 37t63.5 12q31 0 60.5 -14t52 -36.5t37 -52.5 t14.5 -60q0 -37 -12.5 -64t-36.5 -51q25 12 51.5 22.5t62.5 10.5q61 0 112.5 -45t51.5 -119q0 -25 -12 -55.5t-37 -42.5q25 12 51.5 22t63.5 10q61 0 112.5 -45t51.5 -119q0 -37 -12.5 -63.5t-36.5 -50.5q25 12 57 30.5t57 18.5z" />
<glyph unicode="l" horiz-adv-x="5296" d="M2703 1434q-14 18 -14 30t14 27l62 121q0 6 6 10t12 4q18 0 19 -14l61 -121q14 -12 14 -27q0 -16 -14 -30l-61 -99q0 -14 -19 -14q-6 0 -12 3t-6 11zM3785 1434q61 -29 117.5 -73t100.5 -100.5t74.5 -122t43.5 -139.5q41 -35 98 -52t117 -17q61 0 117.5 20.5t100.5 58.5 t70.5 91t26.5 119q0 43 -14.5 85t-42.5 70q-55 43 -129 43q-39 0 -77 -14t-71 -47q-59 -57 -59 -119q0 -47 41 -77t86 -30q43 0 88 29l41 -39q-33 -23 -68 -38t-69 -15q-33 0 -65 13.5t-56.5 37t-40 54t-15.5 65.5q0 43 24 85t52 71q16 16 30.5 28.5t31.5 12.5h-553z M3551 1061q-23 0 -56.5 -16.5t-67 -42t-60.5 -57.5t-33 -62q25 -8 62 -9q39 0 78.5 12.5t72.5 37t55.5 59.5t26.5 78h-78zM3279 911q12 47 62 103.5t130 83.5q0 78 -29.5 118.5t-76.5 40.5q-35 0 -66.5 -15t-54 -40.5t-36 -58.5t-13.5 -68q0 -47 24.5 -92t59.5 -72z M3686 1040q-4 -41 -32.5 -81.5t-70.5 -72.5t-92 -51.5t-95 -19.5q-39 0 -62 10v-59q16 -74 48 -128t89 -89q100 -59 197 -60q78 0 150.5 34t129 90.5t90 130t33.5 151.5q0 23 -1 43t-5 43q-10 72 -47 146.5t-93 137t-128 103.5t-147 47q35 -45 50 -104.5t15 -124.5 q0 -43 -6 -88q70 -23 103.5 -84.5t33.5 -130.5q0 -39 -11 -77t-33.5 -69.5t-55.5 -55.5t-78 -34l-18 58q66 10 99.5 62t33.5 114q0 49 -24 92.5t-73 66.5zM3275 668q-29 -47 -71 -75t-85 -44q51 -12 92 -55t41 -109q0 -63 -35 -111l-41 37q23 23 23 60q0 119 -139 118 q-35 0 -60.5 -16t-43 -43t-28 -57.5t-10.5 -61.5q0 -106 50.5 -153t121.5 -47q49 0 101.5 21.5t94.5 61t68.5 96t26.5 124.5q0 76 -26.5 143.5t-79.5 110.5zM2486 1335q0 -8 -6 -11t-12 -3q-18 0 -19 14l-61 99q-14 14 -14 30q0 14 14 27l61 121q0 14 19 14q6 0 12 -4t6 -10 l62 -121q12 -12 12 -27q0 -16 -12 -30zM2623 901q27 66 89.5 116t160.5 50q43 0 85 -14.5t76 -41t54.5 -65.5t20.5 -88q0 -35 -17.5 -66.5t-45 -55t-63.5 -38t-71 -14.5q-20 0 -30 2v59q10 -4 19 -4h19q47 0 86 34t39 87q0 31 -15 57.5t-39.5 45t-55.5 30t-62 11.5 q-59 0 -115.5 -38t-72.5 -104q-12 -37 -12 -73q0 -57 28.5 -99.5t71.5 -69t95 -39t100 -12.5q104 0 188 59.5t119 153.5v60q-66 29 -104 94.5t-38 138.5q0 43 16.5 86t45.5 77t68.5 55.5t89.5 21.5q68 0 121 -49t57 -148h20h99q4 14 4 28.5v29.5q0 74 -27 140t-76 116h-432 q-16 -14 -33.5 -27.5t-46.5 -13.5q-31 0 -54.5 25.5t-23.5 54.5q0 31 24 45t54 14q29 0 46.5 -2t33.5 -17h469q401 0 796.5 -18t798.5 -22q-147 -14 -305.5 -16.5t-306.5 -2.5q16 -16 30.5 -20t31.5 -19q45 -45 61 -92t16 -104q0 -78 -29.5 -141.5t-81.5 -108.5t-121 -68.5 t-149 -23.5q-51 0 -99 11t-89 36q-2 -100 -42 -191.5t-105.5 -160t-152.5 -109.5t-181 -41q-117 0 -228 67q4 -18 5.5 -36.5t1.5 -36.5q0 -80 -33 -145.5t-84 -112.5t-114.5 -73t-125.5 -26q-45 0 -85 16.5t-70.5 49.5t-48 80t-17.5 108q0 18 3 43t13.5 51.5t30 53 t53.5 47.5q-102 4 -194 53t-139 144q-25 -47 -62 -83t-81 -60.5t-94 -38t-101 -15.5q33 -20 53 -47t30.5 -53.5t13.5 -51t3 -43.5q0 -61 -17.5 -108t-48 -80t-70.5 -49.5t-85 -16.5q-61 0 -125 26t-116 73t-85 112.5t-33 145.5q0 41 9 73q-111 -68 -228 -67q-94 0 -181 41 t-152.5 109.5t-105.5 159.5t-42 192q-41 -25 -89 -36t-101 -11q-78 0 -148 23.5t-121 68.5t-80.5 108.5t-29.5 141.5q0 57 16 104t61 92q16 14 31 18.5t31 20.5q-147 0 -306 2t-306 17q401 4 797.5 22t797.5 18h469q16 14 33.5 16.5t46.5 2.5q31 0 54.5 -14.5t23.5 -44.5 q0 -29 -23.5 -54.5t-54.5 -25.5q-29 0 -46.5 13t-33.5 28h-432q-49 -49 -77 -116t-28 -140q0 -31 7 -58h98h20q4 98 57.5 147.5t120.5 49.5q49 0 89.5 -21.5t69 -55.5t45 -77t16.5 -86q0 -74 -38 -139.5t-104 -93.5v-60q35 -94 119 -153.5t189 -59.5q47 0 99 12.5t95 39 t71.5 68.5t28.5 100q0 18 -4 36.5t-8 36.5q-18 66 -73.5 104t-116.5 38q-31 0 -61.5 -11.5t-55.5 -30t-40 -45t-15 -57.5q0 -53 40 -87t87 -34h19t20 4v-59q-10 -2 -16.5 -2h-14.5q-35 0 -71 14.5t-63.5 38t-45 55t-17.5 66.5q0 49 20.5 88t54.5 65.5t76 41t83 14.5 q100 0 161 -50t86 -116zM913 1434q16 0 30.5 -12.5t31.5 -28.5q29 -29 52.5 -71t23.5 -85q0 -35 -15.5 -65.5t-40 -54t-56.5 -37t-65 -13.5q-35 0 -70.5 15.5t-66.5 37.5l41 39q45 -29 86 -29q47 0 88 30t41 77q0 61 -59 119q-33 33 -71 47t-79 14q-72 0 -127 -43 q-29 -29 -43 -70.5t-14 -84.5q0 -66 26.5 -119t70.5 -91t100.5 -58.5t117.5 -20.5q59 0 115.5 17.5t99.5 51.5q23 147 117 261t219 174h-553zM1622 1061q4 -43 25.5 -78t54.5 -59.5t73 -37t80 -12.5q37 0 62 9q-6 31 -32.5 62.5t-60.5 57t-69 42t-55 16.5h-78zM1970 911 q37 27 61.5 72t24.5 92q0 35 -13 68t-37 58.5t-54.5 40.5t-65.5 15q-47 0 -76.5 -40.5t-29.5 -118.5q78 -27 129 -83.5t61 -103.5zM1565 1040q-51 -23 -75 -66.5t-24 -92.5q0 -61 35 -113.5t101 -62.5l-19 -58q-45 10 -77.5 34t-55.5 55.5t-34 69.5t-11 77q0 70 34 131 t103 84q-6 45 -6 88q0 66 15.5 125t50.5 104q-78 -6 -149 -47t-128 -103.5t-95 -137t-46 -146.5q-6 -43 -6 -86q0 -78 33.5 -151.5t91 -130t130 -90.5t150.5 -34q94 0 197 60q57 35 89 89t48 128v59q-23 -10 -62 -10q-47 0 -97 19.5t-91 51.5t-69.5 72.5t-32.5 81.5z M1976 668q-53 -43 -79.5 -111t-26.5 -143q0 -68 26.5 -124.5t68.5 -96t94 -61t102 -21.5q70 0 121 47t51 153q0 31 -10.5 61.5t-28 57.5t-44 43t-59.5 16q-139 0 -139 -118q0 -37 23 -60l-41 -37q-35 47 -35 111q0 66 40 109t93 55q-43 16 -85 44t-71 75z" />
<glyph unicode="m" horiz-adv-x="6897" d="M3361 -66q18 -23 18 -40q0 -18 -18 -37l-82 -160q0 -10 -7 -14.5t-18 -4.5q-10 0 -17 4.5t-7 14.5l-82 160q-18 18 -19 37q0 18 19 40l82 132q0 10 7 14t17 4t17.5 -4t7.5 -14zM1919 -66q-82 39 -156.5 97.5t-134 133.5t-100.5 163t-55 184q-57 47 -132 70.5t-155 23.5 q-82 0 -158 -26.5t-134 -76.5t-94 -122t-36 -160q0 -59 18.5 -113.5t59.5 -95.5q74 -55 170 -55q53 0 104 19.5t94 60.5q78 78 78 160q0 31 -15.5 56.5t-40 44.5t-54 29.5t-60.5 10.5q-59 0 -117 -39l-53 53q41 31 88 50.5t94 19.5q43 0 85 -18.5t76 -49t54.5 -71.5 t20.5 -86q0 -59 -33 -115.5t-69 -93.5q-23 -23 -41.5 -38.5t-40.5 -15.5h737zM2230 430q29 0 75 21.5t91 56.5t80 77t45 83q-37 12 -82 12q-53 0 -106.5 -17.5t-97.5 -49t-73.5 -79t-33.5 -104.5h102zM2593 631q-8 -31 -28.5 -67t-53.5 -70.5t-77 -64.5t-97 -48 q0 -104 39 -158.5t104 -54.5q47 0 88 20.5t72 54t48 78t17 91.5q0 61 -32.5 122.5t-79.5 96.5zM2050 459q6 55 44 109.5t94.5 96.5t123 68.5t127.5 26.5q47 0 82 -15v78q-23 98 -64.5 172t-119.5 119q-66 39 -131.5 59.5t-130.5 20.5q-102 0 -199.5 -45t-173.5 -121 t-121 -174t-45 -203q0 -29 2 -57.5t6 -56.5q12 -94 62.5 -193.5t125 -182.5t170 -139.5t197.5 -62.5q-45 59 -65.5 138t-20.5 167q0 29 2 58.5t6 58.5q-92 33 -138 113.5t-46 173.5q0 51 15.5 102t45 94t73.5 75t104 44l24 -78q-43 -6 -75.5 -27.5t-56 -54t-35 -71.5 t-11.5 -80q0 -66 31.5 -125t97.5 -88zM2599 954q41 61 95 99.5t114 60.5q-70 16 -124 73.5t-54 145.5q0 39 11 76t36 70l53 -49q-16 -16 -22.5 -36t-6.5 -42q0 -160 185 -160q45 0 79.5 22.5t58 57.5t37 77t13.5 83q0 139 -67.5 202.5t-161.5 63.5q-66 0 -134.5 -29 t-125 -82t-92 -127t-35.5 -166q0 -102 34.5 -191.5t106.5 -148.5zM3652 66q0 10 7 14t17 4t17.5 -4t7.5 -14l82 -132q18 -23 18 -40q0 -18 -18 -37l-82 -160q0 -10 -7.5 -14.5t-17.5 -4.5t-17 4.5t-7 14.5l-82 160q-18 18 -19 37q0 18 19 40zM3467 643q-16 -43 -46 -83 t-71.5 -70.5t-96 -49t-120.5 -18.5q-55 0 -111 18.5t-101.5 54t-73 88t-27.5 117.5q0 47 23.5 89t60.5 75t84 51.5t94 18.5h20.5t20.5 -4v-78q-29 6 -51 6q-31 0 -60.5 -12t-54 -33.5t-39 -51.5t-14.5 -65q0 -41 20.5 -76.5t53.5 -61.5t73.5 -40t81.5 -14t81 13t74 38 t59.5 59.5t37.5 77.5q16 55 17 99q0 76 -38 132t-96.5 91t-127 52t-131.5 17q-68 0 -132.5 -20.5t-118 -58t-95.5 -90t-64 -115.5v-78q86 -37 137 -125t51 -186q0 -57 -21.5 -114.5t-59 -103t-92 -74t-117.5 -28.5q-45 0 -87.5 16.5t-75 49t-53 82t-22.5 114.5h-29h-131 q-6 -37 -6 -76q0 -98 36 -187t101 -155h578q23 18 44 36t62 18t72 -33t31 -74t-31 -59.5t-72 -18.5t-62.5 3.5t-43.5 21.5h-627q-266 0 -531.5 8t-530.5 17.5t-531 17.5t-533 10q199 18 408 21.5t407 3.5q-23 23 -41 29t-41 24q-59 59 -80.5 121.5t-21.5 140.5 q0 104 40 188.5t108.5 144.5t160.5 92t197 32q70 0 134.5 -15.5t117.5 -48.5q2 135 55 256t142.5 212.5t204 145.5t241.5 54q76 0 152.5 -21.5t150.5 -68.5q-6 25 -8 50.5t-2 49.5q0 106 44 193.5t112.5 150t153.5 96t167 33.5q59 0 112.5 -21.5t94.5 -64.5t64.5 -106.5 t23.5 -145.5q0 -25 -4 -57.5t-18.5 -68t-41 -70.5t-71.5 -64q68 -2 134 -19.5t124.5 -50t107.5 -80.5t80 -112q31 63 80 111.5t109.5 81t127 50t134.5 19.5q-45 29 -72 64t-41 70.5t-18 68.5t-4 57q0 82 23.5 145.5t64.5 106.5t94 64.5t112 21.5q82 0 167 -33.5t154 -96 t113 -149.5t44 -194q0 -25 -2 -50t-9 -50q74 47 151 68.5t153 21.5q125 0 240.5 -54t204.5 -145.5t142.5 -212t55.5 -256.5q53 33 117.5 48.5t133.5 15.5q104 0 196.5 -32t161 -92t108.5 -144t40 -189q0 -78 -21.5 -140.5t-80.5 -121.5q-23 -18 -41 -24.5t-41 -28.5 q199 0 407.5 -3t407.5 -22q-266 -2 -532.5 -10t-531.5 -17.5t-530 -17.5t-532 -8h-626q-23 -18 -44.5 -21.5t-62.5 -3.5t-71.5 18.5t-30.5 59.5t30.5 74t71.5 33t62.5 -17.5t44.5 -36.5h577q66 66 101.5 155t35.5 187q0 39 -6 76h-131h-29q-2 -66 -22.5 -115t-53 -81.5 t-74.5 -49t-87 -16.5q-66 0 -119 28.5t-91 74t-59.5 102.5t-21.5 115q0 98 51.5 186t137.5 125v78q-23 63 -65 115.5t-95 90t-117.5 58t-132.5 20.5q-63 0 -132 -17t-127.5 -52t-96 -91.5t-37.5 -131.5q0 -43 16 -99q12 -43 38 -77.5t59.5 -59.5t73.5 -38t81 -13t82 14 t73.5 40t53 61.5t20.5 76.5q0 35 -14 65t-38.5 51.5t-54.5 33.5t-61 12q-25 0 -51 -6v78q10 4 20.5 4h20.5q47 0 94.5 -18.5t84 -51.5t60 -74.5t23.5 -89.5q0 -66 -27.5 -118t-72.5 -87.5t-101.5 -54t-111.5 -18.5q-66 0 -119 18.5t-95 49t-71 70.5t-45 83zM5749 -66 q-23 0 -41.5 15.5t-40.5 38.5q-37 37 -70 93t-33 116q0 45 20.5 86t54.5 71.5t76 49t85 18.5q47 0 94 -19.5t88 -50.5l-53 -53q-57 39 -117 39q-31 0 -60.5 -10.5t-54 -29.5t-40 -45t-15.5 -56q0 -82 78 -160q43 -41 94 -60.5t105 -19.5q96 0 170 55q41 41 59.5 95.5 t18.5 113.5q0 88 -36 160t-94.5 122t-134 76.5t-157.5 26.5q-80 0 -155 -23.5t-132 -70.5q-14 -96 -55 -184t-100.5 -163t-134.5 -133.5t-157 -97.5h738zM4803 430q-4 57 -34 104.5t-74 79t-97 49t-107 17.5q-45 0 -82 -12q8 -41 44 -83t81 -77t91 -56.5t75 -21.5h103z M4338 631q-47 -35 -80 -96.5t-33 -122.5q0 -47 17.5 -91.5t48 -78t71.5 -54t88 -20.5q66 0 105 54t39 159q-53 18 -97.5 48t-77 64.5t-53 70.5t-28.5 67zM4880 459q66 29 97.5 88t31.5 125q0 41 -11 80t-34.5 71.5t-56.5 54t-76 27.5l25 78q59 -12 103 -44t74 -75t45 -94 t15 -102q0 -92 -46 -173t-138 -114q4 -29 6 -58.5t2 -58.5q0 -88 -20.5 -167t-65.5 -138q102 6 197.5 62.5t170.5 139.5t125 182t62 194q4 29 6 57.5t2 56.5q0 104 -46 202.5t-120.5 174.5t-172 121t-199.5 45q-66 0 -131.5 -20.5t-130.5 -59.5q-78 -45 -120 -118.5 t-65 -172.5v-78q35 14 82 15q61 0 128 -26.5t123 -68.5t94 -96.5t44 -109.5zM4332 954q72 59 106.5 148.5t34.5 191.5q0 92 -36 166t-92 127t-125 82t-134 29q-94 0 -162 -63.5t-68 -202.5q0 -41 13.5 -83t37 -77t58.5 -57.5t80 -22.5q184 0 184 160q0 23 -6 42t-23 36 l54 49q25 -33 36 -70t11 -76q0 -88 -54.5 -145.5t-123.5 -73.5q59 -23 113.5 -61t95.5 -99z" />
<glyph unicode="n" horiz-adv-x="5462" d="M2732 512q35 0 62.5 -22.5t27.5 -51.5q0 -31 -27.5 -54.5t-62.5 -23.5q-43 0 -68.5 24t-25.5 54q0 29 25.5 51.5t68.5 22.5zM2732 197q31 0 50.5 -19.5t19.5 -38.5q0 -29 -19.5 -47t-50.5 -18t-54.5 18.5t-23.5 46.5q0 18 23.5 38t54.5 20zM3129 1450q-10 14 -10 25 q0 12 10 16l49 111q8 8 25 8q16 0 25 -8l45 -111q12 -6 12 -18q0 -10 -12 -23l-45 -107q-10 -10 -25 -10q-14 0 -25 10zM2150 1450q-10 14 -10 23q0 12 10 18l54 111q6 8 18 8q16 0 27 -8l45 -111q12 -4 12 -16t-12 -25l-45 -107q-14 -10 -27 -10q-12 0 -22 10zM2466 1356 q-18 18 -19 45q0 27 19 49h512q20 -20 20 -49q0 -27 -20 -45l-213 -99q-18 -23 -45 -22q-27 0 -45 22zM950 1446q-440 6 -876 24q238 12 473 17.5t477 15.5l905 4q10 16 24.5 20.5t33.5 4.5q31 0 50 -16.5t19 -45.5q0 -25 -19.5 -41t-49.5 -16q-39 0 -58 25h-41 q-47 -41 -71.5 -97.5t-24.5 -119.5q0 -31 6 -62q14 0 30.5 3t33.5 3q14 0 30 -6h17q-2 8 -2 25q0 74 55 123q25 14 50.5 22t53.5 8q20 0 31 -2q37 -6 67.5 -28.5t55.5 -57.5q41 -59 41 -135q0 -53 -21.5 -101t-64.5 -79l-37 -21l4 -49q27 -92 109 -147t180 -55q35 0 80 10 q96 33 139 106q25 45 25 99q0 33 -9 57q-16 57 -66 88t-110 31h-22t-23 -4q-31 -10 -50 -27.5t-36 -42.5q-14 -20 -14 -47q0 -18 6 -39q10 -35 39 -52.5t64 -17.5q8 0 14 1t14 3l12 -53q-10 -4 -19 -4h-19q-53 0 -97.5 29.5t-60.5 77.5q-2 10 -3 20t-1 21q0 23 5 47t15 43 q16 31 47 55t72 35q16 4 30.5 6t30.5 2q74 0 134.5 -40t83.5 -108q29 68 89 108t132 40q16 0 30.5 -2t30.5 -6q37 -10 67.5 -35t47.5 -55q27 -35 26 -86q0 -25 -6 -45q-16 -47 -60 -77t-97 -30h-19.5t-19.5 4l16 53q8 -2 14.5 -3t14.5 -1q35 0 62.5 17.5t31.5 52.5 q8 18 8 43t-12 43q-33 51 -86 70q-12 4 -23.5 4h-23.5q-61 0 -109.5 -31t-64.5 -88q-12 -31 -13 -62q0 -25 7.5 -48t17.5 -46q25 -37 62.5 -63.5t84.5 -42.5q20 -4 39 -7t39 -3q96 0 178 54t113 144v53q-6 4 -16.5 9.5t-16.5 11.5q-45 31 -67.5 79t-22.5 101q0 76 41 135 q23 35 55.5 57.5t67.5 28.5q10 2 29 2q27 0 52.5 -8t49.5 -22q57 -47 57 -115q0 -12 -4 -33h17q18 6 35 6q16 0 32.5 -3t34.5 -3q2 14 3 27.5t1 27.5q0 66 -24.5 124.5t-77.5 99.5h-41q-12 -25 -57 -25q-29 0 -49.5 16.5t-20.5 40.5q0 29 20.5 45.5t49.5 16.5q23 0 37 -4 t20 -21l905 -4q244 -10 480.5 -15t478.5 -18q-451 -18 -877 -24q4 -6 12.5 -11t12.5 -18q43 -31 64.5 -78t21.5 -94q0 -55 -25 -108.5t-65 -96.5q-55 -51 -123 -77.5t-138 -26.5q-100 0 -178 51v-18q0 -143 -82 -256q-49 -72 -120.5 -117t-161.5 -64q-12 -2 -23.5 -3 t-23.5 -1q-121 0 -215 70q2 -16 3 -31.5t1 -31.5q0 -53 -13.5 -108.5t-48.5 -102.5q-31 -53 -79 -83t-101 -40q-29 -6 -53 -6q-74 0 -140 47q-43 33 -66.5 82t-23.5 102q0 72 41 135q12 16 22.5 27.5t26.5 17.5q-25 0 -50 6t-48 11q-59 16 -105 50t-71 81q-10 10 -13 18 t-7 19q0 -10 -5.5 -18.5t-11.5 -18.5q-25 -47 -70 -81t-106 -50q-23 -4 -48.5 -10.5t-49.5 -6.5q16 -6 25.5 -17t19.5 -28q23 -33 32 -68.5t9 -70.5q0 -53 -21.5 -101.5t-64.5 -78.5q-66 -47 -140 -47q-25 0 -49 6q-55 10 -104 39.5t-80 83.5q-33 47 -48 100t-15 106 q0 33 6 68q-94 -70 -211 -70q-12 0 -23.5 1t-23.5 3q-180 37 -287 181q-43 53 -62.5 118.5t-19.5 135.5v20q-82 -51 -180 -51q-70 0 -137.5 26.5t-120.5 77.5q-90 90 -90 205q0 47 22.5 94t59.5 78q6 12 16 17.5t16 11.5zM3928 1442l-172 -4l86 -45q168 -131 217 -332 q37 -37 85 -55.5t102 -18.5q59 0 115.5 23.5t103.5 70.5q31 31 50 73t19 91q0 37 -16 72t-45 63q-47 47 -117 47q-76 0 -133 -55q-18 -23 -31.5 -48.5t-13.5 -53.5q6 -18 14 -40t31 -38q27 -27 66 -27q20 0 40.5 8.5t40.5 22.5l29 -37q-45 -45 -115 -45q-29 0 -56.5 9.5 t-49.5 27.5q-43 49 -49 119q0 82 61 143q10 6 19.5 14.5t25.5 14.5h-307zM3539 1110q-10 -4 -25.5 -11t-27.5 -9q-29 -12 -54.5 -31t-48.5 -47q-6 -12 -16 -28.5t-16 -33.5q18 -10 39.5 -11t46.5 -1q43 10 80.5 38t66.5 68q10 12 16.5 29t16.5 33q-10 2 -23.5 4t-29.5 2 q-17 0 -25 -2zM3301 963q6 25 16.5 45t20.5 36q29 31 57.5 54.5t65.5 40.5q6 18 6 39q0 53 -39 84q-31 23 -67 22q-6 0 -11.5 -1t-11.5 -1q-25 -10 -47 -21.5t-39 -39.5q-31 -49 -30 -107q0 -41 16 -78t51 -61zM3449 889q-10 -2 -22.5 -2h-22.5q-33 0 -66 6q0 -12 1 -24.5 t7 -28.5q18 -121 119 -197q41 -29 88 -45t97 -16q10 0 20 1t20 3q78 16 140.5 55t105.5 100q41 53 59.5 112.5t18.5 121.5q0 14 -1 26.5t-3 26.5q-16 98 -67.5 179t-125.5 136q-49 37 -96 56.5t-100 30.5q35 -47 53.5 -101.5t18.5 -114.5q0 -35 -11 -79q6 0 12.5 -5.5 t12.5 -11.5q37 -25 62.5 -65.5t31.5 -89.5q2 -10 2 -31q0 -57 -35 -109q-25 -35 -57.5 -53t-69.5 -29l-8 54q29 6 53.5 20t40.5 37q10 18 17.5 36.5t7.5 39.5q0 10 -4 30q-4 35 -22.5 67t-47.5 56q-6 0 -8 2t-8 2q-4 -18 -14.5 -36.5t-22.5 -36.5q-31 -47 -79 -80t-97 -43z M3289 754q-29 -37 -63.5 -64.5t-71.5 -46.5q16 -4 30.5 -11t30.5 -14q29 -23 43.5 -55.5t14.5 -66.5q0 -51 -29 -99l-45 29q23 29 23 66q0 49 -44 77q-27 27 -65 27q-4 0 -10 -1t-11 -1q-25 -10 -47 -23.5t-39 -38.5q-33 -51 -32 -110q0 -41 17.5 -77t51.5 -58 q41 -39 113 -39h16.5t18.5 2q90 18 147 102q27 41 39 85t12 89q0 66 -25.5 126.5t-74.5 101.5zM2273 643q-41 18 -71.5 46t-59.5 65q-51 -41 -77.5 -102.5t-26.5 -127.5q0 -94 51 -172q25 -41 67 -66.5t85 -35.5q10 -2 30 -2q63 0 117 39q33 23 50.5 59.5t17.5 77.5 q0 57 -35 108q-12 25 -37 38.5t-49 23.5q-6 0 -11.5 1t-11.5 1q-39 0 -63 -27q-41 -31 -41 -82q0 -33 16 -61l-41 -29q-29 41 -29 95q0 76 58 126q16 6 32.5 13.5t28.5 11.5zM1999 1262q-23 -16 -31 -41t-8 -52q0 -20 2 -30q72 -31 123 -95q25 -31 37 -81l20 12 q66 53 66 139q0 59 -33 107q-12 29 -36.5 40t-49.5 21q-6 0 -12 1t-13 1q-40 1 -65 -22zM1888 1110q-8 2 -22 2t-28.5 -2t-27.5 -4q6 -16 13.5 -32.5t19.5 -29.5q25 -41 66 -68.5t82 -37.5q23 0 43 1t39 11q-8 35 -33 62q-10 14 -28.5 28.5t-40 27.5t-43.5 24.5t-40 17.5z M1741 1135q-4 18 -6 37.5t-2 39.5q0 59 18 114.5t55 103.5q-49 -10 -99 -30t-93 -57q-78 -55 -129 -136t-64 -179q-6 -35 -6 -65q0 -119 72 -222q43 -61 107.5 -100t142.5 -55q10 -2 20 -3t21 -1q47 0 94 16t90 45q49 37 81 86t42 111v53q-29 -6 -60 -6h-21t-22 2 q-55 10 -102 43t-82 80q-25 37 -37 73q-2 0 -3 -1t-3 -1l-2 -2q-29 -25 -48 -56.5t-26 -66.5q-4 -10 -4 -30q0 -37 29 -76q16 -23 38.5 -37t47.5 -20l-8 -54q-35 10 -67 28.5t-56 53.5q-16 23 -26.5 50.5t-10.5 56.5q0 8 1 15t3 18q4 49 28.5 90t61.5 65q17 17 25 17z M1499 1442h-307l45 -29q29 -31 45 -66.5t16 -76.5q0 -66 -53 -119q-41 -37 -104 -37q-33 0 -63.5 11.5t-53.5 33.5l37 37q37 -31 78 -31q18 0 36.5 6.5t32.5 20.5q16 16 26.5 37.5t10.5 40.5q0 29 -13 54.5t-32 47.5q-59 55 -133 55q-70 0 -117 -47q-57 -57 -57 -135 q0 -100 70 -164q47 -47 104 -70.5t117 -23.5q53 0 101 18.5t87 55.5q23 102 76 184t137 148l82 45z" />
<glyph unicode="o" horiz-adv-x="7198" d="M3576 1307q-47 0 -83 30.5t-36 67.5q0 43 36 72.5t83 29.5q55 0 89 -29.5t34 -72.5q0 -37 -34 -67.5t-89 -30.5zM3576 1729q-41 0 -67.5 24.5t-26.5 52.5q0 37 26.5 61.5t67.5 24.5t71.5 -24.5t30.5 -61.5q0 -29 -30.5 -53t-71.5 -24zM3047 57q12 -16 13 -32 q0 -18 -13 -25l-65 -143q-16 -16 -35 -17q-18 0 -31 17l-61 143q-16 10 -16 25q0 16 16 32l61 140q12 14 31 14q20 0 35 -14zM4350 57q12 -16 12 -32t-12 -25l-70 -143q-10 -16 -28 -17q-16 0 -33 17l-62 143q-16 6 -16 25q0 16 16 32l62 140q14 14 35 14q18 0 30 -14z M3932 180q25 -23 25 -59q0 -37 -25 -64h-684q-29 29 -29 66t29 61l283 131q25 27 61 27q37 0 62 -27zM5951 61q297 -4 587 -12t581 -20q-317 -16 -630.5 -23.5t-635.5 -17.5l-635 -8h-573q-12 -18 -31.5 -25.5t-42.5 -7.5q-43 0 -68.5 22.5t-25.5 59.5q0 35 25.5 56t68.5 21 q47 0 74 -32h53q66 53 98.5 127.5t32.5 160.5q0 20 -2 42t-6 42q-23 -2 -44.5 -6t-43.5 -4q-20 0 -39 6q-6 0 -10 2t-10 2q0 -8 1 -14t1 -14q0 -51 -19.5 -95t-56.5 -73q-33 -20 -68 -32.5t-71 -12.5q-10 0 -18.5 1t-18.5 3q-49 10 -91 41t-73 74q-29 41 -42 88t-13 94 q0 70 28.5 134.5t83.5 104.5l49 29l-4 66q-18 61 -55 110t-88 84t-111.5 54.5t-126.5 19.5q-59 0 -110 -14q-61 -18 -108.5 -55.5t-76.5 -84.5q-35 -61 -34 -133q0 -18 2 -37.5t8 -38.5q20 -74 87.5 -115.5t145.5 -41.5q31 0 62 6q78 25 114 90q18 31 19 70q0 20 -6 45 q-12 45 -52 69.5t-88 24.5q-10 0 -18 -1t-18 -3l-17 69q27 6 55 7q72 0 129.5 -40t77.5 -102q6 -31 6 -61q0 -31 -6 -60.5t-20 -54.5q-23 -43 -65 -74.5t-95 -44.5q-37 -12 -82 -12q-98 0 -179 53.5t-112 143.5q-37 -90 -117.5 -143.5t-177.5 -53.5q-39 0 -81 12 q-49 12 -89 44t-63 75q-18 23 -25.5 52.5t-7.5 58.5q0 39 8 65q20 61 78 101.5t127 40.5q25 0 53 -7l-20 -69q-10 2 -17.5 3t-17.5 1q-47 0 -84 -24.5t-45 -69.5q-12 -29 -12 -56q0 -33 20 -59q18 -35 48 -56.5t67 -33.5q31 -6 61 -6q78 0 144.5 42t89.5 115q12 37 12 76 q0 68 -33 133q-31 47 -82 84t-110 56q-51 14 -109 14q-129 0 -235.5 -71.5t-147.5 -192.5v-33.5t-4 -36.5q10 -6 22.5 -12t22.5 -17q59 -43 90 -106.5t31 -134.5q0 -47 -13 -93t-42 -87q-29 -43 -73 -74t-91 -41q-10 -2 -18.5 -3t-18.5 -1q-35 0 -68.5 12t-66.5 33 q-78 57 -78 153q0 10 1 21.5t3 21.5q-10 0 -13 -2t-7 -2q-25 -6 -45 -6q-23 0 -46.5 4t-47.5 6q-4 -16 -4.5 -34.5t-0.5 -34.5q0 -88 34 -169t106 -134h53q20 33 74 32q41 0 67.5 -21.5t26.5 -55.5q0 -37 -26.5 -59.5t-67.5 -22.5q-29 0 -48.5 7t-25.5 26h-578l-630 8 q-324 10 -640.5 17t-637.5 24q299 12 589.5 20t581.5 12q-6 10 -18.5 15.5t-18.5 21.5q-55 43 -82.5 105.5t-27.5 128.5q0 74 31.5 144.5t87.5 125.5q74 70 163.5 105.5t182.5 35.5q131 0 235 -67v20q0 193 111 344q68 92 164 153.5t213 84.5q37 6 73 6q152 0 279 -92 q-8 41 -8 94q0 72 19.5 142.5t62.5 132.5q43 68 106.5 109.5t134.5 53.5q16 4 32.5 6.5t33.5 2.5q53 0 100 -17.5t88 -48.5q59 -43 89 -108.5t30 -137.5q0 -47 -12.5 -93t-40.5 -87q-16 -18 -29.5 -34.5t-36.5 -26.5q35 0 70 -7.5t65 -13.5q78 -18 138.5 -64t95.5 -112 q12 -10 16 -21.5t8 -27.5q6 31 25 49q35 66 94.5 112t138.5 64q31 6 66 13.5t66 7.5q-18 10 -33 26.5t-25 34.5q-29 43 -42 91t-13 95q0 72 28.5 135.5t84.5 104.5q45 31 94 48.5t98 17.5q16 0 30.5 -2t30.5 -7q74 -12 138.5 -54t107.5 -109q41 -63 61.5 -136t20.5 -145 q0 -23 -2 -44.5t-6 -43.5q59 45 129 68.5t143 23.5q35 0 72 -6q123 -23 218 -84t167 -154q53 -72 81 -155.5t28 -173.5q0 -10 -1 -17.5t-1 -17.5q111 68 241 67q94 0 183.5 -35.5t160.5 -105.5q55 -55 87 -125.5t32 -144.5q0 -66 -29.5 -128.5t-76.5 -105.5 q-10 -16 -23 -21.5t-23 -15.5zM1982 70l230 4q-35 16 -64.5 32.5t-54.5 28.5q-111 84 -181.5 194.5t-105.5 243.5q-51 51 -116.5 77t-135.5 26q-78 0 -153.5 -32t-134.5 -95q-43 -43 -69 -97.5t-26 -119.5q0 -49 23 -98.5t59 -86.5q31 -31 71 -45t81 -14q47 0 94 18.5 t86 53.5q29 29 45.5 63.5t16.5 71.5q-10 29 -19.5 56.5t-38.5 49.5q-35 35 -88 35q-59 0 -108 -43l-41 53q31 29 71.5 44.5t81.5 15.5q82 0 142 -51q59 -66 65 -160q0 -106 -82 -189q-12 -10 -25.5 -20t-31.5 -16h409zM2499 512q18 4 36.5 8t36.5 17q78 39 135 102 l22.5 40.5t23.5 45.5q-35 14 -76 14h-21.5t-21.5 -2q-55 -12 -106.5 -49t-86.5 -90q-16 -18 -24.5 -38.5t-20.5 -43.5q16 -2 32.5 -5t35.5 -3q8 0 16.5 1t18.5 3zM2814 709q-6 -35 -19.5 -61.5t-29.5 -49.5q-66 -82 -160 -127q-12 -29 -12 -55q0 -31 13 -60.5t40 -48.5 q39 -31 92 -31q6 0 12.5 1.5t14.5 1.5q35 12 65.5 30.5t53.5 55.5q23 33 32 68.5t9 70.5q0 53 -23 103t-68 81zM2621 807q12 2 25.5 2h26.5q23 0 46 -2t46 -8q0 18 -1 34.5t-7 34.5q-25 168 -160 267q-53 35 -116.5 56t-129.5 21q-14 0 -26.5 -1t-26.5 -3 q-102 -18 -187.5 -71.5t-140.5 -132.5q-53 -72 -77.5 -153t-24.5 -163q0 -18 1 -35.5t3 -34.5q23 -129 91.5 -236.5t166.5 -184.5q66 -47 128 -73t134 -38q-47 59 -70.5 132t-23.5 151q0 53 12 106q-18 6 -37 25q-47 35 -79.5 88t-43.5 121q-2 10 -3 20t-1 21 q0 37 11.5 74.5t33.5 68.5q35 47 79 72.5t93 38.5l9 -74q-35 -6 -68 -25.5t-55 -48.5q-16 -27 -23.5 -52.5t-7.5 -53.5v-18.5t2 -18.5q4 -47 30.5 -88t63.5 -76q6 0 10.5 -2t10.5 -2q6 25 19 48t30 46q43 66 106 109t131 59zM2834 987q37 49 84.5 86t96.5 62q-23 4 -43.5 13 t-38.5 19q-41 31 -60.5 74t-19.5 90q0 66 39 127l61 -37q-31 -41 -31 -86q0 -63 56 -106q33 -31 86 -31h16t17 2q31 10 61.5 28.5t52.5 53.5q23 33 33 70t10 73q0 53 -22.5 101.5t-69.5 79.5q-63 53 -151 53q-12 0 -24.5 -1t-25.5 -3q-55 -10 -106 -45t-86 -90 q-35 -53 -52.5 -112.5t-17.5 -119.5q0 -88 34.5 -167t100.5 -134zM4186 1135q100 -47 176 -148q68 55 104 135t36 168q0 59 -17.5 117.5t-52.5 112.5q-35 55 -88 90t-113 45q-10 2 -22.5 3t-22.5 1q-82 0 -151 -53q-45 -31 -68 -80t-23 -103q0 -78 46 -141 q18 -35 50.5 -53.5t63.5 -28.5q10 -2 17.5 -2h15.5q51 0 82 31q29 20 42 49t13 61q0 41 -22 82l57 37q20 -29 28.5 -59.5t8.5 -61.5q0 -102 -78 -170q-23 -10 -43.5 -19t-38.5 -13zM4551 307q29 20 41 51t12 66v24.5t-4 22.5q-98 43 -164 127q-31 43 -49 111l-25 -21 q-43 -31 -65.5 -81t-22.5 -103q0 -76 43 -139q18 -37 51 -55.5t64 -30.5q8 0 14 -1.5t15 -1.5q59 0 90 31zM4702 512q16 -4 29 -4q18 0 37.5 3t36.5 5q-10 23 -19.5 43.5t-25.5 38.5q-31 53 -86.5 90t-110.5 49q-10 2 -18.5 2h-18.5q-18 0 -37.5 -3t-36.5 -11 q6 -23 17.5 -45.5t27.5 -40.5q35 -45 88.5 -80t116.5 -47zM4895 475q4 -27 7 -51.5t3 -50.5q0 -78 -24.5 -153t-71.5 -134q68 12 133 38t125 73q102 78 169.5 185t84.5 236q8 41 8 93q0 78 -23.5 152.5t-70.5 140.5q-55 80 -142.5 133t-189.5 71q-14 2 -26.5 3t-26.5 1 q-66 0 -128.5 -21.5t-117.5 -55.5q-137 -100 -168 -267v-69q23 6 43 8t43 2h25.5t27.5 -2q74 -16 136.5 -59t109.5 -109q29 -41 49 -94q4 0 6 2q2 0 2 2q84 72 103 164q4 10 4 19v20q0 55 -37 104q-23 29 -53.5 48.5t-65.5 25.5l12 74q47 -12 90.5 -38t73.5 -73 q23 -31 37.5 -66.5t14.5 -72.5q0 -25 -7 -45q-6 -68 -39.5 -121t-83.5 -88q-6 -10 -16 -15.5t-16 -9.5zM5218 70h410q-16 6 -32.5 16t-29.5 20q-37 41 -57 88.5t-20 100.5q0 96 69 160q29 27 65 39t75 12q43 0 83.5 -15.5t71.5 -44.5l-49 -53q-43 43 -104 43q-53 0 -93 -35 q-23 -23 -36 -50t-13 -56q0 -37 16.5 -72t41.5 -63q39 -35 87 -53.5t95 -18.5q43 0 82 14.5t71 44.5q37 37 57.5 86.5t20.5 98.5q0 129 -94 217q-61 63 -137 95t-154 32q-70 0 -135 -25.5t-119 -77.5q-31 -133 -103.5 -243.5t-182.5 -194.5q-25 -12 -50.5 -28.5t-60.5 -32.5 z" />
<glyph unicode="p" horiz-adv-x="3686" d="M3590 791q2 -8 2 -27q0 -25 -8 -55.5t-31.5 -62.5t-67.5 -62.5t-116 -55.5h-12q-66 4 -115 48.5t-66 111.5v8q2 33 16.5 62.5t38 52.5t54.5 36t63 13q29 0 29 -29q0 -16 -11 -22t-22 -6q-43 -4 -73.5 -34t-36.5 -77q10 -43 43 -73.5t80 -36.5q180 66 180 190v14 q-4 35 -27.5 70t-57.5 62.5t-77 46t-88 22.5h-16q-72 0 -123 -49t-78 -143q2 -10 2 -17.5v-17.5q0 -86 -38 -154.5t-107 -113.5q-98 -68 -238 -74h-27q-49 0 -98 9t-96 32q-4 -41 -20.5 -84t-44 -81t-64.5 -68.5t-80 -49.5q-14 -4 -35.5 -9t-50.5 -5q-41 0 -91 17.5 t-102 70.5q-12 0 -16 4q-47 47 -86 101.5t-76 109.5t-75.5 107.5t-90.5 95.5q-18 -10 -34.5 -13.5t-26.5 -7.5l-33 -16q-10 -16 -13 -28.5t-7 -24.5q0 -8 -12.5 -14.5t-16.5 -6.5q-20 0 -20 29q4 16 8 36.5t20 49.5l8 4q10 6 23.5 9t26.5 7q10 6 18 8t18 9q-72 31 -146.5 54 t-156.5 23q-33 0 -66.5 -5t-68.5 -15q8 -18 8 -45q0 -39 -20 -86q-25 -37 -65 -66.5t-83 -40.5l-12 -16q-4 0 -4 -4t-4 -8v-2q0 -2 -4 -2q0 -47 18.5 -88t48 -75t67.5 -55.5t79 -27.5q10 -2 20.5 -3t20.5 -1q119 0 155 143q4 0 4 2v2q0 31 -16 58.5t-41 44.5q-10 6 -21.5 11 t-25.5 5q-18 0 -35 -8q-16 -16 -26.5 -32.5t-14.5 -33.5q6 -16 9.5 -31.5t7.5 -33.5q0 -10 -7.5 -18.5t-17.5 -8.5q-16 0 -24 19q0 16 -5.5 32.5t-11.5 32.5l4 8q0 23 15.5 52.5t46.5 54.5q12 6 26.5 9t26.5 7q41 0 78 -24q37 -23 56.5 -60t25.5 -84q29 6 58.5 10.5 t61.5 4.5q25 0 50.5 -2.5t54.5 -8.5q45 -20 65.5 -60t20.5 -81v-19.5t-4 -19.5q-10 -29 -35 -51.5t-68 -26.5h-32l-9 4q-12 10 -19 19.5t-13 13.5q-2 2 -2 8q0 16 14 25q8 4 10 4q14 0 19 -12l12 -17q4 0 7 -1t7 -1q35 0 48.5 20.5t19.5 30.5q2 8 2 25q0 29 -13.5 57.5 t-45.5 40.5q-43 6 -86 6q-76 0 -127 -18q-33 -86 -92.5 -123t-120.5 -37q-10 0 -20.5 1t-20.5 3q-49 10 -95.5 38t-82 68t-58 91t-22.5 111h-15q-51 0 -91 18t-72.5 49t-57.5 72t-43 86q-25 -57 -57.5 -92t-65.5 -53.5t-63.5 -24.5t-55.5 -6h-16q-53 2 -103.5 25.5t-90 59.5 t-67.5 81t-34 92q-2 6 -2 24q0 23 8 53.5t32 63.5t68 64.5t115 56.5h13q66 -4 114.5 -50t61.5 -118q0 -68 -50.5 -114t-117.5 -50q-12 0 -20.5 7.5t-8.5 17.5t12.5 19t16.5 9q47 4 77.5 34t36.5 73q-12 47 -43.5 79t-78.5 36q-178 -63 -179 -181q0 -12 2 -20q4 -39 27 -75 t56.5 -64.5t74.5 -46t84 -19.5h10q158 0 211 193q-2 10 -2 18v18q0 86 38 154t108 113q49 35 108.5 52t124.5 21h25q53 0 103 -10t97 -26q6 84 63.5 161.5t141.5 112.5q16 8 41 15.5t55 7.5q37 0 80 -15.5t90 -56.5q4 0 8.5 -2t4.5 -6q51 -51 91 -107.5t80 -114t82 -110.5 t95 -98q39 18 65 24l29 8q10 18 13 31.5t8 30.5q0 20 28 20q20 -8 21 -28q-4 -18 -8.5 -38t-16.5 -44l-4 -8h-8q-12 -6 -24.5 -11.5t-24.5 -9.5l-41 -12q72 -35 148.5 -57.5t160.5 -22.5q66 0 133 18q-8 18 -8 45q0 41 24 82q23 43 62 73t86 42q0 4 1 8t7 8l8 15 q0 47 -18.5 89t-48 74.5t-67.5 54t-75 29.5q-10 2 -17 3.5t-17 1.5q-121 0 -166 -144q0 -4 -4 -8q4 -29 20 -57.5t41 -44.5q8 -6 19.5 -11.5t25.5 -5.5q16 0 33 8q18 16 29.5 35t15.5 35l-16 62q0 23 20 28q23 0 29 -20q0 -18 4 -33.5t8 -28.5l4 -12q-4 -23 -20.5 -52.5 t-44.5 -54.5q-12 -10 -26.5 -13t-27.5 -3q-18 0 -38.5 7t-39.5 18q-37 25 -56 62.5t-25 84.5q-59 -18 -125 -18q-25 0 -49.5 3t-51.5 7q-45 16 -65.5 56t-20.5 81v19.5t4 19.5q10 35 35 58.5t68 23.5q4 2 14 2q14 0 23 -2l8 -4q12 -10 16 -18.5t8 -14.5q4 -8 4 -12 q0 -12 -12 -21q-4 -2 -8 -2q-6 0 -12 3t-8 12l-13 16h-8q-39 0 -54.5 -18.5t-19.5 -30.5q-2 -8 -3 -14.5t-1 -14.5q0 -29 14.5 -55.5t47.5 -42.5q43 -6 84 -6q37 0 70.5 5t62.5 17q29 84 85 119t115 35q25 0 50 -6q49 -8 95 -34t82 -66t58.5 -92t22.5 -111h8q51 0 92 -17.5 t74 -48.5t59.5 -70.5t48.5 -85.5q23 55 53.5 89t64.5 52.5t65.5 24.5t56.5 6h14q51 -4 102.5 -25.5t91.5 -56t67.5 -79.5t33.5 -92zM2574 934q-20 -25 -20 -60q0 -20 4 -30q20 10 42.5 27.5t43 39t35 49t18.5 60.5q-4 0 -4 2t-4 2q-35 -10 -67 -34.5t-48 -55.5zM1104 659 q6 10 13 26.5t7 35.5q0 8 -4 24q-51 -29 -91 -70.5t-44 -105.5q37 6 70 30.5t49 59.5zM2898 541q59 39 88 98t29 131q0 8 -1 14.5t-1 14.5q-18 51 -41 97t-52.5 80t-68.5 53.5t-88 19.5q-6 -6 -12.5 -13.5t-16.5 -15.5q-4 -78 -55 -132t-117 -89l-8 -4v-9q23 -61 76 -108 t118 -47h15q43 18 70.5 59t31.5 88q-6 12 -17.5 24.5t-23.5 24.5q-4 6 -9 10.5t-11 10.5q-2 2 -8 2t-12.5 -2t-16.5 -4q-6 -10 -11.5 -16.5t-9.5 -16.5q-6 -12 -11 -19.5t-9 -17.5q-4 -6 -14 -6t-15 2q-8 8 -8 18q0 6 4 11l53 82q10 2 22.5 5t24.5 3q6 0 11.5 -1t11.5 -3 l12 -4q6 -10 12.5 -14.5t12.5 -10.5q16 -16 29.5 -31.5t23.5 -38.5v-8q-4 -59 -40 -109.5t-91 -74.5l-8 -4h-21q-78 0 -138 53t-91 123q-25 -6 -51.5 -11t-50.5 -5h-19q-92 0 -176 24.5t-158 56.5q0 -35 -8 -66.5t-37 -43.5q0 -4 -8 -4q-6 0 -13 3t-11 13q-2 4 -3 12 q0 12 11 21q8 4 13 14.5t5 38.5v18.5t-2 22.5q-4 4 -4 8v9h-2q-2 0 -2 4q-47 35 -85 76.5t-71 88t-63.5 93.5t-63.5 94l-12 8q-8 8 -8 16l-37 46q-72 72 -152 71q-39 0 -73 -14q-37 -16 -68 -43t-53.5 -60.5t-35.5 -70.5t-13 -72q0 -4 1 -10t1 -10l12 -21v-16 q45 -102 221 -103q37 14 60.5 50t23.5 77q0 4 -1 8.5t-1 8.5q-31 70 -106 69h-18.5t-18.5 -4q-2 0 -4 -1t-4 -1q-18 0 -25 27q0 10 8 19.5t12 9.5q23 8 52 8q51 0 94 -31t63 -84q2 -10 2 -29q0 -59 -30.5 -109t-85.5 -75h-13q-84 2 -138 20.5t-87 45t-48 55.5t-22 51 q-47 23 -99 34t-105 11q-131 0 -230 -61q-117 -82 -116 -232q0 -6 1 -12t1 -14q0 -4 -4 -9q20 -49 42.5 -92t52 -76.5t68.5 -53t90 -19.5q6 12 25 24q6 72 54 126.5t122 95.5l4 8q4 0 4 2v2q-23 66 -76 110.5t-118 44.5h-15q-43 -23 -71.5 -59.5t-34.5 -83.5 q10 -16 21.5 -28.5t23.5 -24.5q6 -14 20 -21q6 0 15.5 2t21.5 2l41 66q12 12 21 12q4 0 8 -4q8 -4 8 -14t-4 -14l-49 -78l-8 -4q-12 -4 -29.5 -6.5t-36.5 -2.5l-12 9l-25 24q-16 16 -29.5 31.5t-23.5 34.5v12q4 61 40 110.5t91 77.5h8h9h8q80 0 141 -52t92 -124 q29 10 53.5 13.5t49.5 3.5q8 0 16 1t16 1q86 0 166 -24.5t154 -59.5q0 37 8 67.5t33 42.5l12 4q14 0 21 -12q8 -8 8 -16q0 -12 -12 -17q-8 -4 -13.5 -15t-5.5 -40v-18.5t2 -20.5q0 -4 2 -7t2 -9q45 -35 81 -79t68.5 -90t63.5 -94t66 -94l20 -8q84 -139 195 -139q33 0 76 16 q37 14 67.5 41t53 61t36 71.5t13.5 72.5q0 4 -1.5 10.5t-1.5 10.5q-6 6 -7 12t-5 12v17q-23 49 -79 73.5t-142 28.5q-41 -20 -61.5 -56t-20.5 -79v-12q35 -70 111 -70q12 0 32 4q27 0 33 -20q0 -10 -8 -23.5t-12 -13.5q-10 -4 -20.5 -4h-20.5q-53 0 -100.5 28.5t-67.5 77.5 l-4 8q-2 6 -2 13.5v13.5q0 61 34.5 113.5t90.5 76.5l8 -4q84 0 138 -18.5t87 -45t48.5 -55t21.5 -49.5q47 -25 100 -36t107 -11q63 0 121.5 15.5t105.5 48.5z" />
<glyph unicode="q" horiz-adv-x="2635" d="M2636 1896v-2453h-99v868q-41 37 -74.5 81t-64.5 91q-29 -16 -54.5 -21t-43.5 -11l-49 -13q-18 -29 -22.5 -48t-10.5 -38q0 -12 -18.5 -20t-22.5 -8q-33 0 -33 32v9q0 29 10.5 57.5t34.5 64.5l4 9l9 4q37 18 77 24l58 21q-111 53 -233 94t-255 41q-84 0 -163 -21 q6 -29 6 -53q0 -72 -43 -135q-37 -61 -96.5 -104t-125.5 -56l-20 -24q-4 0 -8 -4t-4 -9l-4 -8v-14q0 -68 25.5 -128.5t68.5 -109.5t98 -83.5t115 -49.5q18 -4 34.5 -7t32.5 -3q80 0 140.5 53t91.5 154q4 0 6 2l2 2q0 47 -24.5 93t-61.5 75q-12 8 -30.5 16t-41.5 8t-47 -12 q-45 -53 -65 -98l24 -98q0 -16 -8 -26.5t-25 -10.5q-4 -2 -10 -2q-14 0 -20 10t-10 20l-25 99l4 12q6 35 28.5 77t69.5 79h9q33 16 77 16q55 0 111 -37q106 -76 119 -221q70 18 151 18q84 0 185 -22q63 -33 92.5 -88.5t29.5 -112.5q0 -37 -12 -70q-12 -47 -53 -82.5 t-107 -35.5q-10 0 -22 1t-31 7l-8 4q-18 10 -27.5 24.5t-13.5 24.5q-4 12 -4 17q0 18 20 28q6 6 15 6q20 0 30 -18q4 -10 5.5 -15.5t11.5 -9.5q8 -2 22 -2q47 0 70 25.5t31 42.5q4 10 6 23.5t2 25.5q0 41 -20.5 81t-61.5 62q-86 18 -164 19q-92 0 -160 -27 q-53 -123 -137 -173t-172 -50q-35 0 -80 10q-72 18 -139.5 60.5t-119.5 103.5t-82.5 136t-30.5 157v14q-82 0 -144.5 29t-111 78t-84 113.5t-62.5 136.5q-37 -78 -82 -127.5t-92 -77t-92 -36.5t-82 -9q-12 0 -23.5 1t-21.5 3q-80 8 -154.5 44t-133 91t-96.5 125t-46 141v17 q0 33 10 80t47 97t106.5 100t188.5 87h12q102 -10 172 -82.5t86 -171.5v-12q-4 -47 -25.5 -90t-56 -75t-79.5 -50.5t-97 -18.5q-18 0 -31.5 13.5t-13.5 32.5q0 12 19.5 24t25.5 12q68 0 117 44t60 116q-12 66 -61.5 114t-115.5 58q-137 -41 -209.5 -109.5t-72.5 -160.5v-21 q6 -57 37.5 -112.5t81 -100.5t111 -74.5t126.5 -35.5q6 0 13.5 -1t13.5 -1q111 0 189.5 70.5t127.5 205.5v25q0 139 60.5 248.5t173.5 177.5q74 47 166 68.5t190 21.5q86 0 172 -14.5t164 -51.5q8 61 35.5 124t70.5 118t97.5 98t115.5 66q23 6 55.5 13t73.5 7 q66 0 145 -30.5t156 -120.5v413h99zM1599 500q10 20 20.5 49t10.5 61q0 16 -2 25q-35 -18 -71.5 -43t-68.5 -55.5t-54.5 -70.5t-26.5 -89q4 0 4 -1t2 -1q0 -2 2 -2q55 12 105 46t79 81zM2537 451v884q-66 104 -140.5 159.5t-158.5 55.5q-49 0 -98 -18q-57 -18 -106 -58 t-86 -90.5t-57.5 -106.5t-20.5 -110v-20q4 -10 8 -21.5t4 -15.5q2 -6 2 -16q0 -6 -2 -9q31 -74 117 -115.5t215 -51.5q55 23 91 78t36 120v19q-18 49 -62.5 77.5t-101.5 28.5h-22.5t-22.5 -4h-10q-16 0 -27.5 8t-11.5 25v10q0 29 24 39h9q37 10 65 10q78 0 145.5 -48 t96.5 -134q0 -6 1 -13.5t1 -13.5q0 -47 -14.5 -91t-40 -81t-61.5 -65.5t-79 -42.5l-4 -9h-8q-127 8 -207 40t-127 75t-67.5 87t-28.5 77q-76 41 -162 61.5t-172 20.5t-168 -20.5t-149 -61.5q-92 -59 -140.5 -146t-48.5 -204v-27q0 -4 -4 -5t-4 -7q27 -76 60.5 -144.5 t76.5 -121t99.5 -84t132.5 -31.5q12 18 37 37q10 98 79.5 181t190.5 138q6 0 7 1t5 12q0 6 4 7t4 5q-18 47 -45.5 92t-64.5 79t-82 54.5t-96 20.5h-15q-66 -29 -110.5 -87.5t-61.5 -125.5q16 -25 29.5 -44.5t32.5 -37.5l32 -29q8 -4 17 -4q10 0 18 3t19 5q16 10 21 23.5 t16 25.5l32 49q8 8 21 9q12 0 20 -9q10 -2 11 -20q0 -12 -3 -16l-73 -111l-8 -4h-13q-29 -14 -63 -14q-20 0 -39 6h-8l-4 8l-37 37q-18 23 -40 48.5t-34 53.5l-8 8l8 13q10 86 67.5 159.5t141.5 110.5h12h12q61 0 115.5 -22.5t100 -61.5t78 -89t51.5 -106q41 10 81.5 15.5 t81.5 5.5q145 0 274.5 -44t250.5 -104q0 55 12 100.5t53 63.5q6 0 10.5 4.5t10.5 4.5q10 0 17 -7.5t11 -17.5q4 -6 4 -16q0 -18 -20 -33q-16 -12 -21.5 -36t-5.5 -48q0 -14 1 -27.5t1 -23.5l17 -33z" />
<glyph unicode="r" horiz-adv-x="2621" d="M98 1896v-413q76 90 156 120.5t145 30.5q41 0 74 -7t55 -13q61 -23 115.5 -66t97.5 -98t71 -117.5t36 -124.5q78 37 164 51.5t172 14.5q98 0 190 -21.5t166 -68.5q113 -68 173.5 -177.5t60.5 -248.5v-25q49 -135 127.5 -205.5t189.5 -70.5q6 0 13 1t14 1q63 6 124.5 35.5 t110.5 74.5t82 100.5t39 112.5v21q0 92 -72.5 160.5t-210.5 109.5q-66 -10 -114.5 -58t-61.5 -114q10 -72 59.5 -116t116.5 -44q6 0 25.5 -12t19.5 -24q0 -18 -13 -32t-32 -14q-51 0 -96 18.5t-80 50.5t-57.5 75t-24.5 90v12q16 98 86 171t172 83h13q119 -37 188.5 -87 t106 -100t47 -97.5t10.5 -79.5v-17q-8 -72 -46 -141.5t-96.5 -124.5t-133 -91t-154.5 -44q-10 -2 -21.5 -3t-23.5 -1q-37 0 -82 9t-92 36.5t-92.5 77t-81.5 127.5q-29 -72 -64 -136.5t-83 -113.5t-110.5 -78t-144.5 -29v-14q0 -82 -30.5 -157t-83 -136t-120 -103t-139.5 -61 q-45 -10 -79 -10q-88 0 -172 50t-138 173q-68 27 -159 27q-78 0 -164 -19q-41 -23 -61.5 -62.5t-20.5 -80.5q0 -12 2 -25.5t6 -23.5q8 -16 30.5 -42t69.5 -26q14 0 23 2q10 4 11 9.5t5 15.5q10 18 31 18q8 0 14 -6q20 -10 21 -28q0 -4 -4 -17q-4 -10 -13.5 -24.5 t-27.5 -24.5l-13 -4q-16 -6 -27 -7t-22 -1q-66 0 -106.5 35.5t-52.5 82.5q-12 33 -13 70q0 57 31 112.5t96 88.5q96 23 181 22q80 0 151 -18q12 145 119 221q55 37 110 37q45 0 78 -16h8q47 -37 70 -79t29 -77v-16l-21 -95q-4 -10 -10 -20t-20 -10q-6 0 -11 2q-16 0 -24 10 t-8 27l24 98q-20 45 -65 98q-25 12 -48 12t-41 -8t-30 -16q-37 -29 -61.5 -75t-24.5 -93q-2 -2 0 -2q0 -2 8 -2q31 -100 91.5 -153.5t139.5 -53.5q16 0 33 3t35 7q57 14 112.5 49t98.5 84t69.5 109.5t26.5 128.5v14l-4 8q0 4 -4 8.5t-8 4.5l-21 24q-66 12 -125 55.5 t-96 104.5q-43 63 -43 135q0 25 6 53q-80 20 -164 21q-133 0 -254.5 -41t-232.5 -94l57 -21q41 -6 78 -24l8 -4l4 -9q25 -37 35.5 -66.5t10.5 -62.5q0 -35 -37 -34q-16 0 -26.5 8t-10.5 20q-6 18 -10.5 38t-22.5 48l-49 13q-18 6 -44 11t-54 21q-31 -47 -65 -91t-75 -81 v-868h-98v2453h98zM1036 500q29 -47 79 -81t106 -46q-2 0 0 2h2q2 0 3 1t3 1q-4 49 -26.5 89t-54.5 70.5t-70 55t-70 43.5q-2 -8 -2 -25q0 -33 10 -61.5t20 -48.5zM98 451q35 49 51.5 75.5t26.5 40.5q8 14 12 19q2 10 2 20v21q0 47 -9 66.5t-17 23.5q-20 14 -21 33 q0 10 4 16q4 10 11.5 17.5t17.5 7.5q6 0 10 -4.5t11 -4.5q41 -18 53 -63t12 -101q121 59 250 103.5t274 44.5q41 0 82 -5t82 -16q18 55 51 105.5t78 89.5t99.5 61.5t115.5 22.5h13h12q84 -37 141.5 -110.5t67.5 -159.5l8 -13l-8 -8q-12 -29 -33.5 -54.5t-40.5 -47.5l-37 -37 l-4 -8h-8q-18 -6 -39 -6q-35 0 -63 14h-13l-8 4l-74 111q-2 4 -2 16q0 18 11 20q8 8 20 9q12 0 20 -9l33 -49q10 -12 15.5 -25.5t21.5 -23.5q10 -2 18.5 -5t18.5 -3q8 0 16 4l33 29q18 18 31.5 37.5t30.5 44.5q-16 68 -61.5 126t-110.5 87h-15q-51 0 -96 -20.5t-82 -54.5 t-64.5 -79t-46.5 -92q0 -4 4.5 -5t8.5 -11q0 -8 8 -9q121 -55 190.5 -138t79.5 -181q25 -18 37 -37q76 0 132.5 31.5t99.5 84t75.5 121t61.5 144.5q0 6 -4 7t-4 5v27q0 117 -48.5 204t-140.5 146q-68 41 -149.5 61.5t-167.5 20.5t-172 -20.5t-162 -61.5q-8 -33 -28.5 -77 t-67.5 -87t-128 -74.5t-206 -40.5h-8l-4 9q-86 29 -140.5 108.5t-54.5 175.5q0 6 1 12.5t1 14.5q29 82 96.5 130t145.5 48q29 0 65 -10h8q25 -10 25 -39v-10q0 -16 -11.5 -24.5t-27.5 -8.5h-10q-10 4 -22.5 4h-22.5q-57 0 -101.5 -28.5t-62.5 -77.5v-19q0 -66 36 -121 t91 -77q129 10 215 52t117 115q-4 4 -4 9q0 4 4 16q0 4 4 15.5t8 21.5v20q0 53 -20.5 109.5t-57.5 107t-86 90t-106 58.5q-49 18 -99 18q-84 0 -158.5 -55t-140.5 -160v-884z" />
<glyph unicode="s" horiz-adv-x="3819" d="M3570 735q72 -49 106 -114q33 -66 33 -123q0 -113 -100 -197q-49 -41 -116 -65.5t-136 -24.5q-49 0 -96.5 14.5t-88.5 44.5q-59 47 -78.5 86t-19.5 68q0 16 4 27.5t8 21.5q23 43 73 65.5t101 22.5q33 0 56 -8q80 -25 80 -109q0 -4 -1 -10t-1 -10l-31 4q0 4 1 9t1 9 q0 37 -19.5 54.5t-40.5 23.5q-10 4 -22 6t-25 2q-45 0 -86 -20t-57 -53q-10 -20 -10 -37q0 -57 86 -127q35 -29 78 -41t88 -12q66 0 126 22.5t105 61.5q25 20 57.5 63t32.5 109q0 53 -28 108q-4 4 -5 6q-33 41 -69 68q-41 29 -86 46t-92 28q-84 18 -170 18h-45 q-14 -2 -27.5 -2h-28.5q-29 -4 -59.5 -7t-61.5 -9q-35 -4 -67.5 -13.5t-65.5 -19.5l25 -39q14 -29 19 -54.5t5 -54.5q0 -18 -2 -36.5t-6 -36.5q-12 -49 -35 -103q-23 -43 -63 -90q-18 -20 -39.5 -37.5t-46.5 -31.5q-47 -31 -99.5 -50.5t-105.5 -31.5q-43 -8 -86 -12.5 t-86 -4.5q-10 0 -22.5 1t-22.5 1q-203 6 -399 78q-199 -74 -410 -84h-29q-47 0 -94 4t-94 13q-53 12 -106.5 31.5t-100.5 49.5q-45 27 -84 70q-18 23 -34.5 45.5t-28.5 44.5q-12 25 -20.5 50.5t-14.5 52.5l-4 20q-2 12 -3 24.5t-1 24.5q0 59 24 113q10 23 31 45 q-35 12 -69.5 21.5t-69.5 13.5q-31 6 -61.5 9t-61.5 7h-25.5t-27.5 2h-45q-88 0 -170 -18q-100 -18 -179 -74q-37 -27 -69 -68q0 -2 -4 -6q-29 -55 -29 -108q0 -66 33 -109t57 -63q45 -39 105.5 -61.5t126.5 -22.5q45 0 88 12t77 41q84 68 84 127q0 20 -8 37 q-16 33 -58 53.5t-87 20.5q-12 0 -24.5 -2.5t-22.5 -6.5q-20 -6 -39 -23.5t-19 -53.5q0 -4 1 -9.5t1 -9.5l-30 -4q0 6 -1 12t-1 11q0 82 80 106q23 8 55 8q51 0 100 -22.5t72 -65.5q14 -23 14 -51q0 -29 -20.5 -66.5t-77.5 -85.5q-41 -31 -88 -45t-96 -14q-70 0 -136.5 24.5 t-115.5 65.5q-100 84 -101 197q0 57 33 123q35 66 107 114q16 8 35.5 21.5t39 28t40 24.5t38.5 10q-41 14 -80 34t-73 48q-72 49 -107 115q-33 66 -33 123q0 113 101 196q49 41 115.5 66t136.5 25q49 0 96 -14.5t88 -45.5q57 -47 77.5 -85t20.5 -66q0 -31 -14 -52 q-23 -43 -72 -65.5t-100 -22.5q-33 0 -55 8q-80 25 -80 107q0 4 1 10t1 13l30 -5q0 -4 -1 -9t-1 -9q0 -37 18.5 -54.5t39.5 -23.5q10 -4 22.5 -6t24.5 -2q45 0 87 20.5t58 53.5q8 16 8 37q0 59 -84 127q-35 29 -77.5 41t-87.5 12q-66 0 -126.5 -22.5t-105.5 -61.5 q-25 -20 -57.5 -63.5t-32.5 -108.5q0 -53 29 -109q4 -4 4 -6q33 -41 69 -67q41 -29 86 -46.5t93 -27.5q82 -18 170 -19h45q14 2 27.5 2h25.5q31 4 61.5 7.5t61.5 9.5q35 4 67.5 13t65.5 20l-25 38q-27 53 -26 109q0 25 6 53l4 21q6 27 14 52.5t21 49.5q12 23 28.5 45.5 t34.5 44.5q37 41 84 72q47 29 100.5 48.5t106.5 31.5q45 10 90 13t92 3h35q207 -10 399 -80q199 74 410 84h35q47 0 92 -3t90 -13q53 -12 105.5 -31.5t99.5 -48.5t86 -72q41 -47 63 -90q23 -53 35 -102l4 -21q2 -16 3 -30.5t1 -28.5q0 -27 -5 -50.5t-19 -51.5 q-10 -23 -31 -45q35 -12 70 -20.5t69 -14.5q31 -6 62 -9.5t59 -7.5h27.5t28.5 -2h45q86 0 170 19q47 10 92 27.5t86 45.5q37 27 69 68q0 2 5 6q29 55 28 109q0 66 -32.5 108.5t-57.5 63.5q-45 39 -105.5 61.5t-125.5 22.5q-45 0 -88 -12.5t-78 -41.5q-86 -70 -86 -127 q0 -16 10 -36q16 -33 57 -53.5t86 -20.5q12 0 24.5 2t22.5 6q20 6 40 23.5t20 54.5q0 4 -1 9t-1 9l31 4q0 -4 1 -10t1 -10q0 -84 -80 -109q-23 -8 -56 -8q-51 0 -101 22.5t-73 65.5q-4 10 -8 21.5t-4 27.5q0 29 19.5 68t78.5 86q41 31 88.5 45t96.5 14q70 0 136 -24.5 t116 -65.5q100 -84 100 -196q0 -57 -33 -123q-35 -66 -106 -115q-10 -6 -32 -20.5t-46.5 -28.5t-46 -24.5t-29.5 -10.5q41 -14 80 -33.5t74 -48.5zM1909 381q33 16 64.5 33.5t66.5 34.5l174 102q88 53 178 103.5t188 95.5q45 20 91.5 36.5t93.5 32.5q-96 27 -185 68 q-98 45 -188 95t-178 103l-174 103q-35 18 -71 36.5t-71 35.5q-33 -16 -64.5 -34t-66.5 -34l-174 -102q-88 -53 -178 -103.5t-188 -95.5q-90 -41 -185 -68q47 -16 93.5 -32.5t91.5 -36.5q98 -45 188 -95.5t178 -103.5l174 -102q35 -18 71 -37t71 -35zM2318 1380 q-96 -12 -192 -37l-37 -10l22 -12q47 -25 92.5 -50.5t88.5 -53.5q90 -53 175 -105.5t173 -97.5q94 -49 196 -86q10 10 18.5 22.5t14.5 26.5q25 45 25 94q0 66 -43 137l-10 15q-57 74 -148 116q-43 20 -89 30.5t-93 14.5q-18 2 -37.5 3.5t-38.5 1.5q-29 0 -58.5 -2.5 t-58.5 -6.5zM938 973q4 -10 11 -21.5t16 -21.5q53 18 103 39.5t99 48.5q88 45 173 97t176 106q90 57 180 104l10 6l-12 4t-15 4q-92 25 -190 37q-29 4 -58.5 6t-58.5 2q-18 0 -37.5 -1t-38.5 -3q-47 -4 -93 -14t-89 -31q-90 -43 -147 -116l-11 -15q-43 -72 -43 -137 q0 -49 25 -94zM1489 260q98 12 190 37q10 4 18.5 6t18.5 4l-20 12q-90 47 -180 105q-90 53 -175.5 105.5t-173.5 97.5q-49 25 -97 47t-99 39q-10 -10 -18.5 -22.5t-14.5 -26.5q-25 -47 -25 -95q0 -68 43 -137l11 -14q57 -74 147 -117q43 -20 89 -30.5t93 -14.5q18 -2 38 -3 t38 -1q29 0 58.5 2t58.5 6zM2869 668q-4 12 -11 22t-17 21q-51 -18 -101.5 -40t-99.5 -48q-88 -45 -173 -97.5t-175 -105.5q-43 -29 -88 -54.5t-93 -50.5l-12 -6q8 -2 14.5 -4t12.5 -4q96 -25 192 -37q61 -6 125 -6h33.5t34.5 2q47 4 93 14.5t89 30.5q90 43 148 117l10 14 q43 70 43 137q0 48 -25 95z" />
<glyph unicode="t" horiz-adv-x="2918" d="M2855 2224q29 -57 29 -110q0 -102 -91 -177q-51 -45 -119.5 -72.5t-140.5 -27.5q-76 0 -131 35q4 8 8.5 13t8.5 13q51 -33 118 -32q66 0 129.5 25.5t108.5 66.5q23 18 52.5 59t29.5 99q0 49 -31 100q-29 37 -61 59q-35 25 -77 38.5t-83 17.5q-18 4 -36.5 4h-37.5 q-55 0 -102 -8q-45 -4 -89 -15.5t-85 -25.5q-88 -31 -171 -79t-161 -108q-80 -59 -156.5 -123.5t-156.5 -130.5q-41 -35 -82 -67.5t-82 -63.5q-80 -63 -170 -123q-94 -55 -189.5 -94t-193.5 -55q-76 -16 -145 -17q-12 0 -23.5 1t-24.5 1q-102 10 -184 56q-43 23 -78 61 q-16 18 -31.5 38t-25.5 42q-10 23 -18.5 45.5t-12.5 46.5q-2 4 -2 9.5t-2 9.5q-6 25 -6 47v26q0 -4 2 -6q6 41 23 78q20 39 57 73t83 59.5t100 42t112 22.5q10 0 18 1t19 1q96 0 166.5 -38t105.5 -116q-4 -4 -11 -7t-14 -7q-33 72 -97 106.5t-152 34.5q-10 0 -17.5 -1 t-17.5 -1q-53 -6 -103.5 -21.5t-93.5 -39t-76.5 -55t-52.5 -68.5q-23 -41 -22 -84q0 -59 39 -123q4 -4 4 -7t4 -7q51 -63 133 -97q63 -25 139 -24h25q84 0 176 28q41 10 84 26.5t86 35.5q41 20 82 41.5t82 48.5q78 51 157 115q41 31 79 62.5t79 64.5q80 66 162 131t168 125 q88 59 180 105t190 73q49 14 97.5 20t97.5 8q10 0 19.5 1t19.5 1q39 0 76 -5t73 -15q78 -20 138 -63q67 -46 96 -103zM2550 41q31 -55 30 -113q0 -98 -90 -176q-51 -43 -119.5 -70.5t-140.5 -27.5q-35 0 -69.5 8t-63.5 27l17 24q27 -16 57.5 -23t62.5 -7q66 0 129.5 24.5 t108.5 65.5q23 18 51.5 58t28.5 97q0 45 -27 99q0 4 -2 6q-27 35 -63 59q-35 25 -76 38t-84 17q-16 2 -33.5 3.5t-34.5 1.5q-27 0 -53.5 -2.5t-52.5 -6.5q-45 -6 -89 -17t-87 -26q-88 -31 -171 -79t-161 -107q-78 -57 -156 -122.5t-157 -131.5q-39 -33 -80 -65.5t-82 -65.5 t-84 -62.5t-88 -58.5q-92 -55 -187.5 -94t-193.5 -57q-35 -6 -71 -10.5t-70 -4.5h-26.5t-27.5 2q-47 4 -95 17.5t-89 38.5q-45 27 -76 59q-35 39 -57 80q-10 23 -18.5 46t-14.5 46q-2 6 -2 18q-6 25 -6 50v24q0 -4 2 -6q6 49 22 78q20 39 57.5 72.5t83.5 60.5t100 43t110 23 q10 0 18 1t19 1q98 0 168.5 -38t105.5 -116l-25 -14q-33 70 -98 104.5t-154 34.5q-10 0 -17 -1t-17 -1q-53 -4 -103.5 -19.5t-93.5 -39t-77 -55.5t-52 -68q-20 -39 -20 -86q0 -59 36 -123l11 -13q51 -68 133 -98q33 -10 66.5 -17.5t68.5 -7.5q8 0 14 1.5t15 1.5q43 0 86 7 t88 19q41 10 85 26.5t87 37.5q82 37 164 90q39 27 77.5 55.5t77.5 58.5q41 29 80 62t80 65q78 66 160 131.5t170 124.5t180 104.5t190 72.5q94 27 193 30h31q41 0 79.5 -4t77.5 -14q37 -10 73 -26.5t67 -39.5q31 -20 55.5 -45.5t38.5 -54.5zM674 14q-16 -4 -39 -12t-43 -8 q-16 0 -28.5 9t-12.5 38q84 4 129 12t92 17q-18 31 -26.5 77t-11.5 98t-4 106.5t-3 101.5q-2 25 -2 50v52q0 121 9 249t32 236q-49 -6 -89 -19t-89 -13h-15q-2 6 -2 16q0 14 7.5 21.5t18.5 9.5t23.5 2t24.5 4q78 18 156 46t153.5 54.5t149.5 46t143 19.5h23q59 -4 107 -39 t48 -113q0 -51 -26 -119q-18 -47 -46 -88t-62 -79.5t-72.5 -77.5t-75.5 -78h14q27 0 53.5 2t53.5 2q43 0 73.5 -14.5t32.5 -65.5q0 -35 -11 -78t-29.5 -86t-44 -82t-54.5 -65q-53 -49 -122 -86t-132 -62q-84 -35 -136.5 -50t-86 -21.5t-51 -7.5t-29.5 -5zM1288 1020 q0 76 -47 101.5t-115 25.5h-22q-20 0 -46 -9.5t-53.5 -20.5t-56 -22.5t-53.5 -17.5q10 -61 17.5 -130.5t13.5 -140.5t13 -138.5t15 -128.5q43 35 100.5 87t107.5 114.5t86 130t40 133.5v16zM954 506q12 -74 13 -164q0 -59 -9.5 -117.5t-31.5 -109.5q59 14 121.5 59 t113.5 103.5t84 119t33 107.5q0 29 -15.5 50t-50.5 28q-8 2 -22 2q-31 0 -63.5 -12.5t-65.5 -27t-61 -26.5t-46 -12zM1649 1454q23 -4 42 -13t48 -30q29 -23 65.5 -53.5t73.5 -64t70.5 -67.5t56.5 -61q39 74 68.5 136.5t56.5 120t52.5 112.5t58.5 115q-35 -6 -65 -13.5 t-52 -7.5q-31 0 -37 25q55 14 88 24.5t61.5 18.5t63.5 13t94 11q6 0 9 -2t7 -4v-18q0 -10 -1 -18.5t-5 -12.5q-18 10 -43 10q-27 0 -63 -10q-59 -123 -118.5 -241.5t-106.5 -254.5q-23 -66 -46.5 -114.5t-48.5 -118.5q-35 -96 -75.5 -187.5t-69.5 -187.5q68 37 134.5 59.5 t123.5 36.5q2 0 3 1t3 1q4 0 5 -2t5 -2v-22q0 -20 -4 -27q-8 2 -24 2q-33 0 -68 -15t-72 -32q-76 -31 -150.5 -63.5t-148.5 -85.5q-14 -10 -36.5 -30t-38.5 -20q-18 0 -19 37q49 29 111.5 67t130.5 75q27 98 64.5 193t66.5 196q-78 41 -147.5 105.5t-139.5 123.5 q-23 16 -45 40t-42.5 51.5t-33 56t-12.5 55.5v10q-47 -29 -87 -48t-69 -21q14 35 33 43t43 22q29 16 75 42t97 55.5t101.5 57t87.5 46.5q4 2 8 2q8 -6 8 -15q0 -16 -9 -27t-13 -28q-27 0 -57.5 -13.5t-67.5 -33.5z" />
<glyph unicode="u" horiz-adv-x="2945" d="M2845 2241q29 -57 28 -111q0 -102 -90 -176q-51 -45 -119.5 -73t-140.5 -28q-76 0 -131 35q4 8 8 13.5t8 13.5q51 -33 119 -33q66 0 129.5 25.5t108.5 66.5q23 18 52.5 59.5t29.5 98.5q0 49 -31 100q-29 37 -61 60q-35 25 -77 38t-83 17q-18 4 -36.5 4h-37.5 q-55 0 -102 -8q-45 -4 -89 -15.5t-85 -25.5q-88 -31 -171 -79t-161 -107q-80 -59 -157 -124t-157 -130q-41 -35 -81.5 -68t-81.5 -63q-80 -63 -170 -123q-94 -55 -189.5 -94t-193.5 -56q-76 -16 -146 -16q-12 0 -23.5 1t-23.5 1q-102 10 -184 55q-43 23 -78 62 q-16 18 -31.5 37.5t-25.5 41.5q-10 23 -18.5 45.5t-12.5 47.5q-2 4 -2 9t-2 9q-6 25 -6 47v27q0 -4 2 -6q6 41 22 77q20 39 57.5 73t83.5 59.5t100 42t112 22.5q10 0 18 1t18 1q96 0 167 -38t106 -115q-4 -4 -11.5 -7.5t-13.5 -7.5q-33 72 -97.5 106.5t-152.5 34.5 q-10 0 -17 -1t-17 -1q-53 -6 -103.5 -21t-93.5 -39t-77 -55.5t-52 -68.5q-23 -41 -23 -84q0 -59 39 -123q4 -4 4 -7t5 -7q51 -63 133 -96q63 -25 139 -25h24q84 0 177 29q41 10 84 26.5t86 34.5q41 20 81.5 42t81.5 48q78 51 158 115q41 31 79 62.5t79 64.5q80 66 162 131.5 t168 124.5q88 59 180 105.5t190 72.5q49 14 97.5 20.5t97.5 8.5q10 0 19 1t20 1q39 0 75.5 -5t73.5 -16q78 -20 137 -63q68 -45 97 -102zM2540 57q31 -55 30 -112q0 -98 -90 -176q-51 -43 -119.5 -71t-140.5 -28q-35 0 -69.5 8.5t-63.5 26.5l16 25q27 -16 57.5 -23.5 t63.5 -7.5q66 0 129.5 24.5t108.5 65.5q23 18 51.5 58t28.5 98q0 45 -27 98q0 4 -2 6q-27 35 -64 60q-35 25 -75.5 38t-83.5 17q-16 2 -34 3t-34 1q-27 0 -53.5 -2t-52.5 -6q-45 -6 -89.5 -17.5t-87.5 -25.5q-88 -31 -170.5 -79t-160.5 -108q-78 -57 -156 -122.5 t-158 -131.5q-39 -33 -79.5 -65.5t-81.5 -65.5t-84 -62.5t-88 -57.5q-92 -55 -187.5 -94.5t-193.5 -57.5q-35 -6 -71 -10t-71 -4h-26.5t-26.5 2q-47 4 -95 17t-89 38q-45 27 -76 59q-35 39 -57 80q-10 23 -18.5 46.5t-14.5 45.5q-2 6 -2 19q-6 25 -6 49v25q0 -4 2 -7 q6 49 22 78q20 39 57 73t83.5 60.5t100.5 43t109 22.5q10 0 18.5 1t18.5 1q98 0 169 -38t106 -116l-25 -14q-33 70 -98.5 104.5t-153.5 34.5q-10 0 -17 -1t-18 -1q-53 -4 -103 -19.5t-93 -39t-77 -55t-52 -68.5q-20 -39 -21 -86q0 -59 37 -123l10 -12q51 -68 134 -99 q33 -10 66.5 -17t68.5 -7q8 0 14 1t14 1q43 0 86 7t88 20q41 10 85 26.5t87 36.5q82 37 164 90q39 27 78 55.5t78 59.5q41 29 80 61.5t80 65.5q78 66 159.5 131t169.5 125q88 59 180.5 104t190.5 72q94 27 193 31h30q41 0 80 -4.5t78 -14.5q37 -10 73 -26.5t66 -38.5 q31 -20 56 -46t39 -55zM561 49q23 4 43.5 7t42.5 10q16 59 37 117.5t45.5 121t51 135t57.5 158.5q14 41 34.5 101.5t45 129t50 138t50 130t45 104.5t37.5 63q2 0 3 1t3 1q23 0 60.5 -71t79.5 -176.5t84 -226t75 -221.5q16 -53 34.5 -83.5t22.5 -65.5q14 8 39 21.5t43 13.5 q14 0 19 -13v-8q-29 -23 -46.5 -30t-27.5 -17q-45 -27 -67.5 -40t-39 -22.5t-35 -19.5t-55.5 -31q-16 -10 -33.5 -16t-29.5 -6t-15 6q10 20 40 39.5t42 26.5q25 14 46.5 26.5t43.5 26.5q-14 16 -23 39.5t-18.5 48.5t-19.5 47.5t-25 36.5q-23 -2 -70.5 -25.5t-101 -53.5 t-99.5 -58.5t-62 -38.5q-25 -68 -45.5 -121t-42.5 -121q25 10 53.5 19.5t60.5 19.5q12 6 19 6q10 0 10 -10q0 -18 -29 -37q-37 -23 -82 -38t-92 -27.5t-93 -21.5t-83 -17q-27 -6 -52.5 -13.5t-47.5 -7.5q-29 0 -56 19v8q0 18 21 18q10 0 20.5 -2t20.5 -2q8 0 12 2zM985 440 q35 12 84 38t96 50.5t83 43t44 18.5q-39 127 -77.5 232.5t-67.5 174.5q-41 -145 -79 -276t-83 -281zM1530 1178q4 37 4 91t1 108.5t8 97.5t26 57q10 0 16 -57l12 8q31 20 53.5 33.5t44 25.5t45 25.5t58.5 36.5q29 16 57.5 32.5t51.5 26.5q37 18 83 28.5t95 16.5t98 11t92 16 q-4 8 -4 22q0 23 14.5 36t34.5 13q4 -47 8.5 -106.5t4.5 -116.5q0 -70 -7.5 -120t-23.5 -52q-18 0 -25.5 45t-7.5 105q0 37 2 72.5t6 64.5q-35 -14 -72.5 -17.5t-71.5 -8.5t-62.5 -18.5t-47.5 -47.5q4 -53 5.5 -122t1.5 -141v-143v-67.5t2 -61.5t3 -83t1 -114q0 -72 -3 -134 t-14 -85q-35 -41 -73.5 -58t-71.5 -17q-49 0 -68 34q-4 104 -8 219t-4 234q0 129 7 256t30 244q-41 -12 -68.5 -26.5t-54.5 -32t-54.5 -37t-66.5 -41.5q4 -57 6 -120t4 -96q-35 -53 -57 -53q-10 1 -10 17z" />
<glyph unicode="v" horiz-adv-x="4624" d="M3664 2198q29 -57 29 -111q0 -102 -91 -176q-51 -45 -120.5 -73t-141.5 -28q-76 0 -131 35l19 27q51 -33 118 -33q66 0 129.5 25.5t108.5 66.5q23 18 51.5 57.5t28.5 98.5q0 47 -27 98q0 4 -4 4q-12 18 -27.5 32.5t-31.5 27.5q-74 49 -162 55q-16 4 -34.5 4h-37.5 q-27 0 -52.5 -2t-49.5 -6q-45 -4 -90 -15.5t-86 -25.5q-86 -31 -169 -79t-163 -107q-78 -59 -154.5 -124t-158.5 -130q-80 -72 -162 -131q-84 -68 -172 -123q-92 -55 -187.5 -94t-193.5 -56q-76 -16 -146 -16q-12 0 -23 1t-24 1q-100 8 -186 55q-41 23 -76 62q-35 35 -57 79 q-10 23 -18.5 45.5t-12.5 47.5q-4 8 -4 18q-6 25 -6 47v21q10 45 25 77q41 80 138 133.5t214 63.5q10 0 18 1t19 1q96 0 166.5 -38t105.5 -116q-16 -8 -25 -14q-33 72 -97 106.5t-152 34.5q-10 0 -17.5 -1t-17.5 -1q-53 -6 -104.5 -21t-94.5 -39t-75.5 -55.5t-51.5 -68.5 q-23 -41 -22 -84q0 -59 39 -123l8 -14q51 -63 133 -96q63 -25 139 -25h25q82 0 174 29q43 10 86 26.5t86 34.5q41 20 82 42t82 48q78 51 157 115q41 31 79 62.5t79 64.5q80 66 161 131.5t167 124.5q88 59 181 105.5t191 72.5q49 14 97.5 20.5t95.5 8.5q10 0 19.5 1t19.5 1 q39 0 75.5 -5t75.5 -16q35 -10 71 -25.5t67 -37.5q63 -43 96 -102zM3359 14q29 -61 28 -112q0 -100 -88 -176q-53 -43 -122.5 -71t-139.5 -28q-76 0 -131 35l16 25q27 -16 57 -23.5t62 -7.5q66 0 130.5 24.5t109.5 65.5q23 18 51.5 57t28.5 99q0 47 -27 98q0 2 -4 6 q-23 33 -61 60q-35 25 -76 38t-84 17q-16 2 -34.5 3t-35.5 1q-29 0 -54.5 -2t-51.5 -6q-43 -6 -88 -17.5t-88 -25.5q-86 -31 -169 -79t-161 -108q-78 -57 -156 -122.5t-157 -131.5q-39 -33 -80 -65.5t-82 -65.5t-84 -62.5t-90 -57.5q-92 -55 -186.5 -94.5t-192.5 -57.5 q-35 -6 -71 -10t-71 -4h-25t-28 2q-100 6 -186 55q-43 27 -76 59q-16 18 -30.5 39t-24.5 41q-10 23 -18.5 46.5t-14.5 45.5q-4 12 -4 19q-2 12 -3 24.5t-1 24.5v18q6 41 22 78q20 39 57.5 73t83.5 60.5t100 43t112 22.5q10 0 18 1t18 1q96 0 168 -38t107 -116l-25 -14 q-35 70 -99.5 104.5t-152.5 34.5q-10 0 -17 -1t-17 -1q-53 -4 -104.5 -19.5t-94.5 -39t-76 -55t-51 -68.5q-20 -39 -21 -86q0 -59 37 -123q2 -4 4.5 -6t6.5 -6q51 -66 131 -99q35 -10 68.5 -17t68.5 -7q8 0 14 1t15 1q41 0 84 7t88 20q43 10 87 26.5t87 36.5q82 37 164 90 q39 27 77.5 55.5t77.5 59.5q41 29 80 61.5t80 65.5q78 66 159 131t169 125q88 59 181 104t191 72q94 27 191 31h31q41 0 79.5 -4.5t79.5 -14.5q35 -10 72 -26.5t68 -38.5q63 -42 94 -101zM950 1055q-20 8 -35 8q-4 0 -6 -1t-4 -1q-49 -4 -104.5 -11.5t-110.5 -18.5 t-105 -26.5t-89 -37.5q2 -31 6 -75t9 -92t9 -92t8 -75q23 -23 45.5 -31t47.5 -8q47 0 95 15.5t101 15.5h19l10 110q16 4 18 8.5t6 4.5l17 -7q4 -6 4 -20q0 -16 -5 -34.5t-7 -47.5v-21v-10q2 -25 6 -55.5t4 -60.5q0 -23 -4 -45.5t-17 -40.5q-4 -2 -12 -3q-14 0 -14 17 q0 10 3 23.5t3 25.5q-4 57 -6 79.5t-6 37.5q-92 -12 -166 -28.5t-123 -59.5q0 -49 6 -114t6 -130q0 -49 -6 -94t-21.5 -81t-42 -60.5t-69.5 -30.5q-14 -6 -30.5 -8.5t-35.5 -2.5h-75q-16 -2 -33 -6t-33 -4q-31 0 -37 27q20 16 51 13t64 3q20 4 40.5 3t39.5 3 q-8 4 -19.5 21.5t-19.5 34.5q-14 47 -19.5 97t-6.5 104.5t-1 113.5t-2 125q0 35 -1 69.5t-1 71.5q0 66 2 131.5t10 120.5q2 25 5.5 50.5t13.5 48.5q-23 -4 -45.5 -6.5t-42.5 -2.5q-45 0 -74 15q8 27 42 25.5t67 2.5q18 2 37.5 5.5t35.5 5.5q6 4 10.5 4t12.5 4q31 14 49 14 q25 0 37 -18.5t37 -28.5q104 29 211.5 51.5t205.5 22.5q16 0 33 -1t33 -3q12 0 12 -9v-47.5t-2 -57.5t-4 -47.5t-8 -19.5q-18 0 -26.5 30t-8.5 63q0 31 6 49zM1309 133q-23 47 -30 134t-7 192q0 70 1 142.5t1 141.5q0 53 -1 101.5t-5 89.5q-4 23 -6 46.5t-2 45.5q0 35 10 70 q-6 -2 -17 -2q-29 -10 -61.5 -19.5t-61.5 -9.5q-27 0 -47 12v8q0 23 25 21t47 4q57 14 95 25.5t61.5 20.5t39 14.5t31.5 5.5q6 0 11 -5q14 -4 21 -19t12.5 -32.5t11.5 -36t18 -28.5q29 6 45.5 22.5t32.5 37t40.5 38.5t67.5 29q10 2 21.5 3t22.5 1q39 0 82.5 -10.5t80.5 -29 t61.5 -44t28.5 -55.5v-11q0 -31 -15 -65.5t-38.5 -69.5t-50.5 -63.5t-49 -46.5q2 -18 12 -28.5t23.5 -20t30 -20.5t30.5 -32q23 -35 33 -98.5t19.5 -126t22.5 -109.5t42 -47q20 0 47 27q16 16 26.5 30.5t20.5 34.5q2 4 4 7.5t4 7.5t2 8q2 4 2 14q0 8 -1 16.5t-1 18.5 q0 14 5.5 25.5t23.5 17.5q14 -20 14 -51q0 -43 -24.5 -88t-55.5 -72q-90 -78 -157 -78q-35 0 -64.5 17.5t-58.5 50.5q-27 31 -34 79t-10 103t-8 111.5t-26 101.5q0 12 -6 15.5t-16 3.5q-6 0 -14.5 -1t-14.5 -1q-20 0 -23 14q16 25 44 48.5t57.5 49t54.5 53t35 62.5 q6 14 6 35q0 31 -14.5 61.5t-37 55t-52 40t-62.5 15.5q-23 0 -41 -8q-27 -10 -42 -22.5t-27.5 -29t-23.5 -36t-30 -41.5q4 -39 4 -77v-77q0 -117 -5 -233.5t-5 -233.5q0 -92 6 -180q-4 -8 -7 -15.5t-9 -13.5l164 25q2 -14 4 -17.5t2 -7.5l-6 -18q-10 -8 -21.5 -9.5 t-25.5 -1.5h-23.5t-30.5 -2q-29 -12 -60.5 -19t-65 -11t-65.5 -8.5t-57 -12.5q-31 -10 -72.5 -21.5t-76.5 -11.5q-31 0 -45 11v10q0 16 11 19t28 3h16t17 2zM2458 360q-27 8 -57.5 48.5t-57.5 93.5t-46.5 114.5t-21.5 114.5v21q0 57 10.5 124.5t28 134t40 125t46.5 95.5 q27 43 66 87t81 81t84 62.5t76 29.5h9q20 0 46.5 -10.5t51.5 -25.5t45 -35.5t31 -41.5q25 -51 36 -127.5t11 -169.5q0 -94 -11.5 -193.5t-34 -187.5t-54 -156.5t-72.5 -101.5q-14 -10 -44 -25.5t-67 -29.5t-78 -23.5t-73 -9.5q-27 0 -45 6zM2619 502q33 -25 66 -25 q51 0 92 59.5t67.5 149.5t41 196.5t14.5 198.5q0 27 -1 51.5t-3 47.5q-4 55 -18.5 103t-36 85t-51 57.5t-64.5 20.5q-8 0 -14.5 -1t-14.5 -3q-29 -8 -49 -24.5t-47 -43.5q-55 -66 -73.5 -163t-35.5 -218q-4 -18 -4 -36.5v-36.5q0 -72 14.5 -138.5t36 -123t43 -97.5t37.5 -59 zM3541 590q-25 -8 -64.5 -18.5t-84 -21.5t-86 -20.5t-70.5 -17.5q-27 -6 -57.5 -17.5t-57.5 -11.5q-33 0 -41 25q14 10 39 18.5t51.5 14.5t51 10t40.5 8q-16 51 -20 107.5t-4 121.5q0 63 2 136t2 159v15q0 43 -2 91t-2 95q0 72 11 138.5t46 113.5q-66 -8 -126 -25.5 t-111 -21.5q0 20 2 29.5t6 12.5t12 3t21 4q66 20 128 31.5t130 21.5q29 -2 44 -23.5t25 -54.5q35 -86 72 -150.5t76 -125.5t75.5 -130t71.5 -163q14 33 33.5 75t39 86t38 87t33.5 78q14 39 31.5 86t37 93t39 90t39.5 79q14 27 35.5 43t47.5 23.5t55.5 10.5t60.5 3 q82 12 157 12h27l4 -4q6 -6 6 -12q0 -12 -16 -21q-41 -12 -91 -10t-108 -4q-16 -2 -30.5 -5t-28.5 -7q4 -4 10 -9.5t8 -11.5q16 -31 27.5 -101.5t17.5 -156.5t10.5 -173t4.5 -151q2 -111 4 -174t2 -100q0 -31 -4 -47t-15 -29q63 6 127 6h31.5t32.5 -2q16 0 16 -24 q0 -8 -2 -17.5t-6 -13.5q-16 10 -33.5 14.5t-36.5 4.5q-23 0 -45 -3.5t-49 -5.5q-35 -2 -67.5 -6t-67.5 -4t-84 -11t-78 -20q-12 -4 -29.5 -12t-33.5 -8q-14 0 -23.5 10t-9.5 39q45 4 99.5 13.5t113.5 19.5q-18 29 -22.5 74t-8.5 90q-8 49 -10 68.5t-2 43.5v70 q0 74 -3 147.5t-3 165.5q0 29 4 61.5t4 65.5q0 20 -2 31q-8 -16 -17.5 -33.5t-21.5 -46.5q-20 -49 -40.5 -97t-41.5 -100q-16 -37 -31.5 -77.5t-31 -77.5t-29.5 -67.5t-29 -49.5q-12 -16 -20 -30.5t-21 -14.5q-8 0 -18 8q-18 16 -27.5 30.5t-23.5 45.5q-16 41 -45 88t-62 94 q-31 49 -54.5 94.5t-45.5 92.5q0 -49 -2 -98.5t-2 -84.5q0 -16 -1 -31.5t-1 -29.5q0 -29 1 -52.5t2 -50t2 -58.5t1 -75v-77q0 -45 -3 -92.5t-16 -86.5q10 2 41 5.5t54 3.5q18 0 22 -2q4 -4 4 -13q0 -8 -4 -13t-6 -5z" />
<glyph unicode="w" horiz-adv-x="3031" d="M2894 2218q29 -57 28 -111q0 -102 -90 -176q-51 -45 -119.5 -72.5t-140.5 -27.5q-76 0 -131 35q4 8 8.5 13t8.5 13q51 -33 118 -32q66 0 129.5 25.5t108.5 66.5q23 18 52.5 59t29.5 98q0 49 -31 101q-29 37 -61 59q-35 25 -77 38t-83 17q-18 4 -36.5 4.5t-37.5 0.5 q-55 0 -102 -9q-45 -4 -89 -15t-85 -26q-88 -31 -171 -79t-161 -107q-80 -59 -156.5 -123.5t-156.5 -130.5q-41 -35 -82 -67.5t-82 -63.5q-80 -63 -170 -123q-94 -55 -189.5 -94t-193.5 -55q-76 -16 -146 -17q-12 0 -23 1t-24 1q-102 10 -184 56q-43 23 -78 61 q-16 18 -31.5 37.5t-25.5 42.5t-18.5 45.5t-12.5 46.5q-2 4 -2 9t-2 10q-6 25 -6 47v26q0 -4 2 -6q6 41 22 78q20 39 57.5 72.5t83.5 59.5t100 42t112 23q10 0 18 1t19 1q96 0 166.5 -38t105.5 -116q-4 -4 -11 -7t-14 -7q-33 72 -97 106.5t-152 34.5q-10 0 -17.5 -1 t-17.5 -1q-53 -6 -103.5 -21.5t-93.5 -39t-76.5 -55.5t-52.5 -68q-23 -41 -22 -84q0 -59 38 -123q4 -4 4.5 -7.5t4.5 -7.5q51 -63 133 -96q63 -25 139 -24h25q84 0 176 28q41 10 84 26.5t86 35.5q41 20 82 41.5t82 48.5q78 51 157 114q41 31 79 63t79 64q80 66 162 131.5 t168 124.5q88 59 180 105.5t190 73.5q49 14 97.5 20t97.5 8q10 0 19.5 1t19.5 1q39 0 75.5 -5t73.5 -15q78 -20 138 -64q67 -45 96 -102zM2589 35q31 -55 30 -113q0 -98 -90 -176q-51 -43 -119.5 -70.5t-140.5 -27.5q-35 0 -69.5 8t-63.5 27l16 24q27 -16 58 -23.5t63 -7.5 q66 0 129.5 25t108.5 66q23 18 51.5 58t28.5 97q0 45 -27 98q0 4 -2 7q-27 35 -63 59q-35 25 -76 38t-84 17q-16 2 -33.5 3t-34.5 1q-27 0 -53.5 -2t-52.5 -6q-45 -6 -89 -17t-87 -26q-88 -31 -171 -79t-161 -107q-78 -57 -156 -123t-158 -131q-39 -33 -79.5 -65.5 t-81.5 -65.5t-84 -62.5t-88 -58.5q-92 -55 -187.5 -94t-193.5 -58q-35 -6 -71 -10t-71 -4h-26t-27 2q-47 4 -95 17.5t-89 37.5q-45 27 -76 60q-35 39 -57 80q-10 23 -18.5 46t-14.5 46q-2 6 -2 18q-6 25 -6 49v25q0 -4 2 -6q6 49 22 78q20 39 57.5 72.5t83.5 60t100 43 t110 22.5q10 0 18 1t18 1q98 0 169 -37.5t106 -115.5l-25 -15q-33 70 -98.5 105t-153.5 35q-10 0 -17 -1t-17 -1q-53 -4 -103.5 -19.5t-93.5 -39t-77 -55.5t-52 -69q-20 -39 -21 -86q0 -59 37 -122l11 -13q51 -68 133 -98q33 -10 66.5 -17.5t68.5 -7.5q8 0 14 1t15 1 q43 0 86 7.5t88 19.5q41 10 85 26.5t87 37.5q82 37 163 90q39 27 78 55.5t78 58.5q41 29 80 62t80 65q78 66 160 131.5t170 124.5t180 104.5t190 71.5q94 27 193 31h31q41 0 79.5 -4t77.5 -14q37 -10 73 -26.5t66 -39.5q31 -20 56 -45.5t39 -54.5zM702 688q4 35 3.5 90.5 t1.5 109.5t9 94t25 44q10 -6 17 -68q8 4 10 7q31 8 54.5 13t45 12t45 16.5t58.5 27.5q27 14 56.5 31.5t51.5 32.5q37 20 83 39.5t95.5 43t97.5 52.5t91 65q-4 6 -4 21q0 23 15.5 44t37.5 36q4 -43 7 -100.5t3 -114.5q0 -70 -6 -124t-24 -67q-2 -2 -9 -2q-14 0 -20 39t-6 92 q0 37 2 74t6 68q-35 -37 -72 -58.5t-70.5 -41t-62.5 -43t-47 -62.5q4 -53 5 -121t1 -139v-144v-66.5t2 -60.5t4 -86t2 -120q0 -68 -4 -127.5t-14 -85.5q-35 -51 -75 -75t-75 -24q-47 0 -61 37q-4 106 -9 223t-5 238q0 129 7 253t30 234q-41 -10 -69 -20t-53.5 -21.5 t-53 -21.5t-66.5 -19q4 -59 4 -122.5t4 -96.5q-12 -16 -24.5 -22t-22.5 -6q-21 -1 -21 22zM1759 463q-27 0 -57.5 28.5t-57 71.5t-46 96.5t-21.5 104.5v27q0 57 10 128.5t27.5 144.5t40 138.5t47.5 112.5q27 53 65.5 109.5t81.5 105.5t84 83t76 40q6 2 19 2q20 0 44.5 -10.5 t47 -26.5t42 -36.5t29.5 -43.5q25 -57 37.5 -136t12.5 -171q0 -94 -12.5 -190.5t-35 -182.5t-54.5 -151.5t-73 -98.5q-16 -12 -54 -35.5t-84 -47t-92 -42t-77 -20.5zM1923 649q27 -14 53 -14q55 0 98.5 60.5t72 151.5t43 198.5t14.5 203.5q0 25 -1 47.5t-3 44.5 q-4 53 -17.5 101.5t-35 85.5t-49 59.5t-60.5 22.5q-20 0 -39 -8q-29 -12 -50.5 -32t-45.5 -52q-55 -78 -74 -181.5t-33 -228.5q-6 -41 -6 -78q0 -70 14.5 -132t36 -112.5t44 -85.5t38.5 -51z" />
<glyph unicode="x" horiz-adv-x="3133" d="M1210 147q-25 -33 -56.5 -64.5t-65 -56t-69.5 -40t-71 -15.5q-33 0 -59 15q-14 10 -27.5 30.5t-30.5 40.5q-47 53 -84.5 151.5t-37.5 215.5q2 53 16 110.5t36.5 114t50.5 109.5t58 96q29 39 65 75t44 50q33 27 63.5 53.5t61.5 47t63.5 32.5t71.5 14h10q84 0 115 -72.5 t31 -179.5q0 -88 -13 -180q-10 -68 -24.5 -140.5t-34.5 -144t-48 -139.5t-65 -123zM1012 823q-8 -23 -19.5 -58.5t-17.5 -64.5q-10 -39 -12 -65.5t-2 -54.5q-2 -12 -4.5 -44t-2.5 -55v-12q6 -55 15.5 -110.5t21.5 -96.5q14 -47 52 -79.5t67 -32.5q39 0 71.5 41.5t60.5 100 t47.5 123t31.5 111.5q16 68 27.5 159t11.5 173q0 47 -5 87t-16 65q-14 33 -52 55t-83 22q-37 0 -69.5 -19t-55.5 -64q-18 -41 -35.5 -85.5t-31.5 -95.5zM2193 1196q2 -23 2 -44.5v-43.5q4 -20 7.5 -38.5t3.5 -37.5q0 -27 -8.5 -50.5t-18.5 -31.5q-16 8 -18 37t-2 41v16 q-29 -4 -54.5 -5t-52.5 -13q-41 -18 -82 -48t-78 -58q-4 -145 -9 -265t-19 -174q14 4 26.5 9.5t24.5 9.5q2 -12 4 -14.5t2 -6.5q0 -2 -6 -20q-16 -8 -45 -20.5t-58.5 -26t-57.5 -27.5t-44 -25q-39 -29 -81 -59.5t-77 -30.5q-4 0 -6 1t-6 1v9q0 25 25.5 31.5t48.5 21.5 q47 35 73.5 53.5t47.5 30.5q-10 8 -23.5 19.5t-30.5 25.5v43q0 53 -3 123.5t-7 144.5t-7 140.5t-3 111.5v27q4 76 10 158.5t45 164.5q-51 -29 -101 -55.5t-91 -40.5q-8 0 -8 4t9 13.5t25 27.5q14 16 83 51t147 82q27 20 47 31.5t55 32.5q29 18 57.5 28.5t57.5 24.5 q4 6 34.5 13t71.5 14.5t83 11.5t69 4t31 -6q14 -4 14 -21q0 -4 -1 -6t-1 -6q-8 -6 -10 -20.5t-2 -30.5q0 -18 1 -38t1 -34q0 -25 -9 -24q-4 0 -6 2q-16 8 -23 35.5t-7 58.5v12q-18 4 -25.5 19.5t-24.5 15.5q-104 0 -176.5 -29.5t-134.5 -95.5q4 -57 7 -184t3 -305 q47 33 98.5 64.5t100.5 49.5q16 8 30.5 16.5t30.5 14.5q6 37 7 76zM2980 2185q29 -57 29 -108q0 -100 -91 -179q-51 -45 -120.5 -72.5t-141.5 -27.5q-76 0 -131 35l19 27q51 -33 118 -33q66 0 129.5 25.5t108.5 66.5q35 29 59.5 75t24.5 93q0 51 -33 90q-29 37 -61 59 q-74 49 -162 56q-37 6 -76 6q-25 0 -50.5 -2t-49.5 -6q-43 -6 -87 -17.5t-87 -25.5q-86 -31 -169 -79t-161 -108q-80 -59 -158 -123.5t-155 -130.5q-41 -35 -82 -67.5t-82 -63.5q-41 -33 -84 -63.5t-88 -59.5q-92 -55 -187.5 -94t-193.5 -55q-76 -16 -146 -17q-12 0 -23 1.5 t-24 1.5q-102 10 -186 57q-23 10 -41 25.5t-37 33.5q-35 37 -55 80q-23 43 -31 92q-4 8 -4 19q-6 25 -6 47v20q4 23 10 42.5t14 35.5q41 80 138.5 133.5t214.5 63.5q10 0 18 1t19 1q96 0 166.5 -38t105.5 -114q-4 -4 -11 -8l-14 -8q-33 72 -97 106.5t-152 34.5 q-10 0 -17.5 -1t-17.5 -1q-106 -10 -198.5 -60t-129.5 -124q-20 -39 -20 -82q0 -61 38 -125l9 -14q51 -63 133 -97q68 -25 147 -24h17q82 0 174 28q88 25 170 62q43 20 84 41.5t82 48.5q78 51 157 115l158 127q80 66 161 131t169 125q86 59 179 105t191 75q94 23 193 27 q10 0 19.5 1t19.5 1q76 0 149 -19q37 -10 73 -26.5t67 -38.5q63 -44 96 -103zM2675 2q29 -51 28 -111q0 -100 -88 -178q-53 -43 -121.5 -70.5t-140.5 -27.5q-35 0 -69.5 8t-63.5 27q6 6 10 12l8 12q27 -16 58 -23t63 -7q66 0 129.5 24.5t108.5 65.5q23 18 51.5 57t28.5 98 q0 47 -27 99q0 2 -4 6q-23 33 -61 59q-35 25 -76 38t-86 18q-16 2 -34.5 3t-37.5 1q-53 0 -102 -7q-43 -8 -88 -19t-88 -26q-86 -31 -169 -79t-161 -107q-78 -57 -157 -122.5t-156 -131.5q-39 -33 -80 -65.5t-82 -65.5q-41 -31 -84 -61.5t-90 -59.5q-92 -55 -186.5 -94 t-192.5 -57q-35 -6 -71 -10.5t-71 -4.5h-25t-28 2q-102 6 -186 58q-41 20 -76 57q-16 18 -30.5 38.5t-24.5 41.5q-12 23 -19.5 46.5t-13.5 45.5q-2 6 -2 19q-6 25 -6 49v18q6 43 24 78q41 80 138.5 134t212.5 65q10 0 18 1t18 1q96 0 167 -38t108 -114q-16 -12 -25 -16 q-33 70 -98.5 104.5t-153.5 34.5q-10 0 -17 -1t-17 -1q-106 -10 -197.5 -59.5t-130.5 -122.5q-18 -41 -19 -84q0 -61 37 -125q2 -4 4 -6l7 -7q51 -68 133 -98q35 -12 70.5 -17t72.5 -5h21q43 0 85 7t87 19q43 12 87 27.5t85 36.5q84 37 163 90q78 51 158 115q41 31 80 62.5 t80 64.5q78 66 158.5 131t169.5 125q88 59 181 105t191 73q100 27 191 28h30q41 0 80 -4t78 -14t75 -26.5t66 -39.5q64 -41 95 -100z" />
<glyph unicode="y" horiz-adv-x="3315" d="M623 63q-68 -6 -124.5 -17t-109.5 -22.5t-108.5 -18.5t-118.5 -7h-34.5t-37.5 2q0 12 -2 18.5t-2 10.5q0 6 4 10q12 10 27 10q10 0 22.5 -3t28.5 -5t19 -3t8 -1q4 0 11 1t27 5q12 2 24.5 2t25.5 4q8 72 28.5 156t45 170t49 168t43.5 151q16 59 40.5 130t49.5 137 q10 27 21 59.5t25.5 61t32 47t39.5 18.5q37 0 78 -64q49 -74 81 -149.5t56.5 -155.5t45 -166t45.5 -180q16 -61 32.5 -117.5t34.5 -103.5q0 -2 4 -10q29 10 55.5 21t55.5 24q4 0 8 -1t8 -1q-2 -18 -6 -33q-4 -12 -7 -22.5t-9 -10.5q-6 2 -11.5 3t-13.5 1q-23 0 -50.5 -8 t-55.5 -18q-41 -23 -103.5 -43.5t-111.5 -20.5q-10 0 -17.5 1t-15.5 3q14 29 47 32t57 9q25 6 54.5 17.5t62.5 23.5q-25 37 -43 83t-32.5 91t-25 85t-22.5 69q-57 -23 -121.5 -44.5t-105.5 -21.5q-20 0 -33 6q-16 -41 -27.5 -92t-22.5 -103t-23.5 -99.5t-26.5 -77.5 q33 4 65.5 9t67.5 15q0 -6 2 -11t2 -9q0 -7 -12 -15zM852 545q-20 66 -36.5 144.5t-43.5 152.5q-10 33 -23.5 62.5t-39.5 43.5q-12 -49 -26.5 -107.5t-28 -121t-25 -122.5t-19.5 -112q14 -10 43 -10q39 0 86 17.5t92 29.5q4 2 12.5 9.5t8.5 13.5zM1511 311 q-37 -12 -77.5 -30.5t-81.5 -35t-78 -27.5t-64 -11q-12 0 -18 2q14 29 32.5 34t43.5 13l78 29q-4 35 -6.5 84t-2.5 104v184v94.5t-4 92.5q-2 35 -3 69.5t-1 69.5q0 98 8.5 180t24.5 111q-8 -2 -13.5 -4t-9.5 -2q-25 -10 -38 -15.5t-25 -10.5t-28.5 -10t-49.5 -13q0 4 -1 7 t-1 7q0 31 27 45q53 4 96 22.5t82 18.5q20 0 38.5 -7t39.5 -28q31 -29 55.5 -64.5t48 -74.5l47 -78t51.5 -72q84 -100 170 -218t185 -212q2 47 2 97.5v107.5q0 94 -1 193.5t-2 192.5t-2 173t-1 133q-4 4 -5.5 10.5t-3.5 6.5q-66 -33 -105.5 -41t-68.5 -8h-20q14 31 46 41 t56 18q57 23 134 46.5t149 47.5q4 4 10 4q4 0 8 -6q0 -23 -9 -36t-17 -27q-6 2 -21 2q-10 0 -21.5 -1t-21.5 -3q-4 -2 -15 -6.5t-23.5 -9.5t-22.5 -8t-13 -3q4 -66 7.5 -163t5.5 -200.5t3 -200t1 -157.5q0 -80 -3 -135t-9 -119q-4 -16 -7.5 -28.5t-13.5 -12.5q-8 0 -16 6 q-63 72 -124 141.5t-120 144.5t-120.5 157t-129.5 180q-10 -4 -10 -68q0 -41 2 -97t5 -120.5t6 -132.5t3 -131q0 -59 -3 -109.5t-11 -85.5q63 27 83.5 32t24.5 5q6 -6 7 -10q0 -16 -10.5 -28.5t-16.5 -24.5q-6 2 -18 2q-18 0 -42 -6.5t-51 -16.5zM2388 561q-18 -4 -45 -19.5 t-49 -15.5q-27 0 -27 35q49 14 83 23.5t60.5 16.5t54 13.5t64.5 12.5q-18 23 -27.5 59.5t-12.5 78.5t-3 87t-2 84q-4 78 -8 167t-4 177q0 100 8 186t31 136q-53 -16 -103.5 -37t-95.5 -27v10q0 16 10.5 25.5t25.5 15.5t31.5 9.5t28.5 7.5q27 10 56.5 22t60.5 23.5t60.5 19.5 t54.5 8q16 -4 22.5 -12t9.5 -20.5t5 -28.5t12 -39q33 12 65.5 34.5t65.5 46t67.5 40t69.5 16.5h9q49 -4 85.5 -48t60 -113.5t36 -155.5t12.5 -174q0 -117 -18 -215q-16 -80 -46 -131.5t-79 -98.5q-53 -55 -125 -77.5t-156 -22.5h-35l-18 -27q-2 -33 -16.5 -40t-36.5 -9 q-72 -6 -124 -17.5t-118 -25.5zM2935 1681q-35 0 -76 -32.5t-77 -79.5t-61.5 -99.5t-27.5 -91.5q-4 -27 -7 -58.5t-3 -59.5v-15q2 -25 3 -51.5t1 -54.5q0 -55 -2 -113.5t-2 -114.5q0 -55 4 -104t14 -84q8 -2 16.5 -2h16.5q55 0 110.5 20.5t102.5 55t81 78t46 90.5 q14 53 21.5 120.5t7.5 139.5q0 82 -10.5 163.5t-31 146t-52 105.5t-74.5 41zM3049 45q29 -61 29 -113q0 -100 -88 -176q-51 -43 -120.5 -71.5t-139.5 -28.5q-76 0 -133 37q4 4 8 11t8 11q27 -16 55.5 -23t61.5 -7q66 0 130.5 25.5t111.5 64.5q20 18 50 59t30 100 q0 23 -5.5 45.5t-19.5 49.5l-6 8q-27 35 -62 59q-35 23 -75.5 36t-83.5 20q-16 2 -35 3t-35 1q-27 0 -52.5 -2t-54.5 -7q-43 -6 -87 -17t-89 -28q-86 -29 -167.5 -77t-159.5 -107q-80 -57 -158 -122.5t-158 -131.5l-159 -133q-86 -63 -177 -121q-92 -53 -185 -92t-191 -59 q-72 -12 -136 -13h-30.5t-30.5 2q-100 6 -186 56q-43 27 -76 59q-16 18 -29.5 38.5t-28.5 41.5q-18 43 -30 90q-2 8 -2 21q-4 12 -4 23v24q-2 6 -2 13v13q2 -2 2 -6q2 41 20 76q20 41 57 74.5t83 60.5t101.5 43t112.5 23q10 0 18.5 1t18.5 1q96 0 167 -38t106 -116 q-16 -12 -25 -14q-35 70 -99.5 104.5t-152.5 34.5q-10 0 -17 -1t-18 -1q-53 -4 -103 -19.5t-94 -39t-77 -55t-51 -68.5q-20 -41 -21 -86q0 -61 37 -125q2 -2 5 -4t5 -7q53 -70 131 -100q66 -23 144 -22h20q43 2 87 9t87 17q92 25 174 64q80 39 164 90q41 27 79 56.5t79 58.5 q39 31 78 62.5t80 66.5q78 66 159.5 130t169.5 123q86 59 179.5 105.5t191.5 73.5q98 29 193 30h30q41 0 80 -4t78 -14q37 -12 73 -28.5t64 -39.5q33 -18 56.5 -43.5t39.5 -54.5zM2773 2228q29 -57 29 -110q0 -47 -21.5 -93.5t-66.5 -82.5q-51 -45 -121 -73t-139 -28 q-35 0 -70 8.5t-64 26.5l17 25q51 -33 117 -33t130 26.5t111 65.5q20 18 50 59t30 101q0 23 -5 45t-20 49q-4 6 -6 6q-27 35 -61 59q-35 25 -76 38.5t-84 17.5q-18 4 -36.5 4h-37.5q-55 0 -102 -8q-43 -4 -87 -15.5t-89 -27.5q-86 -31 -168 -78t-160 -107 q-80 -59 -157.5 -123.5t-157.5 -130.5q-39 -35 -79 -67.5t-81 -65.5t-85 -63.5t-91 -59.5q-92 -53 -185.5 -92t-191.5 -57q-35 -8 -69.5 -11t-69.5 -3h-28.5t-29.5 2q-47 4 -95 17t-91 38q-45 27 -76 61q-16 18 -29.5 38t-27.5 42q-18 41 -31 90q-2 6 -2 21q-4 12 -4 23.5 v21.5q-2 10 -2 28q2 -2 2 -8q2 43 21 78q20 41 57 75t83 59.5t101.5 42t112.5 22.5q10 0 18.5 1t18.5 1q96 0 166.5 -38t105.5 -116l-24 -14q-35 72 -99.5 106.5t-152.5 34.5q-10 0 -17.5 -1t-17.5 -1q-53 -6 -103.5 -21.5t-94.5 -39t-76.5 -55t-51.5 -68.5q-20 -39 -20 -86 q0 -59 37 -123q2 -4 5 -6t5 -6q29 -33 60.5 -57.5t70.5 -41.5q70 -25 147 -24h17q84 2 174 28q86 25 174 62q41 23 82 44t82 46q41 27 79 56.5t78 58.5l158 129q78 66 160 130t170 124q86 59 179 106t192 74q49 14 97 20t95 9q10 0 19.5 1t19.5 1q39 0 76 -5.5t74 -15.5 t72.5 -26.5t64.5 -38.5q61 -40 96 -101z" />
<glyph unicode="z" horiz-adv-x="3006" d="M174 854q-4 35 -8 60.5t-4 66.5v27q0 4 -1 5t-1 3q0 8 8 10h14q86 0 179.5 16.5t188.5 39t194.5 49t197.5 47.5q23 0 29 -17.5t10 -34.5q0 -23 1 -40t1 -33q0 -27 -4 -50.5t-16 -52.5q-23 2 -32 18.5t-12.5 39t-4.5 49t-3 51.5q-10 2 -19 2h-20q-20 0 -30 -4 q-57 -18 -107.5 -33.5t-79.5 -58.5q10 -104 16.5 -242.5t6.5 -279.5q0 -86 -2 -168t-6 -154q0 2 0 -7t-2 -27.5t-4 -42t-5 -46.5q-27 -20 -57.5 -29.5t-56.5 -9.5q-47 0 -58 23q-4 6 -4 32q0 16 1 36t1 32v10q-4 35 -5 76t-1 86v89t-2 91q-4 63 -11 141t-7 160q0 59 5 114.5 t21 105.5q-6 2 -22 2q-45 0 -96.5 -15.5t-98.5 -15.5q-25 0 -45 6q0 -23 2 -46.5t2 -49.5q0 -29 -3 -56.5t-11 -50.5q-14 0 -21.5 8.5t-10.5 19.5t-4 24.5t-3 23.5zM1307 242q-43 -20 -65.5 -29.5t-39 -16t-35 -13.5l-55.5 -21q-16 -6 -36.5 -14.5t-33.5 -8.5q-8 0 -8 8 q-2 2 -2 9q0 12 12.5 20t27.5 14.5t31.5 10.5t24.5 8q41 16 72 31.5t68 29.5q-33 23 -51.5 74t-27.5 118.5t-12 145.5t-3 156v172q0 29 1 61.5t3 63.5t5 56.5t9 39.5q4 16 14.5 38t22.5 42q-4 -4 -11.5 -5t-11.5 -3q-31 -12 -75 -32.5t-72 -20.5q-14 0 -21 10 q8 12 26.5 22.5t39 18.5t40 15t32.5 11q41 16 65.5 29.5t56.5 20.5l19 6q4 0 6 1t6 1q20 0 32.5 -16.5t18.5 -42t8.5 -60.5t2.5 -72v-55q0 -41 1 -78t9 -61q29 8 73 31.5t94 50t101 52t96 40.5q6 35 7.5 84t3.5 101t7 101.5t21 81.5q-31 -12 -66.5 -27.5t-58.5 -15.5 q-12 0 -18 9q10 12 28.5 23t39 20.5t40 16.5t31.5 11q25 10 64 26.5t80 32t79.5 27t65.5 11.5q8 -4 8 -13q0 -8 2 -10q-14 -14 -60 -29.5t-97 -33.5q8 -16 15 -45t11 -63t6 -66.5t2 -53.5v-305q0 -123 -10 -238.5t-72 -220.5q57 23 119 42.5t141 35.5q2 -16 5.5 -18t3.5 -6 q0 -2 -9 -19q-18 -14 -40.5 -14t-59.5 -17q-59 -25 -127.5 -43t-120.5 -43q-35 -16 -66.5 -31.5t-60.5 -15.5q-16 0 -28 6v9q0 12 7 18t17.5 9t22.5 5t24 9q25 10 48.5 19t46.5 22q-6 8 -13.5 29.5t-14.5 46t-12 48t-5 35.5v183q0 59 -3.5 115.5t-13.5 107.5 q-31 -4 -75 -26.5t-93 -51.5t-98 -53.5t-88 -30.5q-2 -29 -2 -66.5v-83.5v-127q0 -84 -1 -164.5t-7 -140.5q0 -18 -13 -26q-27 -27 -43 -32t-28 -13zM2771 1579q-16 43 -35.5 71.5t-50.5 32.5q-4 0 -6 1.5t-6 1.5q-37 0 -65 -30t-47 -76t-29.5 -102.5t-10.5 -109.5 q0 -84 25 -133q8 -18 34 -18q29 0 67 14t67 14q31 0 41 -24q-25 -25 -60 -31t-69.5 -11t-65.5 -16.5t-47 -44.5q-49 -98 -49 -205q0 -55 15 -103t46 -83q12 -14 30.5 -19.5t39.5 -5.5q41 0 86 19.5t69 46.5q35 39 43.5 89t8.5 97v60q23 -4 32 -26.5t9 -53.5q0 -35 -7.5 -69 t-13.5 -54q-14 -51 -50 -92t-95 -57q-53 -16 -110.5 -26.5t-110.5 -10.5q-43 0 -79 8t-59 29q-37 35 -54 83t-17 101q0 90 44 177t124 140q-59 10 -85 58.5t-26 113.5q0 47 12.5 97.5t34 96.5t51 83t66.5 57q53 29 100 43t101 19h12q55 0 86 -41q-6 31 -6 65q0 29 6 57 q8 8 24 9q10 0 19.5 -4.5t17.5 -8.5q-10 -29 -13 -55.5t-3 -52.5q0 -41 4 -79t4 -77q0 -6 1 -17t1 -26q0 -14 -2 -27.5t-8 -23.5q-6 -6 -12 -6q-10 0 -14.5 15.5t-6.5 37t-3 44t-5 38.5zM2884 14q31 -55 30 -108q0 -96 -92 -178q-51 -43 -119.5 -71t-140.5 -28 q-35 0 -69.5 8.5t-63.5 26.5q12 16 16 25q27 -16 56.5 -23.5t62.5 -7.5q66 0 130.5 25.5t111.5 66.5q23 18 51.5 57t28.5 99q0 47 -27 98q-2 0 -2 2t-1 2t-1 2q-12 16 -27.5 30.5t-31.5 27.5q-37 25 -79 38t-83 17q-41 6 -76 6q-25 0 -49.5 -2t-50.5 -6q-45 -8 -89.5 -18.5 t-87.5 -26.5q-86 -29 -167.5 -77t-161.5 -108q-78 -59 -156 -123.5t-158 -129.5q-78 -70 -161 -132q-41 -35 -85 -63.5t-89 -56.5q-92 -57 -186.5 -96.5t-192.5 -57.5q-35 -6 -72 -10t-72 -4h-26.5t-24.5 2q-47 4 -95 17t-89 38q-43 25 -78 59q-16 20 -30.5 40t-24.5 42 q-10 23 -19.5 45.5t-13.5 44.5q0 12 -2 19q-6 25 -6 47q0 8 -1 14t-1 15q6 -6 4 -7q2 43 22 78q20 39 56 73t83.5 59.5t101.5 42t112 20.5q12 2 23 2h22q92 0 160.5 -39t103.5 -113q-8 -4 -13.5 -8t-13.5 -8q-31 72 -94.5 106.5t-149.5 34.5h-20t-21 -2q-106 -10 -198 -59 t-129 -121q-20 -39 -21 -84q0 -57 39 -125q2 -6 8 -12q29 -35 63 -59.5t71 -38.5q68 -27 149 -27h16q86 2 172 29q43 10 86 26.5t86 36.5q84 37 164 90q41 27 80 55.5t80 59.5q39 29 78 61.5t78 65.5q78 66 160.5 131t170.5 125q88 57 180.5 104t190.5 72q49 14 96.5 20.5 t98.5 10.5h22q86 0 164 -19q72 -16 139 -65q62 -40 95 -103zM2607 2226q31 -55 31 -108q0 -96 -92 -179q-51 -43 -120 -70.5t-140 -27.5q-35 0 -70 8.5t-64 26.5q12 16 17 25q27 -16 56.5 -23.5t62.5 -7.5q66 0 130 25.5t111 66.5q23 18 51.5 57t28.5 99q0 47 -26 98 q-2 0 -3 2q0 2 -1 2t-1 2q-12 16 -27.5 30.5t-31.5 26.5q-37 25 -79 38.5t-83 17.5q-41 6 -76 6q-25 0 -49 -2t-51 -6q-45 -8 -89 -18.5t-87 -26.5q-86 -29 -168 -77t-162 -108q-78 -59 -155.5 -123.5t-157.5 -130.5q-78 -70 -162 -131q-41 -35 -85 -63.5t-89 -57.5 q-92 -57 -186.5 -96t-192.5 -57q-35 -6 -71.5 -10t-71.5 -4h-26.5t-24.5 2q-47 4 -95.5 17t-89.5 38q-43 25 -78 59q-16 20 -30.5 40t-24.5 42q-10 23 -19.5 45.5t-13.5 44.5q0 12 -2 19q-6 25 -6 47q0 8 -1 14t-1 14q6 -6 4 -6q2 43 23 78q20 39 56 73t83 59.5t101.5 42 t111.5 20.5q12 2 23.5 2h21.5q92 0 160.5 -39t103.5 -113q-8 -4 -13 -8t-13 -8q-31 72 -94.5 106.5t-149.5 34.5h-20.5t-20.5 -2q-106 -10 -198.5 -59t-129.5 -121q-20 -39 -20 -84q0 -57 39 -125q2 -6 8 -12q29 -35 62.5 -59.5t70.5 -39.5q68 -27 150 -26h16q86 2 172 28 q43 10 86 26.5t86 37.5q84 37 164 90q41 27 80 55.5t80 59.5q39 29 77.5 61.5t77.5 65.5q78 66 161 131t171 125q88 57 180 104t191 72q49 14 96 20t98 11h23q86 0 164 -19q72 -16 139 -65q61 -40 94 -103z" />
<glyph unicode="{" horiz-adv-x="1916" d="M854 1483q16 16 34.5 24.5t35.5 14.5q33 8 67 12q18 0 35.5 -1t34.5 -7q18 -4 35.5 -13.5t33.5 -29.5q-18 -8 -34.5 -15.5t-32.5 -13.5q-18 -4 -35.5 -8t-34.5 -4h-16q-29 0 -53 6q-16 4 -35 12.5t-35 22.5zM709 1206q35 23 69.5 34t69.5 22q68 14 139 18h35q51 0 104 -6 q35 -4 70 -12.5t70 -24.5q-35 -14 -70 -22.5t-70 -14.5q-68 -8 -139 -12q-14 0 -28.5 -1t-28.5 -1q-20 0 -41 1t-41 3q-35 2 -69.5 5t-69.5 11zM477 991q59 16 119.5 22.5t120.5 10.5l119 4l239 -6q29 -2 59.5 -3t59.5 -5q59 -4 119.5 -8.5t120.5 -14.5q-59 -20 -120 -31.5 t-120 -17.5q-29 -4 -59.5 -4t-59.5 -4h-121l-118 6q-31 4 -61 6t-60 6q-59 6 -119 15.5t-119 23.5zM477 131q59 16 119.5 22.5t120.5 10.5l119 4l239 -6q29 -2 59.5 -3t59.5 -5q59 -4 119.5 -8.5t120.5 -14.5q-59 -20 -120 -31.5t-120 -17.5q-29 -4 -59.5 -4t-59.5 -4h-121 l-118 6q-31 4 -61 6t-60 6q-59 6 -119 15.5t-119 23.5zM360 684q80 16 160 25.5t160 17.5l160 10l159 4l162 -4q41 -2 80 -4t80 -6t80 -9t80 -13q39 -6 80 -19q20 -6 39.5 -13t39.5 -20q-20 4 -39.5 5t-39.5 4h-40t-40 -3l-322 -8l-319 -2q-41 2 -80 2t-80 4q-80 4 -160 9.5 t-160 19.5zM61 373q111 41 223.5 52t225.5 11l448 -8l238 4l211 -2q57 -4 113.5 -7t111.5 -13q57 -10 113.5 -26.5t109.5 -51.5q-55 23 -111 29t-112 10h-41q-92 0 -184 -6l-223 -15q-29 -4 -56.5 -5t-56.5 -3l-145 -4q-104 0 -208 6t-208 16q-78 8 -154.5 13.5t-154.5 5.5 q-70 0 -140 -6z" />
<glyph unicode="|" horiz-adv-x="210" d="M131 -182h-39q0 115 -1 228.5t-1 223.5q-6 223 -6 453l4 563q0 41 -1 75t-5 69q-2 33 -3 66.5t-1 72.5q0 63 6 153l39 -6q-6 -80 -6 -141q0 -76 6 -143q2 -33 3 -69t1 -77l-4 -563q0 -229 6 -451q2 -113 2 -226v-228z" />
<glyph unicode="}" horiz-adv-x="1916" d="M1063 119q-16 -16 -34.5 -24.5t-35.5 -14.5q-35 -10 -67 -12q-18 0 -36 1t-34 7q-18 4 -35.5 13t-34.5 30q18 8 35 15t33 13q18 4 35.5 8.5t34.5 4.5h16q29 0 53 -6q16 -4 35 -12.5t35 -22.5zM1208 395q-35 -23 -69.5 -34t-69.5 -21q-68 -14 -139 -18h-35q-53 0 -104 6 q-35 4 -70 12t-70 25q35 14 70 22t70 14q68 8 139 13q14 0 28.5 1t28.5 1q20 0 41 -1t41 -3q35 -2 69.5 -5.5t69.5 -11.5zM1440 610q-59 -16 -119.5 -22t-120.5 -10l-119 -5l-239 7q-29 2 -59.5 3t-59.5 5q-59 4 -119.5 8t-120.5 14q59 20 120 31.5t120 17.5q29 4 59.5 4.5 t59.5 4.5h121l118 -6q31 -4 60.5 -6.5t60.5 -6.5q59 -6 119 -15.5t119 -23.5zM1440 1470q-59 -16 -119.5 -22t-120.5 -10l-119 -4l-239 6q-29 2 -59.5 3t-59.5 5q-59 4 -119.5 8t-120.5 14q59 20 120 31.5t120 18.5q29 4 59.5 4t59.5 4h121l118 -6q31 -4 60.5 -6.5 t60.5 -6.5q59 -6 119 -15.5t119 -23.5zM1556 918q-80 -16 -159.5 -25.5t-159.5 -18.5l-160 -10l-159 -4l-162 4q-41 2 -80 4t-80 6t-80 9.5t-80 13.5q-41 6 -80 18q-20 6 -39.5 13.5t-40.5 19.5q20 -4 40 -5t40 -3h40t40 2l322 8l319 2q41 -2 80 -2t80 -4q80 -4 159.5 -9 t159.5 -19zM1855 1229q-111 -41 -223 -52.5t-225 -11.5l-449 9l-237 -5l-211 2q-57 4 -113.5 7.5t-111.5 13.5q-57 10 -113.5 26.5t-110.5 51.5q55 -23 111.5 -29t112.5 -10h41q92 0 184 6l223 14q29 4 56.5 5t56.5 4l145 4q104 0 208 -6.5t208 -16.5q78 -8 154.5 -13 t154.5 -5q67 0 139 6z" />
<glyph unicode="~" horiz-adv-x="4046" d="M61 784q121 10 241 15.5t243 13.5l483 16q123 4 242 6.5t241 6.5l484 4q82 0 161.5 1t161.5 1q162 0 323 -2t322 -6l484 -13q123 -6 242.5 -10t242.5 -12l-1935 -21h-1936z" />
<glyph unicode="&#xad;" horiz-adv-x="4505" d="M4442 31q0 -45 -5 -93.5t-26 -87.5l-28 13q23 45 26.5 104.5t3.5 104.5q-16 72 -46.5 91t-84.5 19q-10 0 -22 -1t-25 -1h-25.5t-27.5 -2l-96 -14q-49 -6 -101 -6q-51 0 -92 8q-47 8 -94 29.5t-82 62.5l-18 23q-29 27 -41 67q-18 -59 -52 -114.5t-78 -100.5t-98.5 -75.5 t-111.5 -43.5q-35 -6 -64 -6q-49 0 -90 15l-29 6q-27 8 -49 22.5t-43 32.5q-37 39 -62.5 84t-43.5 92l-10 33q-78 -53 -166 -76.5t-160 -28.5q-14 -2 -27.5 -3t-27.5 -1q-51 0 -101.5 11.5t-97.5 31.5q-51 23 -94 54q-23 -16 -46.5 -29.5t-47.5 -24.5q-45 -20 -96.5 -31.5 t-98.5 -11.5q-31 0 -57 6q-168 0 -330 103q-2 -14 -10 -33q-18 -47 -44 -92t-63 -84q-20 -18 -42.5 -32.5t-47.5 -22.5l-31 -6q-41 -14 -90 -15q-31 0 -63 6q-57 12 -110.5 43t-98.5 76t-78 100.5t-51 114.5q-8 -18 -17.5 -35.5t-23.5 -31.5q-2 -2 -4 -3.5t-4 -5.5l-13 -14 q-35 -41 -82 -62.5t-94 -29.5q-41 -8 -92 -8q-49 0 -98 6l-98 14q-14 2 -27.5 2h-26.5q-12 0 -23.5 1t-21.5 1q-53 0 -85 -20.5t-46 -93.5q0 -41 3 -100.5t26 -104.5l-27 -13q-25 47 -29 111t-4 111q18 92 62.5 116.5t103.5 24.5q10 0 21.5 -1t21.5 -1q18 0 39 -1t43 -1 l70 4q47 0 91 2t87 10t82 22.5t72 43.5q29 27 55 65q6 10 10 22.5t8 24.5q2 8 3 14.5t1 14.5q-2 10 -2 19.5v19.5l31 2q0 -10 1 -19.5t1 -17.5q6 -68 35 -132t74 -117.5t102 -91.5t119 -50q31 -6 61 -6q63 0 113 31q14 12 25.5 24t21.5 29q23 37 36 79t24 87q8 37 12 73 l-6 5q-82 55 -165 128.5t-150.5 158.5t-109.5 178.5t-42 185.5v19.5t2 19.5q6 70 63 94q10 4 21.5 7t21.5 7q47 20 94 21q47 0 91 -19q49 -20 89 -56t70 -77q61 -86 95 -180t51 -195q4 -29 7 -59.5t3 -60.5q0 -41 -6 -84q-4 -33 -10.5 -66t-16.5 -65q158 -102 324 -103 q43 0 84 6t82 23q33 16 60.5 36.5t53.5 43.5q-16 14 -29.5 28.5t-27.5 30.5q-45 51 -76 111q-16 29 -28.5 61.5t-22.5 65.5q-27 92 -27 194q0 18 1 37t4 37q10 135 56 258t120 233l37 52q-8 14 -16.5 25.5t-18.5 23.5q-18 25 -37 43q-37 41 -96 63q-16 6 -34 11.5t-36 9.5 h-8q-57 0 -105.5 -18.5t-83.5 -57.5q-51 -59 -51 -147q0 -72 37 -146l-27 -12q-23 41 -32 81t-9 79q0 94 60 163q76 88 207 89q59 0 131 -23l18 -8q18 -6 34.5 -14.5t33.5 -18.5l53 -43q16 -18 35 -35l33 35l53 43q35 20 67 33l19 8q72 23 131 23q131 0 207 -89 q61 -68 61 -163q0 -78 -41 -160l-28 12q37 74 36 146q0 88 -51 147q-35 39 -83 57.5t-105 18.5h-8q-18 -4 -36 -9.5t-34 -11.5q-55 -20 -94 -63q-18 -16 -39 -43l-35 -49l37 -52q74 -111 120 -233.5t56 -257.5q2 -18 3 -36.5t1 -37.5q0 -102 -26 -194q-10 -33 -22.5 -66 t-29.5 -61q-31 -59 -75 -111q-12 -16 -26.5 -30.5t-31.5 -28.5q27 -23 55.5 -43.5t59.5 -36.5q41 -16 82 -22.5t84 -6.5q166 0 323 103q-10 33 -16 65.5t-10 65.5q-6 39 -6 77q0 33 3 65t7 62q16 100 51 194.5t94 180.5q31 41 71 77t89 56q43 18 92 19q45 0 92 -21 q10 -4 21.5 -7t21.5 -7q55 -25 66 -94q2 -10 2 -19.5v-19.5q0 -94 -43 -187.5t-111.5 -178.5t-153.5 -159.5t-167 -130.5l12 -73q10 -45 24.5 -87t36.5 -79q14 -31 46 -53q51 -31 114 -31q29 0 60 6q61 12 118.5 50t102.5 91.5t74.5 118t35.5 131.5v17.5t2 19.5l31 -2 q0 -10 -1 -19.5t-1 -19.5q0 -18 2 -29q4 -12 9 -24t12 -23q23 -39 55 -65q31 -29 71 -43.5t80 -22.5q43 -8 88.5 -10t92.5 -2l69 -4q23 0 42.5 1t39.5 1q10 0 21.5 1t21.5 1q57 0 101.5 -24.5t62.5 -114.5v-43zM1044 1053q-2 -10 -2 -19.5v-19.5q0 -86 40 -173t104.5 -168 t144.5 -151.5t160 -124.5l6 70q2 12 2 24.5v24.5q0 31 -3 62.5t-7 64.5q-14 88 -39 175t-66 165q-14 27 -34 55q-16 20 -36 37t-40 31q-23 14 -54.5 22.5t-64.5 8.5q-37 0 -63 -13q-46 -22 -48 -71zM2253 1350q-6 -6 -8 -15q-55 -106 -91 -220t-47 -230q-2 -20 -3 -39 t-1 -39q0 -74 17 -152q12 -51 34 -108q12 -27 25.5 -52.5t30.5 -48.5q18 -31 43 -55q25 29 41 55q16 23 29.5 48.5t25.5 52.5q23 57 35 108q10 41 13 81t3 81v33.5t-2 34.5q-10 117 -46 230.5t-93 219.5zM3461 1053q-6 49 -49 71q-29 12 -64 13q-31 0 -62.5 -8.5 t-53.5 -22.5q-39 -25 -78 -68q-10 -12 -18.5 -25.5t-16.5 -29.5q-41 -78 -65.5 -165t-36.5 -175q-12 -68 -13 -131v-22.5t2 -22.5q2 -16 3.5 -34.5t5.5 -35.5q80 53 160.5 124t144 152t103.5 168t40 175v18.5t-2 18.5z" />
<glyph unicode="&#x2000;" horiz-adv-x="1213" />
<glyph unicode="&#x2001;" horiz-adv-x="2427" />
<glyph unicode="&#x2002;" horiz-adv-x="1213" />
<glyph unicode="&#x2003;" horiz-adv-x="2427" />
<glyph unicode="&#x2004;" horiz-adv-x="809" />
<glyph unicode="&#x2005;" horiz-adv-x="606" />
<glyph unicode="&#x2006;" horiz-adv-x="404" />
<glyph unicode="&#x2007;" horiz-adv-x="404" />
<glyph unicode="&#x2008;" horiz-adv-x="303" />
<glyph unicode="&#x2009;" horiz-adv-x="485" />
<glyph unicode="&#x200a;" horiz-adv-x="134" />
<glyph unicode="&#x2010;" horiz-adv-x="4505" d="M4442 31q0 -45 -5 -93.5t-26 -87.5l-28 13q23 45 26.5 104.5t3.5 104.5q-16 72 -46.5 91t-84.5 19q-10 0 -22 -1t-25 -1h-25.5t-27.5 -2l-96 -14q-49 -6 -101 -6q-51 0 -92 8q-47 8 -94 29.5t-82 62.5l-18 23q-29 27 -41 67q-18 -59 -52 -114.5t-78 -100.5t-98.5 -75.5 t-111.5 -43.5q-35 -6 -64 -6q-49 0 -90 15l-29 6q-27 8 -49 22.5t-43 32.5q-37 39 -62.5 84t-43.5 92l-10 33q-78 -53 -166 -76.5t-160 -28.5q-14 -2 -27.5 -3t-27.5 -1q-51 0 -101.5 11.5t-97.5 31.5q-51 23 -94 54q-23 -16 -46.5 -29.5t-47.5 -24.5q-45 -20 -96.5 -31.5 t-98.5 -11.5q-31 0 -57 6q-168 0 -330 103q-2 -14 -10 -33q-18 -47 -44 -92t-63 -84q-20 -18 -42.5 -32.5t-47.5 -22.5l-31 -6q-41 -14 -90 -15q-31 0 -63 6q-57 12 -110.5 43t-98.5 76t-78 100.5t-51 114.5q-8 -18 -17.5 -35.5t-23.5 -31.5q-2 -2 -4 -3.5t-4 -5.5l-13 -14 q-35 -41 -82 -62.5t-94 -29.5q-41 -8 -92 -8q-49 0 -98 6l-98 14q-14 2 -27.5 2h-26.5q-12 0 -23.5 1t-21.5 1q-53 0 -85 -20.5t-46 -93.5q0 -41 3 -100.5t26 -104.5l-27 -13q-25 47 -29 111t-4 111q18 92 62.5 116.5t103.5 24.5q10 0 21.5 -1t21.5 -1q18 0 39 -1t43 -1 l70 4q47 0 91 2t87 10t82 22.5t72 43.5q29 27 55 65q6 10 10 22.5t8 24.5q2 8 3 14.5t1 14.5q-2 10 -2 19.5v19.5l31 2q0 -10 1 -19.5t1 -17.5q6 -68 35 -132t74 -117.5t102 -91.5t119 -50q31 -6 61 -6q63 0 113 31q14 12 25.5 24t21.5 29q23 37 36 79t24 87q8 37 12 73 l-6 5q-82 55 -165 128.5t-150.5 158.5t-109.5 178.5t-42 185.5v19.5t2 19.5q6 70 63 94q10 4 21.5 7t21.5 7q47 20 94 21q47 0 91 -19q49 -20 89 -56t70 -77q61 -86 95 -180t51 -195q4 -29 7 -59.5t3 -60.5q0 -41 -6 -84q-4 -33 -10.5 -66t-16.5 -65q158 -102 324 -103 q43 0 84 6t82 23q33 16 60.5 36.5t53.5 43.5q-16 14 -29.5 28.5t-27.5 30.5q-45 51 -76 111q-16 29 -28.5 61.5t-22.5 65.5q-27 92 -27 194q0 18 1 37t4 37q10 135 56 258t120 233l37 52q-8 14 -16.5 25.5t-18.5 23.5q-18 25 -37 43q-37 41 -96 63q-16 6 -34 11.5t-36 9.5 h-8q-57 0 -105.5 -18.5t-83.5 -57.5q-51 -59 -51 -147q0 -72 37 -146l-27 -12q-23 41 -32 81t-9 79q0 94 60 163q76 88 207 89q59 0 131 -23l18 -8q18 -6 34.5 -14.5t33.5 -18.5l53 -43q16 -18 35 -35l33 35l53 43q35 20 67 33l19 8q72 23 131 23q131 0 207 -89 q61 -68 61 -163q0 -78 -41 -160l-28 12q37 74 36 146q0 88 -51 147q-35 39 -83 57.5t-105 18.5h-8q-18 -4 -36 -9.5t-34 -11.5q-55 -20 -94 -63q-18 -16 -39 -43l-35 -49l37 -52q74 -111 120 -233.5t56 -257.5q2 -18 3 -36.5t1 -37.5q0 -102 -26 -194q-10 -33 -22.5 -66 t-29.5 -61q-31 -59 -75 -111q-12 -16 -26.5 -30.5t-31.5 -28.5q27 -23 55.5 -43.5t59.5 -36.5q41 -16 82 -22.5t84 -6.5q166 0 323 103q-10 33 -16 65.5t-10 65.5q-6 39 -6 77q0 33 3 65t7 62q16 100 51 194.5t94 180.5q31 41 71 77t89 56q43 18 92 19q45 0 92 -21 q10 -4 21.5 -7t21.5 -7q55 -25 66 -94q2 -10 2 -19.5v-19.5q0 -94 -43 -187.5t-111.5 -178.5t-153.5 -159.5t-167 -130.5l12 -73q10 -45 24.5 -87t36.5 -79q14 -31 46 -53q51 -31 114 -31q29 0 60 6q61 12 118.5 50t102.5 91.5t74.5 118t35.5 131.5v17.5t2 19.5l31 -2 q0 -10 -1 -19.5t-1 -19.5q0 -18 2 -29q4 -12 9 -24t12 -23q23 -39 55 -65q31 -29 71 -43.5t80 -22.5q43 -8 88.5 -10t92.5 -2l69 -4q23 0 42.5 1t39.5 1q10 0 21.5 1t21.5 1q57 0 101.5 -24.5t62.5 -114.5v-43zM1044 1053q-2 -10 -2 -19.5v-19.5q0 -86 40 -173t104.5 -168 t144.5 -151.5t160 -124.5l6 70q2 12 2 24.5v24.5q0 31 -3 62.5t-7 64.5q-14 88 -39 175t-66 165q-14 27 -34 55q-16 20 -36 37t-40 31q-23 14 -54.5 22.5t-64.5 8.5q-37 0 -63 -13q-46 -22 -48 -71zM2253 1350q-6 -6 -8 -15q-55 -106 -91 -220t-47 -230q-2 -20 -3 -39 t-1 -39q0 -74 17 -152q12 -51 34 -108q12 -27 25.5 -52.5t30.5 -48.5q18 -31 43 -55q25 29 41 55q16 23 29.5 48.5t25.5 52.5q23 57 35 108q10 41 13 81t3 81v33.5t-2 34.5q-10 117 -46 230.5t-93 219.5zM3461 1053q-6 49 -49 71q-29 12 -64 13q-31 0 -62.5 -8.5 t-53.5 -22.5q-39 -25 -78 -68q-10 -12 -18.5 -25.5t-16.5 -29.5q-41 -78 -65.5 -165t-36.5 -175q-12 -68 -13 -131v-22.5t2 -22.5q2 -16 3.5 -34.5t5.5 -35.5q80 53 160.5 124t144 152t103.5 168t40 175v18.5t-2 18.5z" />
</font>
</defs>
</svg>
